G04 Layer_Physical_Order=2*
G04 Layer_Color=16711680*
%FSLAX25Y25*%
%MOIN*%
G70*
G01*
G75*
%ADD36C,0.20000*%
%ADD37C,0.01200*%
%ADD38C,0.04000*%
%ADD39C,0.02000*%
%ADD40C,0.01000*%
%ADD42C,0.03000*%
%ADD45C,0.02500*%
%ADD46C,0.01500*%
%ADD48R,0.05905X0.05905*%
%ADD49C,0.05905*%
%ADD50C,0.11811*%
%ADD51O,0.07874X0.05905*%
%ADD52C,0.06000*%
%ADD53C,0.03150*%
%ADD54C,0.02362*%
G36*
X221257Y340571D02*
Y336306D01*
X221251Y336298D01*
X220991Y335672D01*
X220969Y335500D01*
X223500D01*
Y334500D01*
X220969D01*
X220991Y334328D01*
X221251Y333701D01*
X221664Y333164D01*
X222201Y332751D01*
X222828Y332491D01*
X223500Y332403D01*
X223757Y332178D01*
Y306306D01*
X223751Y306298D01*
X223492Y305672D01*
X223469Y305500D01*
X228531D01*
X228508Y305672D01*
X228249Y306298D01*
X228243Y306306D01*
Y332500D01*
Y332757D01*
X251500D01*
X252358Y332928D01*
X253086Y333414D01*
X256500Y336828D01*
X258257Y335071D01*
Y316806D01*
X258251Y316798D01*
X257992Y316172D01*
X257907Y315530D01*
X257816Y315465D01*
X257424Y315306D01*
X255865Y316865D01*
X255468Y317130D01*
X255000Y317224D01*
X236418D01*
X236140Y317640D01*
X235388Y318143D01*
X234500Y318319D01*
X233612Y318143D01*
X232860Y317640D01*
X232357Y316888D01*
X232181Y316000D01*
X232357Y315112D01*
X232860Y314360D01*
X233612Y313857D01*
X234500Y313681D01*
X235388Y313857D01*
X236140Y314360D01*
X236418Y314776D01*
X254493D01*
X257546Y311723D01*
X257339Y311224D01*
X248675D01*
X248643Y311388D01*
X248140Y312140D01*
X247388Y312643D01*
X246500Y312819D01*
X245612Y312643D01*
X244860Y312140D01*
X244357Y311388D01*
X244218Y310689D01*
X243782Y310447D01*
X243697Y310436D01*
X243388Y310643D01*
X242500Y310819D01*
X241612Y310643D01*
X240860Y310140D01*
X240357Y309388D01*
X240181Y308500D01*
X240357Y307612D01*
X240860Y306860D01*
X241612Y306357D01*
X242500Y306181D01*
X243241Y306328D01*
X243500Y306276D01*
X257493D01*
X261561Y302209D01*
X261452Y301662D01*
X261423Y301639D01*
X261000Y301724D01*
X223507D01*
X218224Y307007D01*
Y337500D01*
X218130Y337968D01*
X217865Y338365D01*
X214865Y341365D01*
X214491Y341616D01*
X214140Y342140D01*
X213965Y342257D01*
X214117Y342757D01*
X219071D01*
X221257Y340571D01*
D02*
G37*
G36*
X621500Y188726D02*
X577470D01*
X577279Y189188D01*
X587045Y198955D01*
X587366Y199434D01*
X587478Y200000D01*
Y206252D01*
X587640Y206360D01*
X588143Y207112D01*
X588319Y208000D01*
X588143Y208888D01*
X587640Y209640D01*
X586888Y210143D01*
X586000Y210319D01*
X585112Y210143D01*
X584360Y209640D01*
X583857Y208888D01*
X583681Y208000D01*
X583857Y207112D01*
X584360Y206360D01*
X584522Y206252D01*
Y200612D01*
X574888Y190978D01*
X343500D01*
Y197649D01*
X347926Y202074D01*
X348358Y202638D01*
X348407Y202756D01*
X348933Y202964D01*
X349691Y202317D01*
X351127Y201437D01*
X352683Y200792D01*
X354321Y200399D01*
X356000Y200267D01*
X357679Y200399D01*
X359317Y200792D01*
X360873Y201437D01*
X362309Y202317D01*
X363589Y203411D01*
X364683Y204691D01*
X365563Y206127D01*
X366208Y207683D01*
X366601Y209321D01*
X366733Y211000D01*
Y224000D01*
Y267594D01*
X364591D01*
Y268594D01*
X366733D01*
Y272712D01*
X364591D01*
Y273712D01*
X366733D01*
Y277830D01*
X364591D01*
Y278830D01*
X366733D01*
Y282948D01*
X364591D01*
Y283948D01*
X366733D01*
Y288066D01*
X364591D01*
Y289066D01*
X366733D01*
Y293184D01*
X364591D01*
Y294184D01*
X366733D01*
Y298302D01*
X364591D01*
Y299302D01*
X366733D01*
Y303420D01*
X364591D01*
Y304420D01*
X366733D01*
Y308539D01*
X364591D01*
Y309539D01*
X366733D01*
Y313657D01*
X364591D01*
Y314657D01*
X366733D01*
Y318775D01*
X364591D01*
Y319775D01*
X366733D01*
Y327767D01*
X385782D01*
X393767Y319782D01*
Y315000D01*
X393899Y314337D01*
X394274Y313774D01*
X397549Y310500D01*
X400000D01*
Y312951D01*
X397233Y315718D01*
Y320500D01*
X397101Y321163D01*
X396726Y321726D01*
X387726Y330726D01*
X387163Y331101D01*
X386500Y331233D01*
X366733D01*
Y335000D01*
Y360443D01*
X367149Y360721D01*
X368183Y360292D01*
X369821Y359899D01*
X371500Y359767D01*
X373179Y359899D01*
X374817Y360292D01*
X376373Y360937D01*
X377809Y361817D01*
X379089Y362911D01*
X380183Y364191D01*
X381063Y365627D01*
X381708Y367183D01*
X382101Y368821D01*
X382233Y370500D01*
Y374267D01*
X464869D01*
X466225Y372911D01*
X467506Y371817D01*
X468942Y370937D01*
X470498Y370292D01*
X472136Y369899D01*
X473815Y369767D01*
X475494Y369899D01*
X477132Y370292D01*
X478688Y370937D01*
X480124Y371817D01*
X481404Y372911D01*
X482498Y374191D01*
X483378Y375627D01*
X484023Y377183D01*
X484416Y378821D01*
X484548Y380500D01*
X484416Y382179D01*
X484023Y383817D01*
X483378Y385373D01*
X482498Y386809D01*
X481404Y388089D01*
X476904Y392589D01*
X475624Y393683D01*
X474188Y394563D01*
X472632Y395208D01*
X470994Y395601D01*
X469315Y395733D01*
X356000D01*
X354321Y395601D01*
X352812Y395239D01*
X352799Y395249D01*
X352172Y395509D01*
X352000Y395531D01*
Y393000D01*
X351000D01*
Y395531D01*
X350828Y395509D01*
X350202Y395249D01*
X349664Y394836D01*
X349486Y394605D01*
X349299Y394749D01*
X348672Y395008D01*
X348500Y395031D01*
Y392500D01*
X348000D01*
Y392000D01*
X345307D01*
X344702Y391749D01*
X344164Y391336D01*
X344000Y391123D01*
X343500Y391293D01*
Y398500D01*
X621500D01*
Y188726D01*
D02*
G37*
G36*
X332000Y362793D02*
X331500Y362623D01*
X331336Y362836D01*
X330799Y363249D01*
X330172Y363509D01*
X330000Y363531D01*
Y361000D01*
Y358469D01*
X330172Y358491D01*
X330799Y358751D01*
X331336Y359164D01*
X331500Y359377D01*
X332000Y359207D01*
Y321105D01*
X331538Y320913D01*
X328733Y323718D01*
Y348000D01*
X328601Y348663D01*
X328226Y349226D01*
X296226Y381226D01*
X295663Y381601D01*
X295000Y381733D01*
X288500D01*
X287888Y382143D01*
X287000Y382319D01*
X286112Y382143D01*
X285360Y381640D01*
X284857Y380888D01*
X284681Y380000D01*
X284857Y379112D01*
X285360Y378360D01*
X286112Y377857D01*
X287000Y377681D01*
X287888Y377857D01*
X288500Y378267D01*
X294282D01*
X325267Y347282D01*
Y345866D01*
X324767Y345714D01*
X324545Y346045D01*
X317045Y353545D01*
X316566Y353866D01*
X316000Y353978D01*
X264743D01*
Y372071D01*
X277929Y385257D01*
X303513D01*
X327023Y361747D01*
X326992Y361672D01*
X326969Y361500D01*
X329000D01*
Y363531D01*
X328828Y363509D01*
X328753Y363477D01*
X307435Y384795D01*
X307627Y385257D01*
X332000D01*
Y362793D01*
D02*
G37*
G36*
X181951Y244986D02*
Y233682D01*
X173470Y225201D01*
X173449Y225207D01*
X173026Y225464D01*
X173031Y225500D01*
X171000D01*
Y223469D01*
X171036Y223474D01*
X171293Y223051D01*
X171299Y223029D01*
X170635Y222365D01*
X170370Y221968D01*
X170276Y221500D01*
Y197734D01*
X169776Y197635D01*
X169691Y197842D01*
X169105Y198605D01*
X168488Y199079D01*
Y223668D01*
X168988Y223915D01*
X169202Y223751D01*
X169828Y223492D01*
X170000Y223469D01*
Y226000D01*
Y228531D01*
X169828Y228508D01*
X169202Y228249D01*
X168988Y228085D01*
X168488Y228332D01*
Y232176D01*
X181489Y245178D01*
X181951Y244986D01*
D02*
G37*
G36*
X203757Y339820D02*
Y330500D01*
X203928Y329642D01*
X204414Y328914D01*
X208507Y324821D01*
Y309194D01*
X208007Y308870D01*
X207672Y309009D01*
X207500Y309031D01*
Y306500D01*
X206500D01*
Y309031D01*
X206328Y309009D01*
X205701Y308749D01*
X205164Y308336D01*
X204751Y307799D01*
X204572Y307366D01*
X204029Y307201D01*
X203217Y308013D01*
X203143Y308388D01*
X202640Y309140D01*
X201888Y309643D01*
X201000Y309819D01*
X200112Y309643D01*
X199360Y309140D01*
X199223Y308936D01*
X198723Y309087D01*
Y318493D01*
X201009Y320778D01*
X201500Y320681D01*
X202388Y320857D01*
X203140Y321360D01*
X203643Y322112D01*
X203819Y323000D01*
X203643Y323888D01*
X203140Y324640D01*
X202388Y325143D01*
X201500Y325319D01*
X200612Y325143D01*
X199860Y324640D01*
X199357Y323888D01*
X199181Y323000D01*
X199278Y322509D01*
X197185Y320416D01*
X196723Y320607D01*
Y333493D01*
X203276Y340045D01*
X203757Y339820D01*
D02*
G37*
G36*
X176041Y266764D02*
Y259493D01*
X174000Y257451D01*
Y255000D01*
X176451D01*
X178275Y256823D01*
X178737Y256632D01*
Y248048D01*
X165094Y234406D01*
X164663Y233761D01*
X164512Y233000D01*
Y199079D01*
X163895Y198605D01*
X163309Y197842D01*
X163224Y197635D01*
X162724Y197734D01*
Y255493D01*
X174009Y266778D01*
X174500Y266681D01*
X175388Y266857D01*
X175601Y267000D01*
X176041Y266764D01*
D02*
G37*
G36*
X188612Y276357D02*
X189335Y276213D01*
X194767Y270782D01*
Y255000D01*
X194357Y254388D01*
X194181Y253500D01*
X194357Y252612D01*
X194860Y251860D01*
X195612Y251357D01*
X196500Y251181D01*
X197388Y251357D01*
X198140Y251860D01*
X198643Y252612D01*
X198819Y253500D01*
X198643Y254388D01*
X198233Y255000D01*
Y269767D01*
X220383D01*
X220574Y269305D01*
X195635Y244365D01*
X195370Y243968D01*
X195276Y243500D01*
Y235418D01*
X194860Y235140D01*
X194357Y234388D01*
X194181Y233500D01*
X194357Y232612D01*
X194860Y231860D01*
X195612Y231357D01*
X196500Y231181D01*
X197388Y231357D01*
X198140Y231860D01*
X198643Y232612D01*
X198819Y233500D01*
X198643Y234388D01*
X198140Y235140D01*
X197723Y235418D01*
Y242993D01*
X201777Y247046D01*
X202276Y246839D01*
Y232418D01*
X201860Y232140D01*
X201357Y231388D01*
X201181Y230500D01*
X201357Y229612D01*
X201860Y228860D01*
X202612Y228357D01*
X203500Y228181D01*
X204388Y228357D01*
X205140Y228860D01*
X205643Y229612D01*
X205819Y230500D01*
X205643Y231388D01*
X205140Y232140D01*
X204724Y232418D01*
Y246993D01*
X213776Y256046D01*
X214277Y255839D01*
Y230918D01*
X213860Y230640D01*
X213357Y229888D01*
X213181Y229000D01*
X213357Y228112D01*
X213860Y227360D01*
X214612Y226857D01*
X215500Y226681D01*
X216388Y226857D01*
X217140Y227360D01*
X217643Y228112D01*
X217819Y229000D01*
X217643Y229888D01*
X217140Y230640D01*
X216723Y230918D01*
Y255993D01*
X233814Y273084D01*
X234292Y272938D01*
X234357Y272612D01*
X234860Y271860D01*
X235612Y271357D01*
X236500Y271181D01*
X236991Y271278D01*
X237135Y271135D01*
X237532Y270870D01*
X238000Y270777D01*
X247500D01*
X247968Y270870D01*
X248365Y271135D01*
X250534Y273303D01*
X250922Y272985D01*
X250857Y272888D01*
X250681Y272000D01*
X250857Y271112D01*
X251360Y270360D01*
X252112Y269857D01*
X253000Y269681D01*
X253888Y269857D01*
X254640Y270360D01*
X254918Y270777D01*
X306493D01*
X310635Y266635D01*
X311032Y266370D01*
X311500Y266277D01*
X331082D01*
X331360Y265860D01*
X332000Y265432D01*
Y264623D01*
X331500Y264220D01*
X331000Y264319D01*
X330112Y264143D01*
X329360Y263640D01*
X328857Y262888D01*
X328681Y262000D01*
X328857Y261112D01*
X329360Y260360D01*
X330112Y259857D01*
X331000Y259681D01*
X331500Y259780D01*
X332000Y259377D01*
Y199723D01*
X270128D01*
X261933Y207918D01*
X262306Y209146D01*
X262390Y210000D01*
X256000D01*
Y203610D01*
X256854Y203694D01*
X258082Y204067D01*
X267074Y195074D01*
X267638Y194642D01*
X268295Y194369D01*
X269000Y194277D01*
X332000D01*
Y190978D01*
X239112D01*
X221478Y208612D01*
Y235752D01*
X221640Y235860D01*
X222143Y236612D01*
X222319Y237500D01*
X222143Y238388D01*
X221640Y239140D01*
X220888Y239643D01*
X220000Y239819D01*
X219112Y239643D01*
X218360Y239140D01*
X217857Y238388D01*
X217681Y237500D01*
X217857Y236612D01*
X218360Y235860D01*
X218522Y235752D01*
Y208000D01*
X218634Y207434D01*
X218955Y206955D01*
X236447Y189462D01*
X236256Y189000D01*
X160000D01*
Y192685D01*
X160500Y192837D01*
X160635Y192635D01*
X163135Y190135D01*
X163532Y189870D01*
X164000Y189777D01*
X169500D01*
X169968Y189870D01*
X170365Y190135D01*
X172365Y192135D01*
X172630Y192532D01*
X172723Y193000D01*
Y194266D01*
X173223Y194365D01*
X173309Y194158D01*
X173895Y193395D01*
X174658Y192809D01*
X175546Y192441D01*
X176500Y192316D01*
X177454Y192441D01*
X178342Y192809D01*
X179105Y193395D01*
X179691Y194158D01*
X180059Y195046D01*
X180184Y196000D01*
X180059Y196954D01*
X179691Y197842D01*
X179105Y198605D01*
X178342Y199191D01*
X177454Y199559D01*
X176500Y199684D01*
X175546Y199559D01*
X174658Y199191D01*
X173895Y198605D01*
X173309Y197842D01*
X173223Y197635D01*
X172723Y197734D01*
Y220993D01*
X183170Y231439D01*
X183632Y231248D01*
Y226625D01*
X183802Y225767D01*
X184289Y225039D01*
X212547Y196781D01*
Y196500D01*
X216000D01*
Y199953D01*
X215720D01*
X188118Y227554D01*
Y273712D01*
X187947Y274570D01*
X187743Y274875D01*
Y276337D01*
X188243Y276604D01*
X188612Y276357D01*
D02*
G37*
G36*
X265217Y345818D02*
X265357Y345112D01*
X265860Y344360D01*
X266277Y344082D01*
Y332000D01*
X266370Y331532D01*
X266635Y331135D01*
X270278Y327491D01*
X270181Y327000D01*
X270357Y326112D01*
X270860Y325360D01*
X271612Y324857D01*
X272500Y324681D01*
X273388Y324857D01*
X273417Y324877D01*
X273777Y324516D01*
X273357Y323888D01*
X273181Y323000D01*
X273357Y322112D01*
X273860Y321360D01*
X274064Y321223D01*
X273913Y320724D01*
X271500D01*
X271032Y320630D01*
X270635Y320365D01*
X264991Y314722D01*
X264500Y314819D01*
X263612Y314643D01*
X263420Y314514D01*
X263042Y314802D01*
X263010Y314842D01*
X263031Y315000D01*
X260500D01*
Y316000D01*
X263031D01*
X263008Y316172D01*
X262749Y316798D01*
X262743Y316806D01*
Y336000D01*
X262572Y336858D01*
X262086Y337586D01*
X259672Y340000D01*
X264086Y344414D01*
X264572Y345142D01*
X264707Y345818D01*
X265217D01*
D02*
G37*
G36*
X317278Y342991D02*
X317181Y342500D01*
X317357Y341612D01*
X317860Y340860D01*
X318612Y340357D01*
X319500Y340181D01*
X320388Y340357D01*
X321140Y340860D01*
X321522Y341431D01*
X322022Y341279D01*
Y334612D01*
X306940Y319531D01*
X306478Y319723D01*
Y325889D01*
X306836Y326164D01*
X307249Y326701D01*
X307508Y327328D01*
X307531Y327500D01*
X302469D01*
X302491Y327328D01*
X302751Y326701D01*
X303164Y326164D01*
X303522Y325889D01*
Y315500D01*
Y310651D01*
X303251Y310298D01*
X302992Y309672D01*
X302969Y309500D01*
X308031D01*
X308009Y309672D01*
X307749Y310298D01*
X307336Y310836D01*
X306799Y311249D01*
X306478Y311382D01*
Y314888D01*
X324545Y332955D01*
X324767Y333286D01*
X325267Y333134D01*
Y323000D01*
X325399Y322337D01*
X325774Y321774D01*
X332000Y315549D01*
Y289358D01*
X331538Y289167D01*
X323840Y296865D01*
X323443Y297130D01*
X322974Y297223D01*
X306703D01*
X306512Y297685D01*
X312603Y303777D01*
X320582D01*
X320860Y303360D01*
X321612Y302857D01*
X322500Y302681D01*
X323388Y302857D01*
X324140Y303360D01*
X324643Y304112D01*
X324819Y305000D01*
X324643Y305888D01*
X324140Y306640D01*
X323388Y307143D01*
X322500Y307319D01*
X321612Y307143D01*
X320860Y306640D01*
X320582Y306224D01*
X312096D01*
X311628Y306130D01*
X311231Y305865D01*
X296089Y290723D01*
X295418D01*
X295140Y291140D01*
X294388Y291643D01*
X293500Y291819D01*
X292612Y291643D01*
X291860Y291140D01*
X291357Y290388D01*
X291181Y289500D01*
X291357Y288612D01*
X291617Y288224D01*
X291350Y287723D01*
X287765D01*
X287716Y288224D01*
X288388Y288357D01*
X289140Y288860D01*
X289643Y289612D01*
X289819Y290500D01*
X289722Y290991D01*
X298565Y299835D01*
X298830Y300232D01*
X298923Y300700D01*
Y326193D01*
X302424Y329693D01*
X302800Y329363D01*
X302751Y329298D01*
X302491Y328672D01*
X302469Y328500D01*
X304500D01*
Y330531D01*
X304328Y330508D01*
X303701Y330249D01*
X303637Y330200D01*
X303307Y330576D01*
X309009Y336278D01*
X309500Y336181D01*
X310388Y336357D01*
X311140Y336860D01*
X311643Y337612D01*
X311819Y338500D01*
X311643Y339388D01*
X311140Y340140D01*
X310388Y340643D01*
X309716Y340776D01*
X309765Y341277D01*
X311582D01*
X311860Y340860D01*
X312612Y340357D01*
X313500Y340181D01*
X314388Y340357D01*
X315140Y340860D01*
X315643Y341612D01*
X315819Y342500D01*
X315643Y343388D01*
X315494Y343610D01*
X315730Y344051D01*
X316218D01*
X317278Y342991D01*
D02*
G37*
G36*
X322022Y344388D02*
Y343721D01*
X321522Y343569D01*
X321140Y344140D01*
X320388Y344643D01*
X319500Y344819D01*
X319009Y344722D01*
X317590Y346140D01*
X317193Y346405D01*
X316725Y346498D01*
X312351D01*
X311882Y346405D01*
X311611Y346223D01*
X307500D01*
X307032Y346130D01*
X306635Y345865D01*
X292635Y331865D01*
X292370Y331468D01*
X292277Y331000D01*
Y314507D01*
X287991Y310222D01*
X287500Y310319D01*
X286612Y310143D01*
X285860Y309640D01*
X285357Y308888D01*
X285181Y308000D01*
X285357Y307112D01*
X285860Y306360D01*
X286612Y305857D01*
X287500Y305681D01*
X288388Y305857D01*
X289140Y306360D01*
X289643Y307112D01*
X289819Y308000D01*
X289722Y308491D01*
X294276Y313046D01*
X294622Y312960D01*
X294777Y312854D01*
Y310007D01*
X284491Y299722D01*
X284000Y299819D01*
X283112Y299643D01*
X282360Y299140D01*
X281857Y298388D01*
X281681Y297500D01*
X281857Y296612D01*
X282360Y295860D01*
X283112Y295357D01*
X284000Y295181D01*
X284888Y295357D01*
X285640Y295860D01*
X286143Y296612D01*
X286319Y297500D01*
X286222Y297991D01*
X296015Y307784D01*
X296477Y307593D01*
Y301207D01*
X287991Y292722D01*
X287500Y292819D01*
X286612Y292643D01*
X285860Y292140D01*
X285357Y291388D01*
X285181Y290500D01*
X285357Y289612D01*
X285860Y288860D01*
X286612Y288357D01*
X287284Y288224D01*
X287235Y287723D01*
X285007D01*
X260306Y312424D01*
X260465Y312816D01*
X260530Y312907D01*
X261172Y312991D01*
X261799Y313251D01*
X261824Y313271D01*
X262278Y312988D01*
X262181Y312500D01*
X262357Y311612D01*
X262860Y310860D01*
X263612Y310357D01*
X264500Y310181D01*
X265388Y310357D01*
X266140Y310860D01*
X266643Y311612D01*
X266819Y312500D01*
X266722Y312991D01*
X272007Y318277D01*
X277000D01*
X277468Y318370D01*
X277865Y318635D01*
X283365Y324135D01*
X283630Y324532D01*
X283723Y325000D01*
Y342582D01*
X284140Y342860D01*
X284643Y343612D01*
X284819Y344500D01*
X284643Y345388D01*
X284140Y346140D01*
X283388Y346643D01*
X282500Y346819D01*
X281612Y346643D01*
X280860Y346140D01*
X280357Y345388D01*
X280181Y344500D01*
X280357Y343612D01*
X280860Y342860D01*
X281276Y342582D01*
Y325507D01*
X278220Y322450D01*
X277759Y322696D01*
X277819Y323000D01*
X277643Y323888D01*
X277140Y324640D01*
X276724Y324918D01*
Y340485D01*
X277143Y341112D01*
X277319Y342000D01*
X277143Y342888D01*
X276640Y343640D01*
X275888Y344143D01*
X275000Y344319D01*
X274112Y344143D01*
X273360Y343640D01*
X272857Y342888D01*
X272681Y342000D01*
X272857Y341112D01*
X273360Y340360D01*
X274112Y339857D01*
X274276Y339825D01*
Y329150D01*
X273777Y328883D01*
X273388Y329143D01*
X272500Y329319D01*
X272009Y329222D01*
X268724Y332507D01*
Y344082D01*
X269140Y344360D01*
X269643Y345112D01*
X269819Y346000D01*
X269643Y346888D01*
X269140Y347640D01*
X268388Y348143D01*
X267500Y348319D01*
X266612Y348143D01*
X265860Y347640D01*
X265357Y346888D01*
X265243Y346314D01*
X264743Y346363D01*
Y351022D01*
X315388D01*
X322022Y344388D01*
D02*
G37*
G36*
X271123Y384795D02*
X260914Y374586D01*
X260428Y373858D01*
X260257Y373000D01*
Y353000D01*
Y346929D01*
X254914Y341586D01*
X250571Y337243D01*
X225743D01*
Y341500D01*
X225572Y342358D01*
X225086Y343086D01*
X221696Y346477D01*
X221851Y346976D01*
X253285D01*
X253357Y346612D01*
X253860Y345860D01*
X254612Y345357D01*
X255500Y345181D01*
X256388Y345357D01*
X257140Y345860D01*
X257643Y346612D01*
X257819Y347500D01*
X257643Y348388D01*
X257140Y349140D01*
X256388Y349643D01*
X255500Y349819D01*
X254612Y349643D01*
X254284Y349424D01*
X209700D01*
X209232Y349330D01*
X208835Y349065D01*
X194635Y334865D01*
X194370Y334468D01*
X194276Y334000D01*
Y296507D01*
X185693Y287924D01*
X184382D01*
X183913Y287830D01*
X183517Y287565D01*
X182800Y286849D01*
X182338Y287040D01*
Y293026D01*
X190406Y301094D01*
X190837Y301739D01*
X190988Y302500D01*
Y310847D01*
X192653D01*
Y318153D01*
X190988D01*
Y325347D01*
X192653D01*
Y332653D01*
X190988D01*
Y334677D01*
X193906Y337594D01*
X194337Y338239D01*
X194488Y339000D01*
Y376677D01*
X195659Y377847D01*
X200153D01*
Y385153D01*
X200610Y385257D01*
X270931D01*
X271123Y384795D01*
D02*
G37*
G36*
X332000Y389743D02*
X172500D01*
X171642Y389572D01*
X170914Y389086D01*
X167220Y385392D01*
X167000Y385421D01*
Y382000D01*
X170421D01*
X170392Y382220D01*
X173429Y385257D01*
X174718D01*
X174818Y384757D01*
X174658Y384691D01*
X173895Y384105D01*
X173309Y383342D01*
X172941Y382454D01*
X172816Y381500D01*
X172941Y380546D01*
X173309Y379658D01*
X173895Y378895D01*
X174658Y378309D01*
X175546Y377941D01*
X176500Y377816D01*
X177454Y377941D01*
X178342Y378309D01*
X179105Y378895D01*
X179691Y379658D01*
X180059Y380546D01*
X180184Y381500D01*
X180059Y382454D01*
X179691Y383342D01*
X179105Y384105D01*
X178342Y384691D01*
X178182Y384757D01*
X178282Y385257D01*
X184718D01*
X184818Y384757D01*
X184658Y384691D01*
X183895Y384105D01*
X183309Y383342D01*
X182941Y382454D01*
X182816Y381500D01*
X182941Y380546D01*
X183309Y379658D01*
X183895Y378895D01*
X184658Y378309D01*
X185546Y377941D01*
X186500Y377816D01*
X187454Y377941D01*
X188342Y378309D01*
X189105Y378895D01*
X189691Y379658D01*
X190059Y380546D01*
X190184Y381500D01*
X190059Y382454D01*
X189691Y383342D01*
X189105Y384105D01*
X188342Y384691D01*
X188182Y384757D01*
X188282Y385257D01*
X192390D01*
X192847Y385153D01*
Y380659D01*
X191094Y378906D01*
X190663Y378261D01*
X190512Y377500D01*
Y339824D01*
X187594Y336906D01*
X187163Y336261D01*
X187012Y335500D01*
Y332653D01*
X185347D01*
Y325347D01*
X187012D01*
Y318153D01*
X185347D01*
Y310847D01*
X187012D01*
Y303324D01*
X178944Y295256D01*
X178513Y294611D01*
X178362Y293850D01*
Y272874D01*
X177900Y272683D01*
X170733Y279849D01*
Y310940D01*
X170993Y311047D01*
X171819Y311681D01*
X172453Y312507D01*
X172851Y313468D01*
X172921Y314000D01*
X169000D01*
X165079D01*
X165149Y313468D01*
X165547Y312507D01*
X166181Y311681D01*
X167007Y311047D01*
X167267Y310940D01*
Y279131D01*
X167399Y278468D01*
X167774Y277906D01*
X174009Y271671D01*
X173864Y271193D01*
X173612Y271143D01*
X172860Y270640D01*
X172357Y269888D01*
X172181Y269000D01*
X172278Y268509D01*
X160635Y256865D01*
X160500Y256663D01*
X160000Y256815D01*
Y398500D01*
X332000D01*
Y389743D01*
D02*
G37*
%LPC*%
G36*
X225500Y304500D02*
X223469D01*
X223492Y304328D01*
X223751Y303701D01*
X224164Y303164D01*
X224701Y302751D01*
X225328Y302491D01*
X225500Y302469D01*
Y304500D01*
D02*
G37*
G36*
X228531D02*
X226500D01*
Y302469D01*
X226672Y302491D01*
X227298Y302751D01*
X227836Y303164D01*
X228249Y303701D01*
X228508Y304328D01*
X228531Y304500D01*
D02*
G37*
G36*
X502500Y252531D02*
Y250500D01*
X504531D01*
X504508Y250672D01*
X504249Y251298D01*
X503836Y251836D01*
X503299Y252249D01*
X502672Y252508D01*
X502500Y252531D01*
D02*
G37*
G36*
X406500Y277819D02*
X405612Y277643D01*
X404860Y277140D01*
X404357Y276388D01*
X404181Y275500D01*
X404357Y274612D01*
X404860Y273860D01*
X405612Y273357D01*
X406500Y273181D01*
X406871Y273254D01*
X419563Y260563D01*
X419993Y260275D01*
X420500Y260174D01*
X464951D01*
X474254Y250871D01*
X474181Y250500D01*
X474357Y249612D01*
X474860Y248860D01*
X475612Y248357D01*
X476500Y248181D01*
X477388Y248357D01*
X478140Y248860D01*
X478643Y249612D01*
X478819Y250500D01*
X478643Y251388D01*
X478140Y252140D01*
X477388Y252643D01*
X476500Y252819D01*
X476129Y252746D01*
X466437Y262437D01*
X466007Y262725D01*
X465500Y262825D01*
X421049D01*
X408746Y275129D01*
X408819Y275500D01*
X408643Y276388D01*
X408140Y277140D01*
X407388Y277643D01*
X406500Y277819D01*
D02*
G37*
G36*
X504531Y249500D02*
X502500D01*
Y247469D01*
X502672Y247492D01*
X503299Y247751D01*
X503836Y248164D01*
X504249Y248702D01*
X504508Y249328D01*
X504531Y249500D01*
D02*
G37*
G36*
X501500Y252531D02*
X501328Y252508D01*
X500702Y252249D01*
X500164Y251836D01*
X499751Y251298D01*
X499492Y250672D01*
X499469Y250500D01*
X501500D01*
Y252531D01*
D02*
G37*
G36*
Y249500D02*
X499469D01*
X499492Y249328D01*
X499751Y248702D01*
X500164Y248164D01*
X500702Y247751D01*
X501328Y247492D01*
X501500Y247469D01*
Y249500D01*
D02*
G37*
G36*
X524500Y241531D02*
X524328Y241509D01*
X523701Y241249D01*
X523164Y240836D01*
X522751Y240299D01*
X522492Y239672D01*
X522469Y239500D01*
X524500D01*
Y241531D01*
D02*
G37*
G36*
X525500D02*
Y239500D01*
X527531D01*
X527508Y239672D01*
X527249Y240299D01*
X526836Y240836D01*
X526299Y241249D01*
X525672Y241509D01*
X525500Y241531D01*
D02*
G37*
G36*
X583000Y239000D02*
X580969D01*
X580992Y238828D01*
X581251Y238201D01*
X581664Y237664D01*
X582201Y237251D01*
X582828Y236992D01*
X583000Y236969D01*
Y239000D01*
D02*
G37*
G36*
X586031D02*
X584000D01*
Y236969D01*
X584172Y236992D01*
X584798Y237251D01*
X585336Y237664D01*
X585749Y238201D01*
X586009Y238828D01*
X586031Y239000D01*
D02*
G37*
G36*
X596000Y256638D02*
X594705Y256510D01*
X593460Y256132D01*
X592312Y255519D01*
X591307Y254693D01*
X590481Y253688D01*
X589868Y252540D01*
X589490Y251295D01*
X589362Y250000D01*
X589490Y248705D01*
X589868Y247460D01*
X590481Y246312D01*
X591307Y245307D01*
X592312Y244481D01*
X593460Y243868D01*
X594705Y243490D01*
X596000Y243362D01*
X597295Y243490D01*
X598540Y243868D01*
X599688Y244481D01*
X600693Y245307D01*
X601519Y246312D01*
X602132Y247460D01*
X602510Y248705D01*
X602637Y250000D01*
X602510Y251295D01*
X602132Y252540D01*
X601519Y253688D01*
X600693Y254693D01*
X599688Y255519D01*
X598540Y256132D01*
X597295Y256510D01*
X596000Y256638D01*
D02*
G37*
G36*
X583000Y242031D02*
X582828Y242008D01*
X582201Y241749D01*
X581664Y241336D01*
X581251Y240798D01*
X580992Y240172D01*
X580969Y240000D01*
X583000D01*
Y242031D01*
D02*
G37*
G36*
X584000D02*
Y240000D01*
X586031D01*
X586009Y240172D01*
X585749Y240798D01*
X585336Y241336D01*
X584798Y241749D01*
X584172Y242008D01*
X584000Y242031D01*
D02*
G37*
G36*
X441000Y288031D02*
X440828Y288008D01*
X440202Y287749D01*
X439664Y287336D01*
X439251Y286799D01*
X438991Y286172D01*
X438969Y286000D01*
X441000D01*
Y288031D01*
D02*
G37*
G36*
X442000D02*
Y286000D01*
X444031D01*
X444008Y286172D01*
X443749Y286799D01*
X443336Y287336D01*
X442799Y287749D01*
X442172Y288008D01*
X442000Y288031D01*
D02*
G37*
G36*
X523500Y292000D02*
X521469D01*
X521491Y291828D01*
X521751Y291201D01*
X522164Y290664D01*
X522702Y290251D01*
X523328Y289991D01*
X523500Y289969D01*
Y292000D01*
D02*
G37*
G36*
X524500Y282031D02*
Y280000D01*
X526531D01*
X526509Y280172D01*
X526249Y280799D01*
X525836Y281336D01*
X525299Y281749D01*
X524672Y282009D01*
X524500Y282031D01*
D02*
G37*
G36*
X441000Y285000D02*
X438969D01*
X438991Y284828D01*
X439251Y284202D01*
X439664Y283664D01*
X440202Y283251D01*
X440828Y282992D01*
X441000Y282969D01*
Y285000D01*
D02*
G37*
G36*
X444031D02*
X442000D01*
Y282969D01*
X442172Y282992D01*
X442799Y283251D01*
X443336Y283664D01*
X443749Y284202D01*
X444008Y284828D01*
X444031Y285000D01*
D02*
G37*
G36*
X523500Y295031D02*
X523328Y295008D01*
X522702Y294749D01*
X522164Y294336D01*
X521751Y293798D01*
X521491Y293172D01*
X521469Y293000D01*
X523500D01*
Y295031D01*
D02*
G37*
G36*
X524500D02*
Y293000D01*
X526531D01*
X526509Y293172D01*
X526249Y293798D01*
X525836Y294336D01*
X525299Y294749D01*
X524672Y295008D01*
X524500Y295031D01*
D02*
G37*
G36*
X582500Y295531D02*
X582328Y295509D01*
X581702Y295249D01*
X581164Y294836D01*
X580751Y294299D01*
X580491Y293672D01*
X580469Y293500D01*
X582500D01*
Y295531D01*
D02*
G37*
G36*
X526531Y292000D02*
X524500D01*
Y289969D01*
X524672Y289991D01*
X525299Y290251D01*
X525836Y290664D01*
X526249Y291201D01*
X526509Y291828D01*
X526531Y292000D01*
D02*
G37*
G36*
X582500Y292500D02*
X580469D01*
X580491Y292328D01*
X580751Y291702D01*
X581164Y291164D01*
X581702Y290751D01*
X582328Y290492D01*
X582500Y290469D01*
Y292500D01*
D02*
G37*
G36*
X585531D02*
X583500D01*
Y290469D01*
X583672Y290492D01*
X584299Y290751D01*
X584836Y291164D01*
X585249Y291702D01*
X585508Y292328D01*
X585531Y292500D01*
D02*
G37*
G36*
X523500Y282031D02*
X523328Y282009D01*
X522702Y281749D01*
X522164Y281336D01*
X521751Y280799D01*
X521491Y280172D01*
X521469Y280000D01*
X523500D01*
Y282031D01*
D02*
G37*
G36*
X586031Y261500D02*
X584000D01*
Y259469D01*
X584172Y259491D01*
X584798Y259751D01*
X585336Y260164D01*
X585749Y260701D01*
X586009Y261328D01*
X586031Y261500D01*
D02*
G37*
G36*
X583000Y264531D02*
X582828Y264509D01*
X582201Y264249D01*
X581664Y263836D01*
X581251Y263299D01*
X580992Y262672D01*
X580969Y262500D01*
X583000D01*
Y264531D01*
D02*
G37*
G36*
X584000D02*
Y262500D01*
X586031D01*
X586009Y262672D01*
X585749Y263299D01*
X585336Y263836D01*
X584798Y264249D01*
X584172Y264509D01*
X584000Y264531D01*
D02*
G37*
G36*
X583000Y261500D02*
X580969D01*
X580992Y261328D01*
X581251Y260701D01*
X581664Y260164D01*
X582201Y259751D01*
X582828Y259491D01*
X583000Y259469D01*
Y261500D01*
D02*
G37*
G36*
X442500Y269031D02*
Y267000D01*
X444531D01*
X444509Y267172D01*
X444249Y267798D01*
X443836Y268336D01*
X443298Y268749D01*
X442672Y269008D01*
X442500Y269031D01*
D02*
G37*
G36*
X523500Y279000D02*
X521469D01*
X521491Y278828D01*
X521751Y278202D01*
X522164Y277664D01*
X522702Y277251D01*
X523328Y276992D01*
X523500Y276969D01*
Y279000D01*
D02*
G37*
G36*
X526531D02*
X524500D01*
Y276969D01*
X524672Y276992D01*
X525299Y277251D01*
X525836Y277664D01*
X526249Y278202D01*
X526509Y278828D01*
X526531Y279000D01*
D02*
G37*
G36*
X441500Y266000D02*
X439469D01*
X439492Y265828D01*
X439751Y265201D01*
X440164Y264664D01*
X440701Y264251D01*
X441328Y263991D01*
X441500Y263969D01*
Y266000D01*
D02*
G37*
G36*
X444531D02*
X442500D01*
Y263969D01*
X442672Y263991D01*
X443298Y264251D01*
X443836Y264664D01*
X444249Y265201D01*
X444509Y265828D01*
X444531Y266000D01*
D02*
G37*
G36*
X441500Y269031D02*
X441328Y269008D01*
X440701Y268749D01*
X440164Y268336D01*
X439751Y267798D01*
X439492Y267172D01*
X439469Y267000D01*
X441500D01*
Y269031D01*
D02*
G37*
G36*
X449000Y198031D02*
X448828Y198009D01*
X448202Y197749D01*
X447664Y197336D01*
X447251Y196799D01*
X446991Y196172D01*
X446969Y196000D01*
X449000D01*
Y198031D01*
D02*
G37*
G36*
X450000D02*
Y196000D01*
X452031D01*
X452008Y196172D01*
X451749Y196799D01*
X451336Y197336D01*
X450799Y197749D01*
X450172Y198009D01*
X450000Y198031D01*
D02*
G37*
G36*
X469500Y198531D02*
X469328Y198509D01*
X468702Y198249D01*
X468164Y197836D01*
X467751Y197299D01*
X467491Y196672D01*
X467469Y196500D01*
X469500D01*
Y198531D01*
D02*
G37*
G36*
X500531Y196500D02*
X498500D01*
Y194469D01*
X498672Y194492D01*
X499298Y194751D01*
X499836Y195164D01*
X500249Y195702D01*
X500508Y196328D01*
X500531Y196500D01*
D02*
G37*
G36*
X612000Y197000D02*
X609969D01*
X609992Y196828D01*
X610251Y196202D01*
X610664Y195664D01*
X611201Y195251D01*
X611828Y194992D01*
X612000Y194969D01*
Y197000D01*
D02*
G37*
G36*
X615031D02*
X613000D01*
Y194969D01*
X613172Y194992D01*
X613799Y195251D01*
X614336Y195664D01*
X614749Y196202D01*
X615008Y196828D01*
X615031Y197000D01*
D02*
G37*
G36*
X484500Y199031D02*
Y197000D01*
X486531D01*
X486509Y197172D01*
X486249Y197799D01*
X485836Y198336D01*
X485298Y198749D01*
X484672Y199009D01*
X484500Y199031D01*
D02*
G37*
G36*
X497500Y199531D02*
X497328Y199509D01*
X496701Y199249D01*
X496164Y198836D01*
X495751Y198299D01*
X495492Y197672D01*
X495469Y197500D01*
X497500D01*
Y199531D01*
D02*
G37*
G36*
X498500D02*
Y197500D01*
X500531D01*
X500508Y197672D01*
X500249Y198299D01*
X499836Y198836D01*
X499298Y199249D01*
X498672Y199509D01*
X498500Y199531D01*
D02*
G37*
G36*
X470500Y198531D02*
Y196500D01*
X472531D01*
X472508Y196672D01*
X472249Y197299D01*
X471836Y197836D01*
X471299Y198249D01*
X470672Y198509D01*
X470500Y198531D01*
D02*
G37*
G36*
X483500Y199031D02*
X483328Y199009D01*
X482701Y198749D01*
X482164Y198336D01*
X481751Y197799D01*
X481492Y197172D01*
X481469Y197000D01*
X483500D01*
Y199031D01*
D02*
G37*
G36*
X497500Y196500D02*
X495469D01*
X495492Y196328D01*
X495751Y195702D01*
X496164Y195164D01*
X496701Y194751D01*
X497328Y194492D01*
X497500Y194469D01*
Y196500D01*
D02*
G37*
G36*
X599000Y203638D02*
X597705Y203510D01*
X596460Y203132D01*
X595312Y202519D01*
X594307Y201693D01*
X593481Y200688D01*
X592868Y199540D01*
X592490Y198295D01*
X592362Y197000D01*
X592490Y195705D01*
X592868Y194460D01*
X593481Y193312D01*
X594307Y192307D01*
X595312Y191481D01*
X596460Y190868D01*
X597705Y190490D01*
X599000Y190363D01*
X600295Y190490D01*
X601540Y190868D01*
X602688Y191481D01*
X603693Y192307D01*
X604519Y193312D01*
X605132Y194460D01*
X605510Y195705D01*
X605638Y197000D01*
X605510Y198295D01*
X605132Y199540D01*
X604519Y200688D01*
X603693Y201693D01*
X602688Y202519D01*
X601540Y203132D01*
X600295Y203510D01*
X599000Y203638D01*
D02*
G37*
G36*
X472531Y195500D02*
X470500D01*
Y193469D01*
X470672Y193491D01*
X471299Y193751D01*
X471836Y194164D01*
X472249Y194702D01*
X472508Y195328D01*
X472531Y195500D01*
D02*
G37*
G36*
X483500Y196000D02*
X481469D01*
X481492Y195828D01*
X481751Y195202D01*
X482164Y194664D01*
X482701Y194251D01*
X483328Y193991D01*
X483500Y193969D01*
Y196000D01*
D02*
G37*
G36*
X486531D02*
X484500D01*
Y193969D01*
X484672Y193991D01*
X485298Y194251D01*
X485836Y194664D01*
X486249Y195202D01*
X486509Y195828D01*
X486531Y196000D01*
D02*
G37*
G36*
X449000Y195000D02*
X446969D01*
X446991Y194828D01*
X447251Y194202D01*
X447664Y193664D01*
X448202Y193251D01*
X448828Y192991D01*
X449000Y192969D01*
Y195000D01*
D02*
G37*
G36*
X452031D02*
X450000D01*
Y192969D01*
X450172Y192991D01*
X450799Y193251D01*
X451336Y193664D01*
X451749Y194202D01*
X452008Y194828D01*
X452031Y195000D01*
D02*
G37*
G36*
X469500Y195500D02*
X467469D01*
X467491Y195328D01*
X467751Y194702D01*
X468164Y194164D01*
X468702Y193751D01*
X469328Y193491D01*
X469500Y193469D01*
Y195500D01*
D02*
G37*
G36*
X524500Y227531D02*
X524328Y227508D01*
X523701Y227249D01*
X523164Y226836D01*
X522751Y226298D01*
X522492Y225672D01*
X522469Y225500D01*
X524500D01*
Y227531D01*
D02*
G37*
G36*
X525500D02*
Y225500D01*
X527531D01*
X527508Y225672D01*
X527249Y226298D01*
X526836Y226836D01*
X526299Y227249D01*
X525672Y227508D01*
X525500Y227531D01*
D02*
G37*
G36*
X443000Y214031D02*
Y212000D01*
X445031D01*
X445009Y212172D01*
X444749Y212799D01*
X444336Y213336D01*
X443798Y213749D01*
X443172Y214008D01*
X443000Y214031D01*
D02*
G37*
G36*
X524500Y224500D02*
X522469D01*
X522492Y224328D01*
X522751Y223702D01*
X523164Y223164D01*
X523701Y222751D01*
X524328Y222492D01*
X524500Y222469D01*
Y224500D01*
D02*
G37*
G36*
X527531D02*
X525500D01*
Y222469D01*
X525672Y222492D01*
X526299Y222751D01*
X526836Y223164D01*
X527249Y223702D01*
X527508Y224328D01*
X527531Y224500D01*
D02*
G37*
G36*
X442500Y237531D02*
Y235500D01*
X444531D01*
X444509Y235672D01*
X444249Y236298D01*
X443836Y236836D01*
X443298Y237249D01*
X442672Y237509D01*
X442500Y237531D01*
D02*
G37*
G36*
X524500Y238500D02*
X522469D01*
X522492Y238328D01*
X522751Y237702D01*
X523164Y237164D01*
X523701Y236751D01*
X524328Y236491D01*
X524500Y236469D01*
Y238500D01*
D02*
G37*
G36*
X527531D02*
X525500D01*
Y236469D01*
X525672Y236491D01*
X526299Y236751D01*
X526836Y237164D01*
X527249Y237702D01*
X527508Y238328D01*
X527531Y238500D01*
D02*
G37*
G36*
X441500Y234500D02*
X439469D01*
X439492Y234328D01*
X439751Y233701D01*
X440164Y233164D01*
X440701Y232751D01*
X441328Y232491D01*
X441500Y232469D01*
Y234500D01*
D02*
G37*
G36*
X444531D02*
X442500D01*
Y232469D01*
X442672Y232491D01*
X443298Y232751D01*
X443836Y233164D01*
X444249Y233701D01*
X444509Y234328D01*
X444531Y234500D01*
D02*
G37*
G36*
X441500Y237531D02*
X441328Y237509D01*
X440701Y237249D01*
X440164Y236836D01*
X439751Y236298D01*
X439492Y235672D01*
X439469Y235500D01*
X441500D01*
Y237531D01*
D02*
G37*
G36*
X442000Y214031D02*
X441828Y214008D01*
X441201Y213749D01*
X440664Y213336D01*
X440251Y212799D01*
X439992Y212172D01*
X439969Y212000D01*
X442000D01*
Y214031D01*
D02*
G37*
G36*
X612000Y208500D02*
X609969D01*
X609992Y208328D01*
X610251Y207701D01*
X610664Y207164D01*
X611201Y206751D01*
X611828Y206491D01*
X612000Y206469D01*
Y208500D01*
D02*
G37*
G36*
X615031D02*
X613000D01*
Y206469D01*
X613172Y206491D01*
X613799Y206751D01*
X614336Y207164D01*
X614749Y207701D01*
X615008Y208328D01*
X615031Y208500D01*
D02*
G37*
G36*
X612000Y200031D02*
X611828Y200009D01*
X611201Y199749D01*
X610664Y199336D01*
X610251Y198799D01*
X609992Y198172D01*
X609969Y198000D01*
X612000D01*
Y200031D01*
D02*
G37*
G36*
X613000D02*
Y198000D01*
X615031D01*
X615008Y198172D01*
X614749Y198799D01*
X614336Y199336D01*
X613799Y199749D01*
X613172Y200009D01*
X613000Y200031D01*
D02*
G37*
G36*
Y211531D02*
Y209500D01*
X615031D01*
X615008Y209672D01*
X614749Y210298D01*
X614336Y210836D01*
X613799Y211249D01*
X613172Y211508D01*
X613000Y211531D01*
D02*
G37*
G36*
X442000Y211000D02*
X439969D01*
X439992Y210828D01*
X440251Y210202D01*
X440664Y209664D01*
X441201Y209251D01*
X441828Y208992D01*
X442000Y208969D01*
Y211000D01*
D02*
G37*
G36*
X445031D02*
X443000D01*
Y208969D01*
X443172Y208992D01*
X443798Y209251D01*
X444336Y209664D01*
X444749Y210202D01*
X445009Y210828D01*
X445031Y211000D01*
D02*
G37*
G36*
X612000Y211531D02*
X611828Y211508D01*
X611201Y211249D01*
X610664Y210836D01*
X610251Y210298D01*
X609992Y209672D01*
X609969Y209500D01*
X612000D01*
Y211531D01*
D02*
G37*
G36*
X583500Y295531D02*
Y293500D01*
X585531D01*
X585508Y293672D01*
X585249Y294299D01*
X584836Y294836D01*
X584299Y295249D01*
X583672Y295509D01*
X583500Y295531D01*
D02*
G37*
G36*
X511000Y354031D02*
Y352000D01*
X513031D01*
X513008Y352172D01*
X512749Y352799D01*
X512336Y353336D01*
X511798Y353749D01*
X511172Y354009D01*
X511000Y354031D01*
D02*
G37*
G36*
X461000Y357819D02*
X460112Y357643D01*
X459360Y357140D01*
X459082Y356723D01*
X442500D01*
X442032Y356630D01*
X441635Y356365D01*
X402903Y317633D01*
X402888Y317643D01*
X402000Y317819D01*
X401112Y317643D01*
X400360Y317140D01*
X399857Y316388D01*
X399681Y315500D01*
X399857Y314612D01*
X400360Y313860D01*
X401112Y313357D01*
X402000Y313181D01*
X402888Y313357D01*
X403640Y313860D01*
X404143Y314612D01*
X404319Y315500D01*
X404305Y315574D01*
X405273Y316542D01*
X405733Y316296D01*
X405675Y316000D01*
Y307049D01*
X392951Y294325D01*
X391850D01*
X391640Y294640D01*
X390888Y295143D01*
X390000Y295319D01*
X389112Y295143D01*
X388890Y294994D01*
X388449Y295230D01*
Y298225D01*
X388356Y298693D01*
X388300Y298777D01*
X388567Y299276D01*
X389082D01*
X389360Y298860D01*
X390112Y298357D01*
X391000Y298181D01*
X391888Y298357D01*
X392640Y298860D01*
X393143Y299612D01*
X393319Y300500D01*
X393143Y301388D01*
X392640Y302140D01*
X391888Y302643D01*
X391000Y302819D01*
X390112Y302643D01*
X389360Y302140D01*
X389082Y301724D01*
X380500D01*
X380032Y301630D01*
X379635Y301365D01*
X377995Y299725D01*
X377993Y299725D01*
X377563Y299437D01*
X377275Y299007D01*
X377223Y298745D01*
X376723Y298794D01*
Y304872D01*
X384926Y313074D01*
X384926Y313074D01*
X385926Y314074D01*
X386358Y314638D01*
X386631Y315295D01*
X386723Y316000D01*
Y320000D01*
Y324000D01*
X386631Y324705D01*
X386358Y325362D01*
X385926Y325926D01*
X385362Y326358D01*
X384705Y326630D01*
X384000Y326723D01*
X383295Y326630D01*
X382638Y326358D01*
X382074Y325926D01*
X381642Y325362D01*
X381369Y324705D01*
X381277Y324000D01*
Y320000D01*
Y317128D01*
X381074Y316926D01*
X381074Y316926D01*
X372074Y307926D01*
X371642Y307362D01*
X371370Y306705D01*
X371277Y306000D01*
Y269000D01*
X371370Y268295D01*
X371642Y267638D01*
X372074Y267074D01*
X390777Y248372D01*
Y222500D01*
Y218500D01*
Y215000D01*
Y211500D01*
X390869Y210795D01*
X391142Y210138D01*
X391574Y209574D01*
X392138Y209142D01*
X392795Y208870D01*
X393500Y208777D01*
X394205Y208870D01*
X394862Y209142D01*
X395426Y209574D01*
X395858Y210138D01*
X396130Y210795D01*
X396223Y211500D01*
Y215000D01*
Y218500D01*
Y222500D01*
Y249500D01*
X396130Y250205D01*
X395858Y250862D01*
X395426Y251426D01*
X376723Y270128D01*
Y274649D01*
X377223Y274698D01*
X377275Y274436D01*
X377563Y274006D01*
X425506Y226063D01*
X425936Y225775D01*
X426443Y225675D01*
X496150D01*
X496360Y225360D01*
X497112Y224857D01*
X498000Y224681D01*
X498888Y224857D01*
X499640Y225360D01*
X500143Y226112D01*
X500319Y227000D01*
X500143Y227888D01*
X499640Y228640D01*
X498888Y229143D01*
X498000Y229319D01*
X497112Y229143D01*
X496360Y228640D01*
X496150Y228326D01*
X426992D01*
X407523Y247795D01*
X407525Y247819D01*
X407748Y248276D01*
X455082D01*
X455360Y247860D01*
X456112Y247357D01*
X457000Y247181D01*
X457888Y247357D01*
X458640Y247860D01*
X459143Y248612D01*
X459319Y249500D01*
X459143Y250388D01*
X458640Y251140D01*
X457888Y251643D01*
X457000Y251819D01*
X456112Y251643D01*
X455360Y251140D01*
X455082Y250724D01*
X408083D01*
X387224Y271583D01*
Y275350D01*
X387723Y275617D01*
X388112Y275357D01*
X389000Y275181D01*
X389888Y275357D01*
X390640Y275860D01*
X391143Y276612D01*
X391319Y277500D01*
X391498Y277705D01*
X392132Y277713D01*
X414711Y255135D01*
X415108Y254870D01*
X415576Y254777D01*
X461493D01*
X465278Y250991D01*
X465181Y250500D01*
X465357Y249612D01*
X465860Y248860D01*
X466612Y248357D01*
X467500Y248181D01*
X468388Y248357D01*
X469140Y248860D01*
X469643Y249612D01*
X469819Y250500D01*
X469643Y251388D01*
X469140Y252140D01*
X468388Y252643D01*
X467500Y252819D01*
X467009Y252722D01*
X462865Y256865D01*
X462468Y257130D01*
X462000Y257224D01*
X416083D01*
X395980Y277326D01*
X396125Y277805D01*
X396388Y277857D01*
X397140Y278360D01*
X397350Y278675D01*
X494345D01*
X494357Y278612D01*
X494860Y277860D01*
X495612Y277357D01*
X496500Y277181D01*
X497388Y277357D01*
X498140Y277860D01*
X498643Y278612D01*
X498819Y279500D01*
X498643Y280388D01*
X498140Y281140D01*
X497388Y281643D01*
X496500Y281819D01*
X495612Y281643D01*
X495138Y281326D01*
X397350D01*
X397140Y281640D01*
X396388Y282143D01*
X395500Y282319D01*
X394612Y282143D01*
X394390Y281994D01*
X393949Y282230D01*
Y284718D01*
X402534Y293303D01*
X402922Y292985D01*
X402857Y292888D01*
X402681Y292000D01*
X402857Y291112D01*
X403360Y290360D01*
X404112Y289857D01*
X405000Y289681D01*
X405888Y289857D01*
X406640Y290360D01*
X406918Y290776D01*
X460000D01*
X460468Y290870D01*
X460865Y291135D01*
X469509Y299778D01*
X470000Y299681D01*
X470888Y299857D01*
X471640Y300360D01*
X472143Y301112D01*
X472319Y302000D01*
X472143Y302888D01*
X471640Y303640D01*
X470888Y304143D01*
X470000Y304319D01*
X469112Y304143D01*
X468360Y303640D01*
X467857Y302888D01*
X467681Y302000D01*
X467778Y301509D01*
X459493Y293224D01*
X406918D01*
X406640Y293640D01*
X405888Y294143D01*
X405000Y294319D01*
X404112Y294143D01*
X404015Y294078D01*
X403697Y294466D01*
X404509Y295278D01*
X405000Y295181D01*
X405888Y295357D01*
X406640Y295860D01*
X407143Y296612D01*
X407319Y297500D01*
X407143Y298388D01*
X406640Y299140D01*
X405888Y299643D01*
X405728Y299675D01*
X405777Y300174D01*
X453150D01*
X453360Y299860D01*
X454112Y299357D01*
X455000Y299181D01*
X455888Y299357D01*
X456640Y299860D01*
X457143Y300612D01*
X457319Y301500D01*
X457143Y302388D01*
X456640Y303140D01*
X455888Y303643D01*
X455000Y303819D01*
X454112Y303643D01*
X453360Y303140D01*
X453150Y302825D01*
X405853D01*
X405662Y303287D01*
X407937Y305563D01*
X408225Y305993D01*
X408325Y306500D01*
Y315451D01*
X425049Y332174D01*
X496150D01*
X496360Y331860D01*
X497112Y331357D01*
X498000Y331181D01*
X498888Y331357D01*
X499640Y331860D01*
X500143Y332612D01*
X500319Y333500D01*
X500143Y334388D01*
X499640Y335140D01*
X498888Y335643D01*
X498000Y335819D01*
X497112Y335643D01*
X496360Y335140D01*
X496150Y334825D01*
X424500D01*
X424204Y334767D01*
X423958Y335227D01*
X443007Y354276D01*
X459082D01*
X459360Y353860D01*
X460112Y353357D01*
X461000Y353181D01*
X461888Y353357D01*
X462640Y353860D01*
X463143Y354612D01*
X463319Y355500D01*
X463143Y356388D01*
X462640Y357140D01*
X461888Y357643D01*
X461000Y357819D01*
D02*
G37*
G36*
X565500Y362500D02*
X563469D01*
X563491Y362328D01*
X563751Y361701D01*
X564164Y361164D01*
X564702Y360751D01*
X565328Y360491D01*
X565500Y360469D01*
Y362500D01*
D02*
G37*
G36*
X568531D02*
X566500D01*
Y360469D01*
X566672Y360491D01*
X567299Y360751D01*
X567836Y361164D01*
X568249Y361701D01*
X568508Y362328D01*
X568531Y362500D01*
D02*
G37*
G36*
X525500Y364303D02*
X521095D01*
X521165Y363771D01*
X521563Y362810D01*
X522197Y361984D01*
X523022Y361350D01*
X523984Y360952D01*
X525016Y360816D01*
X525500D01*
Y364303D01*
D02*
G37*
G36*
X582500Y361500D02*
X580469D01*
X580491Y361328D01*
X580751Y360701D01*
X581164Y360164D01*
X581702Y359751D01*
X582328Y359491D01*
X582500Y359469D01*
Y361500D01*
D02*
G37*
G36*
X585531D02*
X583500D01*
Y359469D01*
X583672Y359491D01*
X584299Y359751D01*
X584836Y360164D01*
X585249Y360701D01*
X585508Y361328D01*
X585531Y361500D01*
D02*
G37*
G36*
X522500Y349000D02*
X520469D01*
X520492Y348828D01*
X520751Y348201D01*
X521164Y347664D01*
X521701Y347251D01*
X522328Y346991D01*
X522500Y346969D01*
Y349000D01*
D02*
G37*
G36*
X525531D02*
X523500D01*
Y346969D01*
X523672Y346991D01*
X524298Y347251D01*
X524836Y347664D01*
X525249Y348201D01*
X525508Y348828D01*
X525531Y349000D01*
D02*
G37*
G36*
X583000Y349031D02*
X582828Y349008D01*
X582201Y348749D01*
X581664Y348336D01*
X581251Y347798D01*
X580992Y347172D01*
X580969Y347000D01*
X583000D01*
Y349031D01*
D02*
G37*
G36*
X586031Y346000D02*
X584000D01*
Y343969D01*
X584172Y343991D01*
X584798Y344251D01*
X585336Y344664D01*
X585749Y345201D01*
X586009Y345828D01*
X586031Y346000D01*
D02*
G37*
G36*
X441500Y348531D02*
X441328Y348509D01*
X440701Y348249D01*
X440164Y347836D01*
X439751Y347299D01*
X439492Y346672D01*
X439469Y346500D01*
X441500D01*
Y348531D01*
D02*
G37*
G36*
X442500D02*
Y346500D01*
X444531D01*
X444509Y346672D01*
X444249Y347299D01*
X443836Y347836D01*
X443298Y348249D01*
X442672Y348509D01*
X442500Y348531D01*
D02*
G37*
G36*
X522500Y352031D02*
X522328Y352009D01*
X521701Y351749D01*
X521164Y351336D01*
X520751Y350799D01*
X520492Y350172D01*
X520469Y350000D01*
X522500D01*
Y352031D01*
D02*
G37*
G36*
X523500D02*
Y350000D01*
X525531D01*
X525508Y350172D01*
X525249Y350799D01*
X524836Y351336D01*
X524298Y351749D01*
X523672Y352009D01*
X523500Y352031D01*
D02*
G37*
G36*
X510000Y354031D02*
X509828Y354009D01*
X509201Y353749D01*
X508664Y353336D01*
X508251Y352799D01*
X507992Y352172D01*
X507969Y352000D01*
X510000D01*
Y354031D01*
D02*
G37*
G36*
X584000Y349031D02*
Y347000D01*
X586031D01*
X586009Y347172D01*
X585749Y347798D01*
X585336Y348336D01*
X584798Y348749D01*
X584172Y349008D01*
X584000Y349031D01*
D02*
G37*
G36*
X510000Y351000D02*
X507969D01*
X507992Y350828D01*
X508251Y350202D01*
X508664Y349664D01*
X509201Y349251D01*
X509828Y348991D01*
X510000Y348969D01*
Y351000D01*
D02*
G37*
G36*
X513031D02*
X511000D01*
Y348969D01*
X511172Y348991D01*
X511798Y349251D01*
X512336Y349664D01*
X512749Y350202D01*
X513008Y350828D01*
X513031Y351000D01*
D02*
G37*
G36*
X493500Y387138D02*
X492205Y387010D01*
X490960Y386632D01*
X489812Y386019D01*
X488807Y385193D01*
X487981Y384188D01*
X487368Y383040D01*
X486990Y381795D01*
X486863Y380500D01*
X486990Y379205D01*
X487368Y377960D01*
X487981Y376812D01*
X488807Y375807D01*
X489812Y374981D01*
X490960Y374368D01*
X492205Y373990D01*
X493500Y373863D01*
X494795Y373990D01*
X496040Y374368D01*
X497188Y374981D01*
X498193Y375807D01*
X499019Y376812D01*
X499632Y377960D01*
X500010Y379205D01*
X500138Y380500D01*
X500010Y381795D01*
X499632Y383040D01*
X499019Y384188D01*
X498193Y385193D01*
X497188Y386019D01*
X496040Y386632D01*
X494795Y387010D01*
X493500Y387138D01*
D02*
G37*
G36*
X526984Y368790D02*
X526500D01*
Y365303D01*
X530905D01*
X530835Y365835D01*
X530437Y366797D01*
X529803Y367622D01*
X528978Y368256D01*
X528016Y368654D01*
X526984Y368790D01*
D02*
G37*
G36*
X444000Y368531D02*
X443828Y368509D01*
X443201Y368249D01*
X442664Y367836D01*
X442251Y367299D01*
X441992Y366672D01*
X441969Y366500D01*
X444000D01*
Y368531D01*
D02*
G37*
G36*
X445000D02*
Y366500D01*
X447031D01*
X447009Y366672D01*
X446749Y367299D01*
X446336Y367836D01*
X445798Y368249D01*
X445172Y368509D01*
X445000Y368531D01*
D02*
G37*
G36*
X613500Y392031D02*
X613328Y392008D01*
X612702Y391749D01*
X612164Y391336D01*
X611751Y390798D01*
X611491Y390172D01*
X611469Y390000D01*
X613500D01*
Y392031D01*
D02*
G37*
G36*
X614500D02*
Y390000D01*
X616531D01*
X616508Y390172D01*
X616249Y390798D01*
X615836Y391336D01*
X615299Y391749D01*
X614672Y392008D01*
X614500Y392031D01*
D02*
G37*
G36*
X347500Y395031D02*
X347328Y395008D01*
X346702Y394749D01*
X346164Y394336D01*
X345751Y393798D01*
X345492Y393172D01*
X345469Y393000D01*
X347500D01*
Y395031D01*
D02*
G37*
G36*
X526984Y393684D02*
X525016D01*
X524062Y393559D01*
X523174Y393191D01*
X522411Y392605D01*
X521825Y391842D01*
X521457Y390954D01*
X521332Y390000D01*
X521457Y389046D01*
X521825Y388158D01*
X522411Y387395D01*
X523174Y386809D01*
X524062Y386441D01*
X525016Y386316D01*
X526984D01*
X527938Y386441D01*
X528826Y386809D01*
X529589Y387395D01*
X530175Y388158D01*
X530543Y389046D01*
X530668Y390000D01*
X530543Y390954D01*
X530175Y391842D01*
X529589Y392605D01*
X528826Y393191D01*
X527938Y393559D01*
X526984Y393684D01*
D02*
G37*
G36*
X613500Y389000D02*
X611469D01*
X611491Y388828D01*
X611751Y388201D01*
X612164Y387664D01*
X612702Y387251D01*
X613328Y386992D01*
X613500Y386969D01*
Y389000D01*
D02*
G37*
G36*
X616531D02*
X614500D01*
Y386969D01*
X614672Y386992D01*
X615299Y387251D01*
X615836Y387664D01*
X616249Y388201D01*
X616508Y388828D01*
X616531Y389000D01*
D02*
G37*
G36*
X582500Y364531D02*
X582328Y364509D01*
X581702Y364249D01*
X581164Y363836D01*
X580751Y363299D01*
X580491Y362672D01*
X580469Y362500D01*
X582500D01*
Y364531D01*
D02*
G37*
G36*
X583500D02*
Y362500D01*
X585531D01*
X585508Y362672D01*
X585249Y363299D01*
X584836Y363836D01*
X584299Y364249D01*
X583672Y364509D01*
X583500Y364531D01*
D02*
G37*
G36*
X444000Y365500D02*
X441969D01*
X441992Y365328D01*
X442251Y364702D01*
X442664Y364164D01*
X443201Y363751D01*
X443828Y363492D01*
X444000Y363469D01*
Y365500D01*
D02*
G37*
G36*
X530905Y364303D02*
X526500D01*
Y360816D01*
X526984D01*
X528016Y360952D01*
X528978Y361350D01*
X529803Y361984D01*
X530437Y362810D01*
X530835Y363771D01*
X530905Y364303D01*
D02*
G37*
G36*
X428000Y364000D02*
X425969D01*
X425991Y363828D01*
X426251Y363201D01*
X426664Y362664D01*
X427202Y362251D01*
X427828Y361992D01*
X428000Y361969D01*
Y364000D01*
D02*
G37*
G36*
X431031D02*
X429000D01*
Y361969D01*
X429172Y361992D01*
X429799Y362251D01*
X430336Y362664D01*
X430749Y363201D01*
X431008Y363828D01*
X431031Y364000D01*
D02*
G37*
G36*
X428000Y367031D02*
X427828Y367008D01*
X427202Y366749D01*
X426664Y366336D01*
X426251Y365798D01*
X425991Y365172D01*
X425969Y365000D01*
X428000D01*
Y367031D01*
D02*
G37*
G36*
X429000D02*
Y365000D01*
X431031D01*
X431008Y365172D01*
X430749Y365798D01*
X430336Y366336D01*
X429799Y366749D01*
X429172Y367008D01*
X429000Y367031D01*
D02*
G37*
G36*
X525500Y368790D02*
X525016D01*
X523984Y368654D01*
X523022Y368256D01*
X522197Y367622D01*
X521563Y366797D01*
X521165Y365835D01*
X521095Y365303D01*
X525500D01*
Y368790D01*
D02*
G37*
G36*
X447031Y365500D02*
X445000D01*
Y363469D01*
X445172Y363492D01*
X445798Y363751D01*
X446336Y364164D01*
X446749Y364702D01*
X447009Y365328D01*
X447031Y365500D01*
D02*
G37*
G36*
X565500Y365531D02*
X565328Y365509D01*
X564702Y365249D01*
X564164Y364836D01*
X563751Y364299D01*
X563491Y363672D01*
X563469Y363500D01*
X565500D01*
Y365531D01*
D02*
G37*
G36*
X566500D02*
Y363500D01*
X568531D01*
X568508Y363672D01*
X568249Y364299D01*
X567836Y364836D01*
X567299Y365249D01*
X566672Y365509D01*
X566500Y365531D01*
D02*
G37*
G36*
X583000Y346000D02*
X580969D01*
X580992Y345828D01*
X581251Y345201D01*
X581664Y344664D01*
X582201Y344251D01*
X582828Y343991D01*
X583000Y343969D01*
Y346000D01*
D02*
G37*
G36*
X400000Y309500D02*
X397969D01*
X397991Y309328D01*
X398251Y308701D01*
X398664Y308164D01*
X399201Y307751D01*
X399828Y307491D01*
X400000Y307469D01*
Y309500D01*
D02*
G37*
G36*
X485000Y305531D02*
Y303500D01*
X487031D01*
X487008Y303672D01*
X486749Y304298D01*
X486336Y304836D01*
X485799Y305249D01*
X485172Y305508D01*
X485000Y305531D01*
D02*
G37*
G36*
X501500Y306031D02*
X501328Y306009D01*
X500702Y305749D01*
X500164Y305336D01*
X499751Y304799D01*
X499492Y304172D01*
X499469Y304000D01*
X501500D01*
Y306031D01*
D02*
G37*
G36*
X502500D02*
Y304000D01*
X504531D01*
X504508Y304172D01*
X504249Y304799D01*
X503836Y305336D01*
X503299Y305749D01*
X502672Y306009D01*
X502500Y306031D01*
D02*
G37*
G36*
X441500Y313000D02*
X439469D01*
X439492Y312828D01*
X439751Y312201D01*
X440164Y311664D01*
X440701Y311251D01*
X441328Y310992D01*
X441500Y310969D01*
Y313000D01*
D02*
G37*
G36*
X444531D02*
X442500D01*
Y310969D01*
X442672Y310992D01*
X443298Y311251D01*
X443836Y311664D01*
X444249Y312201D01*
X444509Y312828D01*
X444531Y313000D01*
D02*
G37*
G36*
X582500Y313500D02*
X580469D01*
X580491Y313328D01*
X580751Y312702D01*
X581164Y312164D01*
X581702Y311751D01*
X582328Y311491D01*
X582500Y311469D01*
Y313500D01*
D02*
G37*
G36*
X403031Y309500D02*
X401000D01*
Y307469D01*
X401172Y307491D01*
X401798Y307751D01*
X402336Y308164D01*
X402749Y308701D01*
X403009Y309328D01*
X403031Y309500D01*
D02*
G37*
G36*
X401000Y312531D02*
Y310500D01*
X403031D01*
X403009Y310672D01*
X402749Y311298D01*
X402336Y311836D01*
X401798Y312249D01*
X401172Y312509D01*
X401000Y312531D01*
D02*
G37*
G36*
X441000Y299031D02*
X440828Y299008D01*
X440202Y298749D01*
X439664Y298336D01*
X439251Y297798D01*
X438991Y297172D01*
X438969Y297000D01*
X441000D01*
Y299031D01*
D02*
G37*
G36*
X442000D02*
Y297000D01*
X444031D01*
X444008Y297172D01*
X443749Y297798D01*
X443336Y298336D01*
X442799Y298749D01*
X442172Y299008D01*
X442000Y299031D01*
D02*
G37*
G36*
X484000Y302500D02*
X481969D01*
X481991Y302328D01*
X482251Y301701D01*
X482664Y301164D01*
X483202Y300751D01*
X483828Y300491D01*
X484000Y300469D01*
Y302500D01*
D02*
G37*
G36*
X441000Y296000D02*
X438969D01*
X438991Y295828D01*
X439251Y295201D01*
X439664Y294664D01*
X440202Y294251D01*
X440828Y293991D01*
X441000Y293969D01*
Y296000D01*
D02*
G37*
G36*
X444031D02*
X442000D01*
Y293969D01*
X442172Y293991D01*
X442799Y294251D01*
X443336Y294664D01*
X443749Y295201D01*
X444008Y295828D01*
X444031Y296000D01*
D02*
G37*
G36*
X596500Y309138D02*
X595205Y309010D01*
X593960Y308632D01*
X592812Y308019D01*
X591807Y307193D01*
X590981Y306188D01*
X590368Y305040D01*
X589990Y303795D01*
X589862Y302500D01*
X589990Y301205D01*
X590368Y299960D01*
X590981Y298812D01*
X591807Y297807D01*
X592812Y296981D01*
X593960Y296368D01*
X595205Y295990D01*
X596500Y295863D01*
X597795Y295990D01*
X599040Y296368D01*
X600188Y296981D01*
X601193Y297807D01*
X602019Y298812D01*
X602632Y299960D01*
X603010Y301205D01*
X603137Y302500D01*
X603010Y303795D01*
X602632Y305040D01*
X602019Y306188D01*
X601193Y307193D01*
X600188Y308019D01*
X599040Y308632D01*
X597795Y309010D01*
X596500Y309138D01*
D02*
G37*
G36*
X484000Y305531D02*
X483828Y305508D01*
X483202Y305249D01*
X482664Y304836D01*
X482251Y304298D01*
X481991Y303672D01*
X481969Y303500D01*
X484000D01*
Y305531D01*
D02*
G37*
G36*
X487031Y302500D02*
X485000D01*
Y300469D01*
X485172Y300491D01*
X485799Y300751D01*
X486336Y301164D01*
X486749Y301701D01*
X487008Y302328D01*
X487031Y302500D01*
D02*
G37*
G36*
X501500Y303000D02*
X499469D01*
X499492Y302828D01*
X499751Y302202D01*
X500164Y301664D01*
X500702Y301251D01*
X501328Y300992D01*
X501500Y300969D01*
Y303000D01*
D02*
G37*
G36*
X504531D02*
X502500D01*
Y300969D01*
X502672Y300992D01*
X503299Y301251D01*
X503836Y301664D01*
X504249Y302202D01*
X504508Y302828D01*
X504531Y303000D01*
D02*
G37*
G36*
X442000Y331031D02*
Y329000D01*
X444031D01*
X444008Y329172D01*
X443749Y329799D01*
X443336Y330336D01*
X442799Y330749D01*
X442172Y331009D01*
X442000Y331031D01*
D02*
G37*
G36*
X523000Y335500D02*
X520969D01*
X520992Y335328D01*
X521251Y334701D01*
X521664Y334164D01*
X522201Y333751D01*
X522828Y333491D01*
X523000Y333469D01*
Y335500D01*
D02*
G37*
G36*
X444031Y328000D02*
X442000D01*
Y325969D01*
X442172Y325992D01*
X442799Y326251D01*
X443336Y326664D01*
X443749Y327202D01*
X444008Y327828D01*
X444031Y328000D01*
D02*
G37*
G36*
X441000Y331031D02*
X440828Y331009D01*
X440202Y330749D01*
X439664Y330336D01*
X439251Y329799D01*
X438991Y329172D01*
X438969Y329000D01*
X441000D01*
Y331031D01*
D02*
G37*
G36*
X377000Y348732D02*
X376034Y348605D01*
X375134Y348232D01*
X374361Y347639D01*
X373768Y346866D01*
X373395Y345966D01*
X373268Y345000D01*
X373395Y344034D01*
X373768Y343134D01*
X374361Y342361D01*
X375134Y341768D01*
X376034Y341395D01*
X377000Y341268D01*
X377966Y341395D01*
X378866Y341768D01*
X379639Y342361D01*
X380232Y343134D01*
X380605Y344034D01*
X380732Y345000D01*
X380605Y345966D01*
X380232Y346866D01*
X379639Y347639D01*
X378866Y348232D01*
X377966Y348605D01*
X377000Y348732D01*
D02*
G37*
G36*
X441500Y345500D02*
X439469D01*
X439492Y345328D01*
X439751Y344702D01*
X440164Y344164D01*
X440701Y343751D01*
X441328Y343492D01*
X441500Y343469D01*
Y345500D01*
D02*
G37*
G36*
X444531D02*
X442500D01*
Y343469D01*
X442672Y343492D01*
X443298Y343751D01*
X443836Y344164D01*
X444249Y344702D01*
X444509Y345328D01*
X444531Y345500D01*
D02*
G37*
G36*
X526031Y335500D02*
X524000D01*
Y333469D01*
X524172Y333491D01*
X524798Y333751D01*
X525336Y334164D01*
X525749Y334701D01*
X526009Y335328D01*
X526031Y335500D01*
D02*
G37*
G36*
X523000Y338531D02*
X522828Y338509D01*
X522201Y338249D01*
X521664Y337836D01*
X521251Y337298D01*
X520992Y336672D01*
X520969Y336500D01*
X523000D01*
Y338531D01*
D02*
G37*
G36*
X524000D02*
Y336500D01*
X526031D01*
X526009Y336672D01*
X525749Y337298D01*
X525336Y337836D01*
X524798Y338249D01*
X524172Y338509D01*
X524000Y338531D01*
D02*
G37*
G36*
X441500Y316031D02*
X441328Y316008D01*
X440701Y315749D01*
X440164Y315336D01*
X439751Y314798D01*
X439492Y314172D01*
X439469Y314000D01*
X441500D01*
Y316031D01*
D02*
G37*
G36*
X442500D02*
Y314000D01*
X444531D01*
X444509Y314172D01*
X444249Y314798D01*
X443836Y315336D01*
X443298Y315749D01*
X442672Y316008D01*
X442500Y316031D01*
D02*
G37*
G36*
X582500Y316531D02*
X582328Y316509D01*
X581702Y316249D01*
X581164Y315836D01*
X580751Y315299D01*
X580491Y314672D01*
X580469Y314500D01*
X582500D01*
Y316531D01*
D02*
G37*
G36*
X585531Y313500D02*
X583500D01*
Y311469D01*
X583672Y311491D01*
X584299Y311751D01*
X584836Y312164D01*
X585249Y312702D01*
X585508Y313328D01*
X585531Y313500D01*
D02*
G37*
G36*
X441000Y328000D02*
X438969D01*
X438991Y327828D01*
X439251Y327202D01*
X439664Y326664D01*
X440202Y326251D01*
X440828Y325992D01*
X441000Y325969D01*
Y328000D01*
D02*
G37*
G36*
X583500Y316531D02*
Y314500D01*
X585531D01*
X585508Y314672D01*
X585249Y315299D01*
X584836Y315836D01*
X584299Y316249D01*
X583672Y316509D01*
X583500Y316531D01*
D02*
G37*
G36*
X329000Y360500D02*
X326969D01*
X326992Y360328D01*
X327251Y359701D01*
X327664Y359164D01*
X328202Y358751D01*
X328828Y358491D01*
X329000Y358469D01*
Y360500D01*
D02*
G37*
G36*
X178000Y239031D02*
Y237000D01*
X180031D01*
X180008Y237172D01*
X179749Y237799D01*
X179336Y238336D01*
X178798Y238749D01*
X178172Y239008D01*
X178000Y239031D01*
D02*
G37*
G36*
X177000D02*
X176828Y239008D01*
X176201Y238749D01*
X175664Y238336D01*
X175251Y237799D01*
X174992Y237172D01*
X174969Y237000D01*
X177000D01*
Y239031D01*
D02*
G37*
G36*
X180031Y236000D02*
X174969D01*
X174992Y235828D01*
X175251Y235202D01*
X175664Y234664D01*
X176201Y234251D01*
X176277Y234220D01*
Y233507D01*
X171247Y228478D01*
X171172Y228508D01*
X171000Y228531D01*
Y226500D01*
X173031D01*
X173009Y226672D01*
X172977Y226747D01*
X178365Y232135D01*
X178630Y232532D01*
X178724Y233000D01*
Y234220D01*
X178798Y234251D01*
X179336Y234664D01*
X179749Y235202D01*
X180008Y235828D01*
X180031Y236000D01*
D02*
G37*
G36*
X173000Y254000D02*
X170969D01*
X170992Y253828D01*
X171251Y253202D01*
X171664Y252664D01*
X172202Y252251D01*
X172828Y251992D01*
X173000Y251969D01*
Y254000D01*
D02*
G37*
G36*
X176031D02*
X174000D01*
Y251969D01*
X174172Y251992D01*
X174799Y252251D01*
X175336Y252664D01*
X175749Y253202D01*
X176008Y253828D01*
X176031Y254000D01*
D02*
G37*
G36*
X173000Y257031D02*
X172828Y257009D01*
X172202Y256749D01*
X171664Y256336D01*
X171251Y255799D01*
X170992Y255172D01*
X170969Y255000D01*
X173000D01*
Y257031D01*
D02*
G37*
G36*
X247500Y247921D02*
Y244500D01*
X250921D01*
X250851Y245032D01*
X250453Y245993D01*
X249819Y246819D01*
X248993Y247453D01*
X248032Y247851D01*
X247500Y247921D01*
D02*
G37*
G36*
X230653Y247653D02*
X223347D01*
Y240347D01*
X230653D01*
Y247653D01*
D02*
G37*
G36*
X246500Y247921D02*
X245968Y247851D01*
X245007Y247453D01*
X244181Y246819D01*
X243547Y245993D01*
X243149Y245032D01*
X243079Y244500D01*
X246500D01*
Y247921D01*
D02*
G37*
G36*
X237000Y247684D02*
X236046Y247559D01*
X235158Y247191D01*
X234395Y246605D01*
X233809Y245842D01*
X233441Y244954D01*
X233316Y244000D01*
X233441Y243046D01*
X233809Y242158D01*
X234395Y241395D01*
X235158Y240809D01*
X236046Y240441D01*
X237000Y240316D01*
X237954Y240441D01*
X238842Y240809D01*
X239605Y241395D01*
X240191Y242158D01*
X240559Y243046D01*
X240684Y244000D01*
X240559Y244954D01*
X240191Y245842D01*
X239605Y246605D01*
X238842Y247191D01*
X237954Y247559D01*
X237000Y247684D01*
D02*
G37*
G36*
X220453Y199953D02*
X217000D01*
Y196500D01*
X220453D01*
Y199953D01*
D02*
G37*
G36*
X186500Y199684D02*
X185546Y199559D01*
X184658Y199191D01*
X183895Y198605D01*
X183309Y197842D01*
X182941Y196954D01*
X182816Y196000D01*
X182941Y195046D01*
X183309Y194158D01*
X183895Y193395D01*
X184658Y192809D01*
X185546Y192441D01*
X186500Y192316D01*
X187454Y192441D01*
X188342Y192809D01*
X189105Y193395D01*
X189691Y194158D01*
X190059Y195046D01*
X190184Y196000D01*
X190059Y196954D01*
X189691Y197842D01*
X189105Y198605D01*
X188342Y199191D01*
X187454Y199559D01*
X186500Y199684D01*
D02*
G37*
G36*
X196500D02*
X195546Y199559D01*
X194658Y199191D01*
X193895Y198605D01*
X193309Y197842D01*
X192941Y196954D01*
X192816Y196000D01*
X192941Y195046D01*
X193309Y194158D01*
X193895Y193395D01*
X194658Y192809D01*
X195546Y192441D01*
X196500Y192316D01*
X197454Y192441D01*
X198342Y192809D01*
X199105Y193395D01*
X199691Y194158D01*
X200059Y195046D01*
X200184Y196000D01*
X200059Y196954D01*
X199691Y197842D01*
X199105Y198605D01*
X198342Y199191D01*
X197454Y199559D01*
X196500Y199684D01*
D02*
G37*
G36*
X206500D02*
X205546Y199559D01*
X204658Y199191D01*
X203895Y198605D01*
X203309Y197842D01*
X202941Y196954D01*
X202816Y196000D01*
X202941Y195046D01*
X203309Y194158D01*
X203895Y193395D01*
X204658Y192809D01*
X205546Y192441D01*
X206500Y192316D01*
X207454Y192441D01*
X208342Y192809D01*
X209105Y193395D01*
X209691Y194158D01*
X210059Y195046D01*
X210184Y196000D01*
X210059Y196954D01*
X209691Y197842D01*
X209105Y198605D01*
X208342Y199191D01*
X207454Y199559D01*
X206500Y199684D01*
D02*
G37*
G36*
X216000Y195500D02*
X212547D01*
Y192047D01*
X216000D01*
Y195500D01*
D02*
G37*
G36*
X220453D02*
X217000D01*
Y192047D01*
X220453D01*
Y195500D01*
D02*
G37*
G36*
X235815Y217138D02*
X234520Y217010D01*
X233275Y216632D01*
X232127Y216019D01*
X231122Y215193D01*
X230296Y214188D01*
X229683Y213040D01*
X229305Y211795D01*
X229177Y210500D01*
X229305Y209205D01*
X229683Y207960D01*
X230296Y206812D01*
X231122Y205807D01*
X232127Y204981D01*
X233275Y204368D01*
X234520Y203990D01*
X235815Y203863D01*
X237110Y203990D01*
X238355Y204368D01*
X239503Y204981D01*
X240508Y205807D01*
X241334Y206812D01*
X241947Y207960D01*
X242325Y209205D01*
X242452Y210500D01*
X242325Y211795D01*
X241947Y213040D01*
X241334Y214188D01*
X240508Y215193D01*
X239503Y216019D01*
X238355Y216632D01*
X237110Y217010D01*
X235815Y217138D01*
D02*
G37*
G36*
X255000Y210000D02*
X248610D01*
X248694Y209146D01*
X249089Y207845D01*
X249730Y206645D01*
X250593Y205593D01*
X251645Y204731D01*
X252845Y204089D01*
X254146Y203694D01*
X255000Y203610D01*
Y210000D01*
D02*
G37*
G36*
X250921Y243500D02*
X243079D01*
X243149Y242968D01*
X243547Y242007D01*
X244181Y241181D01*
X244277Y241107D01*
Y219000D01*
X244370Y218295D01*
X244642Y217638D01*
X245074Y217074D01*
X249067Y213082D01*
X248694Y211854D01*
X248610Y211000D01*
X255000D01*
Y217390D01*
X254146Y217306D01*
X252918Y216933D01*
X249723Y220128D01*
Y241107D01*
X249819Y241181D01*
X250453Y242007D01*
X250851Y242968D01*
X250921Y243500D01*
D02*
G37*
G36*
X256000Y217390D02*
Y211000D01*
X262390D01*
X262306Y211854D01*
X261911Y213155D01*
X261269Y214355D01*
X260407Y215407D01*
X259355Y216269D01*
X258155Y216911D01*
X256854Y217306D01*
X256000Y217390D01*
D02*
G37*
G36*
X305000Y308500D02*
X302969D01*
X302992Y308328D01*
X303251Y307701D01*
X303664Y307164D01*
X304202Y306751D01*
X304828Y306491D01*
X305000Y306469D01*
Y308500D01*
D02*
G37*
G36*
X308031D02*
X306000D01*
Y306469D01*
X306172Y306491D01*
X306799Y306751D01*
X307336Y307164D01*
X307749Y307701D01*
X308009Y308328D01*
X308031Y308500D01*
D02*
G37*
G36*
X305500Y330531D02*
Y328500D01*
X307531D01*
X307508Y328672D01*
X307249Y329298D01*
X306836Y329836D01*
X306298Y330249D01*
X305672Y330508D01*
X305500Y330531D01*
D02*
G37*
G36*
X287000Y315500D02*
X284969D01*
X284992Y315328D01*
X285251Y314702D01*
X285664Y314164D01*
X286202Y313751D01*
X286828Y313492D01*
X287000Y313469D01*
Y315500D01*
D02*
G37*
G36*
X290031D02*
X288000D01*
Y313469D01*
X288172Y313492D01*
X288798Y313751D01*
X289336Y314164D01*
X289749Y314702D01*
X290008Y315328D01*
X290031Y315500D01*
D02*
G37*
G36*
X288000Y318531D02*
Y316500D01*
X290031D01*
X290008Y316672D01*
X289749Y317299D01*
X289336Y317836D01*
X288798Y318249D01*
X288172Y318509D01*
X288000Y318531D01*
D02*
G37*
G36*
X287000D02*
X286828Y318509D01*
X286202Y318249D01*
X285664Y317836D01*
X285251Y317299D01*
X284992Y316672D01*
X284969Y316500D01*
X287000D01*
Y318531D01*
D02*
G37*
G36*
X253031Y357000D02*
X251000D01*
Y354969D01*
X251172Y354992D01*
X251799Y355251D01*
X252336Y355664D01*
X252749Y356202D01*
X253009Y356828D01*
X253031Y357000D01*
D02*
G37*
G36*
X250000Y360031D02*
X249828Y360009D01*
X249201Y359749D01*
X248664Y359336D01*
X248251Y358799D01*
X247991Y358172D01*
X247969Y358000D01*
X250000D01*
Y360031D01*
D02*
G37*
G36*
X251000D02*
Y358000D01*
X253031D01*
X253009Y358172D01*
X252749Y358799D01*
X252336Y359336D01*
X251799Y359749D01*
X251172Y360009D01*
X251000Y360031D01*
D02*
G37*
G36*
X250000Y357000D02*
X247969D01*
X247991Y356828D01*
X248251Y356202D01*
X248664Y355664D01*
X249201Y355251D01*
X249828Y354992D01*
X250000Y354969D01*
Y357000D01*
D02*
G37*
G36*
X166000Y381000D02*
X162579D01*
X162649Y380468D01*
X163047Y379507D01*
X163681Y378681D01*
X164507Y378047D01*
X165468Y377649D01*
X166000Y377579D01*
Y381000D01*
D02*
G37*
G36*
Y385421D02*
X165468Y385351D01*
X164507Y384953D01*
X163681Y384319D01*
X163047Y383493D01*
X162649Y382532D01*
X162579Y382000D01*
X166000D01*
Y385421D01*
D02*
G37*
G36*
X179000Y318184D02*
X178046Y318059D01*
X177158Y317691D01*
X176395Y317105D01*
X175809Y316342D01*
X175441Y315454D01*
X175316Y314500D01*
X175441Y313546D01*
X175809Y312658D01*
X176395Y311895D01*
X177158Y311309D01*
X178046Y310941D01*
X179000Y310816D01*
X179954Y310941D01*
X180842Y311309D01*
X181605Y311895D01*
X182191Y312658D01*
X182559Y313546D01*
X182684Y314500D01*
X182559Y315454D01*
X182191Y316342D01*
X181605Y317105D01*
X180842Y317691D01*
X179954Y318059D01*
X179000Y318184D01*
D02*
G37*
G36*
X170421Y381000D02*
X167000D01*
Y377469D01*
X167267Y377235D01*
Y332560D01*
X167007Y332453D01*
X166181Y331819D01*
X165547Y330993D01*
X165149Y330032D01*
X165079Y329500D01*
X169000D01*
X172921D01*
X172851Y330032D01*
X172453Y330993D01*
X171819Y331819D01*
X170993Y332453D01*
X170733Y332560D01*
Y379000D01*
X170601Y379663D01*
X170241Y380203D01*
X170351Y380468D01*
X170421Y381000D01*
D02*
G37*
G36*
X179000Y332684D02*
X178046Y332559D01*
X177158Y332191D01*
X176395Y331605D01*
X175809Y330842D01*
X175441Y329954D01*
X175316Y329000D01*
X175441Y328046D01*
X175809Y327158D01*
X176395Y326395D01*
X177158Y325809D01*
X178046Y325441D01*
X179000Y325316D01*
X179954Y325441D01*
X180842Y325809D01*
X181605Y326395D01*
X182191Y327158D01*
X182559Y328046D01*
X182684Y329000D01*
X182559Y329954D01*
X182191Y330842D01*
X181605Y331605D01*
X180842Y332191D01*
X179954Y332559D01*
X179000Y332684D01*
D02*
G37*
G36*
X172921Y328500D02*
X169000D01*
X165079D01*
X165149Y327968D01*
X165547Y327007D01*
X166181Y326181D01*
X167007Y325547D01*
X167267Y325440D01*
Y318060D01*
X167007Y317953D01*
X166181Y317319D01*
X165547Y316493D01*
X165149Y315532D01*
X165079Y315000D01*
X169000D01*
X172921D01*
X172851Y315532D01*
X172453Y316493D01*
X171819Y317319D01*
X170993Y317953D01*
X170733Y318060D01*
Y325440D01*
X170993Y325547D01*
X171819Y326181D01*
X172453Y327007D01*
X172851Y327968D01*
X172921Y328500D01*
D02*
G37*
%LPD*%
D36*
X371500Y385000D02*
X469315D01*
X356000D02*
X371500D01*
Y370500D02*
Y385000D01*
X356000Y335000D02*
Y385000D01*
Y211000D02*
Y335000D01*
X469315Y385000D02*
X473815Y380500D01*
D37*
X382425Y275083D02*
Y297925D01*
X395500Y280000D02*
X496000D01*
X496500Y279500D01*
X378500Y274943D02*
X426443Y227000D01*
X378500Y274943D02*
Y298500D01*
X393500Y293000D02*
X407000Y306500D01*
X390000Y293000D02*
X393500D01*
X465500Y261500D02*
X476500Y250500D01*
X420500Y261500D02*
X465500D01*
X406500Y275500D02*
X420500Y261500D01*
X407000Y316000D02*
X424500Y333500D01*
X407000Y306500D02*
Y316000D01*
X389000Y277500D02*
X390300Y278800D01*
X382125Y297375D02*
Y297625D01*
X426443Y227000D02*
X498000D01*
X390300Y278800D02*
Y286866D01*
X404934Y301500D01*
X455000D01*
X382125Y297625D02*
X382425Y297925D01*
X424500Y333500D02*
X498000D01*
D38*
X374000Y269000D02*
X393500Y249500D01*
X374000Y269000D02*
Y306000D01*
X393500Y222500D02*
Y249500D01*
X269000Y197000D02*
X339000D01*
X255500Y210500D02*
X269000Y197000D01*
X346000Y224000D02*
Y228000D01*
Y220000D02*
Y224000D01*
Y216000D02*
Y220000D01*
Y212000D02*
Y216000D01*
Y204000D02*
Y212000D01*
X339000Y197000D02*
X346000Y204000D01*
X247000Y219000D02*
Y244000D01*
Y219000D02*
X255500Y210500D01*
X383000Y315000D02*
X384000Y316000D01*
X374000Y306000D02*
X383000Y315000D01*
X384000Y320000D02*
Y324000D01*
Y316000D02*
Y320000D01*
X393500Y218500D02*
Y222500D01*
Y215000D02*
Y218500D01*
Y211500D02*
Y215000D01*
D39*
X169000Y279131D02*
Y314500D01*
X356000Y335000D02*
X361500Y329500D01*
X287000Y380000D02*
X295000D01*
X228500Y278500D02*
Y285000D01*
X221500Y271500D02*
X228500Y278500D01*
X169000Y279131D02*
X177775Y270356D01*
Y258775D02*
Y270356D01*
X173500Y254500D02*
X177775Y258775D01*
X166500Y381500D02*
X169000Y379000D01*
Y329000D02*
Y379000D01*
Y314500D02*
Y329000D01*
X196500Y271500D02*
X221500D01*
X295000Y380000D02*
X327000Y348000D01*
Y323000D02*
Y348000D01*
Y323000D02*
X339000Y311000D01*
Y264500D02*
Y311000D01*
X336500Y262000D02*
X339000Y264500D01*
X331000Y262000D02*
X336500D01*
X196500Y253500D02*
Y271500D01*
X189500Y278500D02*
X196500Y271500D01*
X361500Y329500D02*
X386500D01*
X395500Y315000D02*
Y320500D01*
X386500Y329500D02*
X395500Y320500D01*
Y315000D02*
X400500Y310000D01*
D40*
X246500D02*
X258000D01*
X299300Y280800D02*
X306000Y287500D01*
X387225Y289275D02*
Y298225D01*
X201000Y307500D02*
X202000D01*
X205500Y304000D01*
X303000Y387500D02*
X329500Y361000D01*
X195500Y334000D02*
X209700Y348200D01*
X254800D01*
X255500Y347500D01*
X195500Y296000D02*
Y334000D01*
X205500Y284500D02*
Y304000D01*
X214000Y306500D02*
X223500Y297000D01*
X214000Y306500D02*
Y336000D01*
X217000Y306500D02*
Y337500D01*
Y306500D02*
X223000Y300500D01*
X214000Y340500D02*
X217000Y337500D01*
X230700Y277700D02*
X243500Y290500D01*
X230700Y277589D02*
Y277700D01*
X222411Y269300D02*
X230700Y277589D01*
X203500Y247500D02*
X243500Y287500D01*
X215500Y256500D02*
X244500Y285500D01*
X186200Y286700D02*
X195500Y296000D01*
X184382Y286700D02*
X186200D01*
X182800Y285118D02*
X184382Y286700D01*
X182800Y272968D02*
Y285118D01*
Y272968D02*
X183175Y272593D01*
Y233175D02*
Y272593D01*
X171500Y221500D02*
X183175Y233175D01*
X223500Y335000D02*
X226000Y332500D01*
X223500Y297000D02*
X259500D01*
X223000Y300500D02*
X261000D01*
X222300Y269300D02*
X222411D01*
X196500Y243500D02*
X222300Y269300D01*
X311500Y267500D02*
X333000D01*
X307000Y272000D02*
X311500Y267500D01*
X253000Y272000D02*
X307000D01*
X378500Y298500D02*
X380500Y300500D01*
X215500Y229000D02*
Y256500D01*
X177500Y233000D02*
Y236500D01*
X170500Y226000D02*
X177500Y233000D01*
X171500Y193000D02*
Y221500D01*
X161500Y256000D02*
X174500Y269000D01*
X161500Y193500D02*
Y256000D01*
Y193500D02*
X164000Y191000D01*
X169500D01*
X171500Y193000D01*
X196500Y233500D02*
Y243500D01*
X296596Y289500D02*
X312096Y305000D01*
X293500Y289500D02*
X296596D01*
X306000Y296000D02*
X322974D01*
X296500Y286500D02*
X306000Y296000D01*
X306596Y294000D02*
X321050D01*
X297096Y284500D02*
X306596Y294000D01*
X308500Y284500D02*
X320500D01*
X302551Y278551D02*
X308500Y284500D01*
X312000Y280500D02*
X318500D01*
X308351Y276851D02*
X312000Y280500D01*
X287500Y308000D02*
X293500Y314000D01*
Y331000D01*
X307500Y345000D01*
X255000Y316000D02*
X284500Y286500D01*
X258000Y310000D02*
X283500Y284500D01*
X258000Y307500D02*
X283000Y282500D01*
X296000Y330500D02*
X308000Y342500D01*
X296000Y309500D02*
Y330500D01*
X307500Y345000D02*
X312076D01*
X312351Y345275D01*
X316725D01*
X319500Y342500D01*
X287500Y290500D02*
X297700Y300700D01*
Y326700D01*
X309500Y338500D01*
X284000Y297500D02*
X296000Y309500D01*
X462000Y256000D02*
X467500Y250500D01*
X415576Y256000D02*
X462000D01*
X392725Y278851D02*
X415576Y256000D01*
X407576Y249500D02*
X457000D01*
X386000Y271076D02*
X407576Y249500D01*
X392725Y278851D02*
Y284775D01*
X386000Y271076D02*
Y278500D01*
X402000Y315500D02*
X402500D01*
X386000Y297500D02*
X386500D01*
X380500Y300500D02*
X391000D01*
X387225Y289275D02*
X388500Y288000D01*
Y281000D02*
Y288000D01*
X386000Y278500D02*
X388500Y281000D01*
X386500Y297500D02*
X387225Y298225D01*
X392500Y285000D02*
X405000Y297500D01*
X392500Y285000D02*
X392725Y284775D01*
X460000Y292000D02*
X470000Y302000D01*
X405000Y292000D02*
X460000D01*
X402500Y315500D02*
X442500Y355500D01*
X461000D01*
X308000Y342500D02*
X313500D01*
X282500Y325000D02*
Y344500D01*
X277000Y319500D02*
X282500Y325000D01*
X331500Y282000D02*
X332300Y282800D01*
Y286674D01*
X322974Y296000D02*
X332300Y286674D01*
X234500Y316000D02*
X255000D01*
X264500Y312500D02*
X271500Y319500D01*
X277000D01*
X243500Y307500D02*
X258000D01*
X242500Y308500D02*
X243500Y307500D01*
X283500Y284500D02*
X297096D01*
X283000Y282500D02*
X297500D01*
X284500Y286500D02*
X296500D01*
X297500Y282500D02*
X306000Y291000D01*
Y287000D02*
Y287500D01*
X247200Y280800D02*
X299300D01*
X245500Y282500D02*
X247200Y280800D01*
X312096Y305000D02*
X322500D01*
X306000Y291000D02*
X315500D01*
X321050Y294000D02*
X329525Y285525D01*
X267500Y332000D02*
X272500Y327000D01*
X275500Y323000D02*
Y341500D01*
X267500Y332000D02*
Y346000D01*
X275000Y342000D02*
X275500Y341500D01*
X324500Y275000D02*
X329000Y270500D01*
X250500Y275000D02*
X324500D01*
X247500Y272000D02*
X250500Y275000D01*
X246851Y276851D02*
X308351D01*
X238000Y272000D02*
X247500D01*
X236500Y273500D02*
X238000Y272000D01*
X245500Y275500D02*
X246851Y276851D01*
X261000Y300500D02*
X262500Y299000D01*
Y293500D02*
Y299000D01*
X325000Y282000D02*
X331500D01*
X246500Y310000D02*
Y310500D01*
X197500Y319000D02*
X201500Y323000D01*
X197500Y305000D02*
Y319000D01*
Y305000D02*
X202000Y300500D01*
X214000Y336000D02*
Y336523D01*
X212500Y340500D02*
X214000D01*
X243500Y287500D02*
X254000D01*
X244500Y285500D02*
X262000D01*
X254000Y287500D02*
X255000Y288500D01*
X243500Y290500D02*
X250000D01*
X242551Y278551D02*
X302551D01*
X203500Y230500D02*
Y247500D01*
X202000Y288000D02*
Y300500D01*
D42*
X303000Y387500D02*
X354500D01*
X226000Y332500D02*
Y335000D01*
X277000Y387500D02*
X303000D01*
X172500D02*
X277000D01*
X166500Y381500D02*
X172500Y387500D01*
X226000Y305000D02*
Y332500D01*
Y335000D02*
X251500D01*
X223500D02*
X226000D01*
X256500Y340000D02*
X262500Y346000D01*
X251500Y335000D02*
X256500Y340000D01*
X260500Y315500D02*
Y336000D01*
X256500Y340000D02*
X260500Y336000D01*
X262500Y373000D02*
X277000Y387500D01*
X262500Y353000D02*
Y373000D01*
Y346000D02*
Y353000D01*
X223500Y335000D02*
Y341500D01*
X220000Y345000D02*
X223500Y341500D01*
X211000Y345000D02*
X220000D01*
X206000Y340000D02*
X211000Y345000D01*
X206000Y330500D02*
Y340000D01*
Y330500D02*
X210750Y325750D01*
Y302750D02*
Y325750D01*
X207000Y306500D02*
X210750Y302750D01*
Y294581D02*
Y302750D01*
Y294581D02*
X225000Y280331D01*
X222169Y277500D02*
X225000Y280331D01*
X200500Y277500D02*
X222169D01*
X193500Y284500D02*
X200500Y277500D01*
X189500Y284500D02*
X193500D01*
X185500Y280500D02*
X189500Y284500D01*
X185500Y274086D02*
Y280500D01*
Y274086D02*
X185875Y273712D01*
Y226625D02*
Y273712D01*
Y226625D02*
X216500Y196000D01*
D45*
X189000Y302500D02*
Y314500D01*
X180350Y293850D02*
X189000Y302500D01*
X180350Y271953D02*
Y293850D01*
Y271953D02*
X180725Y271578D01*
Y247225D02*
Y271578D01*
X166500Y233000D02*
X180725Y247225D01*
X189000Y314500D02*
Y329000D01*
X166500Y196000D02*
Y233000D01*
X192500Y339000D02*
Y377500D01*
X189000Y329000D02*
Y335500D01*
X192500Y339000D01*
Y377500D02*
X196500Y381500D01*
D46*
X305000Y308500D02*
Y315500D01*
Y308500D02*
X305500Y309000D01*
X263000Y352500D02*
X316000D01*
X262500Y353000D02*
X263000Y352500D01*
X305000Y315500D02*
Y328000D01*
X316000Y352500D02*
X323500Y345000D01*
Y334000D02*
Y345000D01*
X305000Y315500D02*
X323500Y334000D01*
X238500Y189500D02*
X575500D01*
X220000Y208000D02*
X238500Y189500D01*
X575500D02*
X586000Y200000D01*
X220000Y208000D02*
Y237500D01*
X586000Y200000D02*
Y208000D01*
D48*
X196500Y381500D02*
D03*
X216500Y196000D02*
D03*
X227000Y244000D02*
D03*
X189000Y329000D02*
D03*
Y314500D02*
D03*
D49*
X186500Y381500D02*
D03*
X176500D02*
D03*
X166500D02*
D03*
Y196000D02*
D03*
X176500D02*
D03*
X186500D02*
D03*
X196500D02*
D03*
X206500D02*
D03*
X247000Y244000D02*
D03*
X237000D02*
D03*
X179000Y329000D02*
D03*
X169000D02*
D03*
X179000Y314500D02*
D03*
X169000D02*
D03*
D50*
X473815Y380500D02*
D03*
X493500D02*
D03*
X255500Y210500D02*
D03*
X235815D02*
D03*
X599000Y197000D02*
D03*
X596000Y250000D02*
D03*
X596500Y302500D02*
D03*
D51*
X526000Y364803D02*
D03*
Y390000D02*
D03*
D52*
X342000Y343000D02*
D03*
X377000Y345000D02*
D03*
D53*
X524000Y279500D02*
D03*
X502000Y250000D02*
D03*
X510500Y351500D02*
D03*
X484500Y303000D02*
D03*
X502000Y303500D02*
D03*
X614000Y389500D02*
D03*
X566000Y363000D02*
D03*
X583000Y362000D02*
D03*
X583500Y346500D02*
D03*
X583000Y314000D02*
D03*
Y293000D02*
D03*
X583500Y262000D02*
D03*
Y239500D02*
D03*
X612500Y197500D02*
D03*
Y209000D02*
D03*
X525000Y225000D02*
D03*
Y239000D02*
D03*
X524000Y292500D02*
D03*
X523500Y336000D02*
D03*
X523000Y349500D02*
D03*
X447500Y381000D02*
D03*
X435500D02*
D03*
X425500D02*
D03*
X428500Y364500D02*
D03*
X444500Y366000D02*
D03*
X442000Y346000D02*
D03*
X441500Y328500D02*
D03*
X442000Y313500D02*
D03*
X441500Y296500D02*
D03*
Y285500D02*
D03*
X442000Y266500D02*
D03*
Y235000D02*
D03*
X442500Y211500D02*
D03*
X449500Y195500D02*
D03*
X470000Y196000D02*
D03*
X484000Y196500D02*
D03*
X498000Y197000D02*
D03*
X287500Y316000D02*
D03*
X250500Y357500D02*
D03*
X346000Y368500D02*
D03*
X305500Y309000D02*
D03*
X201000Y307500D02*
D03*
X287000Y380000D02*
D03*
X329500Y361000D02*
D03*
X260500Y315500D02*
D03*
X223500Y335000D02*
D03*
X226000Y305000D02*
D03*
X207000Y306500D02*
D03*
X225000Y280331D02*
D03*
X173500Y254500D02*
D03*
X331000Y262000D02*
D03*
X228500Y285000D02*
D03*
X177500Y236500D02*
D03*
X170500Y226000D02*
D03*
X189500Y278500D02*
D03*
X196500Y253500D02*
D03*
X215500Y229000D02*
D03*
X196500Y233500D02*
D03*
X305000Y328000D02*
D03*
X287500Y308000D02*
D03*
X319500Y342500D02*
D03*
X476500Y250500D02*
D03*
X406500Y275500D02*
D03*
X345000Y373000D02*
D03*
Y377000D02*
D03*
Y381000D02*
D03*
Y385000D02*
D03*
X346000Y389500D02*
D03*
X348000Y392500D02*
D03*
X351500Y393000D02*
D03*
X355000D02*
D03*
X358500D02*
D03*
X362000Y392500D02*
D03*
X365500Y393000D02*
D03*
X369500D02*
D03*
X402000Y315500D02*
D03*
X383000Y315000D02*
D03*
X386000Y297500D02*
D03*
X390000Y293000D02*
D03*
X389000Y277500D02*
D03*
X391000Y300500D02*
D03*
X382425Y275083D02*
D03*
X382125Y297375D02*
D03*
X384000Y320000D02*
D03*
X393500Y211500D02*
D03*
Y215000D02*
D03*
Y218500D02*
D03*
Y222500D02*
D03*
X346000Y212000D02*
D03*
X384000Y324000D02*
D03*
X400500Y310000D02*
D03*
X220000Y237500D02*
D03*
X586000Y208000D02*
D03*
X346000Y228000D02*
D03*
Y224000D02*
D03*
Y220000D02*
D03*
Y216000D02*
D03*
X372000Y367000D02*
D03*
Y363000D02*
D03*
Y376500D02*
D03*
X467500Y250500D02*
D03*
X405000Y297500D02*
D03*
X470000Y302000D02*
D03*
X405000Y292000D02*
D03*
X395500Y280000D02*
D03*
X498000Y227000D02*
D03*
X457000Y249500D02*
D03*
X461000Y355500D02*
D03*
X455000Y301500D02*
D03*
X496500Y279500D02*
D03*
X498000Y333500D02*
D03*
X313500Y342500D02*
D03*
X284000Y297500D02*
D03*
X309500Y338500D02*
D03*
X287500Y290500D02*
D03*
X306000Y287000D02*
D03*
X293500Y289500D02*
D03*
X174500Y269000D02*
D03*
X255500Y347500D02*
D03*
X282500Y344500D02*
D03*
X272500Y327000D02*
D03*
X275500Y323000D02*
D03*
X264500Y312500D02*
D03*
X267500Y346000D02*
D03*
X275000Y342000D02*
D03*
X329000Y270500D02*
D03*
X253000Y272000D02*
D03*
X245500Y275500D02*
D03*
X236500Y273500D02*
D03*
X234500Y316000D02*
D03*
X320500Y284500D02*
D03*
X246500Y310500D02*
D03*
X329525Y285525D02*
D03*
X325000Y282000D02*
D03*
X318500Y280500D02*
D03*
X333000Y267500D02*
D03*
X315500Y291000D02*
D03*
X242500Y308500D02*
D03*
X212500Y340500D02*
D03*
X255000Y288500D02*
D03*
X250000Y290500D02*
D03*
X322500Y305000D02*
D03*
X242551Y278551D02*
D03*
X245500Y282500D02*
D03*
X203500Y230500D02*
D03*
X259500Y297000D02*
D03*
X262500Y293500D02*
D03*
X205500Y284500D02*
D03*
X202000Y288000D02*
D03*
X262000Y285500D02*
D03*
X214000Y336000D02*
D03*
X201500Y323000D02*
D03*
D54*
X364591Y303921D02*
D03*
Y319275D02*
D03*
Y314157D02*
D03*
Y309039D02*
D03*
Y298802D02*
D03*
Y293684D02*
D03*
Y288566D02*
D03*
Y283448D02*
D03*
Y278330D02*
D03*
Y273212D02*
D03*
Y268094D02*
D03*
X359472Y319275D02*
D03*
Y314157D02*
D03*
Y309039D02*
D03*
Y303921D02*
D03*
Y298802D02*
D03*
Y293684D02*
D03*
Y288566D02*
D03*
Y283448D02*
D03*
Y278330D02*
D03*
Y273212D02*
D03*
Y268094D02*
D03*
X354354Y319275D02*
D03*
Y314157D02*
D03*
Y309039D02*
D03*
Y303921D02*
D03*
Y298802D02*
D03*
Y293684D02*
D03*
Y288566D02*
D03*
Y283448D02*
D03*
Y278330D02*
D03*
Y273212D02*
D03*
Y268094D02*
D03*
X349236Y319275D02*
D03*
Y314157D02*
D03*
Y309039D02*
D03*
Y303921D02*
D03*
Y298802D02*
D03*
Y293684D02*
D03*
Y288566D02*
D03*
Y283448D02*
D03*
Y278330D02*
D03*
Y273212D02*
D03*
Y268094D02*
D03*
M02*
