G04 Layer_Color=16711935*
%FSLAX25Y25*%
%MOIN*%
G70*
G01*
G75*
%ADD54C,0.02362*%
%ADD88R,0.06706X0.06706*%
%ADD89C,0.06706*%
%ADD90C,0.12611*%
%ADD91O,0.08674X0.06706*%
%ADD92C,0.06800*%
%ADD93C,0.03950*%
D54*
X364591Y303921D02*
D03*
Y319275D02*
D03*
Y314157D02*
D03*
Y309039D02*
D03*
Y298802D02*
D03*
Y293684D02*
D03*
Y288566D02*
D03*
Y283448D02*
D03*
Y278330D02*
D03*
Y273212D02*
D03*
Y268094D02*
D03*
X359472Y319275D02*
D03*
Y314157D02*
D03*
Y309039D02*
D03*
Y303921D02*
D03*
Y298802D02*
D03*
Y293684D02*
D03*
Y288566D02*
D03*
Y283448D02*
D03*
Y278330D02*
D03*
Y273212D02*
D03*
Y268094D02*
D03*
X354354Y319275D02*
D03*
Y314157D02*
D03*
Y309039D02*
D03*
Y303921D02*
D03*
Y298802D02*
D03*
Y293684D02*
D03*
Y288566D02*
D03*
Y283448D02*
D03*
Y278330D02*
D03*
Y273212D02*
D03*
Y268094D02*
D03*
X349236Y319275D02*
D03*
Y314157D02*
D03*
Y309039D02*
D03*
Y303921D02*
D03*
Y298802D02*
D03*
Y293684D02*
D03*
Y288566D02*
D03*
Y283448D02*
D03*
Y278330D02*
D03*
Y273212D02*
D03*
Y268094D02*
D03*
D88*
X196500Y381500D02*
D03*
X216500Y196000D02*
D03*
X227000Y244000D02*
D03*
X189000Y329000D02*
D03*
Y314500D02*
D03*
D89*
X186500Y381500D02*
D03*
X176500D02*
D03*
X166500D02*
D03*
Y196000D02*
D03*
X176500D02*
D03*
X186500D02*
D03*
X196500D02*
D03*
X206500D02*
D03*
X247000Y244000D02*
D03*
X237000D02*
D03*
X179000Y329000D02*
D03*
X169000D02*
D03*
X179000Y314500D02*
D03*
X169000D02*
D03*
D90*
X473815Y380500D02*
D03*
X493500D02*
D03*
X255500Y210500D02*
D03*
X235815D02*
D03*
X599000Y197000D02*
D03*
X596000Y250000D02*
D03*
X596500Y302500D02*
D03*
D91*
X526000Y364803D02*
D03*
Y390000D02*
D03*
D92*
X342000Y343000D02*
D03*
X377000Y345000D02*
D03*
D93*
X524000Y279500D02*
D03*
X502000Y250000D02*
D03*
X510500Y351500D02*
D03*
X484500Y303000D02*
D03*
X502000Y303500D02*
D03*
X614000Y389500D02*
D03*
X566000Y363000D02*
D03*
X583000Y362000D02*
D03*
X583500Y346500D02*
D03*
X583000Y314000D02*
D03*
Y293000D02*
D03*
X583500Y262000D02*
D03*
Y239500D02*
D03*
X612500Y197500D02*
D03*
Y209000D02*
D03*
X525000Y225000D02*
D03*
Y239000D02*
D03*
X524000Y292500D02*
D03*
X523500Y336000D02*
D03*
X523000Y349500D02*
D03*
X447500Y381000D02*
D03*
X435500D02*
D03*
X425500D02*
D03*
X428500Y364500D02*
D03*
X444500Y366000D02*
D03*
X442000Y346000D02*
D03*
X441500Y328500D02*
D03*
X442000Y313500D02*
D03*
X441500Y296500D02*
D03*
Y285500D02*
D03*
X442000Y266500D02*
D03*
Y235000D02*
D03*
X442500Y211500D02*
D03*
X449500Y195500D02*
D03*
X470000Y196000D02*
D03*
X484000Y196500D02*
D03*
X498000Y197000D02*
D03*
X287500Y316000D02*
D03*
X250500Y357500D02*
D03*
X346000Y368500D02*
D03*
X305500Y309000D02*
D03*
X201000Y307500D02*
D03*
X287000Y380000D02*
D03*
X329500Y361000D02*
D03*
X260500Y315500D02*
D03*
X223500Y335000D02*
D03*
X226000Y305000D02*
D03*
X207000Y306500D02*
D03*
X225000Y280331D02*
D03*
X173500Y254500D02*
D03*
X331000Y262000D02*
D03*
X228500Y285000D02*
D03*
X177500Y236500D02*
D03*
X170500Y226000D02*
D03*
X189500Y278500D02*
D03*
X196500Y253500D02*
D03*
X215500Y229000D02*
D03*
X196500Y233500D02*
D03*
X305000Y328000D02*
D03*
X287500Y308000D02*
D03*
X319500Y342500D02*
D03*
X476500Y250500D02*
D03*
X406500Y275500D02*
D03*
X345000Y373000D02*
D03*
Y377000D02*
D03*
Y381000D02*
D03*
Y385000D02*
D03*
X346000Y389500D02*
D03*
X348000Y392500D02*
D03*
X351500Y393000D02*
D03*
X355000D02*
D03*
X358500D02*
D03*
X362000Y392500D02*
D03*
X365500Y393000D02*
D03*
X369500D02*
D03*
X402000Y315500D02*
D03*
X383000Y315000D02*
D03*
X386000Y297500D02*
D03*
X390000Y293000D02*
D03*
X389000Y277500D02*
D03*
X391000Y300500D02*
D03*
X382425Y275083D02*
D03*
X382125Y297375D02*
D03*
X384000Y320000D02*
D03*
X393500Y211500D02*
D03*
Y215000D02*
D03*
Y218500D02*
D03*
Y222500D02*
D03*
X346000Y212000D02*
D03*
X384000Y324000D02*
D03*
X400500Y310000D02*
D03*
X220000Y237500D02*
D03*
X586000Y208000D02*
D03*
X346000Y228000D02*
D03*
Y224000D02*
D03*
Y220000D02*
D03*
Y216000D02*
D03*
X372000Y367000D02*
D03*
Y363000D02*
D03*
Y376500D02*
D03*
X467500Y250500D02*
D03*
X405000Y297500D02*
D03*
X470000Y302000D02*
D03*
X405000Y292000D02*
D03*
X395500Y280000D02*
D03*
X498000Y227000D02*
D03*
X457000Y249500D02*
D03*
X461000Y355500D02*
D03*
X455000Y301500D02*
D03*
X496500Y279500D02*
D03*
X498000Y333500D02*
D03*
X313500Y342500D02*
D03*
X284000Y297500D02*
D03*
X309500Y338500D02*
D03*
X287500Y290500D02*
D03*
X306000Y287000D02*
D03*
X293500Y289500D02*
D03*
X174500Y269000D02*
D03*
X255500Y347500D02*
D03*
X282500Y344500D02*
D03*
X272500Y327000D02*
D03*
X275500Y323000D02*
D03*
X264500Y312500D02*
D03*
X267500Y346000D02*
D03*
X275000Y342000D02*
D03*
X329000Y270500D02*
D03*
X253000Y272000D02*
D03*
X245500Y275500D02*
D03*
X236500Y273500D02*
D03*
X234500Y316000D02*
D03*
X320500Y284500D02*
D03*
X246500Y310500D02*
D03*
X329525Y285525D02*
D03*
X325000Y282000D02*
D03*
X318500Y280500D02*
D03*
X333000Y267500D02*
D03*
X315500Y291000D02*
D03*
X242500Y308500D02*
D03*
X212500Y340500D02*
D03*
X255000Y288500D02*
D03*
X250000Y290500D02*
D03*
X322500Y305000D02*
D03*
X242551Y278551D02*
D03*
X245500Y282500D02*
D03*
X203500Y230500D02*
D03*
X259500Y297000D02*
D03*
X262500Y293500D02*
D03*
X205500Y284500D02*
D03*
X202000Y288000D02*
D03*
X262000Y285500D02*
D03*
X214000Y336000D02*
D03*
X201500Y323000D02*
D03*
M02*
