G04 Layer_Color=65535*
%FSLAX25Y25*%
%MOIN*%
G70*
G01*
G75*
%ADD40C,0.01000*%
%ADD55C,0.02362*%
%ADD56C,0.00984*%
%ADD57C,0.00787*%
%ADD58C,0.01181*%
%ADD59C,0.00591*%
%ADD60C,0.00394*%
%ADD61C,0.00709*%
%ADD62R,0.03150X0.09449*%
%ADD63R,0.09449X0.03150*%
D40*
X476821Y362689D02*
G03*
X476821Y362689I-3006J0D01*
G01*
X496821D02*
G03*
X496821Y362689I-3006J0D01*
G01*
X386101Y330427D02*
G03*
X386076Y328916I10399J-927D01*
G01*
X406917Y328799D02*
G03*
X406882Y330598I-10417J701D01*
G01*
X290725Y376100D02*
G03*
X290725Y376100I-825J0D01*
G01*
X258506Y228311D02*
G03*
X258506Y228311I-3006J0D01*
G01*
X238506D02*
G03*
X238506Y228311I-3006J0D01*
G01*
X471815Y360500D02*
X475815Y364500D01*
X491815Y360500D02*
X495815Y364500D01*
X314224Y190386D02*
X326626D01*
X342374D02*
X354776D01*
X314224D02*
Y233299D01*
Y233386D02*
X326626D01*
X354924Y190586D02*
Y233499D01*
X342374Y233486D02*
X354776D01*
X270224Y190701D02*
X282626D01*
X298374D02*
X310776D01*
X270224D02*
Y233614D01*
Y233701D02*
X282626D01*
X310924Y190901D02*
Y233814D01*
X298374Y233801D02*
X310776D01*
X188383Y241001D02*
Y259701D01*
X173284Y231801D02*
X180884D01*
X165784Y241000D02*
Y259701D01*
X173284Y265601D02*
X180882D01*
X254900Y351700D02*
X259900D01*
X254900D02*
Y358100D01*
Y372700D02*
X259900D01*
X254900Y366300D02*
Y372700D01*
X287500Y351700D02*
X292500D01*
Y358100D01*
Y366100D02*
Y372500D01*
X287500D02*
X292500D01*
X253500Y226500D02*
X257500Y230500D01*
X233500Y226500D02*
X237500Y230500D01*
X373180Y391900D02*
X390180D01*
X373280Y357700D02*
X390280D01*
X382200Y233900D02*
X399200D01*
X382300Y199700D02*
X399300D01*
X570000Y382059D02*
Y378123D01*
X571968D01*
X572624Y378779D01*
Y379435D01*
X571968Y380091D01*
X570000D01*
X571968D01*
X572624Y380747D01*
Y381403D01*
X571968Y382059D01*
X570000D01*
X573936D02*
Y378123D01*
X576560D01*
X577872Y382059D02*
Y378123D01*
X579839D01*
X580495Y378779D01*
Y381403D01*
X579839Y382059D01*
X577872D01*
X584431Y381403D02*
X583775Y382059D01*
X582463D01*
X581807Y381403D01*
Y378779D01*
X582463Y378123D01*
X583775D01*
X584431Y378779D01*
X572624Y374280D02*
X571968Y374936D01*
X570656D01*
X570000Y374280D01*
Y371656D01*
X570656Y371000D01*
X571968D01*
X572624Y371656D01*
X575904Y374936D02*
X574592D01*
X573936Y374280D01*
Y371656D01*
X574592Y371000D01*
X575904D01*
X576560Y371656D01*
Y374280D01*
X575904Y374936D01*
X577872Y371000D02*
Y374936D01*
X580495Y371000D01*
Y374936D01*
X581807D02*
X584431D01*
X583119D01*
Y371000D01*
X585743D02*
Y374936D01*
X587711D01*
X588367Y374280D01*
Y372968D01*
X587711Y372312D01*
X585743D01*
X587055D02*
X588367Y371000D01*
X591647Y374936D02*
X590335D01*
X589679Y374280D01*
Y371656D01*
X590335Y371000D01*
X591647D01*
X592303Y371656D01*
Y374280D01*
X591647Y374936D01*
X593614D02*
Y371000D01*
X596238D01*
X597550Y374936D02*
Y371000D01*
X600174D01*
X604110Y374936D02*
X601486D01*
Y371000D01*
X604110D01*
X601486Y372968D02*
X602798D01*
X605422Y371000D02*
Y374936D01*
X607389D01*
X608045Y374280D01*
Y372968D01*
X607389Y372312D01*
X605422D01*
X606734D02*
X608045Y371000D01*
X220032Y208500D02*
Y211124D01*
X218720Y209812D02*
X221344D01*
X222000Y212436D02*
Y213748D01*
Y213092D01*
X218064D01*
X218720Y212436D01*
X222000Y218339D02*
Y215716D01*
X219376Y218339D01*
X218720D01*
X218064Y217683D01*
Y216371D01*
X218720Y215716D01*
X218064Y219651D02*
X220688D01*
X222000Y220963D01*
X220688Y222275D01*
X218064D01*
X459500Y377532D02*
X456876D01*
X455564Y375564D02*
Y378188D01*
X454252Y379500D01*
X452940Y378188D01*
Y375564D01*
X513500Y377532D02*
X510876D01*
X512188Y376220D02*
Y378844D01*
X509564Y375564D02*
Y378188D01*
X508252Y379500D01*
X506940Y378188D01*
Y375564D01*
X595500Y205000D02*
Y208936D01*
X597468D01*
X598124Y208280D01*
Y206968D01*
X597468Y206312D01*
X595500D01*
X599436Y208936D02*
Y205000D01*
Y206968D01*
X602060D01*
Y208936D01*
Y205000D01*
X603371D02*
X604683D01*
X604027D01*
Y208936D01*
X603371Y208280D01*
X592500Y262000D02*
Y265936D01*
X594468D01*
X595124Y265280D01*
Y263968D01*
X594468Y263312D01*
X592500D01*
X596436Y265936D02*
Y262000D01*
Y263968D01*
X599060D01*
Y265936D01*
Y262000D01*
X602995D02*
X600372D01*
X602995Y264624D01*
Y265280D01*
X602339Y265936D01*
X601027D01*
X600372Y265280D01*
X592500Y313500D02*
Y317436D01*
X594468D01*
X595124Y316780D01*
Y315468D01*
X594468Y314812D01*
X592500D01*
X596436Y317436D02*
Y313500D01*
Y315468D01*
X599060D01*
Y317436D01*
Y313500D01*
X600372Y316780D02*
X601027Y317436D01*
X602339D01*
X602995Y316780D01*
Y316124D01*
X602339Y315468D01*
X601683D01*
X602339D01*
X602995Y314812D01*
Y314156D01*
X602339Y313500D01*
X601027D01*
X600372Y314156D01*
X368124Y195280D02*
X367468Y195936D01*
X366156D01*
X365500Y195280D01*
Y194624D01*
X366156Y193968D01*
X367468D01*
X368124Y193312D01*
Y192656D01*
X367468Y192000D01*
X366156D01*
X365500Y192656D01*
X369436Y195936D02*
X370748D01*
X370092D01*
Y192000D01*
X369436D01*
X370748D01*
X372715D02*
Y195936D01*
X375339Y192000D01*
Y195936D01*
X376651Y192000D02*
Y194624D01*
X377963Y195936D01*
X379275Y194624D01*
Y192000D01*
Y193968D01*
X376651D01*
X380587Y192000D02*
Y192656D01*
X381243D01*
Y192000D01*
X380587D01*
X383867D02*
Y194624D01*
X385179Y195936D01*
X386491Y194624D01*
Y192000D01*
Y193968D01*
X383867D01*
X390426Y195280D02*
X389770Y195936D01*
X388458D01*
X387803Y195280D01*
Y192656D01*
X388458Y192000D01*
X389770D01*
X390426Y192656D01*
Y193968D01*
X389114D01*
X391738Y195936D02*
Y192000D01*
Y193968D01*
X394362D01*
Y195936D01*
Y192000D01*
X395674Y195936D02*
Y192000D01*
X398298D01*
X399610Y195936D02*
X400922D01*
X400266D01*
Y192000D01*
X399610D01*
X400922D01*
X404857Y193312D02*
Y193968D01*
X404201D01*
Y193312D01*
X404857D01*
X405513Y193968D01*
Y195280D01*
X404857Y195936D01*
X403546D01*
X402889Y195280D01*
Y192656D01*
X403546Y192000D01*
X405513D01*
X409449Y195280D02*
X408793Y195936D01*
X407481D01*
X406825Y195280D01*
Y192656D01*
X407481Y192000D01*
X408793D01*
X409449Y192656D01*
Y193968D01*
X408137D01*
X410761Y192000D02*
Y195936D01*
X412073Y194624D01*
X413385Y195936D01*
Y192000D01*
X414697D02*
Y194624D01*
X416009Y195936D01*
X417321Y194624D01*
Y192000D01*
Y193968D01*
X414697D01*
X418633Y195936D02*
X419944D01*
X419288D01*
Y192000D01*
X418633D01*
X419944D01*
X421912Y195936D02*
Y192000D01*
X424536D01*
X425848D02*
Y192656D01*
X426504D01*
Y192000D01*
X425848D01*
X431752Y195280D02*
X431096Y195936D01*
X429784D01*
X429128Y195280D01*
Y192656D01*
X429784Y192000D01*
X431096D01*
X431752Y192656D01*
X435031Y195936D02*
X433719D01*
X433064Y195280D01*
Y192656D01*
X433719Y192000D01*
X435031D01*
X435687Y192656D01*
Y195280D01*
X435031Y195936D01*
X436999Y192000D02*
Y195936D01*
X438311Y194624D01*
X439623Y195936D01*
Y192000D01*
D55*
X226394Y315276D02*
G03*
X226394Y315276I-1181J0D01*
G01*
D56*
X216059Y321378D02*
G03*
X216059Y321378I-492J0D01*
G01*
D57*
X161500Y376500D02*
Y386500D01*
X201500D01*
X161500Y376500D02*
X201500D01*
Y386500D01*
X161500Y201000D02*
X221500D01*
X161500Y191000D02*
X221500D01*
Y201000D01*
X161500Y191000D02*
Y201000D01*
X462004Y400185D02*
X483658D01*
X462004Y356878D02*
Y400185D01*
Y356878D02*
X483658D01*
X505311D02*
Y400185D01*
X483658D02*
X503342D01*
X483658Y356878D02*
X505311D01*
X326118Y257618D02*
Y265492D01*
X315882Y257618D02*
Y265492D01*
X384508Y236382D02*
X392382D01*
X384508Y246618D02*
X392382D01*
X384508Y248882D02*
X392382D01*
X384508Y259118D02*
X392382D01*
X392000Y345169D02*
X399500D01*
X392000Y353831D02*
X399500D01*
X392000Y345169D02*
Y353831D01*
X358008Y329882D02*
X365882D01*
X358008Y340118D02*
X365882D01*
X358508Y344882D02*
X366382D01*
X358508Y355118D02*
X366382D01*
X302882Y258118D02*
Y265992D01*
X313118Y258118D02*
Y265992D01*
X297000Y236669D02*
X304500D01*
X297000Y245331D02*
X304500D01*
X297000Y236669D02*
Y245331D01*
X265000Y236669D02*
X272500D01*
X265000Y245331D02*
X272500D01*
X265000Y236669D02*
Y245331D01*
X222000Y239000D02*
Y249000D01*
X252000D01*
Y239000D02*
Y249000D01*
X222000Y239000D02*
X252000D01*
X164000Y334000D02*
X194000D01*
X164000Y324000D02*
Y334000D01*
Y324000D02*
X194000D01*
Y334000D01*
X164000Y319500D02*
X194000D01*
X164000Y309500D02*
Y319500D01*
Y309500D02*
X194000D01*
Y319500D01*
X221276Y270787D02*
X269701D01*
X221276Y319213D02*
X269701D01*
Y270787D02*
Y319213D01*
X221276Y270787D02*
Y319213D01*
X249618Y360618D02*
Y368492D01*
X239382Y360618D02*
Y368492D01*
X245657Y190815D02*
X267311D01*
Y234122D01*
X245657D02*
X267311D01*
X224004Y190815D02*
Y234122D01*
X225972Y190815D02*
X245657D01*
X224004Y234122D02*
X245657D01*
X551331Y370500D02*
Y378000D01*
X542669Y370500D02*
Y378000D01*
Y370500D02*
X551331D01*
D58*
X516354Y396693D02*
X536039D01*
X516354Y357323D02*
X536039D01*
X515961D02*
Y396693D01*
X536039Y357323D02*
Y396693D01*
X225500Y347295D02*
Y372886D01*
X214300Y347295D02*
X225500D01*
X214300D02*
Y372886D01*
X225500D01*
D59*
X310000Y231485D02*
X312600D01*
X311300Y230185D02*
Y232785D01*
X266000Y231800D02*
X268600D01*
X267300Y230500D02*
Y233100D01*
D60*
X198600Y282007D02*
Y305629D01*
X184800Y282029D02*
Y305629D01*
D61*
X163574Y390861D02*
X162000D01*
Y388500D01*
X163574D01*
X162000Y389681D02*
X162787D01*
X164361Y388500D02*
Y390074D01*
X165542D01*
X165936Y389681D01*
Y388500D01*
X168297Y390074D02*
X167116D01*
X166723Y389681D01*
Y388894D01*
X167116Y388500D01*
X168297D01*
X162000Y204361D02*
Y202000D01*
Y203181D01*
X163574D01*
Y204361D01*
Y202000D01*
X164755Y203574D02*
X165542D01*
X165936Y203181D01*
Y202000D01*
X164755D01*
X164361Y202394D01*
X164755Y202787D01*
X165936D01*
X166723Y202000D02*
X167510D01*
X167116D01*
Y204361D01*
X166723D01*
X168691Y202000D02*
X169478D01*
X169084D01*
Y204361D01*
X168691D01*
X172233Y203968D02*
X171839Y204361D01*
X171052D01*
X170659Y203968D01*
Y203574D01*
X171052Y203181D01*
X171839D01*
X172233Y202787D01*
Y202394D01*
X171839Y202000D01*
X171052D01*
X170659Y202394D01*
X174201Y202000D02*
X173414D01*
X173020Y202394D01*
Y203181D01*
X173414Y203574D01*
X174201D01*
X174594Y203181D01*
Y202787D01*
X173020D01*
X175382Y202000D02*
Y203574D01*
X176562D01*
X176956Y203181D01*
Y202000D01*
X177743D02*
X178924D01*
X179317Y202394D01*
X178924Y202787D01*
X178137D01*
X177743Y203181D01*
X178137Y203574D01*
X179317D01*
X181285Y202000D02*
X180498D01*
X180104Y202394D01*
Y203181D01*
X180498Y203574D01*
X181285D01*
X181679Y203181D01*
Y202787D01*
X180104D01*
X452000Y394500D02*
Y396861D01*
X453181D01*
X453574Y396468D01*
Y395681D01*
X453181Y395287D01*
X452000D01*
X454361Y396861D02*
Y394500D01*
X455149Y395287D01*
X455936Y394500D01*
Y396861D01*
X456723Y394500D02*
Y396861D01*
X457904D01*
X458297Y396468D01*
Y395681D01*
X457904Y395287D01*
X456723D01*
X457510D02*
X458297Y394500D01*
X460659D02*
X459084D01*
X460659Y396074D01*
Y396468D01*
X460265Y396861D01*
X459478D01*
X459084Y396468D01*
X511532Y385574D02*
X511139Y385181D01*
Y384394D01*
X511532Y384000D01*
X513106D01*
X513500Y384394D01*
Y385181D01*
X513106Y385574D01*
X513500Y387936D02*
Y386361D01*
X511926Y387936D01*
X511532D01*
X511139Y387542D01*
Y386755D01*
X511532Y386361D01*
Y388723D02*
X511139Y389116D01*
Y389904D01*
X511532Y390297D01*
X511926D01*
X512319Y389904D01*
Y389510D01*
Y389904D01*
X512713Y390297D01*
X513106D01*
X513500Y389904D01*
Y389116D01*
X513106Y388723D01*
X571074Y199394D02*
Y200968D01*
X570681Y201361D01*
X569894D01*
X569500Y200968D01*
Y199394D01*
X569894Y199000D01*
X570681D01*
X570287Y199787D02*
X571074Y199000D01*
X570681D02*
X571074Y199394D01*
X571861Y199000D02*
X572649D01*
X572255D01*
Y201361D01*
X571861Y200968D01*
X570574Y251394D02*
Y252968D01*
X570181Y253361D01*
X569394D01*
X569000Y252968D01*
Y251394D01*
X569394Y251000D01*
X570181D01*
X569787Y251787D02*
X570574Y251000D01*
X570181D02*
X570574Y251394D01*
X571361Y252968D02*
X571755Y253361D01*
X572542D01*
X572936Y252968D01*
Y252574D01*
X572542Y252181D01*
X572149D01*
X572542D01*
X572936Y251787D01*
Y251394D01*
X572542Y251000D01*
X571755D01*
X571361Y251394D01*
X572074Y304394D02*
Y305968D01*
X571681Y306361D01*
X570894D01*
X570500Y305968D01*
Y304394D01*
X570894Y304000D01*
X571681D01*
X571287Y304787D02*
X572074Y304000D01*
X571681D02*
X572074Y304394D01*
X574436Y306361D02*
X572861D01*
Y305181D01*
X573649Y305574D01*
X574042D01*
X574436Y305181D01*
Y304394D01*
X574042Y304000D01*
X573255D01*
X572861Y304394D01*
X488574Y305894D02*
Y307468D01*
X488181Y307861D01*
X487394D01*
X487000Y307468D01*
Y305894D01*
X487394Y305500D01*
X488181D01*
X487787Y306287D02*
X488574Y305500D01*
X488181D02*
X488574Y305894D01*
X490936Y307861D02*
X490149Y307468D01*
X489361Y306681D01*
Y305894D01*
X489755Y305500D01*
X490542D01*
X490936Y305894D01*
Y306287D01*
X490542Y306681D01*
X489361D01*
X488074Y251894D02*
Y253468D01*
X487681Y253861D01*
X486894D01*
X486500Y253468D01*
Y251894D01*
X486894Y251500D01*
X487681D01*
X487287Y252287D02*
X488074Y251500D01*
X487681D02*
X488074Y251894D01*
X490042Y251500D02*
Y253861D01*
X488861Y252681D01*
X490436D01*
X489074Y198394D02*
Y199968D01*
X488681Y200361D01*
X487894D01*
X487500Y199968D01*
Y198394D01*
X487894Y198000D01*
X488681D01*
X488287Y198787D02*
X489074Y198000D01*
X488681D02*
X489074Y198394D01*
X491436Y198000D02*
X489861D01*
X491436Y199574D01*
Y199968D01*
X491042Y200361D01*
X490255D01*
X489861Y199968D01*
X323574Y277968D02*
X323181Y278361D01*
X322394D01*
X322000Y277968D01*
Y276394D01*
X322394Y276000D01*
X323181D01*
X323574Y276394D01*
X325936Y276000D02*
X324361D01*
X325936Y277574D01*
Y277968D01*
X325542Y278361D01*
X324755D01*
X324361Y277968D01*
X327904Y276000D02*
Y278361D01*
X326723Y277181D01*
X328297D01*
X341574Y258968D02*
X341181Y259361D01*
X340394D01*
X340000Y258968D01*
Y257394D01*
X340394Y257000D01*
X341181D01*
X341574Y257394D01*
X343542Y257000D02*
Y259361D01*
X342361Y258181D01*
X343936D01*
X346297Y259361D02*
X345510Y258968D01*
X344723Y258181D01*
Y257394D01*
X345116Y257000D01*
X345904D01*
X346297Y257394D01*
Y257787D01*
X345904Y258181D01*
X344723D01*
X342074Y246968D02*
X341681Y247361D01*
X340894D01*
X340500Y246968D01*
Y245394D01*
X340894Y245000D01*
X341681D01*
X342074Y245394D01*
X342861Y246968D02*
X343255Y247361D01*
X344042D01*
X344436Y246968D01*
Y246574D01*
X344042Y246181D01*
X343649D01*
X344042D01*
X344436Y245787D01*
Y245394D01*
X344042Y245000D01*
X343255D01*
X342861Y245394D01*
X345223Y246968D02*
X345616Y247361D01*
X346404D01*
X346797Y246968D01*
Y246574D01*
X346404Y246181D01*
X346797Y245787D01*
Y245394D01*
X346404Y245000D01*
X345616D01*
X345223Y245394D01*
Y245787D01*
X345616Y246181D01*
X345223Y246574D01*
Y246968D01*
X345616Y246181D02*
X346404D01*
X357574Y249968D02*
X357181Y250361D01*
X356394D01*
X356000Y249968D01*
Y248394D01*
X356394Y248000D01*
X357181D01*
X357574Y248394D01*
X359936Y248000D02*
X358361D01*
X359936Y249574D01*
Y249968D01*
X359542Y250361D01*
X358755D01*
X358361Y249968D01*
X362297Y250361D02*
X361510Y249968D01*
X360723Y249181D01*
Y248394D01*
X361116Y248000D01*
X361904D01*
X362297Y248394D01*
Y248787D01*
X361904Y249181D01*
X360723D01*
X356074Y255468D02*
X355681Y255861D01*
X354894D01*
X354500Y255468D01*
Y253894D01*
X354894Y253500D01*
X355681D01*
X356074Y253894D01*
X358042Y253500D02*
Y255861D01*
X356861Y254681D01*
X358436D01*
X359223Y255468D02*
X359616Y255861D01*
X360404D01*
X360797Y255468D01*
Y253894D01*
X360404Y253500D01*
X359616D01*
X359223Y253894D01*
Y255468D01*
X404074Y242968D02*
X403681Y243361D01*
X402894D01*
X402500Y242968D01*
Y241394D01*
X402894Y241000D01*
X403681D01*
X404074Y241394D01*
X406436Y243361D02*
X404861D01*
Y242181D01*
X405649Y242574D01*
X406042D01*
X406436Y242181D01*
Y241394D01*
X406042Y241000D01*
X405255D01*
X404861Y241394D01*
X408797Y243361D02*
X408010Y242968D01*
X407223Y242181D01*
Y241394D01*
X407616Y241000D01*
X408404D01*
X408797Y241394D01*
Y241787D01*
X408404Y242181D01*
X407223D01*
X404074Y254968D02*
X403681Y255361D01*
X402894D01*
X402500Y254968D01*
Y253394D01*
X402894Y253000D01*
X403681D01*
X404074Y253394D01*
X406436Y255361D02*
X404861D01*
Y254181D01*
X405649Y254574D01*
X406042D01*
X406436Y254181D01*
Y253394D01*
X406042Y253000D01*
X405255D01*
X404861Y253394D01*
X407223Y253000D02*
X408010D01*
X407616D01*
Y255361D01*
X407223Y254968D01*
X406074Y265468D02*
X405681Y265861D01*
X404894D01*
X404500Y265468D01*
Y263894D01*
X404894Y263500D01*
X405681D01*
X406074Y263894D01*
X408436Y265861D02*
X406861D01*
Y264681D01*
X407649Y265074D01*
X408042D01*
X408436Y264681D01*
Y263894D01*
X408042Y263500D01*
X407255D01*
X406861Y263894D01*
X409223Y265861D02*
X410797D01*
Y265468D01*
X409223Y263894D01*
Y263500D01*
X404500Y269500D02*
Y271861D01*
X405681D01*
X406074Y271468D01*
Y270681D01*
X405681Y270287D01*
X404500D01*
X405287D02*
X406074Y269500D01*
X408042D02*
Y271861D01*
X406861Y270681D01*
X408436D01*
X409223Y271861D02*
X410797D01*
Y271468D01*
X409223Y269894D01*
Y269500D01*
X404032Y279574D02*
X403639Y279181D01*
Y278394D01*
X404032Y278000D01*
X405606D01*
X406000Y278394D01*
Y279181D01*
X405606Y279574D01*
X403639Y281936D02*
Y280361D01*
X404819D01*
X404426Y281149D01*
Y281542D01*
X404819Y281936D01*
X405606D01*
X406000Y281542D01*
Y280755D01*
X405606Y280361D01*
X406000Y283904D02*
X403639D01*
X404819Y282723D01*
Y284297D01*
X409074Y294968D02*
X408681Y295361D01*
X407894D01*
X407500Y294968D01*
Y293394D01*
X407894Y293000D01*
X408681D01*
X409074Y293394D01*
X411436Y295361D02*
X409861D01*
Y294181D01*
X410649Y294574D01*
X411042D01*
X411436Y294181D01*
Y293394D01*
X411042Y293000D01*
X410255D01*
X409861Y293394D01*
X412223Y294968D02*
X412616Y295361D01*
X413404D01*
X413797Y294968D01*
Y294574D01*
X413404Y294181D01*
X413010D01*
X413404D01*
X413797Y293787D01*
Y293394D01*
X413404Y293000D01*
X412616D01*
X412223Y293394D01*
X405574Y302468D02*
X405181Y302861D01*
X404394D01*
X404000Y302468D01*
Y300894D01*
X404394Y300500D01*
X405181D01*
X405574Y300894D01*
X407936Y302861D02*
X406361D01*
Y301681D01*
X407149Y302074D01*
X407542D01*
X407936Y301681D01*
Y300894D01*
X407542Y300500D01*
X406755D01*
X406361Y300894D01*
X410297Y300500D02*
X408723D01*
X410297Y302074D01*
Y302468D01*
X409904Y302861D01*
X409116D01*
X408723Y302468D01*
X404500Y305500D02*
Y307861D01*
X405681D01*
X406074Y307468D01*
Y306681D01*
X405681Y306287D01*
X404500D01*
X405287D02*
X406074Y305500D01*
X408042D02*
Y307861D01*
X406861Y306681D01*
X408436D01*
X410797Y307861D02*
X410010Y307468D01*
X409223Y306681D01*
Y305894D01*
X409616Y305500D01*
X410404D01*
X410797Y305894D01*
Y306287D01*
X410404Y306681D01*
X409223D01*
X406574Y315468D02*
X406181Y315861D01*
X405394D01*
X405000Y315468D01*
Y313894D01*
X405394Y313500D01*
X406181D01*
X406574Y313894D01*
X408542Y313500D02*
Y315861D01*
X407361Y314681D01*
X408936D01*
X410904Y313500D02*
Y315861D01*
X409723Y314681D01*
X411297D01*
X410000Y337861D02*
Y335500D01*
X411574D01*
X413542D02*
Y337861D01*
X412361Y336681D01*
X413936D01*
X411000Y349861D02*
Y347500D01*
X412181D01*
X412574Y347894D01*
Y349468D01*
X412181Y349861D01*
X411000D01*
X413361Y349468D02*
X413755Y349861D01*
X414542D01*
X414936Y349468D01*
Y349074D01*
X414542Y348681D01*
X414149D01*
X414542D01*
X414936Y348287D01*
Y347894D01*
X414542Y347500D01*
X413755D01*
X413361Y347894D01*
X378074Y333968D02*
X377681Y334361D01*
X376894D01*
X376500Y333968D01*
Y332394D01*
X376894Y332000D01*
X377681D01*
X378074Y332394D01*
X380042Y332000D02*
Y334361D01*
X378861Y333181D01*
X380436D01*
X381223Y334361D02*
X382797D01*
Y333968D01*
X381223Y332394D01*
Y332000D01*
X357074Y324968D02*
X356681Y325361D01*
X355894D01*
X355500Y324968D01*
Y323394D01*
X355894Y323000D01*
X356681D01*
X357074Y323394D01*
X359042Y323000D02*
Y325361D01*
X357861Y324181D01*
X359436D01*
X360223Y324968D02*
X360616Y325361D01*
X361404D01*
X361797Y324968D01*
Y324574D01*
X361404Y324181D01*
X361010D01*
X361404D01*
X361797Y323787D01*
Y323394D01*
X361404Y323000D01*
X360616D01*
X360223Y323394D01*
X340574Y325468D02*
X340181Y325861D01*
X339394D01*
X339000Y325468D01*
Y323894D01*
X339394Y323500D01*
X340181D01*
X340574Y323894D01*
X341361Y323500D02*
X342149D01*
X341755D01*
Y325861D01*
X341361Y325468D01*
X343329Y325861D02*
X344904D01*
Y325468D01*
X343329Y323894D01*
Y323500D01*
X333000Y319861D02*
Y317894D01*
X333394Y317500D01*
X334181D01*
X334574Y317894D01*
Y319861D01*
X336542Y317500D02*
Y319861D01*
X335361Y318681D01*
X336936D01*
X346032Y334074D02*
X345639Y333681D01*
Y332894D01*
X346032Y332500D01*
X347606D01*
X348000Y332894D01*
Y333681D01*
X347606Y334074D01*
X346032Y334861D02*
X345639Y335255D01*
Y336042D01*
X346032Y336436D01*
X346426D01*
X346819Y336042D01*
Y335649D01*
Y336042D01*
X347213Y336436D01*
X347606D01*
X348000Y336042D01*
Y335255D01*
X347606Y334861D01*
X345639Y337223D02*
Y338797D01*
X346032D01*
X347606Y337223D01*
X348000D01*
X346032Y349074D02*
X345639Y348681D01*
Y347894D01*
X346032Y347500D01*
X347606D01*
X348000Y347894D01*
Y348681D01*
X347606Y349074D01*
X345639Y351436D02*
Y349861D01*
X346819D01*
X346426Y350649D01*
Y351042D01*
X346819Y351436D01*
X347606D01*
X348000Y351042D01*
Y350255D01*
X347606Y349861D01*
X346032Y352223D02*
X345639Y352616D01*
Y353404D01*
X346032Y353797D01*
X346426D01*
X346819Y353404D01*
X347213Y353797D01*
X347606D01*
X348000Y353404D01*
Y352616D01*
X347606Y352223D01*
X347213D01*
X346819Y352616D01*
X346426Y352223D01*
X346032D01*
X346819Y352616D02*
Y353404D01*
X339500Y355500D02*
X337139D01*
Y356681D01*
X337532Y357074D01*
X338319D01*
X338713Y356681D01*
Y355500D01*
Y356287D02*
X339500Y357074D01*
Y359042D02*
X337139D01*
X338319Y357861D01*
Y359436D01*
X337532Y360223D02*
X337139Y360616D01*
Y361404D01*
X337532Y361797D01*
X337926D01*
X338319Y361404D01*
Y361010D01*
Y361404D01*
X338713Y361797D01*
X339106D01*
X339500Y361404D01*
Y360616D01*
X339106Y360223D01*
X332532Y331574D02*
X332139Y331181D01*
Y330394D01*
X332532Y330000D01*
X334106D01*
X334500Y330394D01*
Y331181D01*
X334106Y331574D01*
X332532Y332361D02*
X332139Y332755D01*
Y333542D01*
X332532Y333936D01*
X332926D01*
X333319Y333542D01*
Y333149D01*
Y333542D01*
X333713Y333936D01*
X334106D01*
X334500Y333542D01*
Y332755D01*
X334106Y332361D01*
X334500Y335904D02*
X332139D01*
X333319Y334723D01*
Y336297D01*
X328500Y329500D02*
X326139D01*
Y330681D01*
X326532Y331074D01*
X327319D01*
X327713Y330681D01*
Y329500D01*
Y330287D02*
X328500Y331074D01*
X326532Y331861D02*
X326139Y332255D01*
Y333042D01*
X326532Y333436D01*
X326926D01*
X327319Y333042D01*
Y332649D01*
Y333042D01*
X327713Y333436D01*
X328106D01*
X328500Y333042D01*
Y332255D01*
X328106Y331861D01*
Y334223D02*
X328500Y334616D01*
Y335404D01*
X328106Y335797D01*
X326532D01*
X326139Y335404D01*
Y334616D01*
X326532Y334223D01*
X326926D01*
X327319Y334616D01*
Y335797D01*
X341032Y357074D02*
X340639Y356681D01*
Y355894D01*
X341032Y355500D01*
X342606D01*
X343000Y355894D01*
Y356681D01*
X342606Y357074D01*
X341032Y357861D02*
X340639Y358255D01*
Y359042D01*
X341032Y359436D01*
X341426D01*
X341819Y359042D01*
Y358649D01*
Y359042D01*
X342213Y359436D01*
X342606D01*
X343000Y359042D01*
Y358255D01*
X342606Y357861D01*
X341032Y360223D02*
X340639Y360616D01*
Y361404D01*
X341032Y361797D01*
X342606D01*
X343000Y361404D01*
Y360616D01*
X342606Y360223D01*
X341032D01*
X337000Y366500D02*
Y368861D01*
X338181D01*
X338574Y368468D01*
Y367681D01*
X338181Y367287D01*
X337000D01*
X337787D02*
X338574Y366500D01*
X340542D02*
Y368861D01*
X339361Y367681D01*
X340936D01*
X342904Y366500D02*
Y368861D01*
X341723Y367681D01*
X343297D01*
X325000Y377500D02*
Y379861D01*
X326181D01*
X326574Y379468D01*
Y378681D01*
X326181Y378287D01*
X325000D01*
X325787D02*
X326574Y377500D01*
X328542D02*
Y379861D01*
X327361Y378681D01*
X328936D01*
X331297Y379861D02*
X329723D01*
Y378681D01*
X330510Y379074D01*
X330904D01*
X331297Y378681D01*
Y377894D01*
X330904Y377500D01*
X330116D01*
X329723Y377894D01*
X315000Y339861D02*
Y337500D01*
X316574D01*
X318936Y339861D02*
X317361D01*
Y337500D01*
X318936D01*
X317361Y338681D02*
X318149D01*
X319723Y339861D02*
Y337500D01*
X320904D01*
X321297Y337894D01*
Y339468D01*
X320904Y339861D01*
X319723D01*
X322084Y339468D02*
X322478Y339861D01*
X323265D01*
X323659Y339468D01*
Y339074D01*
X323265Y338681D01*
X322871D01*
X323265D01*
X323659Y338287D01*
Y337894D01*
X323265Y337500D01*
X322478D01*
X322084Y337894D01*
X316000Y374000D02*
Y376361D01*
X317181D01*
X317574Y375968D01*
Y375181D01*
X317181Y374787D01*
X316000D01*
X316787D02*
X317574Y374000D01*
X318361Y375968D02*
X318755Y376361D01*
X319542D01*
X319936Y375968D01*
Y375574D01*
X319542Y375181D01*
X319149D01*
X319542D01*
X319936Y374787D01*
Y374394D01*
X319542Y374000D01*
X318755D01*
X318361Y374394D01*
X320723Y374000D02*
X321510D01*
X321116D01*
Y376361D01*
X320723Y375968D01*
X312000Y358500D02*
X309639D01*
Y359681D01*
X310032Y360074D01*
X310819D01*
X311213Y359681D01*
Y358500D01*
Y359287D02*
X312000Y360074D01*
X310032Y360861D02*
X309639Y361255D01*
Y362042D01*
X310032Y362436D01*
X310426D01*
X310819Y362042D01*
Y361649D01*
Y362042D01*
X311213Y362436D01*
X311606D01*
X312000Y362042D01*
Y361255D01*
X311606Y360861D01*
X309639Y364797D02*
Y363223D01*
X310819D01*
X310426Y364010D01*
Y364404D01*
X310819Y364797D01*
X311606D01*
X312000Y364404D01*
Y363616D01*
X311606Y363223D01*
X300500Y373000D02*
Y375361D01*
X301681D01*
X302074Y374968D01*
Y374181D01*
X301681Y373787D01*
X300500D01*
X301287D02*
X302074Y373000D01*
X302861Y374968D02*
X303255Y375361D01*
X304042D01*
X304436Y374968D01*
Y374574D01*
X304042Y374181D01*
X303649D01*
X304042D01*
X304436Y373787D01*
Y373394D01*
X304042Y373000D01*
X303255D01*
X302861Y373394D01*
X306797Y373000D02*
X305223D01*
X306797Y374574D01*
Y374968D01*
X306404Y375361D01*
X305616D01*
X305223Y374968D01*
X300000Y379361D02*
Y377000D01*
X301574D01*
X303936Y379361D02*
X302361D01*
Y377000D01*
X303936D01*
X302361Y378181D02*
X303149D01*
X304723Y379361D02*
Y377000D01*
X305904D01*
X306297Y377394D01*
Y378968D01*
X305904Y379361D01*
X304723D01*
X308265Y377000D02*
Y379361D01*
X307084Y378181D01*
X308659D01*
X298000Y358000D02*
X295639D01*
Y359181D01*
X296032Y359574D01*
X296819D01*
X297213Y359181D01*
Y358000D01*
Y358787D02*
X298000Y359574D01*
X296032Y360361D02*
X295639Y360755D01*
Y361542D01*
X296032Y361936D01*
X296426D01*
X296819Y361542D01*
Y361149D01*
Y361542D01*
X297213Y361936D01*
X297606D01*
X298000Y361542D01*
Y360755D01*
X297606Y360361D01*
X295639Y364297D02*
X296032Y363510D01*
X296819Y362723D01*
X297606D01*
X298000Y363116D01*
Y363904D01*
X297606Y364297D01*
X297213D01*
X296819Y363904D01*
Y362723D01*
X302500Y323000D02*
X300139D01*
Y324181D01*
X300532Y324574D01*
X301319D01*
X301713Y324181D01*
Y323000D01*
Y323787D02*
X302500Y324574D01*
X300532Y325361D02*
X300139Y325755D01*
Y326542D01*
X300532Y326936D01*
X300926D01*
X301319Y326542D01*
Y326149D01*
Y326542D01*
X301713Y326936D01*
X302106D01*
X302500Y326542D01*
Y325755D01*
X302106Y325361D01*
X300532Y327723D02*
X300139Y328116D01*
Y328904D01*
X300532Y329297D01*
X300926D01*
X301319Y328904D01*
X301713Y329297D01*
X302106D01*
X302500Y328904D01*
Y328116D01*
X302106Y327723D01*
X301713D01*
X301319Y328116D01*
X300926Y327723D01*
X300532D01*
X301319Y328116D02*
Y328904D01*
X286500Y343500D02*
Y345861D01*
X287681D01*
X288074Y345468D01*
Y344681D01*
X287681Y344287D01*
X286500D01*
X287287D02*
X288074Y343500D01*
X288861Y345468D02*
X289255Y345861D01*
X290042D01*
X290436Y345468D01*
Y345074D01*
X290042Y344681D01*
X289649D01*
X290042D01*
X290436Y344287D01*
Y343894D01*
X290042Y343500D01*
X289255D01*
X288861Y343894D01*
X291223Y345468D02*
X291616Y345861D01*
X292404D01*
X292797Y345468D01*
Y345074D01*
X292404Y344681D01*
X292010D01*
X292404D01*
X292797Y344287D01*
Y343894D01*
X292404Y343500D01*
X291616D01*
X291223Y343894D01*
X288000Y328861D02*
Y326500D01*
X289574D01*
X291936Y328861D02*
X290361D01*
Y326500D01*
X291936D01*
X290361Y327681D02*
X291149D01*
X292723Y328861D02*
Y326500D01*
X293904D01*
X294297Y326894D01*
Y328468D01*
X293904Y328861D01*
X292723D01*
X296659D02*
X295084D01*
Y327681D01*
X295871Y328074D01*
X296265D01*
X296659Y327681D01*
Y326894D01*
X296265Y326500D01*
X295478D01*
X295084Y326894D01*
X313500Y326500D02*
Y328861D01*
X314681D01*
X315074Y328468D01*
Y327681D01*
X314681Y327287D01*
X313500D01*
X314287D02*
X315074Y326500D01*
X317042D02*
Y328861D01*
X315861Y327681D01*
X317436D01*
X318223Y328468D02*
X318616Y328861D01*
X319404D01*
X319797Y328468D01*
Y326894D01*
X319404Y326500D01*
X318616D01*
X318223Y326894D01*
Y328468D01*
X293074Y320468D02*
X292681Y320861D01*
X291894D01*
X291500Y320468D01*
Y318894D01*
X291894Y318500D01*
X292681D01*
X293074Y318894D01*
X293861Y318500D02*
X294649D01*
X294255D01*
Y320861D01*
X293861Y320468D01*
X297404Y320861D02*
X296616Y320468D01*
X295829Y319681D01*
Y318894D01*
X296223Y318500D01*
X297010D01*
X297404Y318894D01*
Y319287D01*
X297010Y319681D01*
X295829D01*
X296074Y304468D02*
X295681Y304861D01*
X294894D01*
X294500Y304468D01*
Y302894D01*
X294894Y302500D01*
X295681D01*
X296074Y302894D01*
X298436Y302500D02*
X296861D01*
X298436Y304074D01*
Y304468D01*
X298042Y304861D01*
X297255D01*
X296861Y304468D01*
X311074Y308968D02*
X310681Y309361D01*
X309894D01*
X309500Y308968D01*
Y307394D01*
X309894Y307000D01*
X310681D01*
X311074Y307394D01*
X311861Y308968D02*
X312255Y309361D01*
X313042D01*
X313436Y308968D01*
Y308574D01*
X313042Y308181D01*
X312649D01*
X313042D01*
X313436Y307787D01*
Y307394D01*
X313042Y307000D01*
X312255D01*
X311861Y307394D01*
X315797Y309361D02*
X314223D01*
Y308181D01*
X315010Y308574D01*
X315404D01*
X315797Y308181D01*
Y307394D01*
X315404Y307000D01*
X314616D01*
X314223Y307394D01*
X315074Y297968D02*
X314681Y298361D01*
X313894D01*
X313500Y297968D01*
Y296394D01*
X313894Y296000D01*
X314681D01*
X315074Y296394D01*
X315861Y297968D02*
X316255Y298361D01*
X317042D01*
X317436Y297968D01*
Y297574D01*
X317042Y297181D01*
X316649D01*
X317042D01*
X317436Y296787D01*
Y296394D01*
X317042Y296000D01*
X316255D01*
X315861Y296394D01*
X319797Y298361D02*
X319010Y297968D01*
X318223Y297181D01*
Y296394D01*
X318616Y296000D01*
X319404D01*
X319797Y296394D01*
Y296787D01*
X319404Y297181D01*
X318223D01*
X296500Y288000D02*
Y290361D01*
X297681D01*
X298074Y289968D01*
Y289181D01*
X297681Y288787D01*
X296500D01*
X297287D02*
X298074Y288000D01*
X298861Y289968D02*
X299255Y290361D01*
X300042D01*
X300436Y289968D01*
Y289574D01*
X300042Y289181D01*
X299649D01*
X300042D01*
X300436Y288787D01*
Y288394D01*
X300042Y288000D01*
X299255D01*
X298861Y288394D01*
X301223Y290361D02*
X302797D01*
Y289968D01*
X301223Y288394D01*
Y288000D01*
X304074Y284468D02*
X303681Y284861D01*
X302894D01*
X302500Y284468D01*
Y282894D01*
X302894Y282500D01*
X303681D01*
X304074Y282894D01*
X304861Y284468D02*
X305255Y284861D01*
X306042D01*
X306436Y284468D01*
Y284074D01*
X306042Y283681D01*
X305649D01*
X306042D01*
X306436Y283287D01*
Y282894D01*
X306042Y282500D01*
X305255D01*
X304861Y282894D01*
X307223Y282500D02*
X308010D01*
X307616D01*
Y284861D01*
X307223Y284468D01*
X312032Y277574D02*
X311639Y277181D01*
Y276394D01*
X312032Y276000D01*
X313606D01*
X314000Y276394D01*
Y277181D01*
X313606Y277574D01*
X311639Y279936D02*
Y278361D01*
X312819D01*
X312426Y279149D01*
Y279542D01*
X312819Y279936D01*
X313606D01*
X314000Y279542D01*
Y278755D01*
X313606Y278361D01*
X311639Y282297D02*
Y280723D01*
X312819D01*
X312426Y281510D01*
Y281904D01*
X312819Y282297D01*
X313606D01*
X314000Y281904D01*
Y281116D01*
X313606Y280723D01*
X293000Y276500D02*
Y278861D01*
X294181D01*
X294574Y278468D01*
Y277681D01*
X294181Y277287D01*
X293000D01*
X293787D02*
X294574Y276500D01*
X295361Y278468D02*
X295755Y278861D01*
X296542D01*
X296936Y278468D01*
Y278074D01*
X296542Y277681D01*
X296149D01*
X296542D01*
X296936Y277287D01*
Y276894D01*
X296542Y276500D01*
X295755D01*
X295361Y276894D01*
X298904Y276500D02*
Y278861D01*
X297723Y277681D01*
X299297D01*
X286532Y268574D02*
X286139Y268181D01*
Y267394D01*
X286532Y267000D01*
X288106D01*
X288500Y267394D01*
Y268181D01*
X288106Y268574D01*
X288500Y269361D02*
Y270149D01*
Y269755D01*
X286139D01*
X286532Y269361D01*
X286139Y272904D02*
Y271329D01*
X287319D01*
X286926Y272116D01*
Y272510D01*
X287319Y272904D01*
X288106D01*
X288500Y272510D01*
Y271723D01*
X288106Y271329D01*
X282500Y257000D02*
Y259361D01*
X283681D01*
X284074Y258968D01*
Y258181D01*
X283681Y257787D01*
X282500D01*
X283287D02*
X284074Y257000D01*
X286042D02*
Y259361D01*
X284861Y258181D01*
X286436D01*
X287223Y257000D02*
X288010D01*
X287616D01*
Y259361D01*
X287223Y258968D01*
X279500Y249000D02*
Y251361D01*
X280681D01*
X281074Y250968D01*
Y250181D01*
X280681Y249787D01*
X279500D01*
X280287D02*
X281074Y249000D01*
X283042D02*
Y251361D01*
X281861Y250181D01*
X283436D01*
X285797Y249000D02*
X284223D01*
X285797Y250574D01*
Y250968D01*
X285404Y251361D01*
X284616D01*
X284223Y250968D01*
X320074Y236968D02*
X319681Y237361D01*
X318894D01*
X318500Y236968D01*
Y235394D01*
X318894Y235000D01*
X319681D01*
X320074Y235394D01*
X322436Y235000D02*
X320861D01*
X322436Y236574D01*
Y236968D01*
X322042Y237361D01*
X321255D01*
X320861Y236968D01*
X323223D02*
X323616Y237361D01*
X324404D01*
X324797Y236968D01*
Y236574D01*
X324404Y236181D01*
X324797Y235787D01*
Y235394D01*
X324404Y235000D01*
X323616D01*
X323223Y235394D01*
Y235787D01*
X323616Y236181D01*
X323223Y236574D01*
Y236968D01*
X323616Y236181D02*
X324404D01*
X316000Y244861D02*
Y242500D01*
X317181D01*
X317574Y242894D01*
Y244468D01*
X317181Y244861D01*
X316000D01*
X318361Y242500D02*
X319149D01*
X318755D01*
Y244861D01*
X318361Y244468D01*
X277574Y255968D02*
X277181Y256361D01*
X276394D01*
X276000Y255968D01*
Y254394D01*
X276394Y254000D01*
X277181D01*
X277574Y254394D01*
X279542Y254000D02*
Y256361D01*
X278361Y255181D01*
X279936D01*
X264500Y249361D02*
Y247000D01*
X265681D01*
X266074Y247394D01*
Y248968D01*
X265681Y249361D01*
X264500D01*
X268436Y247000D02*
X266861D01*
X268436Y248574D01*
Y248968D01*
X268042Y249361D01*
X267255D01*
X266861Y248968D01*
X274074Y231468D02*
X273681Y231861D01*
X272894D01*
X272500Y231468D01*
Y229894D01*
X272894Y229500D01*
X273681D01*
X274074Y229894D01*
X274861Y231468D02*
X275255Y231861D01*
X276042D01*
X276436Y231468D01*
Y231074D01*
X276042Y230681D01*
X275649D01*
X276042D01*
X276436Y230287D01*
Y229894D01*
X276042Y229500D01*
X275255D01*
X274861Y229894D01*
X278797Y229500D02*
X277223D01*
X278797Y231074D01*
Y231468D01*
X278404Y231861D01*
X277616D01*
X277223Y231468D01*
X217074Y258968D02*
X216681Y259361D01*
X215894D01*
X215500Y258968D01*
Y257394D01*
X215894Y257000D01*
X216681D01*
X217074Y257394D01*
X219436Y259361D02*
X217861D01*
Y258181D01*
X218649Y258574D01*
X219042D01*
X219436Y258181D01*
Y257394D01*
X219042Y257000D01*
X218255D01*
X217861Y257394D01*
X213500Y235500D02*
Y237861D01*
X214681D01*
X215074Y237468D01*
Y236681D01*
X214681Y236287D01*
X213500D01*
X214287D02*
X215074Y235500D01*
X217436Y237861D02*
X215861D01*
Y236681D01*
X216649Y237074D01*
X217042D01*
X217436Y236681D01*
Y235894D01*
X217042Y235500D01*
X216255D01*
X215861Y235894D01*
X235500Y250000D02*
Y252361D01*
X236681D01*
X237074Y251968D01*
Y251181D01*
X236681Y250787D01*
X235500D01*
X237861Y250000D02*
X238649D01*
X238255D01*
Y252361D01*
X237861Y251968D01*
X171500Y217000D02*
Y219361D01*
X172681D01*
X173074Y218968D01*
Y218181D01*
X172681Y217787D01*
X171500D01*
X172287D02*
X173074Y217000D01*
X173861D02*
X174649D01*
X174255D01*
Y219361D01*
X173861Y218968D01*
X175829D02*
X176223Y219361D01*
X177010D01*
X177404Y218968D01*
Y218574D01*
X177010Y218181D01*
X176617D01*
X177010D01*
X177404Y217787D01*
Y217394D01*
X177010Y217000D01*
X176223D01*
X175829Y217394D01*
X179000Y217000D02*
Y219361D01*
X180181D01*
X180574Y218968D01*
Y218181D01*
X180181Y217787D01*
X179000D01*
X179787D02*
X180574Y217000D01*
X181361D02*
X182149D01*
X181755D01*
Y219361D01*
X181361Y218968D01*
X184510Y217000D02*
Y219361D01*
X183329Y218181D01*
X184904D01*
X186000Y217000D02*
Y219361D01*
X187181D01*
X187574Y218968D01*
Y218181D01*
X187181Y217787D01*
X186000D01*
X186787D02*
X187574Y217000D01*
X188361D02*
X189149D01*
X188755D01*
Y219361D01*
X188361Y218968D01*
X191904Y217000D02*
X190329D01*
X191904Y218574D01*
Y218968D01*
X191510Y219361D01*
X190723D01*
X190329Y218968D01*
X193000Y217000D02*
Y219361D01*
X194181D01*
X194574Y218968D01*
Y218181D01*
X194181Y217787D01*
X193000D01*
X193787D02*
X194574Y217000D01*
X195361D02*
X196149D01*
X195755D01*
Y219361D01*
X195361Y218968D01*
X198904Y219361D02*
X197329D01*
Y218181D01*
X198117Y218574D01*
X198510D01*
X198904Y218181D01*
Y217394D01*
X198510Y217000D01*
X197723D01*
X197329Y217394D01*
X200500Y217000D02*
Y219361D01*
X201681D01*
X202074Y218968D01*
Y218181D01*
X201681Y217787D01*
X200500D01*
X201287D02*
X202074Y217000D01*
X202861D02*
X203649D01*
X203255D01*
Y219361D01*
X202861Y218968D01*
X204829Y217000D02*
X205616D01*
X205223D01*
Y219361D01*
X204829Y218968D01*
X213500Y207000D02*
X211139D01*
Y208181D01*
X211532Y208574D01*
X212319D01*
X212713Y208181D01*
Y207000D01*
Y207787D02*
X213500Y208574D01*
Y209361D02*
Y210149D01*
Y209755D01*
X211139D01*
X211532Y209361D01*
X211139Y212904D02*
X211532Y212116D01*
X212319Y211329D01*
X213106D01*
X213500Y211723D01*
Y212510D01*
X213106Y212904D01*
X212713D01*
X212319Y212510D01*
Y211329D01*
X164574Y219968D02*
X164181Y220361D01*
X163394D01*
X163000Y219968D01*
Y218394D01*
X163394Y218000D01*
X164181D01*
X164574Y218394D01*
X165361Y218000D02*
X166149D01*
X165755D01*
Y220361D01*
X165361Y219968D01*
X167329Y218394D02*
X167723Y218000D01*
X168510D01*
X168904Y218394D01*
Y219968D01*
X168510Y220361D01*
X167723D01*
X167329Y219968D01*
Y219574D01*
X167723Y219181D01*
X168904D01*
X205574Y227468D02*
X205181Y227861D01*
X204394D01*
X204000Y227468D01*
Y225894D01*
X204394Y225500D01*
X205181D01*
X205574Y225894D01*
X206361Y225500D02*
X207149D01*
X206755D01*
Y227861D01*
X206361Y227468D01*
X208329D02*
X208723Y227861D01*
X209510D01*
X209904Y227468D01*
Y225894D01*
X209510Y225500D01*
X208723D01*
X208329Y225894D01*
Y227468D01*
X191574Y227968D02*
X191181Y228361D01*
X190394D01*
X190000Y227968D01*
Y226394D01*
X190394Y226000D01*
X191181D01*
X191574Y226394D01*
X192361Y226000D02*
X193149D01*
X192755D01*
Y228361D01*
X192361Y227968D01*
X194329Y226000D02*
X195116D01*
X194723D01*
Y228361D01*
X194329Y227968D01*
X176574D02*
X176181Y228361D01*
X175394D01*
X175000Y227968D01*
Y226394D01*
X175394Y226000D01*
X176181D01*
X176574Y226394D01*
X177361Y226000D02*
X178149D01*
X177755D01*
Y228361D01*
X177361Y227968D01*
X179329D02*
X179723Y228361D01*
X180510D01*
X180904Y227968D01*
Y227574D01*
X180510Y227181D01*
X180116D01*
X180510D01*
X180904Y226787D01*
Y226394D01*
X180510Y226000D01*
X179723D01*
X179329Y226394D01*
X194500Y242000D02*
Y244361D01*
X195681D01*
X196074Y243968D01*
Y243181D01*
X195681Y242787D01*
X194500D01*
X195287D02*
X196074Y242000D01*
X198436Y244361D02*
X197649Y243968D01*
X196861Y243181D01*
Y242394D01*
X197255Y242000D01*
X198042D01*
X198436Y242394D01*
Y242787D01*
X198042Y243181D01*
X196861D01*
X198074Y250468D02*
X197681Y250861D01*
X196894D01*
X196500Y250468D01*
Y248894D01*
X196894Y248500D01*
X197681D01*
X198074Y248894D01*
X198861Y250861D02*
X200436D01*
Y250468D01*
X198861Y248894D01*
Y248500D01*
X203074Y271968D02*
X202681Y272361D01*
X201894D01*
X201500Y271968D01*
Y270394D01*
X201894Y270000D01*
X202681D01*
X203074Y270394D01*
X203861Y270000D02*
X204649D01*
X204255D01*
Y272361D01*
X203861Y271968D01*
X207404Y270000D02*
X205829D01*
X207404Y271574D01*
Y271968D01*
X207010Y272361D01*
X206223D01*
X205829Y271968D01*
X194500Y272861D02*
Y270500D01*
X196074D01*
X198436D02*
X196861D01*
X198436Y272074D01*
Y272468D01*
X198042Y272861D01*
X197255D01*
X196861Y272468D01*
X181500Y277000D02*
Y279361D01*
X182681D01*
X183074Y278968D01*
Y278181D01*
X182681Y277787D01*
X181500D01*
X182287D02*
X183074Y277000D01*
X183861Y279361D02*
X185436D01*
Y278968D01*
X183861Y277394D01*
Y277000D01*
X208000Y373361D02*
Y371394D01*
X208394Y371000D01*
X209181D01*
X209574Y371394D01*
Y373361D01*
X211936Y371000D02*
X210361D01*
X211936Y372574D01*
Y372968D01*
X211542Y373361D01*
X210755D01*
X210361Y372968D01*
X161574Y263968D02*
X161181Y264361D01*
X160394D01*
X160000Y263968D01*
Y263574D01*
X160394Y263181D01*
X161181D01*
X161574Y262787D01*
Y262394D01*
X161181Y262000D01*
X160394D01*
X160000Y262394D01*
X162361Y262000D02*
X163149D01*
X162755D01*
Y264361D01*
X162361Y263968D01*
X162532Y273074D02*
X162139Y272681D01*
Y271894D01*
X162532Y271500D01*
X164106D01*
X164500Y271894D01*
Y272681D01*
X164106Y273074D01*
X162532Y273861D02*
X162139Y274255D01*
Y275042D01*
X162532Y275436D01*
X162926D01*
X163319Y275042D01*
X163713Y275436D01*
X164106D01*
X164500Y275042D01*
Y274255D01*
X164106Y273861D01*
X163713D01*
X163319Y274255D01*
X162926Y273861D01*
X162532D01*
X163319Y274255D02*
Y275042D01*
X162032Y283574D02*
X161639Y283181D01*
Y282394D01*
X162032Y282000D01*
X163606D01*
X164000Y282394D01*
Y283181D01*
X163606Y283574D01*
Y284361D02*
X164000Y284755D01*
Y285542D01*
X163606Y285936D01*
X162032D01*
X161639Y285542D01*
Y284755D01*
X162032Y284361D01*
X162426D01*
X162819Y284755D01*
Y285936D01*
X179500Y289361D02*
Y287000D01*
X181074D01*
X181861D02*
X182649D01*
X182255D01*
Y289361D01*
X181861Y288968D01*
X165074Y295468D02*
X164681Y295861D01*
X163894D01*
X163500Y295468D01*
Y293894D01*
X163894Y293500D01*
X164681D01*
X165074Y293894D01*
X165861Y295468D02*
X166255Y295861D01*
X167042D01*
X167436Y295468D01*
Y295074D01*
X167042Y294681D01*
X166649D01*
X167042D01*
X167436Y294287D01*
Y293894D01*
X167042Y293500D01*
X166255D01*
X165861Y293894D01*
X191500Y340500D02*
Y342861D01*
X192681D01*
X193074Y342468D01*
Y341681D01*
X192681Y341287D01*
X191500D01*
X192287D02*
X193074Y340500D01*
X193861D02*
X194649D01*
X194255D01*
Y342861D01*
X193861Y342468D01*
X195829D02*
X196223Y342861D01*
X197010D01*
X197404Y342468D01*
Y340894D01*
X197010Y340500D01*
X196223D01*
X195829Y340894D01*
Y342468D01*
X191500Y345500D02*
Y347861D01*
X192681D01*
X193074Y347468D01*
Y346681D01*
X192681Y346287D01*
X191500D01*
X192287D02*
X193074Y345500D01*
X193861Y345894D02*
X194255Y345500D01*
X195042D01*
X195436Y345894D01*
Y347468D01*
X195042Y347861D01*
X194255D01*
X193861Y347468D01*
Y347074D01*
X194255Y346681D01*
X195436D01*
X161139Y354000D02*
X163500D01*
Y355574D01*
X161139Y357936D02*
Y356361D01*
X163500D01*
Y357936D01*
X162319Y356361D02*
Y357149D01*
X161139Y358723D02*
X163500D01*
Y359904D01*
X163106Y360297D01*
X161532D01*
X161139Y359904D01*
Y358723D01*
X163500Y362659D02*
Y361084D01*
X161926Y362659D01*
X161532D01*
X161139Y362265D01*
Y361478D01*
X161532Y361084D01*
X165639Y354000D02*
X168000D01*
Y355574D01*
X165639Y357936D02*
Y356361D01*
X168000D01*
Y357936D01*
X166819Y356361D02*
Y357149D01*
X165639Y358723D02*
X168000D01*
Y359904D01*
X167606Y360297D01*
X166032D01*
X165639Y359904D01*
Y358723D01*
X168000Y361084D02*
Y361872D01*
Y361478D01*
X165639D01*
X166032Y361084D01*
X163000Y326500D02*
X160639D01*
Y327681D01*
X161032Y328074D01*
X161819D01*
X162213Y327681D01*
Y326500D01*
X163000Y330042D02*
X160639D01*
X161819Y328861D01*
Y330436D01*
X162500Y311500D02*
X160139D01*
Y312681D01*
X160532Y313074D01*
X161319D01*
X161713Y312681D01*
Y311500D01*
X160139Y315436D02*
Y313861D01*
X161319D01*
X160926Y314649D01*
Y315042D01*
X161319Y315436D01*
X162106D01*
X162500Y315042D01*
Y314255D01*
X162106Y313861D01*
X200500Y302361D02*
X202074Y300000D01*
Y302361D02*
X200500Y300000D01*
X202861D02*
X203649D01*
X203255D01*
Y302361D01*
X202861Y301968D01*
X166074Y302968D02*
X165681Y303361D01*
X164894D01*
X164500Y302968D01*
Y301394D01*
X164894Y301000D01*
X165681D01*
X166074Y301394D01*
X166861Y301000D02*
X167649D01*
X167255D01*
Y303361D01*
X166861Y302968D01*
X204500Y320500D02*
Y322861D01*
X205681D01*
X206074Y322468D01*
Y321681D01*
X205681Y321287D01*
X204500D01*
X205287D02*
X206074Y320500D01*
X208436Y322861D02*
X206861D01*
Y321681D01*
X207649Y322074D01*
X208042D01*
X208436Y321681D01*
Y320894D01*
X208042Y320500D01*
X207255D01*
X206861Y320894D01*
X209223Y320500D02*
X210010D01*
X209616D01*
Y322861D01*
X209223Y322468D01*
X190000Y320500D02*
Y322861D01*
X191181D01*
X191574Y322468D01*
Y321681D01*
X191181Y321287D01*
X190000D01*
X190787D02*
X191574Y320500D01*
X193936Y322861D02*
X192361D01*
Y321681D01*
X193149Y322074D01*
X193542D01*
X193936Y321681D01*
Y320894D01*
X193542Y320500D01*
X192755D01*
X192361Y320894D01*
X194723Y322468D02*
X195116Y322861D01*
X195904D01*
X196297Y322468D01*
Y320894D01*
X195904Y320500D01*
X195116D01*
X194723Y320894D01*
Y322468D01*
X191500Y335000D02*
Y337361D01*
X192681D01*
X193074Y336968D01*
Y336181D01*
X192681Y335787D01*
X191500D01*
X192287D02*
X193074Y335000D01*
X195042D02*
Y337361D01*
X193861Y336181D01*
X195436D01*
X196223Y336968D02*
X196616Y337361D01*
X197404D01*
X197797Y336968D01*
Y336574D01*
X197404Y336181D01*
X197797Y335787D01*
Y335394D01*
X197404Y335000D01*
X196616D01*
X196223Y335394D01*
Y335787D01*
X196616Y336181D01*
X196223Y336574D01*
Y336968D01*
X196616Y336181D02*
X197404D01*
X206000Y335500D02*
X203639D01*
Y336681D01*
X204032Y337074D01*
X204819D01*
X205213Y336681D01*
Y335500D01*
Y336287D02*
X206000Y337074D01*
Y339042D02*
X203639D01*
X204819Y337861D01*
Y339436D01*
X205606Y340223D02*
X206000Y340616D01*
Y341404D01*
X205606Y341797D01*
X204032D01*
X203639Y341404D01*
Y340616D01*
X204032Y340223D01*
X204426D01*
X204819Y340616D01*
Y341797D01*
X213000Y327861D02*
Y325894D01*
X213394Y325500D01*
X214181D01*
X214574Y325894D01*
Y327861D01*
X215361Y325500D02*
X216149D01*
X215755D01*
Y327861D01*
X215361Y327468D01*
X240000Y335500D02*
Y337861D01*
X241181D01*
X241574Y337468D01*
Y336681D01*
X241181Y336287D01*
X240000D01*
X240787D02*
X241574Y335500D01*
X242361Y337468D02*
X242755Y337861D01*
X243542D01*
X243936Y337468D01*
Y337074D01*
X243542Y336681D01*
X243936Y336287D01*
Y335894D01*
X243542Y335500D01*
X242755D01*
X242361Y335894D01*
Y336287D01*
X242755Y336681D01*
X242361Y337074D01*
Y337468D01*
X242755Y336681D02*
X243542D01*
X231574Y343968D02*
X231181Y344361D01*
X230394D01*
X230000Y343968D01*
Y342394D01*
X230394Y342000D01*
X231181D01*
X231574Y342394D01*
X232361Y342000D02*
X233149D01*
X232755D01*
Y344361D01*
X232361Y343968D01*
X235510Y342000D02*
Y344361D01*
X234329Y343181D01*
X235904D01*
X243074Y348968D02*
X242681Y349361D01*
X241894D01*
X241500Y348968D01*
Y347394D01*
X241894Y347000D01*
X242681D01*
X243074Y347394D01*
X243861Y347000D02*
X244649D01*
X244255D01*
Y349361D01*
X243861Y348968D01*
X245829D02*
X246223Y349361D01*
X247010D01*
X247404Y348968D01*
Y348574D01*
X247010Y348181D01*
X247404Y347787D01*
Y347394D01*
X247010Y347000D01*
X246223D01*
X245829Y347394D01*
Y347787D01*
X246223Y348181D01*
X245829Y348574D01*
Y348968D01*
X246223Y348181D02*
X247010D01*
X245032Y385074D02*
X244639Y384681D01*
Y383894D01*
X245032Y383500D01*
X246606D01*
X247000Y383894D01*
Y384681D01*
X246606Y385074D01*
X247000Y387436D02*
Y385861D01*
X245426Y387436D01*
X245032D01*
X244639Y387042D01*
Y386255D01*
X245032Y385861D01*
X246606Y388223D02*
X247000Y388616D01*
Y389404D01*
X246606Y389797D01*
X245032D01*
X244639Y389404D01*
Y388616D01*
X245032Y388223D01*
X245426D01*
X245819Y388616D01*
Y389797D01*
X232574Y395968D02*
X232181Y396361D01*
X231394D01*
X231000Y395968D01*
Y394394D01*
X231394Y394000D01*
X232181D01*
X232574Y394394D01*
X233361Y395968D02*
X233755Y396361D01*
X234542D01*
X234936Y395968D01*
Y395574D01*
X234542Y395181D01*
X234149D01*
X234542D01*
X234936Y394787D01*
Y394394D01*
X234542Y394000D01*
X233755D01*
X233361Y394394D01*
X235723Y395968D02*
X236116Y396361D01*
X236904D01*
X237297Y395968D01*
Y395574D01*
X236904Y395181D01*
X236510D01*
X236904D01*
X237297Y394787D01*
Y394394D01*
X236904Y394000D01*
X236116D01*
X235723Y394394D01*
X226074Y378968D02*
X225681Y379361D01*
X224894D01*
X224500Y378968D01*
Y377394D01*
X224894Y377000D01*
X225681D01*
X226074Y377394D01*
X228436Y377000D02*
X226861D01*
X228436Y378574D01*
Y378968D01*
X228042Y379361D01*
X227255D01*
X226861Y378968D01*
X230797Y379361D02*
X229223D01*
Y378181D01*
X230010Y378574D01*
X230404D01*
X230797Y378181D01*
Y377394D01*
X230404Y377000D01*
X229616D01*
X229223Y377394D01*
X220574Y395968D02*
X220181Y396361D01*
X219394D01*
X219000Y395968D01*
Y394394D01*
X219394Y394000D01*
X220181D01*
X220574Y394394D01*
X222936Y394000D02*
X221361D01*
X222936Y395574D01*
Y395968D01*
X222542Y396361D01*
X221755D01*
X221361Y395968D01*
X223723Y396361D02*
X225297D01*
Y395968D01*
X223723Y394394D01*
Y394000D01*
X210574Y394468D02*
X210181Y394861D01*
X209394D01*
X209000Y394468D01*
Y392894D01*
X209394Y392500D01*
X210181D01*
X210574Y392894D01*
X212936Y392500D02*
X211361D01*
X212936Y394074D01*
Y394468D01*
X212542Y394861D01*
X211755D01*
X211361Y394468D01*
X215297Y392500D02*
X213723D01*
X215297Y394074D01*
Y394468D01*
X214904Y394861D01*
X214116D01*
X213723Y394468D01*
X202074Y392968D02*
X201681Y393361D01*
X200894D01*
X200500Y392968D01*
Y391394D01*
X200894Y391000D01*
X201681D01*
X202074Y391394D01*
X204436Y391000D02*
X202861D01*
X204436Y392574D01*
Y392968D01*
X204042Y393361D01*
X203255D01*
X202861Y392968D01*
X205223D02*
X205616Y393361D01*
X206404D01*
X206797Y392968D01*
Y391394D01*
X206404Y391000D01*
X205616D01*
X205223Y391394D01*
Y392968D01*
X194500Y368500D02*
Y370861D01*
X195681D01*
X196074Y370468D01*
Y369681D01*
X195681Y369287D01*
X194500D01*
X195287D02*
X196074Y368500D01*
X198436D02*
X196861D01*
X198436Y370074D01*
Y370468D01*
X198042Y370861D01*
X197255D01*
X196861Y370468D01*
X185500Y368500D02*
Y370861D01*
X186681D01*
X187074Y370468D01*
Y369681D01*
X186681Y369287D01*
X185500D01*
X186287D02*
X187074Y368500D01*
X187861Y370468D02*
X188255Y370861D01*
X189042D01*
X189436Y370468D01*
Y370074D01*
X189042Y369681D01*
X188649D01*
X189042D01*
X189436Y369287D01*
Y368894D01*
X189042Y368500D01*
X188255D01*
X187861Y368894D01*
X178000Y368500D02*
Y370861D01*
X179181D01*
X179574Y370468D01*
Y369681D01*
X179181Y369287D01*
X178000D01*
X178787D02*
X179574Y368500D01*
X181542D02*
Y370861D01*
X180361Y369681D01*
X181936D01*
X170000Y368500D02*
Y370861D01*
X171181D01*
X171574Y370468D01*
Y369681D01*
X171181Y369287D01*
X170000D01*
X170787D02*
X171574Y368500D01*
X172361D02*
X173149D01*
X172755D01*
Y370861D01*
X172361Y370468D01*
X255100Y382461D02*
Y380100D01*
Y381281D01*
X256674D01*
Y382461D01*
Y380100D01*
X257461D02*
X258249D01*
X257855D01*
Y382461D01*
X257461Y382068D01*
X215000Y231500D02*
Y233861D01*
X216181D01*
X216574Y233468D01*
Y232681D01*
X216181Y232287D01*
X215000D01*
X217361Y233861D02*
Y231500D01*
X218149Y232287D01*
X218936Y231500D01*
Y233861D01*
X219723Y231500D02*
Y233861D01*
X220904D01*
X221297Y233468D01*
Y232681D01*
X220904Y232287D01*
X219723D01*
X220510D02*
X221297Y231500D01*
X222084D02*
X222871D01*
X222478D01*
Y233861D01*
X222084Y233468D01*
X459500Y247500D02*
Y249861D01*
X460681D01*
X461074Y249468D01*
Y248681D01*
X460681Y248287D01*
X459500D01*
X460287D02*
X461074Y247500D01*
X461861D02*
X462649D01*
X462255D01*
Y249861D01*
X461861Y249468D01*
X463829Y249861D02*
X465404D01*
Y249468D01*
X463829Y247894D01*
Y247500D01*
X495000Y242500D02*
Y244861D01*
X496181D01*
X496574Y244468D01*
Y243681D01*
X496181Y243287D01*
X495000D01*
X495787D02*
X496574Y242500D01*
X497361D02*
X498149D01*
X497755D01*
Y244861D01*
X497361Y244468D01*
X499329D02*
X499723Y244861D01*
X500510D01*
X500904Y244468D01*
Y244074D01*
X500510Y243681D01*
X500904Y243287D01*
Y242894D01*
X500510Y242500D01*
X499723D01*
X499329Y242894D01*
Y243287D01*
X499723Y243681D01*
X499329Y244074D01*
Y244468D01*
X499723Y243681D02*
X500510D01*
X432000Y253500D02*
Y255861D01*
X433181D01*
X433574Y255468D01*
Y254681D01*
X433181Y254287D01*
X432000D01*
X432787D02*
X433574Y253500D01*
X434361D02*
X435149D01*
X434755D01*
Y255861D01*
X434361Y255468D01*
X436329Y253894D02*
X436723Y253500D01*
X437510D01*
X437904Y253894D01*
Y255468D01*
X437510Y255861D01*
X436723D01*
X436329Y255468D01*
Y255074D01*
X436723Y254681D01*
X437904D01*
X501500Y225000D02*
Y227361D01*
X502681D01*
X503074Y226968D01*
Y226181D01*
X502681Y225787D01*
X501500D01*
X502287D02*
X503074Y225000D01*
X505436D02*
X503861D01*
X505436Y226574D01*
Y226968D01*
X505042Y227361D01*
X504255D01*
X503861Y226968D01*
X506223D02*
X506616Y227361D01*
X507404D01*
X507797Y226968D01*
Y225394D01*
X507404Y225000D01*
X506616D01*
X506223Y225394D01*
Y226968D01*
X458500Y301000D02*
Y303361D01*
X459681D01*
X460074Y302968D01*
Y302181D01*
X459681Y301787D01*
X458500D01*
X459287D02*
X460074Y301000D01*
X462436D02*
X460861D01*
X462436Y302574D01*
Y302968D01*
X462042Y303361D01*
X461255D01*
X460861Y302968D01*
X463223Y301000D02*
X464010D01*
X463616D01*
Y303361D01*
X463223Y302968D01*
X429500Y306000D02*
Y308361D01*
X430681D01*
X431074Y307968D01*
Y307181D01*
X430681Y306787D01*
X429500D01*
X430287D02*
X431074Y306000D01*
X433436D02*
X431861D01*
X433436Y307574D01*
Y307968D01*
X433042Y308361D01*
X432255D01*
X431861Y307968D01*
X435797Y306000D02*
X434223D01*
X435797Y307574D01*
Y307968D01*
X435404Y308361D01*
X434616D01*
X434223Y307968D01*
X495600Y296270D02*
Y298632D01*
X496781D01*
X497174Y298238D01*
Y297451D01*
X496781Y297057D01*
X495600D01*
X496387D02*
X497174Y296270D01*
X499536D02*
X497961D01*
X499536Y297844D01*
Y298238D01*
X499142Y298632D01*
X498355D01*
X497961Y298238D01*
X500323D02*
X500716Y298632D01*
X501504D01*
X501897Y298238D01*
Y297844D01*
X501504Y297451D01*
X501110D01*
X501504D01*
X501897Y297057D01*
Y296664D01*
X501504Y296270D01*
X500716D01*
X500323Y296664D01*
X500000Y277000D02*
Y279361D01*
X501181D01*
X501574Y278968D01*
Y278181D01*
X501181Y277787D01*
X500000D01*
X500787D02*
X501574Y277000D01*
X503936D02*
X502361D01*
X503936Y278574D01*
Y278968D01*
X503542Y279361D01*
X502755D01*
X502361Y278968D01*
X505904Y277000D02*
Y279361D01*
X504723Y278181D01*
X506297D01*
X350600Y395300D02*
Y397661D01*
X351781D01*
X352174Y397268D01*
Y396481D01*
X351781Y396087D01*
X350600D01*
X351387D02*
X352174Y395300D01*
X354536D02*
X352961D01*
X354536Y396874D01*
Y397268D01*
X354142Y397661D01*
X353355D01*
X352961Y397268D01*
X356897Y397661D02*
X355323D01*
Y396481D01*
X356110Y396874D01*
X356504D01*
X356897Y396481D01*
Y395694D01*
X356504Y395300D01*
X355716D01*
X355323Y395694D01*
X359600Y237300D02*
Y239661D01*
X360781D01*
X361174Y239268D01*
Y238481D01*
X360781Y238087D01*
X359600D01*
X360387D02*
X361174Y237300D01*
X363536D02*
X361961D01*
X363536Y238874D01*
Y239268D01*
X363142Y239661D01*
X362355D01*
X361961Y239268D01*
X365897Y239661D02*
X365110Y239268D01*
X364323Y238481D01*
Y237694D01*
X364716Y237300D01*
X365504D01*
X365897Y237694D01*
Y238087D01*
X365504Y238481D01*
X364323D01*
X448000Y358500D02*
Y360861D01*
X449181D01*
X449574Y360468D01*
Y359681D01*
X449181Y359287D01*
X448000D01*
X448787D02*
X449574Y358500D01*
X451936D02*
X450361D01*
X451936Y360074D01*
Y360468D01*
X451542Y360861D01*
X450755D01*
X450361Y360468D01*
X452723Y360861D02*
X454297D01*
Y360468D01*
X452723Y358894D01*
Y358500D01*
X495000Y350000D02*
Y352361D01*
X496181D01*
X496574Y351968D01*
Y351181D01*
X496181Y350787D01*
X495000D01*
X495787D02*
X496574Y350000D01*
X498936D02*
X497361D01*
X498936Y351574D01*
Y351968D01*
X498542Y352361D01*
X497755D01*
X497361Y351968D01*
X499723D02*
X500116Y352361D01*
X500904D01*
X501297Y351968D01*
Y351574D01*
X500904Y351181D01*
X501297Y350787D01*
Y350394D01*
X500904Y350000D01*
X500116D01*
X499723Y350394D01*
Y350787D01*
X500116Y351181D01*
X499723Y351574D01*
Y351968D01*
X500116Y351181D02*
X500904D01*
X434000Y358500D02*
Y360861D01*
X435181D01*
X435574Y360468D01*
Y359681D01*
X435181Y359287D01*
X434000D01*
X434787D02*
X435574Y358500D01*
X437936D02*
X436361D01*
X437936Y360074D01*
Y360468D01*
X437542Y360861D01*
X436755D01*
X436361Y360468D01*
X438723Y358894D02*
X439116Y358500D01*
X439904D01*
X440297Y358894D01*
Y360468D01*
X439904Y360861D01*
X439116D01*
X438723Y360468D01*
Y360074D01*
X439116Y359681D01*
X440297D01*
X500500Y329000D02*
Y331361D01*
X501681D01*
X502074Y330968D01*
Y330181D01*
X501681Y329787D01*
X500500D01*
X501287D02*
X502074Y329000D01*
X502861Y330968D02*
X503255Y331361D01*
X504042D01*
X504436Y330968D01*
Y330574D01*
X504042Y330181D01*
X503649D01*
X504042D01*
X504436Y329787D01*
Y329394D01*
X504042Y329000D01*
X503255D01*
X502861Y329394D01*
X505223Y330968D02*
X505616Y331361D01*
X506404D01*
X506797Y330968D01*
Y329394D01*
X506404Y329000D01*
X505616D01*
X505223Y329394D01*
Y330968D01*
X543000Y393361D02*
Y391000D01*
X544181D01*
X544574Y391394D01*
Y392968D01*
X544181Y393361D01*
X543000D01*
X546542Y391000D02*
Y393361D01*
X545361Y392181D01*
X546936D01*
D62*
X398589Y349497D02*
D03*
X303588Y241000D02*
D03*
X271588D02*
D03*
D63*
X547001Y377089D02*
D03*
M02*
