G04 Layer_Color=8388736*
%FSLAX25Y25*%
%MOIN*%
G70*
G01*
G75*
%ADD54C,0.02362*%
%ADD64R,0.14213X0.25000*%
%ADD65R,0.09796X0.03753*%
%ADD66R,0.44107X0.40544*%
%ADD67R,0.11430X0.08280*%
%ADD68R,0.04343X0.03950*%
%ADD69R,0.03950X0.04343*%
%ADD70R,0.05131X0.04737*%
%ADD71R,0.08280X0.11430*%
%ADD72R,0.20485X0.08674*%
%ADD73R,0.08674X0.08674*%
%ADD74R,0.04737X0.05131*%
%ADD75R,0.06902X0.01981*%
%ADD76R,0.06706X0.05918*%
%ADD77R,0.05918X0.06706*%
%ADD78R,0.04540X0.13398*%
%ADD79R,0.08674X0.04737*%
%ADD80R,0.10642X0.14579*%
%ADD81R,0.05918X0.06902*%
%ADD82R,0.11036X0.08280*%
%ADD83O,0.01981X0.09068*%
%ADD84O,0.09068X0.01981*%
%ADD85R,0.03950X0.10249*%
%ADD86R,0.21272X0.35249*%
%ADD87R,0.08674X0.08674*%
%ADD88R,0.06706X0.06706*%
%ADD89C,0.06706*%
%ADD90C,0.12611*%
%ADD91O,0.08674X0.06706*%
%ADD92C,0.06800*%
%ADD93C,0.03950*%
D54*
X364591Y303921D02*
D03*
Y319275D02*
D03*
Y314157D02*
D03*
Y309039D02*
D03*
Y298802D02*
D03*
Y293684D02*
D03*
Y288566D02*
D03*
Y283448D02*
D03*
Y278330D02*
D03*
Y273212D02*
D03*
Y268094D02*
D03*
X359472Y319275D02*
D03*
Y314157D02*
D03*
Y309039D02*
D03*
Y303921D02*
D03*
Y298802D02*
D03*
Y293684D02*
D03*
Y288566D02*
D03*
Y283448D02*
D03*
Y278330D02*
D03*
Y273212D02*
D03*
Y268094D02*
D03*
X354354Y319275D02*
D03*
Y314157D02*
D03*
Y309039D02*
D03*
Y303921D02*
D03*
Y298802D02*
D03*
Y293684D02*
D03*
Y288566D02*
D03*
Y283448D02*
D03*
Y278330D02*
D03*
Y273212D02*
D03*
Y268094D02*
D03*
X349236Y319275D02*
D03*
Y314157D02*
D03*
Y309039D02*
D03*
Y303921D02*
D03*
Y298802D02*
D03*
Y293684D02*
D03*
Y288566D02*
D03*
Y283448D02*
D03*
Y278330D02*
D03*
Y273212D02*
D03*
Y268094D02*
D03*
D64*
X357000Y293500D02*
D03*
D65*
X514780Y239000D02*
D03*
Y234000D02*
D03*
Y229000D02*
D03*
Y219000D02*
D03*
Y214000D02*
D03*
Y209000D02*
D03*
X514280Y291000D02*
D03*
Y286000D02*
D03*
Y281000D02*
D03*
Y271000D02*
D03*
Y266000D02*
D03*
Y261000D02*
D03*
X513779Y344500D02*
D03*
Y339500D02*
D03*
Y334500D02*
D03*
Y324500D02*
D03*
Y319500D02*
D03*
Y314500D02*
D03*
X432780Y344500D02*
D03*
Y339500D02*
D03*
Y334500D02*
D03*
Y324500D02*
D03*
Y319500D02*
D03*
Y314500D02*
D03*
Y291000D02*
D03*
Y286000D02*
D03*
Y281000D02*
D03*
Y271000D02*
D03*
Y266000D02*
D03*
Y261000D02*
D03*
Y239000D02*
D03*
Y234000D02*
D03*
Y229000D02*
D03*
Y219000D02*
D03*
Y214000D02*
D03*
Y209000D02*
D03*
D66*
X551000Y224000D02*
D03*
X550500Y276000D02*
D03*
X550000Y329500D02*
D03*
X469000D02*
D03*
Y276000D02*
D03*
Y224000D02*
D03*
D67*
X321000Y270610D02*
D03*
Y252500D02*
D03*
X308000Y253000D02*
D03*
Y271110D02*
D03*
X244500Y373610D02*
D03*
Y355500D02*
D03*
D68*
X337000Y261012D02*
D03*
Y255500D02*
D03*
X337500Y248756D02*
D03*
Y243244D02*
D03*
X400500Y283756D02*
D03*
Y278244D02*
D03*
X273000Y255256D02*
D03*
Y249744D02*
D03*
X204500Y311988D02*
D03*
Y317500D02*
D03*
X198500Y311988D02*
D03*
Y317500D02*
D03*
Y326500D02*
D03*
Y332012D02*
D03*
X204500Y326500D02*
D03*
Y332012D02*
D03*
X214000Y382988D02*
D03*
Y388500D02*
D03*
D69*
X365488Y249000D02*
D03*
X371000D02*
D03*
X395244Y293500D02*
D03*
X400756D02*
D03*
X395244Y300000D02*
D03*
X400756D02*
D03*
X293244Y308500D02*
D03*
X298756D02*
D03*
X313256Y304000D02*
D03*
X307744D02*
D03*
X307756Y279500D02*
D03*
X302244D02*
D03*
X290488Y258000D02*
D03*
X296000D02*
D03*
X217488Y254000D02*
D03*
X223000D02*
D03*
X208488Y251000D02*
D03*
X202976D02*
D03*
X173000Y274000D02*
D03*
X167488D02*
D03*
D70*
X364307Y254500D02*
D03*
X371000D02*
D03*
X394000Y264500D02*
D03*
X400693D02*
D03*
X400500Y270500D02*
D03*
X393807D02*
D03*
X400500Y306500D02*
D03*
X393807D02*
D03*
X395693Y314500D02*
D03*
X389000D02*
D03*
X372193Y324500D02*
D03*
X365500D02*
D03*
X333193Y368000D02*
D03*
X326500D02*
D03*
X333193Y374000D02*
D03*
X326500D02*
D03*
X288500Y340000D02*
D03*
X295193D02*
D03*
X297693Y315000D02*
D03*
X291000D02*
D03*
X298000Y284500D02*
D03*
X291307D02*
D03*
X209988Y222500D02*
D03*
X203295D02*
D03*
X195488D02*
D03*
X188795D02*
D03*
X181681D02*
D03*
X174988D02*
D03*
X201795Y243000D02*
D03*
X208488D02*
D03*
X186500Y274000D02*
D03*
X179807D02*
D03*
X179000Y295000D02*
D03*
X172307D02*
D03*
X187488Y341500D02*
D03*
X180795D02*
D03*
X187488Y347500D02*
D03*
X180795D02*
D03*
X179000Y302500D02*
D03*
X172307D02*
D03*
X236000Y337000D02*
D03*
X229307D02*
D03*
X219807Y343000D02*
D03*
X226500D02*
D03*
X446000Y249500D02*
D03*
X452693D02*
D03*
X431807D02*
D03*
X438500D02*
D03*
X443307Y302000D02*
D03*
X450000D02*
D03*
X436500D02*
D03*
X429807D02*
D03*
X447500Y355000D02*
D03*
X454193D02*
D03*
X433500D02*
D03*
X440193D02*
D03*
D71*
X397500Y241500D02*
D03*
X379390D02*
D03*
X397500Y254000D02*
D03*
X379390D02*
D03*
X371000Y335000D02*
D03*
X352890D02*
D03*
X371500Y350000D02*
D03*
X353390D02*
D03*
D72*
X396500Y322500D02*
D03*
Y336500D02*
D03*
D73*
X405500Y349500D02*
D03*
X386000D02*
D03*
X310500Y241000D02*
D03*
X291000D02*
D03*
X278500D02*
D03*
X259000D02*
D03*
D74*
X379000Y328500D02*
D03*
Y321807D02*
D03*
X342000Y336193D02*
D03*
Y329500D02*
D03*
X334000Y354807D02*
D03*
Y361500D02*
D03*
Y340000D02*
D03*
Y346693D02*
D03*
X327500D02*
D03*
Y340000D02*
D03*
X326000Y354500D02*
D03*
Y361193D02*
D03*
X318000Y363500D02*
D03*
Y370193D02*
D03*
X311000Y354693D02*
D03*
Y348000D02*
D03*
X303500Y362807D02*
D03*
Y369500D02*
D03*
X296500Y354193D02*
D03*
Y347500D02*
D03*
X303000Y339500D02*
D03*
Y332807D02*
D03*
X310000Y324500D02*
D03*
Y331193D02*
D03*
Y298000D02*
D03*
Y291307D02*
D03*
X297500Y272693D02*
D03*
Y266000D02*
D03*
X291500Y273000D02*
D03*
Y266307D02*
D03*
X215500Y241307D02*
D03*
Y248000D02*
D03*
X176988Y207000D02*
D03*
Y213693D02*
D03*
X182988Y207000D02*
D03*
Y213693D02*
D03*
X189488Y207000D02*
D03*
Y213693D02*
D03*
X195488Y207000D02*
D03*
Y213693D02*
D03*
X201488Y207000D02*
D03*
Y213693D02*
D03*
X207488Y207000D02*
D03*
Y213693D02*
D03*
X166000Y208000D02*
D03*
Y214693D02*
D03*
X203500Y266193D02*
D03*
Y259500D02*
D03*
X167500Y281000D02*
D03*
Y287693D02*
D03*
X241000Y383000D02*
D03*
Y389693D02*
D03*
X234500D02*
D03*
Y383000D02*
D03*
X227500Y382807D02*
D03*
Y389500D02*
D03*
X221500Y382807D02*
D03*
Y389500D02*
D03*
X207500Y379807D02*
D03*
Y386500D02*
D03*
X195488Y357307D02*
D03*
Y364000D02*
D03*
X186988D02*
D03*
Y357307D02*
D03*
X180488Y364000D02*
D03*
Y357307D02*
D03*
X171988D02*
D03*
Y364000D02*
D03*
X498000Y238693D02*
D03*
Y232000D02*
D03*
X504500Y231807D02*
D03*
Y238500D02*
D03*
X497000Y290693D02*
D03*
Y284000D02*
D03*
X503500Y284307D02*
D03*
Y291000D02*
D03*
X498000Y344500D02*
D03*
Y337807D02*
D03*
X504500D02*
D03*
Y344500D02*
D03*
D75*
X342236Y320074D02*
D03*
Y318106D02*
D03*
Y316137D02*
D03*
Y314169D02*
D03*
Y312200D02*
D03*
Y310232D02*
D03*
Y308263D02*
D03*
Y306295D02*
D03*
Y304327D02*
D03*
Y302358D02*
D03*
Y300390D02*
D03*
Y298421D02*
D03*
Y296452D02*
D03*
Y294484D02*
D03*
Y292516D02*
D03*
Y290547D02*
D03*
Y288579D02*
D03*
Y286610D02*
D03*
Y284642D02*
D03*
Y282673D02*
D03*
Y280705D02*
D03*
Y278736D02*
D03*
Y276768D02*
D03*
Y274799D02*
D03*
Y272831D02*
D03*
Y270862D02*
D03*
Y268894D02*
D03*
Y266925D02*
D03*
X371764D02*
D03*
X371736Y268894D02*
D03*
X371764Y270862D02*
D03*
Y272831D02*
D03*
Y274799D02*
D03*
Y276768D02*
D03*
Y278736D02*
D03*
Y280705D02*
D03*
Y282673D02*
D03*
Y284642D02*
D03*
Y286610D02*
D03*
Y288579D02*
D03*
Y290547D02*
D03*
Y292516D02*
D03*
Y294484D02*
D03*
Y296453D02*
D03*
Y298421D02*
D03*
Y300390D02*
D03*
Y302358D02*
D03*
Y304327D02*
D03*
Y306295D02*
D03*
Y308264D02*
D03*
Y310232D02*
D03*
Y312201D02*
D03*
Y314169D02*
D03*
Y316138D02*
D03*
Y318106D02*
D03*
Y320075D02*
D03*
D76*
X318000Y348500D02*
D03*
Y355980D02*
D03*
X303500Y348000D02*
D03*
Y355480D02*
D03*
X196500Y259000D02*
D03*
Y266480D02*
D03*
X175000Y288480D02*
D03*
Y281000D02*
D03*
D77*
X296000Y333000D02*
D03*
X288520D02*
D03*
X289500Y251500D02*
D03*
X296980D02*
D03*
X164508Y341000D02*
D03*
X171988D02*
D03*
X164508Y349000D02*
D03*
X171988D02*
D03*
D78*
X334500Y227000D02*
D03*
Y196685D02*
D03*
X290500Y227315D02*
D03*
Y197000D02*
D03*
D79*
X231500Y350445D02*
D03*
Y359500D02*
D03*
Y368555D02*
D03*
D80*
X207090Y359500D02*
D03*
D81*
X168283Y266000D02*
D03*
X186000D02*
D03*
Y234701D02*
D03*
X168283D02*
D03*
D82*
X191500Y285500D02*
D03*
Y302429D02*
D03*
D83*
X221866Y324921D02*
D03*
X223835D02*
D03*
X225803D02*
D03*
X227772D02*
D03*
X229740D02*
D03*
X231709D02*
D03*
X233677D02*
D03*
X235646D02*
D03*
X237614D02*
D03*
X239583D02*
D03*
X241551D02*
D03*
X243520D02*
D03*
X245488D02*
D03*
X247457D02*
D03*
X249425D02*
D03*
X251394D02*
D03*
X253362D02*
D03*
X255331D02*
D03*
X257299D02*
D03*
X259268D02*
D03*
X261236D02*
D03*
X263205D02*
D03*
X265173D02*
D03*
X267142D02*
D03*
X269110D02*
D03*
Y265079D02*
D03*
X267142D02*
D03*
X265173D02*
D03*
X263205D02*
D03*
X261236D02*
D03*
X259268D02*
D03*
X257299D02*
D03*
X255331D02*
D03*
X253362D02*
D03*
X251394D02*
D03*
X249425D02*
D03*
X247457D02*
D03*
X245488D02*
D03*
X243520D02*
D03*
X241551D02*
D03*
X239583D02*
D03*
X237614D02*
D03*
X235646D02*
D03*
X233677D02*
D03*
X231709D02*
D03*
X229740D02*
D03*
X227772D02*
D03*
X225803D02*
D03*
X223835D02*
D03*
X221866D02*
D03*
D84*
X275410Y318622D02*
D03*
Y316653D02*
D03*
Y314685D02*
D03*
Y312717D02*
D03*
Y310748D02*
D03*
Y308780D02*
D03*
Y306811D02*
D03*
Y304842D02*
D03*
Y302874D02*
D03*
Y300905D02*
D03*
Y298937D02*
D03*
Y296969D02*
D03*
Y295000D02*
D03*
Y293032D02*
D03*
Y291063D02*
D03*
Y289094D02*
D03*
Y287126D02*
D03*
Y285157D02*
D03*
Y283189D02*
D03*
Y281221D02*
D03*
Y279252D02*
D03*
Y277284D02*
D03*
Y275315D02*
D03*
Y273346D02*
D03*
Y271378D02*
D03*
X215567D02*
D03*
Y273346D02*
D03*
Y275315D02*
D03*
Y277284D02*
D03*
Y279252D02*
D03*
Y281221D02*
D03*
Y283189D02*
D03*
Y285157D02*
D03*
Y287126D02*
D03*
Y289094D02*
D03*
Y291063D02*
D03*
Y293032D02*
D03*
Y295000D02*
D03*
Y296969D02*
D03*
Y298937D02*
D03*
Y300905D02*
D03*
Y302874D02*
D03*
Y304842D02*
D03*
Y306811D02*
D03*
Y308780D02*
D03*
Y310748D02*
D03*
Y312717D02*
D03*
Y314685D02*
D03*
Y316653D02*
D03*
Y318622D02*
D03*
D85*
X263500Y354000D02*
D03*
Y370000D02*
D03*
X268500Y354000D02*
D03*
Y370000D02*
D03*
X273500Y354000D02*
D03*
Y370000D02*
D03*
X278500Y354000D02*
D03*
Y370200D02*
D03*
X283500Y354000D02*
D03*
Y370000D02*
D03*
D86*
X360480Y375000D02*
D03*
X403000D02*
D03*
X369500Y217000D02*
D03*
X412020D02*
D03*
D87*
X547000Y384000D02*
D03*
Y364500D02*
D03*
D88*
X196500Y381500D02*
D03*
X216500Y196000D02*
D03*
X227000Y244000D02*
D03*
X189000Y329000D02*
D03*
Y314500D02*
D03*
D89*
X186500Y381500D02*
D03*
X176500D02*
D03*
X166500D02*
D03*
Y196000D02*
D03*
X176500D02*
D03*
X186500D02*
D03*
X196500D02*
D03*
X206500D02*
D03*
X247000Y244000D02*
D03*
X237000D02*
D03*
X179000Y329000D02*
D03*
X169000D02*
D03*
X179000Y314500D02*
D03*
X169000D02*
D03*
D90*
X473815Y380500D02*
D03*
X493500D02*
D03*
X255500Y210500D02*
D03*
X235815D02*
D03*
X599000Y197000D02*
D03*
X596000Y250000D02*
D03*
X596500Y302500D02*
D03*
D91*
X526000Y364803D02*
D03*
Y390000D02*
D03*
D92*
X342000Y343000D02*
D03*
X377000Y345000D02*
D03*
D93*
X524000Y279500D02*
D03*
X502000Y250000D02*
D03*
X510500Y351500D02*
D03*
X484500Y303000D02*
D03*
X502000Y303500D02*
D03*
X614000Y389500D02*
D03*
X566000Y363000D02*
D03*
X583000Y362000D02*
D03*
X583500Y346500D02*
D03*
X583000Y314000D02*
D03*
Y293000D02*
D03*
X583500Y262000D02*
D03*
Y239500D02*
D03*
X612500Y197500D02*
D03*
Y209000D02*
D03*
X525000Y225000D02*
D03*
Y239000D02*
D03*
X524000Y292500D02*
D03*
X523500Y336000D02*
D03*
X523000Y349500D02*
D03*
X447500Y381000D02*
D03*
X435500D02*
D03*
X425500D02*
D03*
X428500Y364500D02*
D03*
X444500Y366000D02*
D03*
X442000Y346000D02*
D03*
X441500Y328500D02*
D03*
X442000Y313500D02*
D03*
X441500Y296500D02*
D03*
Y285500D02*
D03*
X442000Y266500D02*
D03*
Y235000D02*
D03*
X442500Y211500D02*
D03*
X449500Y195500D02*
D03*
X470000Y196000D02*
D03*
X484000Y196500D02*
D03*
X498000Y197000D02*
D03*
X287500Y316000D02*
D03*
X250500Y357500D02*
D03*
X346000Y368500D02*
D03*
X305500Y309000D02*
D03*
X201000Y307500D02*
D03*
X287000Y380000D02*
D03*
X329500Y361000D02*
D03*
X260500Y315500D02*
D03*
X223500Y335000D02*
D03*
X226000Y305000D02*
D03*
X207000Y306500D02*
D03*
X225000Y280331D02*
D03*
X173500Y254500D02*
D03*
X331000Y262000D02*
D03*
X228500Y285000D02*
D03*
X177500Y236500D02*
D03*
X170500Y226000D02*
D03*
X189500Y278500D02*
D03*
X196500Y253500D02*
D03*
X215500Y229000D02*
D03*
X196500Y233500D02*
D03*
X305000Y328000D02*
D03*
X287500Y308000D02*
D03*
X319500Y342500D02*
D03*
X476500Y250500D02*
D03*
X406500Y275500D02*
D03*
X345000Y373000D02*
D03*
Y377000D02*
D03*
Y381000D02*
D03*
Y385000D02*
D03*
X346000Y389500D02*
D03*
X348000Y392500D02*
D03*
X351500Y393000D02*
D03*
X355000D02*
D03*
X358500D02*
D03*
X362000Y392500D02*
D03*
X365500Y393000D02*
D03*
X369500D02*
D03*
X402000Y315500D02*
D03*
X383000Y315000D02*
D03*
X386000Y297500D02*
D03*
X390000Y293000D02*
D03*
X389000Y277500D02*
D03*
X391000Y300500D02*
D03*
X382425Y275083D02*
D03*
X382125Y297375D02*
D03*
X384000Y320000D02*
D03*
X393500Y211500D02*
D03*
Y215000D02*
D03*
Y218500D02*
D03*
Y222500D02*
D03*
X346000Y212000D02*
D03*
X384000Y324000D02*
D03*
X400500Y310000D02*
D03*
X220000Y237500D02*
D03*
X586000Y208000D02*
D03*
X346000Y228000D02*
D03*
Y224000D02*
D03*
Y220000D02*
D03*
Y216000D02*
D03*
X372000Y367000D02*
D03*
Y363000D02*
D03*
Y376500D02*
D03*
X467500Y250500D02*
D03*
X405000Y297500D02*
D03*
X470000Y302000D02*
D03*
X405000Y292000D02*
D03*
X395500Y280000D02*
D03*
X498000Y227000D02*
D03*
X457000Y249500D02*
D03*
X461000Y355500D02*
D03*
X455000Y301500D02*
D03*
X496500Y279500D02*
D03*
X498000Y333500D02*
D03*
X313500Y342500D02*
D03*
X284000Y297500D02*
D03*
X309500Y338500D02*
D03*
X287500Y290500D02*
D03*
X306000Y287000D02*
D03*
X293500Y289500D02*
D03*
X174500Y269000D02*
D03*
X255500Y347500D02*
D03*
X282500Y344500D02*
D03*
X272500Y327000D02*
D03*
X275500Y323000D02*
D03*
X264500Y312500D02*
D03*
X267500Y346000D02*
D03*
X275000Y342000D02*
D03*
X329000Y270500D02*
D03*
X253000Y272000D02*
D03*
X245500Y275500D02*
D03*
X236500Y273500D02*
D03*
X234500Y316000D02*
D03*
X320500Y284500D02*
D03*
X246500Y310500D02*
D03*
X329525Y285525D02*
D03*
X325000Y282000D02*
D03*
X318500Y280500D02*
D03*
X333000Y267500D02*
D03*
X315500Y291000D02*
D03*
X242500Y308500D02*
D03*
X212500Y340500D02*
D03*
X255000Y288500D02*
D03*
X250000Y290500D02*
D03*
X322500Y305000D02*
D03*
X242551Y278551D02*
D03*
X245500Y282500D02*
D03*
X203500Y230500D02*
D03*
X259500Y297000D02*
D03*
X262500Y293500D02*
D03*
X205500Y284500D02*
D03*
X202000Y288000D02*
D03*
X262000Y285500D02*
D03*
X214000Y336000D02*
D03*
X201500Y323000D02*
D03*
M02*
