G04 Layer_Color=8421504*
%FSLAX25Y25*%
%MOIN*%
G70*
G01*
G75*
%ADD10R,0.08996X0.02953*%
%ADD11R,0.43307X0.39744*%
%ADD12R,0.10630X0.07480*%
%ADD13R,0.03543X0.03150*%
%ADD14R,0.03150X0.03543*%
%ADD15R,0.04331X0.03937*%
%ADD16R,0.07480X0.10630*%
%ADD17R,0.19685X0.07874*%
%ADD18R,0.07874X0.07874*%
%ADD19R,0.03937X0.04331*%
%ADD20R,0.06102X0.01181*%
%ADD22R,0.05905X0.05118*%
%ADD23R,0.05118X0.05905*%
%ADD24R,0.03740X0.12598*%
%ADD25R,0.07874X0.03937*%
%ADD26R,0.09842X0.13780*%
%ADD27R,0.05118X0.06102*%
%ADD28R,0.10236X0.07480*%
%ADD29O,0.01181X0.08268*%
%ADD30O,0.08268X0.01181*%
%ADD31R,0.03150X0.09449*%
%ADD32R,0.20472X0.34449*%
%ADD33R,0.07874X0.07874*%
%ADD64R,0.14213X0.25000*%
D10*
X514780Y239000D02*
D03*
Y234000D02*
D03*
Y229000D02*
D03*
Y219000D02*
D03*
Y214000D02*
D03*
Y209000D02*
D03*
X514280Y291000D02*
D03*
Y286000D02*
D03*
Y281000D02*
D03*
Y271000D02*
D03*
Y266000D02*
D03*
Y261000D02*
D03*
X513779Y344500D02*
D03*
Y339500D02*
D03*
Y334500D02*
D03*
Y324500D02*
D03*
Y319500D02*
D03*
Y314500D02*
D03*
X432780Y344500D02*
D03*
Y339500D02*
D03*
Y334500D02*
D03*
Y324500D02*
D03*
Y319500D02*
D03*
Y314500D02*
D03*
Y291000D02*
D03*
Y286000D02*
D03*
Y281000D02*
D03*
Y271000D02*
D03*
Y266000D02*
D03*
Y261000D02*
D03*
Y239000D02*
D03*
Y234000D02*
D03*
Y229000D02*
D03*
Y219000D02*
D03*
Y214000D02*
D03*
Y209000D02*
D03*
D11*
X551000Y224000D02*
D03*
X550500Y276000D02*
D03*
X550000Y329500D02*
D03*
X469000D02*
D03*
Y276000D02*
D03*
Y224000D02*
D03*
D12*
X321000Y270610D02*
D03*
Y252500D02*
D03*
X308000Y253000D02*
D03*
Y271110D02*
D03*
X244500Y373610D02*
D03*
Y355500D02*
D03*
D13*
X337000Y261012D02*
D03*
Y255500D02*
D03*
X337500Y248756D02*
D03*
Y243244D02*
D03*
X400500Y283756D02*
D03*
Y278244D02*
D03*
X273000Y255256D02*
D03*
Y249744D02*
D03*
X204500Y311988D02*
D03*
Y317500D02*
D03*
X198500Y311988D02*
D03*
Y317500D02*
D03*
Y326500D02*
D03*
Y332012D02*
D03*
X204500Y326500D02*
D03*
Y332012D02*
D03*
X214000Y382988D02*
D03*
Y388500D02*
D03*
D14*
X365488Y249000D02*
D03*
X371000D02*
D03*
X395244Y293500D02*
D03*
X400756D02*
D03*
X395244Y300000D02*
D03*
X400756D02*
D03*
X293244Y308500D02*
D03*
X298756D02*
D03*
X313256Y304000D02*
D03*
X307744D02*
D03*
X307756Y279500D02*
D03*
X302244D02*
D03*
X290488Y258000D02*
D03*
X296000D02*
D03*
X217488Y254000D02*
D03*
X223000D02*
D03*
X208488Y251000D02*
D03*
X202976D02*
D03*
X173000Y274000D02*
D03*
X167488D02*
D03*
D15*
X364307Y254500D02*
D03*
X371000D02*
D03*
X394000Y264500D02*
D03*
X400693D02*
D03*
X400500Y270500D02*
D03*
X393807D02*
D03*
X400500Y306500D02*
D03*
X393807D02*
D03*
X395693Y314500D02*
D03*
X389000D02*
D03*
X372193Y324500D02*
D03*
X365500D02*
D03*
X333193Y368000D02*
D03*
X326500D02*
D03*
X333193Y374000D02*
D03*
X326500D02*
D03*
X288500Y340000D02*
D03*
X295193D02*
D03*
X297693Y315000D02*
D03*
X291000D02*
D03*
X298000Y284500D02*
D03*
X291307D02*
D03*
X209988Y222500D02*
D03*
X203295D02*
D03*
X195488D02*
D03*
X188795D02*
D03*
X181681D02*
D03*
X174988D02*
D03*
X201795Y243000D02*
D03*
X208488D02*
D03*
X186500Y274000D02*
D03*
X179807D02*
D03*
X179000Y295000D02*
D03*
X172307D02*
D03*
X187488Y341500D02*
D03*
X180795D02*
D03*
X187488Y347500D02*
D03*
X180795D02*
D03*
X179000Y302500D02*
D03*
X172307D02*
D03*
X236000Y337000D02*
D03*
X229307D02*
D03*
X219807Y343000D02*
D03*
X226500D02*
D03*
X446000Y249500D02*
D03*
X452693D02*
D03*
X431807D02*
D03*
X438500D02*
D03*
X443307Y302000D02*
D03*
X450000D02*
D03*
X436500D02*
D03*
X429807D02*
D03*
X447500Y355000D02*
D03*
X454193D02*
D03*
X433500D02*
D03*
X440193D02*
D03*
D16*
X397500Y241500D02*
D03*
X379390D02*
D03*
X397500Y254000D02*
D03*
X379390D02*
D03*
X371000Y335000D02*
D03*
X352890D02*
D03*
X371500Y350000D02*
D03*
X353390D02*
D03*
D17*
X396500Y322500D02*
D03*
Y336500D02*
D03*
D18*
X405500Y349500D02*
D03*
X386000D02*
D03*
X310500Y241000D02*
D03*
X291000D02*
D03*
X278500D02*
D03*
X259000D02*
D03*
D19*
X379000Y328500D02*
D03*
Y321807D02*
D03*
X342000Y336193D02*
D03*
Y329500D02*
D03*
X334000Y354807D02*
D03*
Y361500D02*
D03*
Y340000D02*
D03*
Y346693D02*
D03*
X327500D02*
D03*
Y340000D02*
D03*
X326000Y354500D02*
D03*
Y361193D02*
D03*
X318000Y363500D02*
D03*
Y370193D02*
D03*
X311000Y354693D02*
D03*
Y348000D02*
D03*
X303500Y362807D02*
D03*
Y369500D02*
D03*
X296500Y354193D02*
D03*
Y347500D02*
D03*
X303000Y339500D02*
D03*
Y332807D02*
D03*
X310000Y324500D02*
D03*
Y331193D02*
D03*
Y298000D02*
D03*
Y291307D02*
D03*
X297500Y272693D02*
D03*
Y266000D02*
D03*
X291500Y273000D02*
D03*
Y266307D02*
D03*
X215500Y241307D02*
D03*
Y248000D02*
D03*
X176988Y207000D02*
D03*
Y213693D02*
D03*
X182988Y207000D02*
D03*
Y213693D02*
D03*
X189488Y207000D02*
D03*
Y213693D02*
D03*
X195488Y207000D02*
D03*
Y213693D02*
D03*
X201488Y207000D02*
D03*
Y213693D02*
D03*
X207488Y207000D02*
D03*
Y213693D02*
D03*
X166000Y208000D02*
D03*
Y214693D02*
D03*
X203500Y266193D02*
D03*
Y259500D02*
D03*
X167500Y281000D02*
D03*
Y287693D02*
D03*
X241000Y383000D02*
D03*
Y389693D02*
D03*
X234500D02*
D03*
Y383000D02*
D03*
X227500Y382807D02*
D03*
Y389500D02*
D03*
X221500Y382807D02*
D03*
Y389500D02*
D03*
X207500Y379807D02*
D03*
Y386500D02*
D03*
X195488Y357307D02*
D03*
Y364000D02*
D03*
X186988D02*
D03*
Y357307D02*
D03*
X180488Y364000D02*
D03*
Y357307D02*
D03*
X171988D02*
D03*
Y364000D02*
D03*
X498000Y238693D02*
D03*
Y232000D02*
D03*
X504500Y231807D02*
D03*
Y238500D02*
D03*
X497000Y290693D02*
D03*
Y284000D02*
D03*
X503500Y284307D02*
D03*
Y291000D02*
D03*
X498000Y344500D02*
D03*
Y337807D02*
D03*
X504500D02*
D03*
Y344500D02*
D03*
D20*
X342236Y320074D02*
D03*
Y318106D02*
D03*
Y316137D02*
D03*
Y314169D02*
D03*
Y312200D02*
D03*
Y310232D02*
D03*
Y308263D02*
D03*
Y306295D02*
D03*
Y304327D02*
D03*
Y302358D02*
D03*
Y300390D02*
D03*
Y298421D02*
D03*
Y296452D02*
D03*
Y294484D02*
D03*
Y292516D02*
D03*
Y290547D02*
D03*
Y288579D02*
D03*
Y286610D02*
D03*
Y284642D02*
D03*
Y282673D02*
D03*
Y280705D02*
D03*
Y278736D02*
D03*
Y276768D02*
D03*
Y274799D02*
D03*
Y272831D02*
D03*
Y270862D02*
D03*
Y268894D02*
D03*
Y266925D02*
D03*
X371764D02*
D03*
X371736Y268894D02*
D03*
X371764Y270862D02*
D03*
Y272831D02*
D03*
Y274799D02*
D03*
Y276768D02*
D03*
Y278736D02*
D03*
Y280705D02*
D03*
Y282673D02*
D03*
Y284642D02*
D03*
Y286610D02*
D03*
Y288579D02*
D03*
Y290547D02*
D03*
Y292516D02*
D03*
Y294484D02*
D03*
Y296453D02*
D03*
Y298421D02*
D03*
Y300390D02*
D03*
Y302358D02*
D03*
Y304327D02*
D03*
Y306295D02*
D03*
Y308264D02*
D03*
Y310232D02*
D03*
Y312201D02*
D03*
Y314169D02*
D03*
Y316138D02*
D03*
Y318106D02*
D03*
Y320075D02*
D03*
D22*
X318000Y348500D02*
D03*
Y355980D02*
D03*
X303500Y348000D02*
D03*
Y355480D02*
D03*
X196500Y259000D02*
D03*
Y266480D02*
D03*
X175000Y288480D02*
D03*
Y281000D02*
D03*
D23*
X296000Y333000D02*
D03*
X288520D02*
D03*
X289500Y251500D02*
D03*
X296980D02*
D03*
X164508Y341000D02*
D03*
X171988D02*
D03*
X164508Y349000D02*
D03*
X171988D02*
D03*
D24*
X334500Y227000D02*
D03*
Y196685D02*
D03*
X290500Y227315D02*
D03*
Y197000D02*
D03*
D25*
X231500Y350445D02*
D03*
Y359500D02*
D03*
Y368555D02*
D03*
D26*
X207090Y359500D02*
D03*
D27*
X168283Y266000D02*
D03*
X186000D02*
D03*
Y234701D02*
D03*
X168283D02*
D03*
D28*
X191500Y285500D02*
D03*
Y302429D02*
D03*
D29*
X221866Y324921D02*
D03*
X223835D02*
D03*
X225803D02*
D03*
X227772D02*
D03*
X229740D02*
D03*
X231709D02*
D03*
X233677D02*
D03*
X235646D02*
D03*
X237614D02*
D03*
X239583D02*
D03*
X241551D02*
D03*
X243520D02*
D03*
X245488D02*
D03*
X247457D02*
D03*
X249425D02*
D03*
X251394D02*
D03*
X253362D02*
D03*
X255331D02*
D03*
X257299D02*
D03*
X259268D02*
D03*
X261236D02*
D03*
X263205D02*
D03*
X265173D02*
D03*
X267142D02*
D03*
X269110D02*
D03*
Y265079D02*
D03*
X267142D02*
D03*
X265173D02*
D03*
X263205D02*
D03*
X261236D02*
D03*
X259268D02*
D03*
X257299D02*
D03*
X255331D02*
D03*
X253362D02*
D03*
X251394D02*
D03*
X249425D02*
D03*
X247457D02*
D03*
X245488D02*
D03*
X243520D02*
D03*
X241551D02*
D03*
X239583D02*
D03*
X237614D02*
D03*
X235646D02*
D03*
X233677D02*
D03*
X231709D02*
D03*
X229740D02*
D03*
X227772D02*
D03*
X225803D02*
D03*
X223835D02*
D03*
X221866D02*
D03*
D30*
X275410Y318622D02*
D03*
Y316653D02*
D03*
Y314685D02*
D03*
Y312717D02*
D03*
Y310748D02*
D03*
Y308780D02*
D03*
Y306811D02*
D03*
Y304842D02*
D03*
Y302874D02*
D03*
Y300905D02*
D03*
Y298937D02*
D03*
Y296969D02*
D03*
Y295000D02*
D03*
Y293032D02*
D03*
Y291063D02*
D03*
Y289094D02*
D03*
Y287126D02*
D03*
Y285157D02*
D03*
Y283189D02*
D03*
Y281221D02*
D03*
Y279252D02*
D03*
Y277284D02*
D03*
Y275315D02*
D03*
Y273346D02*
D03*
Y271378D02*
D03*
X215567D02*
D03*
Y273346D02*
D03*
Y275315D02*
D03*
Y277284D02*
D03*
Y279252D02*
D03*
Y281221D02*
D03*
Y283189D02*
D03*
Y285157D02*
D03*
Y287126D02*
D03*
Y289094D02*
D03*
Y291063D02*
D03*
Y293032D02*
D03*
Y295000D02*
D03*
Y296969D02*
D03*
Y298937D02*
D03*
Y300905D02*
D03*
Y302874D02*
D03*
Y304842D02*
D03*
Y306811D02*
D03*
Y308780D02*
D03*
Y310748D02*
D03*
Y312717D02*
D03*
Y314685D02*
D03*
Y316653D02*
D03*
Y318622D02*
D03*
D31*
X263500Y354000D02*
D03*
Y370000D02*
D03*
X268500Y354000D02*
D03*
Y370000D02*
D03*
X273500Y354000D02*
D03*
Y370000D02*
D03*
X278500Y354000D02*
D03*
Y370200D02*
D03*
X283500Y354000D02*
D03*
Y370000D02*
D03*
D32*
X360480Y375000D02*
D03*
X403000D02*
D03*
X369500Y217000D02*
D03*
X412020D02*
D03*
D33*
X547000Y384000D02*
D03*
Y364500D02*
D03*
D64*
X357000Y293500D02*
D03*
M02*
