M48
;Layer_Color=9474304
;FILE_FORMAT=4:4
METRIC,LZ
;TYPE=PLATED
T1F00S00C0.4000
T2F00S00C0.5000
T3F00S00C0.9000
T4F00S00C1.2000
T5F00S00C1.5000
T6F00S00C2.0000
%
T01
X0088706Y00680958
X0090006
X0091306
X0092606
Y00693958
Y00706958
Y00719958
Y00732958
Y00745958
Y00758958
Y00771958
Y00784958
X0091306
Y00771958
Y00758958
Y00745958
Y00732958
Y00719958
Y00706958
Y00693958
X0090006
Y00706958
Y00719958
Y00732958
Y00745958
Y00758958
Y00771958
Y00784958
X0088706
Y00771958
Y00758958
Y00745958
Y00732958
Y00719958
Y00706958
Y00693958
Y00797958
X0090006
X0091306
X0092606
Y00810958
X0091306
X0090006
X0088706
T02
X011938Y0049784
X0122936Y0049911
X0126492Y0050038
Y0057658
X0127508Y00635
X0121031Y0063627
X0126111Y0070993
X0133096
Y0074295
X0127508Y0077089
X0123063Y0076962
X011938Y0076708
X013335Y0060706
Y005715
X0148209Y0060833
Y0066548
X0148082Y0074422
X0148844Y0052832
X0155575Y0053086
Y0050165
X0114173Y0049657
X0112395Y0053721
X0112268Y005969
X0116078Y0063373
X0118745Y0063627
X0112268Y0067691
X0112141Y0072517
Y0075311
X011557Y0076581
X010287Y0075565
Y0074168
X009906Y0074422
X0098044Y0075565
X00970598Y00755332
X0099314Y0076327
X0101727Y007874
X0100457Y007112
X0098806Y0070485
X0097136Y00698712
X0103251Y0069977
X0099949Y0056515
Y0055499
Y005461
Y0053721
X0087884Y0053848
Y0054864
Y005588
Y0056896
Y0057912
X0084074Y0066548
X0084582Y0067945
X0083566Y0068707
X008255Y0071628
X0081407Y0072263
X0080899Y0071247
X0080137Y0073914
X00836994Y00725234
X0081915Y007747
X0077597Y0078486
X0073025Y0078232
X0072136Y0075565
X0073025Y0073787
X0074549Y0073533
X0077724Y0072898
X0066548Y0072517
X0066675Y0074549
X0065913Y0075438
X006477Y0073279
X00635Y0073787
X0062357Y0071755
X0061608Y0070752
X0062357Y0069977
X0064262Y0069088
X0060071Y0069469
X005715Y0071204
X0058039Y007239
X0057404Y007747
X0061595Y0078359
X0062611Y0078867
X0052578Y0077851
X0051054Y0078105
X0051308Y0073152
X0052197Y0072263
X0048133Y0070739
X0044323Y0068326
X0044069Y0064643
X0045085Y0060071
X0043307Y0057404
X0049911Y0059309
X0051689Y0058547
X0054737Y0058166
X005588Y0060325
X0049911Y0064389
X0051181Y0082042
X0054356Y0085344
X0053975Y0086487
X0056769Y008509
X0059563Y0080264
X0066167Y0080137
X0067183Y0079375
X0069977Y0082042
X0069215Y0083058
X006985Y0086868
X0071755Y0087503
X0067945Y0087884
X0064897Y0088265
X0063627Y0090805
X0072898Y009652
X0078613Y0085979
X007747Y0083312
X0073025Y0080264
X0079629Y0086995
X0081153
X0083693Y0091694
X0087884Y0093599
X008763Y0094742
Y0095758
Y0096774
Y009779
X0087884Y0098933
X0088392Y0099695
X0089281Y0099822
X009017
X0091059
X0091948Y0099695
X0092837Y0099822
X0093853
X0094488Y0095631
Y0093218
Y0092202
X0097536Y0082296
Y008128
X0097282Y008001
X0102108Y0080137
X0112268Y0079629
X0112141Y0083439
X0112268Y0087884
X0112903Y0092964
X0108839Y0092583
X0108077Y0096774
X0110617
X0113665
X0117094Y0090297
X0129667Y0089281
X0132842Y0088773
X0132969Y0085344
X0126492Y0084709
X0143764Y0092202
X0148082Y0091948
X0148209Y0088011
X0148082Y0079756
X0155956Y0098933
T03
X0042291Y0049784
X0044831
X0047371
X0049911
X0052451
X0054991
X0057658Y0061976
X0060198
X0062738
X0048006Y0079883
X0045466
X0042926
Y0083566
X0045466
X0048006
X0047371Y0096901
X0049911
X0044831
X0042291
X0086868Y0087122
X0095758Y008763
T04
X0133604Y009266
Y009906
T05
X0152146Y0050038
X0151384Y00635
X0151511Y0076835
T06
X0059897Y0053467
X0064897
X0120349Y0096647
X0125349
M30
