%FSTAX23Y23*%
%MOIN*%
%SFA1B1*%

%IPPOS*%
%ADD40C,0.010000*%
%ADD55C,0.023620*%
%ADD56C,0.009840*%
%ADD57C,0.007870*%
%ADD58C,0.011810*%
%ADD59C,0.005910*%
%ADD60C,0.003940*%
%ADD61C,0.007090*%
%ADD62R,0.031500X0.094490*%
%ADD63R,0.094490X0.031500*%
%LNpcbbldcdriver-1*%
%LPD*%
G54D40*
X04768Y03626D02*
D01*
X04768Y03628*
X04767Y03631*
X04767Y03633*
X04767Y03635*
X04766Y03637*
X04765Y03639*
X04764Y03641*
X04763Y03642*
X04762Y03644*
X04761Y03646*
X04759Y03647*
X04758Y03649*
X04756Y0365*
X04754Y03651*
X04753Y03652*
X04751Y03653*
X04749Y03654*
X04747Y03655*
X04745Y03656*
X04743Y03656*
X04741Y03656*
X04739Y03656*
X04737*
X04735Y03656*
X04732Y03656*
X0473Y03656*
X04728Y03655*
X04726Y03654*
X04724Y03653*
X04723Y03652*
X04721Y03651*
X04719Y0365*
X04718Y03649*
X04716Y03647*
X04715Y03646*
X04713Y03644*
X04712Y03642*
X04711Y03641*
X0471Y03639*
X04709Y03637*
X04709Y03635*
X04708Y03633*
X04708Y03631*
X04708Y03628*
X04708Y03626*
X04708Y03624*
X04708Y03622*
X04708Y0362*
X04709Y03618*
X04709Y03616*
X0471Y03614*
X04711Y03612*
X04712Y0361*
X04713Y03609*
X04715Y03607*
X04716Y03606*
X04718Y03604*
X04719Y03603*
X04721Y03601*
X04723Y036*
X04724Y03599*
X04726Y03599*
X04728Y03598*
X0473Y03597*
X04732Y03597*
X04735Y03596*
X04737Y03596*
X04739*
X04741Y03596*
X04743Y03597*
X04745Y03597*
X04747Y03598*
X04749Y03599*
X04751Y03599*
X04753Y036*
X04754Y03601*
X04756Y03603*
X04758Y03604*
X04759Y03606*
X04761Y03607*
X04762Y03609*
X04763Y0361*
X04764Y03612*
X04765Y03614*
X04766Y03616*
X04767Y03618*
X04767Y0362*
X04767Y03622*
X04768Y03624*
X04768Y03626*
X04968D02*
D01*
X04968Y03628*
X04967Y03631*
X04967Y03633*
X04967Y03635*
X04966Y03637*
X04965Y03639*
X04964Y03641*
X04963Y03642*
X04962Y03644*
X04961Y03646*
X04959Y03647*
X04958Y03649*
X04956Y0365*
X04954Y03651*
X04953Y03652*
X04951Y03653*
X04949Y03654*
X04947Y03655*
X04945Y03656*
X04943Y03656*
X04941Y03656*
X04939Y03656*
X04937*
X04935Y03656*
X04932Y03656*
X0493Y03656*
X04928Y03655*
X04926Y03654*
X04924Y03653*
X04923Y03652*
X04921Y03651*
X04919Y0365*
X04918Y03649*
X04916Y03647*
X04915Y03646*
X04913Y03644*
X04912Y03642*
X04911Y03641*
X0491Y03639*
X04909Y03637*
X04909Y03635*
X04908Y03633*
X04908Y03631*
X04908Y03628*
X04908Y03626*
X04908Y03624*
X04908Y03622*
X04908Y0362*
X04909Y03618*
X04909Y03616*
X0491Y03614*
X04911Y03612*
X04912Y0361*
X04913Y03609*
X04915Y03607*
X04916Y03606*
X04918Y03604*
X04919Y03603*
X04921Y03601*
X04923Y036*
X04924Y03599*
X04926Y03599*
X04928Y03598*
X0493Y03597*
X04932Y03597*
X04935Y03596*
X04937Y03596*
X04939*
X04941Y03596*
X04943Y03597*
X04945Y03597*
X04947Y03598*
X04949Y03599*
X04951Y03599*
X04953Y036*
X04954Y03601*
X04956Y03603*
X04958Y03604*
X04959Y03606*
X04961Y03607*
X04962Y03609*
X04963Y0361*
X04964Y03612*
X04965Y03614*
X04966Y03616*
X04967Y03618*
X04967Y0362*
X04967Y03622*
X04968Y03624*
X04968Y03626*
X03861Y03304D02*
D01*
X0386Y03296*
X0386Y03289*
X0386Y03289*
X04069Y03287D02*
D01*
X04069Y03295*
X04069Y03302*
X04068Y03305*
X02907Y03761D02*
D01*
X02907Y03761*
X02907Y03762*
X02907Y03762*
X02906Y03763*
X02906Y03763*
X02906Y03764*
X02906Y03764*
X02905Y03765*
X02905Y03765*
X02905Y03766*
X02904Y03766*
X02904Y03767*
X02904Y03767*
X02903Y03767*
X02903Y03768*
X02902Y03768*
X02902Y03768*
X02901Y03768*
X029Y03769*
X029Y03769*
X02899Y03769*
X02899Y03769*
X02898*
X02898Y03769*
X02897Y03769*
X02897Y03769*
X02896Y03768*
X02895Y03768*
X02895Y03768*
X02894Y03768*
X02894Y03767*
X02893Y03767*
X02893Y03767*
X02893Y03766*
X02892Y03766*
X02892Y03765*
X02892Y03765*
X02891Y03764*
X02891Y03764*
X02891Y03763*
X02891Y03763*
X0289Y03762*
X0289Y03762*
X0289Y03761*
X0289Y03761*
X0289Y0376*
X0289Y03759*
X0289Y03759*
X02891Y03758*
X02891Y03758*
X02891Y03757*
X02891Y03757*
X02892Y03756*
X02892Y03756*
X02892Y03755*
X02893Y03755*
X02893Y03754*
X02893Y03754*
X02894Y03754*
X02894Y03753*
X02895Y03753*
X02895Y03753*
X02896Y03753*
X02897Y03752*
X02897Y03752*
X02898Y03752*
X02898Y03752*
X02899*
X02899Y03752*
X029Y03752*
X029Y03752*
X02901Y03753*
X02902Y03753*
X02902Y03753*
X02903Y03753*
X02903Y03754*
X02904Y03754*
X02904Y03754*
X02904Y03755*
X02905Y03755*
X02905Y03756*
X02905Y03756*
X02906Y03757*
X02906Y03757*
X02906Y03758*
X02906Y03758*
X02907Y03759*
X02907Y03759*
X02907Y0376*
X02907Y03761*
X02585Y02283D02*
D01*
X02584Y02285*
X02584Y02287*
X02584Y02289*
X02583Y02291*
X02583Y02293*
X02582Y02295*
X02581Y02297*
X0258Y02299*
X02579Y023*
X02578Y02302*
X02576Y02303*
X02575Y02305*
X02573Y02306*
X02571Y02308*
X0257Y02309*
X02568Y0231*
X02566Y0231*
X02564Y02311*
X02562Y02312*
X0256Y02312*
X02558Y02313*
X02556Y02313*
X02553*
X02551Y02313*
X02549Y02312*
X02547Y02312*
X02545Y02311*
X02543Y0231*
X02541Y0231*
X02539Y02309*
X02538Y02308*
X02536Y02306*
X02534Y02305*
X02533Y02303*
X02531Y02302*
X0253Y023*
X02529Y02299*
X02528Y02297*
X02527Y02295*
X02526Y02293*
X02526Y02291*
X02525Y02289*
X02525Y02287*
X02525Y02285*
X02524Y02283*
X02525Y02281*
X02525Y02278*
X02525Y02276*
X02526Y02274*
X02526Y02272*
X02527Y0227*
X02528Y02268*
X02529Y02267*
X0253Y02265*
X02531Y02263*
X02533Y02262*
X02534Y0226*
X02536Y02259*
X02538Y02258*
X02539Y02257*
X02541Y02256*
X02543Y02255*
X02545Y02254*
X02547Y02253*
X02549Y02253*
X02551Y02253*
X02553Y02253*
X02556*
X02558Y02253*
X0256Y02253*
X02562Y02253*
X02564Y02254*
X02566Y02255*
X02568Y02256*
X0257Y02257*
X02571Y02258*
X02573Y02259*
X02575Y0226*
X02576Y02262*
X02578Y02263*
X02579Y02265*
X0258Y02267*
X02581Y02268*
X02582Y0227*
X02583Y02272*
X02583Y02274*
X02584Y02276*
X02584Y02278*
X02584Y02281*
X02585Y02283*
X02385D02*
D01*
X02384Y02285*
X02384Y02287*
X02384Y02289*
X02383Y02291*
X02383Y02293*
X02382Y02295*
X02381Y02297*
X0238Y02299*
X02379Y023*
X02378Y02302*
X02376Y02303*
X02375Y02305*
X02373Y02306*
X02371Y02308*
X0237Y02309*
X02368Y0231*
X02366Y0231*
X02364Y02311*
X02362Y02312*
X0236Y02312*
X02358Y02313*
X02356Y02313*
X02353*
X02351Y02313*
X02349Y02312*
X02347Y02312*
X02345Y02311*
X02343Y0231*
X02341Y0231*
X02339Y02309*
X02338Y02308*
X02336Y02306*
X02334Y02305*
X02333Y02303*
X02331Y02302*
X0233Y023*
X02329Y02299*
X02328Y02297*
X02327Y02295*
X02326Y02293*
X02326Y02291*
X02325Y02289*
X02325Y02287*
X02325Y02285*
X02324Y02283*
X02325Y02281*
X02325Y02278*
X02325Y02276*
X02326Y02274*
X02326Y02272*
X02327Y0227*
X02328Y02268*
X02329Y02267*
X0233Y02265*
X02331Y02263*
X02333Y02262*
X02334Y0226*
X02336Y02259*
X02338Y02258*
X02339Y02257*
X02341Y02256*
X02343Y02255*
X02345Y02254*
X02347Y02253*
X02349Y02253*
X02351Y02253*
X02353Y02253*
X02356*
X02358Y02253*
X0236Y02253*
X02362Y02253*
X02364Y02254*
X02366Y02255*
X02368Y02256*
X0237Y02257*
X02371Y02258*
X02373Y02259*
X02375Y0226*
X02376Y02262*
X02378Y02263*
X02379Y02265*
X0238Y02267*
X02381Y02268*
X02382Y0227*
X02383Y02272*
X02383Y02274*
X02384Y02276*
X02384Y02278*
X02384Y02281*
X02385Y02283*
X04718Y03605D02*
X04758Y03645D01*
X04918Y03605D02*
X04958Y03645D01*
X03142Y01903D02*
X03266D01*
X03423D02*
X03547D01*
X03142D02*
Y02332D01*
Y02333D02*
X03266D01*
X03549Y01905D02*
Y02334D01*
X03423Y02334D02*
X03547D01*
X02702Y01907D02*
X02826D01*
X02983D02*
X03107D01*
X02702D02*
Y02336D01*
Y02337D02*
X02826D01*
X03109Y01909D02*
Y02338D01*
X02983Y02338D02*
X03107D01*
X01883Y0241D02*
Y02597D01*
X01732Y02318D02*
X01808D01*
X01657Y0241D02*
Y02597D01*
X01732Y02656D02*
X01808D01*
X02549Y03517D02*
X02599D01*
X02549D02*
Y03581D01*
Y03727D02*
X02599D01*
X02549Y03663D02*
Y03727D01*
X02875Y03517D02*
X02925D01*
Y03581*
Y03661D02*
Y03725D01*
X02875D02*
X02925D01*
X02535Y02265D02*
X02575Y02305D01*
X02335Y02265D02*
X02375Y02305D01*
X03731Y03919D02*
X03901D01*
X03732Y03577D02*
X03902D01*
X03822Y02339D02*
X03992D01*
X03823Y01997D02*
X03993D01*
X057Y0382D02*
Y03781D01*
X05719*
X05726Y03787*
Y03794*
X05719Y038*
X057*
X05719*
X05726Y03807*
Y03814*
X05719Y0382*
X057*
X05739D02*
Y03781D01*
X05765*
X05778Y0382D02*
Y03781D01*
X05798*
X05804Y03787*
Y03814*
X05798Y0382*
X05778*
X05844Y03814D02*
X05837Y0382D01*
X05824*
X05818Y03814*
Y03787*
X05824Y03781*
X05837*
X05844Y03787*
X05726Y03742D02*
X05719Y03749D01*
X05706*
X057Y03742*
Y03716*
X05706Y0371*
X05719*
X05726Y03716*
X05759Y03749D02*
X05745D01*
X05739Y03742*
Y03716*
X05745Y0371*
X05759*
X05765Y03716*
Y03742*
X05759Y03749*
X05778Y0371D02*
Y03749D01*
X05804Y0371*
Y03749*
X05818D02*
X05844D01*
X05831*
Y0371*
X05857D02*
Y03749D01*
X05877*
X05883Y03742*
Y03729*
X05877Y03723*
X05857*
X0587D02*
X05883Y0371D01*
X05916Y03749D02*
X05903D01*
X05896Y03742*
Y03716*
X05903Y0371*
X05916*
X05923Y03716*
Y03742*
X05916Y03749*
X05936D02*
Y0371D01*
X05962*
X05975Y03749D02*
Y0371D01*
X06001*
X06041Y03749D02*
X06014D01*
Y0371*
X06041*
X06014Y03729D02*
X06027D01*
X06054Y0371D02*
Y03749D01*
X06073*
X0608Y03742*
Y03729*
X06073Y03723*
X06054*
X06067D02*
X0608Y0371D01*
X022Y02085D02*
Y02111D01*
X02187Y02098D02*
X02213D01*
X0222Y02124D02*
Y02137D01*
Y0213*
X0218*
X02187Y02124*
X0222Y02183D02*
Y02157D01*
X02193Y02183*
X02187*
X0218Y02176*
Y02163*
X02187Y02157*
X0218Y02196D02*
X02206D01*
X0222Y02209*
X02206Y02222*
X0218*
X04595Y03775D02*
X04568D01*
X04555Y03755D02*
Y03781D01*
X04542Y03795*
X04529Y03781*
Y03755*
X05135Y03775D02*
X05108D01*
X05121Y03762D02*
Y03788D01*
X05095Y03755D02*
Y03781D01*
X05082Y03795*
X05069Y03781*
Y03755*
X05955Y0205D02*
Y02089D01*
X05974*
X05981Y02082*
Y02069*
X05974Y02063*
X05955*
X05994Y02089D02*
Y0205D01*
Y02069*
X0602*
Y02089*
Y0205*
X06033D02*
X06046D01*
X0604*
Y02089*
X06033Y02082*
X05925Y0262D02*
Y02659D01*
X05944*
X05951Y02652*
Y02639*
X05944Y02633*
X05925*
X05964Y02659D02*
Y0262D01*
Y02639*
X0599*
Y02659*
Y0262*
X06029D02*
X06003D01*
X06029Y02646*
Y02652*
X06023Y02659*
X0601*
X06003Y02652*
X05925Y03135D02*
Y03174D01*
X05944*
X05951Y03167*
Y03154*
X05944Y03148*
X05925*
X05964Y03174D02*
Y03135D01*
Y03154*
X0599*
Y03174*
Y03135*
X06003Y03167D02*
X0601Y03174D01*
X06023*
X06029Y03167*
Y03161*
X06023Y03154*
X06016*
X06023*
X06029Y03148*
Y03141*
X06023Y03135*
X0601*
X06003Y03141*
X03681Y01952D02*
X03674Y01959D01*
X03661*
X03655Y01952*
Y01946*
X03661Y01939*
X03674*
X03681Y01933*
Y01926*
X03674Y0192*
X03661*
X03655Y01926*
X03694Y01959D02*
X03707D01*
X037*
Y0192*
X03694*
X03707*
X03727D02*
Y01959D01*
X03753Y0192*
Y01959*
X03766Y0192D02*
Y01946D01*
X03779Y01959*
X03792Y01946*
Y0192*
Y01939*
X03766*
X03805Y0192D02*
Y01926D01*
X03812*
Y0192*
X03805*
X03838D02*
Y01946D01*
X03851Y01959*
X03864Y01946*
Y0192*
Y01939*
X03838*
X03904Y01952D02*
X03897Y01959D01*
X03884*
X03878Y01952*
Y01926*
X03884Y0192*
X03897*
X03904Y01926*
Y01939*
X03891*
X03917Y01959D02*
Y0192D01*
Y01939*
X03943*
Y01959*
Y0192*
X03956Y01959D02*
Y0192D01*
X03982*
X03996Y01959D02*
X04009D01*
X04002*
Y0192*
X03996*
X04009*
X04048Y01933D02*
Y01939D01*
X04042*
Y01933*
X04048*
X04055Y01939*
Y01952*
X04048Y01959*
X04035*
X04028Y01952*
Y01926*
X04035Y0192*
X04055*
X04094Y01952D02*
X04087Y01959D01*
X04074*
X04068Y01952*
Y01926*
X04074Y0192*
X04087*
X04094Y01926*
Y01939*
X04081*
X04107Y0192D02*
Y01959D01*
X0412Y01946*
X04133Y01959*
Y0192*
X04146D02*
Y01946D01*
X0416Y01959*
X04173Y01946*
Y0192*
Y01939*
X04146*
X04186Y01959D02*
X04199D01*
X04192*
Y0192*
X04186*
X04199*
X04219Y01959D02*
Y0192D01*
X04245*
X04258D02*
Y01926D01*
X04265*
Y0192*
X04258*
X04317Y01952D02*
X0431Y01959D01*
X04297*
X04291Y01952*
Y01926*
X04297Y0192*
X0431*
X04317Y01926*
X0435Y01959D02*
X04337D01*
X0433Y01952*
Y01926*
X04337Y0192*
X0435*
X04356Y01926*
Y01952*
X0435Y01959*
X04369Y0192D02*
Y01959D01*
X04383Y01946*
X04396Y01959*
Y0192*
G54D55*
X02263Y03152D02*
D01*
X02263Y03153*
X02263Y03154*
X02263Y03155*
X02263Y03156*
X02263Y03156*
X02262Y03157*
X02262Y03158*
X02262Y03159*
X02261Y03159*
X02261Y0316*
X0226Y0316*
X0226Y03161*
X02259Y03162*
X02258Y03162*
X02258Y03162*
X02257Y03163*
X02256Y03163*
X02255Y03163*
X02254Y03164*
X02254Y03164*
X02253Y03164*
X02252Y03164*
X02251*
X0225Y03164*
X0225Y03164*
X02249Y03164*
X02248Y03163*
X02247Y03163*
X02246Y03163*
X02246Y03162*
X02245Y03162*
X02244Y03162*
X02244Y03161*
X02243Y0316*
X02243Y0316*
X02242Y03159*
X02242Y03159*
X02241Y03158*
X02241Y03157*
X02241Y03156*
X0224Y03156*
X0224Y03155*
X0224Y03154*
X0224Y03153*
X0224Y03152*
X0224Y03151*
X0224Y03151*
X0224Y0315*
X0224Y03149*
X02241Y03148*
X02241Y03147*
X02241Y03147*
X02242Y03146*
X02242Y03145*
X02243Y03145*
X02243Y03144*
X02244Y03143*
X02244Y03143*
X02245Y03142*
X02246Y03142*
X02246Y03142*
X02247Y03141*
X02248Y03141*
X02249Y03141*
X0225Y03141*
X0225Y03141*
X02251Y0314*
X02252*
X02253Y03141*
X02254Y03141*
X02254Y03141*
X02255Y03141*
X02256Y03141*
X02257Y03142*
X02258Y03142*
X02258Y03142*
X02259Y03143*
X0226Y03143*
X0226Y03144*
X02261Y03145*
X02261Y03145*
X02262Y03146*
X02262Y03147*
X02262Y03147*
X02263Y03148*
X02263Y03149*
X02263Y0315*
X02263Y03151*
X02263Y03151*
X02263Y03152*
G54D56*
X0216Y03213D02*
D01*
X0216Y03214*
X0216Y03214*
X0216Y03214*
X0216Y03215*
X0216Y03215*
X0216Y03215*
X0216Y03216*
X02159Y03216*
X02159Y03216*
X02159Y03216*
X02159Y03217*
X02158Y03217*
X02158Y03217*
X02158Y03217*
X02158Y03218*
X02157Y03218*
X02157Y03218*
X02157Y03218*
X02156Y03218*
X02156Y03218*
X02156Y03218*
X02155Y03218*
X02155*
X02155Y03218*
X02154Y03218*
X02154Y03218*
X02154Y03218*
X02153Y03218*
X02153Y03218*
X02153Y03218*
X02152Y03217*
X02152Y03217*
X02152Y03217*
X02152Y03217*
X02151Y03216*
X02151Y03216*
X02151Y03216*
X02151Y03216*
X02151Y03215*
X02151Y03215*
X0215Y03215*
X0215Y03214*
X0215Y03214*
X0215Y03214*
X0215Y03213*
X0215Y03213*
X0215Y03213*
X0215Y03212*
X0215Y03212*
X02151Y03212*
X02151Y03211*
X02151Y03211*
X02151Y03211*
X02151Y0321*
X02151Y0321*
X02152Y0321*
X02152Y0321*
X02152Y03209*
X02152Y03209*
X02153Y03209*
X02153Y03209*
X02153Y03209*
X02154Y03209*
X02154Y03209*
X02154Y03208*
X02155Y03208*
X02155Y03208*
X02155*
X02156Y03208*
X02156Y03208*
X02156Y03209*
X02157Y03209*
X02157Y03209*
X02157Y03209*
X02158Y03209*
X02158Y03209*
X02158Y03209*
X02158Y0321*
X02159Y0321*
X02159Y0321*
X02159Y0321*
X02159Y03211*
X0216Y03211*
X0216Y03211*
X0216Y03212*
X0216Y03212*
X0216Y03212*
X0216Y03213*
X0216Y03213*
X0216Y03213*
G54D57*
X01615Y03765D02*
Y03865D01*
X02015*
X01615Y03765D02*
X02015D01*
Y03865*
X01615Y0201D02*
X02215D01*
X01615Y0191D02*
X02215D01*
Y0201*
X01615Y0191D02*
Y0201D01*
X0462Y04001D02*
X04836D01*
X0462Y03568D02*
Y04001D01*
Y03568D02*
X04836D01*
X05053D02*
Y04001D01*
X04836D02*
X05033D01*
X04836Y03568D02*
X05053D01*
X03261Y02576D02*
Y02654D01*
X03158Y02576D02*
Y02654D01*
X03845Y02363D02*
X03923D01*
X03845Y02466D02*
X03923D01*
X03845Y02488D02*
X03923D01*
X03845Y02591D02*
X03923D01*
X0392Y03451D02*
X03995D01*
X0392Y03538D02*
X03995D01*
X0392Y03451D02*
Y03538D01*
X0358Y03298D02*
X03658D01*
X0358Y03401D02*
X03658D01*
X03585Y03448D02*
X03663D01*
X03585Y03551D02*
X03663D01*
X03028Y02581D02*
Y02659D01*
X03131Y02581D02*
Y02659D01*
X0297Y02366D02*
X03045D01*
X0297Y02453D02*
X03045D01*
X0297Y02366D02*
Y02453D01*
X0265Y02366D02*
X02725D01*
X0265Y02453D02*
X02725D01*
X0265Y02366D02*
Y02453D01*
X0222Y0239D02*
Y0249D01*
X0252*
Y0239D02*
Y0249D01*
X0222Y0239D02*
X0252D01*
X0164Y0334D02*
X0194D01*
X0164Y0324D02*
Y0334D01*
Y0324D02*
X0194D01*
Y0334*
X0164Y03195D02*
X0194D01*
X0164Y03095D02*
Y03195D01*
Y03095D02*
X0194D01*
Y03195*
X02212Y02707D02*
X02697D01*
X02212Y03192D02*
X02697D01*
Y02707D02*
Y03192D01*
X02212Y02707D02*
Y03192D01*
X02496Y03606D02*
Y03684D01*
X02393Y03606D02*
Y03684D01*
X02456Y01908D02*
X02673D01*
Y02341*
X02456D02*
X02673D01*
X0224Y01908D02*
Y02341D01*
X02259Y01908D02*
X02456D01*
X0224Y02341D02*
X02456D01*
X05513Y03705D02*
Y0378D01*
X05426Y03705D02*
Y0378D01*
Y03705D02*
X05513D01*
G54D58*
X05163Y03966D02*
X0536D01*
X05163Y03573D02*
X0536D01*
X05159D02*
Y03966D01*
X0536Y03573D02*
Y03966D01*
X02255Y03472D02*
Y03728D01*
X02143Y03472D02*
X02255D01*
X02143D02*
Y03728D01*
X02255*
G54D59*
X031Y02314D02*
X03126D01*
X03113Y02301D02*
Y02327D01*
X0266Y02318D02*
X02686D01*
X02673Y02305D02*
Y02331D01*
G54D60*
X01986Y0282D02*
Y03056D01*
X01848Y0282D02*
Y03056D01*
G54D61*
X01635Y03908D02*
X0162D01*
Y03885*
X01635*
X0162Y03896D02*
X01627D01*
X01643Y03885D02*
Y039D01*
X01655*
X01659Y03896*
Y03885*
X01682Y039D02*
X01671D01*
X01667Y03896*
Y03888*
X01671Y03885*
X01682*
X0162Y02043D02*
Y0202D01*
Y02031*
X01635*
Y02043*
Y0202*
X01647Y02035D02*
X01655D01*
X01659Y02031*
Y0202*
X01647*
X01643Y02023*
X01647Y02027*
X01659*
X01667Y0202D02*
X01675D01*
X01671*
Y02043*
X01667*
X01686Y0202D02*
X01694D01*
X0169*
Y02043*
X01686*
X01722Y02039D02*
X01718Y02043D01*
X0171*
X01706Y02039*
Y02035*
X0171Y02031*
X01718*
X01722Y02027*
Y02023*
X01718Y0202*
X0171*
X01706Y02023*
X01742Y0202D02*
X01734D01*
X0173Y02023*
Y02031*
X01734Y02035*
X01742*
X01745Y02031*
Y02027*
X0173*
X01753Y0202D02*
Y02035D01*
X01765*
X01769Y02031*
Y0202*
X01777D02*
X01789D01*
X01793Y02023*
X01789Y02027*
X01781*
X01777Y02031*
X01781Y02035*
X01793*
X01812Y0202D02*
X01804D01*
X01801Y02023*
Y02031*
X01804Y02035*
X01812*
X01816Y02031*
Y02027*
X01801*
X0452Y03945D02*
Y03968D01*
X04531*
X04535Y03964*
Y03956*
X04531Y03952*
X0452*
X04543Y03968D02*
Y03945D01*
X04551Y03952*
X04559Y03945*
Y03968*
X04567Y03945D02*
Y03968D01*
X04579*
X04582Y03964*
Y03956*
X04579Y03952*
X04567*
X04575D02*
X04582Y03945D01*
X04606D02*
X0459D01*
X04606Y0396*
Y03964*
X04602Y03968*
X04594*
X0459Y03964*
X05115Y03855D02*
X05111Y03851D01*
Y03843*
X05115Y0384*
X05131*
X05135Y03843*
Y03851*
X05131Y03855*
X05135Y03879D02*
Y03863D01*
X05119Y03879*
X05115*
X05111Y03875*
Y03867*
X05115Y03863*
Y03887D02*
X05111Y03891D01*
Y03899*
X05115Y03902*
X05119*
X05123Y03899*
Y03895*
Y03899*
X05127Y03902*
X05131*
X05135Y03899*
Y03891*
X05131Y03887*
X0571Y01993D02*
Y02009D01*
X05706Y02013*
X05698*
X05695Y02009*
Y01993*
X05698Y0199*
X05706*
X05702Y01997D02*
X0571Y0199D01*
X05706D02*
X0571Y01993D01*
X05718Y0199D02*
X05726D01*
X05722*
Y02013*
X05718Y02009*
X05705Y02513D02*
Y02529D01*
X05701Y02533*
X05693*
X0569Y02529*
Y02513*
X05693Y0251*
X05701*
X05697Y02517D02*
X05705Y0251D01*
X05701D02*
X05705Y02513D01*
X05713Y02529D02*
X05717Y02533D01*
X05725*
X05729Y02529*
Y02525*
X05725Y02521*
X05721*
X05725*
X05729Y02517*
Y02513*
X05725Y0251*
X05717*
X05713Y02513*
X0572Y03043D02*
Y03059D01*
X05716Y03063*
X05708*
X05705Y03059*
Y03043*
X05708Y0304*
X05716*
X05712Y03047D02*
X0572Y0304D01*
X05716D02*
X0572Y03043D01*
X05744Y03063D02*
X05728D01*
Y03051*
X05736Y03055*
X0574*
X05744Y03051*
Y03043*
X0574Y0304*
X05732*
X05728Y03043*
X04885Y03058D02*
Y03074D01*
X04881Y03078*
X04873*
X0487Y03074*
Y03058*
X04873Y03055*
X04881*
X04877Y03062D02*
X04885Y03055D01*
X04881D02*
X04885Y03058D01*
X04909Y03078D02*
X04901Y03074D01*
X04893Y03066*
Y03058*
X04897Y03055*
X04905*
X04909Y03058*
Y03062*
X04905Y03066*
X04893*
X0488Y02518D02*
Y02534D01*
X04876Y02538*
X04868*
X04865Y02534*
Y02518*
X04868Y02515*
X04876*
X04872Y02522D02*
X0488Y02515D01*
X04876D02*
X0488Y02518D01*
X049Y02515D02*
Y02538D01*
X04888Y02526*
X04904*
X0489Y01983D02*
Y01999D01*
X04886Y02003*
X04878*
X04875Y01999*
Y01983*
X04878Y0198*
X04886*
X04882Y01987D02*
X0489Y0198D01*
X04886D02*
X0489Y01983D01*
X04914Y0198D02*
X04898D01*
X04914Y01995*
Y01999*
X0491Y02003*
X04902*
X04898Y01999*
X03235Y02779D02*
X03231Y02783D01*
X03223*
X0322Y02779*
Y02763*
X03223Y0276*
X03231*
X03235Y02763*
X03259Y0276D02*
X03243D01*
X03259Y02775*
Y02779*
X03255Y02783*
X03247*
X03243Y02779*
X03279Y0276D02*
Y02783D01*
X03267Y02771*
X03282*
X03415Y02589D02*
X03411Y02593D01*
X03403*
X034Y02589*
Y02573*
X03403Y0257*
X03411*
X03415Y02573*
X03435Y0257D02*
Y02593D01*
X03423Y02581*
X03439*
X03462Y02593D02*
X03455Y02589D01*
X03447Y02581*
Y02573*
X03451Y0257*
X03459*
X03462Y02573*
Y02577*
X03459Y02581*
X03447*
X0342Y02469D02*
X03416Y02473D01*
X03408*
X03405Y02469*
Y02453*
X03408Y0245*
X03416*
X0342Y02453*
X03428Y02469D02*
X03432Y02473D01*
X0344*
X03444Y02469*
Y02465*
X0344Y02461*
X03436*
X0344*
X03444Y02457*
Y02453*
X0344Y0245*
X03432*
X03428Y02453*
X03452Y02469D02*
X03456Y02473D01*
X03464*
X03467Y02469*
Y02465*
X03464Y02461*
X03467Y02457*
Y02453*
X03464Y0245*
X03456*
X03452Y02453*
Y02457*
X03456Y02461*
X03452Y02465*
Y02469*
X03456Y02461D02*
X03464D01*
X03575Y02499D02*
X03571Y02503D01*
X03563*
X0356Y02499*
Y02483*
X03563Y0248*
X03571*
X03575Y02483*
X03599Y0248D02*
X03583D01*
X03599Y02495*
Y02499*
X03595Y02503*
X03587*
X03583Y02499*
X03622Y02503D02*
X03615Y02499D01*
X03607Y02491*
Y02483*
X03611Y0248*
X03619*
X03622Y02483*
Y02487*
X03619Y02491*
X03607*
X0356Y02554D02*
X03556Y02558D01*
X03548*
X03545Y02554*
Y02538*
X03548Y02535*
X03556*
X0356Y02538*
X0358Y02535D02*
Y02558D01*
X03568Y02546*
X03584*
X03592Y02554D02*
X03596Y02558D01*
X03604*
X03607Y02554*
Y02538*
X03604Y02535*
X03596*
X03592Y02538*
Y02554*
X0404Y02429D02*
X04036Y02433D01*
X04028*
X04025Y02429*
Y02413*
X04028Y0241*
X04036*
X0404Y02413*
X04064Y02433D02*
X04048D01*
Y02421*
X04056Y02425*
X0406*
X04064Y02421*
Y02413*
X0406Y0241*
X04052*
X04048Y02413*
X04087Y02433D02*
X0408Y02429D01*
X04072Y02421*
Y02413*
X04076Y0241*
X04084*
X04087Y02413*
Y02417*
X04084Y02421*
X04072*
X0404Y02549D02*
X04036Y02553D01*
X04028*
X04025Y02549*
Y02533*
X04028Y0253*
X04036*
X0404Y02533*
X04064Y02553D02*
X04048D01*
Y02541*
X04056Y02545*
X0406*
X04064Y02541*
Y02533*
X0406Y0253*
X04052*
X04048Y02533*
X04072Y0253D02*
X0408D01*
X04076*
Y02553*
X04072Y02549*
X0406Y02654D02*
X04056Y02658D01*
X04048*
X04045Y02654*
Y02638*
X04048Y02635*
X04056*
X0406Y02638*
X04084Y02658D02*
X04068D01*
Y02646*
X04076Y0265*
X0408*
X04084Y02646*
Y02638*
X0408Y02635*
X04072*
X04068Y02638*
X04092Y02658D02*
X04107D01*
Y02654*
X04092Y02638*
Y02635*
X04045Y02695D02*
Y02718D01*
X04056*
X0406Y02714*
Y02706*
X04056Y02702*
X04045*
X04052D02*
X0406Y02695D01*
X0408D02*
Y02718D01*
X04068Y02706*
X04084*
X04092Y02718D02*
X04107D01*
Y02714*
X04092Y02698*
Y02695*
X0404Y02795D02*
X04036Y02791D01*
Y02783*
X0404Y0278*
X04056*
X0406Y02783*
Y02791*
X04056Y02795*
X04036Y02819D02*
Y02803D01*
X04048*
X04044Y02811*
Y02815*
X04048Y02819*
X04056*
X0406Y02815*
Y02807*
X04056Y02803*
X0406Y02839D02*
X04036D01*
X04048Y02827*
Y02842*
X0409Y02949D02*
X04086Y02953D01*
X04078*
X04075Y02949*
Y02933*
X04078Y0293*
X04086*
X0409Y02933*
X04114Y02953D02*
X04098D01*
Y02941*
X04106Y02945*
X0411*
X04114Y02941*
Y02933*
X0411Y0293*
X04102*
X04098Y02933*
X04122Y02949D02*
X04126Y02953D01*
X04134*
X04137Y02949*
Y02945*
X04134Y02941*
X0413*
X04134*
X04137Y02937*
Y02933*
X04134Y0293*
X04126*
X04122Y02933*
X04055Y03024D02*
X04051Y03028D01*
X04043*
X0404Y03024*
Y03008*
X04043Y03005*
X04051*
X04055Y03008*
X04079Y03028D02*
X04063D01*
Y03016*
X04071Y0302*
X04075*
X04079Y03016*
Y03008*
X04075Y03005*
X04067*
X04063Y03008*
X04102Y03005D02*
X04087D01*
X04102Y0302*
Y03024*
X04099Y03028*
X04091*
X04087Y03024*
X04045Y03055D02*
Y03078D01*
X04056*
X0406Y03074*
Y03066*
X04056Y03062*
X04045*
X04052D02*
X0406Y03055D01*
X0408D02*
Y03078D01*
X04068Y03066*
X04084*
X04107Y03078D02*
X041Y03074D01*
X04092Y03066*
Y03058*
X04096Y03055*
X04104*
X04107Y03058*
Y03062*
X04104Y03066*
X04092*
X04065Y03154D02*
X04061Y03158D01*
X04053*
X0405Y03154*
Y03138*
X04053Y03135*
X04061*
X04065Y03138*
X04085Y03135D02*
Y03158D01*
X04073Y03146*
X04089*
X04109Y03135D02*
Y03158D01*
X04097Y03146*
X04112*
X041Y03378D02*
Y03355D01*
X04115*
X04135D02*
Y03378D01*
X04123Y03366*
X04139*
X0411Y03498D02*
Y03475D01*
X04121*
X04125Y03478*
Y03494*
X04121Y03498*
X0411*
X04133Y03494D02*
X04137Y03498D01*
X04145*
X04149Y03494*
Y0349*
X04145Y03486*
X04141*
X04145*
X04149Y03482*
Y03478*
X04145Y03475*
X04137*
X04133Y03478*
X0378Y03339D02*
X03776Y03343D01*
X03768*
X03765Y03339*
Y03323*
X03768Y0332*
X03776*
X0378Y03323*
X038Y0332D02*
Y03343D01*
X03788Y03331*
X03804*
X03812Y03343D02*
X03827D01*
Y03339*
X03812Y03323*
Y0332*
X0357Y03249D02*
X03566Y03253D01*
X03558*
X03555Y03249*
Y03233*
X03558Y0323*
X03566*
X0357Y03233*
X0359Y0323D02*
Y03253D01*
X03578Y03241*
X03594*
X03602Y03249D02*
X03606Y03253D01*
X03614*
X03617Y03249*
Y03245*
X03614Y03241*
X0361*
X03614*
X03617Y03237*
Y03233*
X03614Y0323*
X03606*
X03602Y03233*
X03405Y03254D02*
X03401Y03258D01*
X03393*
X0339Y03254*
Y03238*
X03393Y03235*
X03401*
X03405Y03238*
X03413Y03235D02*
X03421D01*
X03417*
Y03258*
X03413Y03254*
X03433Y03258D02*
X03449D01*
Y03254*
X03433Y03238*
Y03235*
X0333Y03198D02*
Y03178D01*
X03333Y03175*
X03341*
X03345Y03178*
Y03198*
X03365Y03175D02*
Y03198D01*
X03353Y03186*
X03369*
X0346Y0334D02*
X03456Y03336D01*
Y03328*
X0346Y03325*
X03476*
X0348Y03328*
Y03336*
X03476Y0334*
X0346Y03348D02*
X03456Y03352D01*
Y0336*
X0346Y03364*
X03464*
X03468Y0336*
Y03356*
Y0336*
X03472Y03364*
X03476*
X0348Y0336*
Y03352*
X03476Y03348*
X03456Y03372D02*
Y03387D01*
X0346*
X03476Y03372*
X0348*
X0346Y0349D02*
X03456Y03486D01*
Y03478*
X0346Y03475*
X03476*
X0348Y03478*
Y03486*
X03476Y0349*
X03456Y03514D02*
Y03498D01*
X03468*
X03464Y03506*
Y0351*
X03468Y03514*
X03476*
X0348Y0351*
Y03502*
X03476Y03498*
X0346Y03522D02*
X03456Y03526D01*
Y03534*
X0346Y03537*
X03464*
X03468Y03534*
X03472Y03537*
X03476*
X0348Y03534*
Y03526*
X03476Y03522*
X03472*
X03468Y03526*
X03464Y03522*
X0346*
X03468Y03526D02*
Y03534D01*
X03395Y03555D02*
X03371D01*
Y03566*
X03375Y0357*
X03383*
X03387Y03566*
Y03555*
Y03562D02*
X03395Y0357D01*
Y0359D02*
X03371D01*
X03383Y03578*
Y03594*
X03375Y03602D02*
X03371Y03606D01*
Y03614*
X03375Y03617*
X03379*
X03383Y03614*
Y0361*
Y03614*
X03387Y03617*
X03391*
X03395Y03614*
Y03606*
X03391Y03602*
X03325Y03315D02*
X03321Y03311D01*
Y03303*
X03325Y033*
X03341*
X03345Y03303*
Y03311*
X03341Y03315*
X03325Y03323D02*
X03321Y03327D01*
Y03335*
X03325Y03339*
X03329*
X03333Y03335*
Y03331*
Y03335*
X03337Y03339*
X03341*
X03345Y03335*
Y03327*
X03341Y03323*
X03345Y03359D02*
X03321D01*
X03333Y03347*
Y03362*
X03285Y03295D02*
X03261D01*
Y03306*
X03265Y0331*
X03273*
X03277Y03306*
Y03295*
Y03302D02*
X03285Y0331D01*
X03265Y03318D02*
X03261Y03322D01*
Y0333*
X03265Y03334*
X03269*
X03273Y0333*
Y03326*
Y0333*
X03277Y03334*
X03281*
X03285Y0333*
Y03322*
X03281Y03318*
Y03342D02*
X03285Y03346D01*
Y03354*
X03281Y03357*
X03265*
X03261Y03354*
Y03346*
X03265Y03342*
X03269*
X03273Y03346*
Y03357*
X0341Y0357D02*
X03406Y03566D01*
Y03558*
X0341Y03555*
X03426*
X0343Y03558*
Y03566*
X03426Y0357*
X0341Y03578D02*
X03406Y03582D01*
Y0359*
X0341Y03594*
X03414*
X03418Y0359*
Y03586*
Y0359*
X03422Y03594*
X03426*
X0343Y0359*
Y03582*
X03426Y03578*
X0341Y03602D02*
X03406Y03606D01*
Y03614*
X0341Y03617*
X03426*
X0343Y03614*
Y03606*
X03426Y03602*
X0341*
X0337Y03665D02*
Y03688D01*
X03381*
X03385Y03684*
Y03676*
X03381Y03672*
X0337*
X03377D02*
X03385Y03665D01*
X03405D02*
Y03688D01*
X03393Y03676*
X03409*
X03429Y03665D02*
Y03688D01*
X03417Y03676*
X03432*
X0325Y03775D02*
Y03798D01*
X03261*
X03265Y03794*
Y03786*
X03261Y03782*
X0325*
X03257D02*
X03265Y03775D01*
X03285D02*
Y03798D01*
X03273Y03786*
X03289*
X03312Y03798D02*
X03297D01*
Y03786*
X03305Y0379*
X03309*
X03312Y03786*
Y03778*
X03309Y03775*
X03301*
X03297Y03778*
X0315Y03398D02*
Y03375D01*
X03165*
X03189Y03398D02*
X03173D01*
Y03375*
X03189*
X03173Y03386D02*
X03181D01*
X03197Y03398D02*
Y03375D01*
X03209*
X03212Y03378*
Y03394*
X03209Y03398*
X03197*
X0322Y03394D02*
X03224Y03398D01*
X03232*
X03236Y03394*
Y0339*
X03232Y03386*
X03228*
X03232*
X03236Y03382*
Y03378*
X03232Y03375*
X03224*
X0322Y03378*
X0316Y0374D02*
Y03763D01*
X03171*
X03175Y03759*
Y03751*
X03171Y03747*
X0316*
X03167D02*
X03175Y0374D01*
X03183Y03759D02*
X03187Y03763D01*
X03195*
X03199Y03759*
Y03755*
X03195Y03751*
X03191*
X03195*
X03199Y03747*
Y03743*
X03195Y0374*
X03187*
X03183Y03743*
X03207Y0374D02*
X03215D01*
X03211*
Y03763*
X03207Y03759*
X0312Y03585D02*
X03096D01*
Y03596*
X031Y036*
X03108*
X03112Y03596*
Y03585*
Y03592D02*
X0312Y036D01*
X031Y03608D02*
X03096Y03612D01*
Y0362*
X031Y03624*
X03104*
X03108Y0362*
Y03616*
Y0362*
X03112Y03624*
X03116*
X0312Y0362*
Y03612*
X03116Y03608*
X03096Y03647D02*
Y03632D01*
X03108*
X03104Y0364*
Y03644*
X03108Y03647*
X03116*
X0312Y03644*
Y03636*
X03116Y03632*
X03005Y0373D02*
Y03753D01*
X03016*
X0302Y03749*
Y03741*
X03016Y03737*
X03005*
X03012D02*
X0302Y0373D01*
X03028Y03749D02*
X03032Y03753D01*
X0304*
X03044Y03749*
Y03745*
X0304Y03741*
X03036*
X0304*
X03044Y03737*
Y03733*
X0304Y0373*
X03032*
X03028Y03733*
X03067Y0373D02*
X03052D01*
X03067Y03745*
Y03749*
X03064Y03753*
X03056*
X03052Y03749*
X03Y03793D02*
Y0377D01*
X03015*
X03039Y03793D02*
X03023D01*
Y0377*
X03039*
X03023Y03781D02*
X03031D01*
X03047Y03793D02*
Y0377D01*
X03059*
X03062Y03773*
Y03789*
X03059Y03793*
X03047*
X03082Y0377D02*
Y03793D01*
X0307Y03781*
X03086*
X0298Y0358D02*
X02956D01*
Y03591*
X0296Y03595*
X02968*
X02972Y03591*
Y0358*
Y03587D02*
X0298Y03595D01*
X0296Y03603D02*
X02956Y03607D01*
Y03615*
X0296Y03619*
X02964*
X02968Y03615*
Y03611*
Y03615*
X02972Y03619*
X02976*
X0298Y03615*
Y03607*
X02976Y03603*
X02956Y03642D02*
X0296Y03635D01*
X02968Y03627*
X02976*
X0298Y03631*
Y03639*
X02976Y03642*
X02972*
X02968Y03639*
Y03627*
X03025Y0323D02*
X03001D01*
Y03241*
X03005Y03245*
X03013*
X03017Y03241*
Y0323*
Y03237D02*
X03025Y03245D01*
X03005Y03253D02*
X03001Y03257D01*
Y03265*
X03005Y03269*
X03009*
X03013Y03265*
Y03261*
Y03265*
X03017Y03269*
X03021*
X03025Y03265*
Y03257*
X03021Y03253*
X03005Y03277D02*
X03001Y03281D01*
Y03289*
X03005Y03292*
X03009*
X03013Y03289*
X03017Y03292*
X03021*
X03025Y03289*
Y03281*
X03021Y03277*
X03017*
X03013Y03281*
X03009Y03277*
X03005*
X03013Y03281D02*
Y03289D01*
X02865Y03435D02*
Y03458D01*
X02876*
X0288Y03454*
Y03446*
X02876Y03442*
X02865*
X02872D02*
X0288Y03435D01*
X02888Y03454D02*
X02892Y03458D01*
X029*
X02904Y03454*
Y0345*
X029Y03446*
X02896*
X029*
X02904Y03442*
Y03438*
X029Y03435*
X02892*
X02888Y03438*
X02912Y03454D02*
X02916Y03458D01*
X02924*
X02927Y03454*
Y0345*
X02924Y03446*
X0292*
X02924*
X02927Y03442*
Y03438*
X02924Y03435*
X02916*
X02912Y03438*
X0288Y03288D02*
Y03265D01*
X02895*
X02919Y03288D02*
X02903D01*
Y03265*
X02919*
X02903Y03276D02*
X02911D01*
X02927Y03288D02*
Y03265D01*
X02939*
X02942Y03268*
Y03284*
X02939Y03288*
X02927*
X02966D02*
X0295D01*
Y03276*
X02958Y0328*
X02962*
X02966Y03276*
Y03268*
X02962Y03265*
X02954*
X0295Y03268*
X03135Y03265D02*
Y03288D01*
X03146*
X0315Y03284*
Y03276*
X03146Y03272*
X03135*
X03142D02*
X0315Y03265D01*
X0317D02*
Y03288D01*
X03158Y03276*
X03174*
X03182Y03284D02*
X03186Y03288D01*
X03194*
X03197Y03284*
Y03268*
X03194Y03265*
X03186*
X03182Y03268*
Y03284*
X0293Y03204D02*
X02926Y03208D01*
X02918*
X02915Y03204*
Y03188*
X02918Y03185*
X02926*
X0293Y03188*
X02938Y03185D02*
X02946D01*
X02942*
Y03208*
X02938Y03204*
X02974Y03208D02*
X02966Y03204D01*
X02958Y03196*
Y03188*
X02962Y03185*
X0297*
X02974Y03188*
Y03192*
X0297Y03196*
X02958*
X0296Y03044D02*
X02956Y03048D01*
X02948*
X02945Y03044*
Y03028*
X02948Y03025*
X02956*
X0296Y03028*
X02984Y03025D02*
X02968D01*
X02984Y0304*
Y03044*
X0298Y03048*
X02972*
X02968Y03044*
X0311Y03089D02*
X03106Y03093D01*
X03098*
X03095Y03089*
Y03073*
X03098Y0307*
X03106*
X0311Y03073*
X03118Y03089D02*
X03122Y03093D01*
X0313*
X03134Y03089*
Y03085*
X0313Y03081*
X03126*
X0313*
X03134Y03077*
Y03073*
X0313Y0307*
X03122*
X03118Y03073*
X03157Y03093D02*
X03142D01*
Y03081*
X0315Y03085*
X03154*
X03157Y03081*
Y03073*
X03154Y0307*
X03146*
X03142Y03073*
X0315Y02979D02*
X03146Y02983D01*
X03138*
X03135Y02979*
Y02963*
X03138Y0296*
X03146*
X0315Y02963*
X03158Y02979D02*
X03162Y02983D01*
X0317*
X03174Y02979*
Y02975*
X0317Y02971*
X03166*
X0317*
X03174Y02967*
Y02963*
X0317Y0296*
X03162*
X03158Y02963*
X03197Y02983D02*
X0319Y02979D01*
X03182Y02971*
Y02963*
X03186Y0296*
X03194*
X03197Y02963*
Y02967*
X03194Y02971*
X03182*
X02965Y0288D02*
Y02903D01*
X02976*
X0298Y02899*
Y02891*
X02976Y02887*
X02965*
X02972D02*
X0298Y0288D01*
X02988Y02899D02*
X02992Y02903D01*
X03*
X03004Y02899*
Y02895*
X03Y02891*
X02996*
X03*
X03004Y02887*
Y02883*
X03Y0288*
X02992*
X02988Y02883*
X03012Y02903D02*
X03027D01*
Y02899*
X03012Y02883*
Y0288*
X0304Y02844D02*
X03036Y02848D01*
X03028*
X03025Y02844*
Y02828*
X03028Y02825*
X03036*
X0304Y02828*
X03048Y02844D02*
X03052Y02848D01*
X0306*
X03064Y02844*
Y0284*
X0306Y02836*
X03056*
X0306*
X03064Y02832*
Y02828*
X0306Y02825*
X03052*
X03048Y02828*
X03072Y02825D02*
X0308D01*
X03076*
Y02848*
X03072Y02844*
X0312Y02775D02*
X03116Y02771D01*
Y02763*
X0312Y0276*
X03136*
X0314Y02763*
Y02771*
X03136Y02775*
X03116Y02799D02*
Y02783D01*
X03128*
X03124Y02791*
Y02795*
X03128Y02799*
X03136*
X0314Y02795*
Y02787*
X03136Y02783*
X03116Y02822D02*
Y02807D01*
X03128*
X03124Y02815*
Y02819*
X03128Y02822*
X03136*
X0314Y02819*
Y02811*
X03136Y02807*
X0293Y02765D02*
Y02788D01*
X02941*
X02945Y02784*
Y02776*
X02941Y02772*
X0293*
X02937D02*
X02945Y02765D01*
X02953Y02784D02*
X02957Y02788D01*
X02965*
X02969Y02784*
Y0278*
X02965Y02776*
X02961*
X02965*
X02969Y02772*
Y02768*
X02965Y02765*
X02957*
X02953Y02768*
X02989Y02765D02*
Y02788D01*
X02977Y02776*
X02992*
X02865Y02685D02*
X02861Y02681D01*
Y02673*
X02865Y0267*
X02881*
X02885Y02673*
Y02681*
X02881Y02685*
X02885Y02693D02*
Y02701D01*
Y02697*
X02861*
X02865Y02693*
X02861Y02729D02*
Y02713D01*
X02873*
X02869Y02721*
Y02725*
X02873Y02729*
X02881*
X02885Y02725*
Y02717*
X02881Y02713*
X02825Y0257D02*
Y02593D01*
X02836*
X0284Y02589*
Y02581*
X02836Y02577*
X02825*
X02832D02*
X0284Y0257D01*
X0286D02*
Y02593D01*
X02848Y02581*
X02864*
X02872Y0257D02*
X0288D01*
X02876*
Y02593*
X02872Y02589*
X02795Y0249D02*
Y02513D01*
X02806*
X0281Y02509*
Y02501*
X02806Y02497*
X02795*
X02802D02*
X0281Y0249D01*
X0283D02*
Y02513D01*
X02818Y02501*
X02834*
X02857Y0249D02*
X02842D01*
X02857Y02505*
Y02509*
X02854Y02513*
X02846*
X02842Y02509*
X032Y02369D02*
X03196Y02373D01*
X03188*
X03185Y02369*
Y02353*
X03188Y0235*
X03196*
X032Y02353*
X03224Y0235D02*
X03208D01*
X03224Y02365*
Y02369*
X0322Y02373*
X03212*
X03208Y02369*
X03232D02*
X03236Y02373D01*
X03244*
X03247Y02369*
Y02365*
X03244Y02361*
X03247Y02357*
Y02353*
X03244Y0235*
X03236*
X03232Y02353*
Y02357*
X03236Y02361*
X03232Y02365*
Y02369*
X03236Y02361D02*
X03244D01*
X0316Y02448D02*
Y02425D01*
X03171*
X03175Y02428*
Y02444*
X03171Y02448*
X0316*
X03183Y02425D02*
X03191D01*
X03187*
Y02448*
X03183Y02444*
X02775Y02559D02*
X02771Y02563D01*
X02763*
X0276Y02559*
Y02543*
X02763Y0254*
X02771*
X02775Y02543*
X02795Y0254D02*
Y02563D01*
X02783Y02551*
X02799*
X02645Y02493D02*
Y0247D01*
X02656*
X0266Y02473*
Y02489*
X02656Y02493*
X02645*
X02684Y0247D02*
X02668D01*
X02684Y02485*
Y02489*
X0268Y02493*
X02672*
X02668Y02489*
X0274Y02314D02*
X02736Y02318D01*
X02728*
X02725Y02314*
Y02298*
X02728Y02295*
X02736*
X0274Y02298*
X02748Y02314D02*
X02752Y02318D01*
X0276*
X02764Y02314*
Y0231*
X0276Y02306*
X02756*
X0276*
X02764Y02302*
Y02298*
X0276Y02295*
X02752*
X02748Y02298*
X02787Y02295D02*
X02772D01*
X02787Y0231*
Y02314*
X02784Y02318*
X02776*
X02772Y02314*
X0217Y02589D02*
X02166Y02593D01*
X02158*
X02155Y02589*
Y02573*
X02158Y0257*
X02166*
X0217Y02573*
X02194Y02593D02*
X02178D01*
Y02581*
X02186Y02585*
X0219*
X02194Y02581*
Y02573*
X0219Y0257*
X02182*
X02178Y02573*
X02135Y02355D02*
Y02378D01*
X02146*
X0215Y02374*
Y02366*
X02146Y02362*
X02135*
X02142D02*
X0215Y02355D01*
X02174Y02378D02*
X02158D01*
Y02366*
X02166Y0237*
X0217*
X02174Y02366*
Y02358*
X0217Y02355*
X02162*
X02158Y02358*
X02355Y025D02*
Y02523D01*
X02366*
X0237Y02519*
Y02511*
X02366Y02507*
X02355*
X02378Y025D02*
X02386D01*
X02382*
Y02523*
X02378Y02519*
X01715Y0217D02*
Y02193D01*
X01726*
X0173Y02189*
Y02181*
X01726Y02177*
X01715*
X01722D02*
X0173Y0217D01*
X01738D02*
X01746D01*
X01742*
Y02193*
X01738Y02189*
X01758D02*
X01762Y02193D01*
X0177*
X01774Y02189*
Y02185*
X0177Y02181*
X01766*
X0177*
X01774Y02177*
Y02173*
X0177Y0217*
X01762*
X01758Y02173*
X0179Y0217D02*
Y02193D01*
X01801*
X01805Y02189*
Y02181*
X01801Y02177*
X0179*
X01797D02*
X01805Y0217D01*
X01813D02*
X01821D01*
X01817*
Y02193*
X01813Y02189*
X01845Y0217D02*
Y02193D01*
X01833Y02181*
X01849*
X0186Y0217D02*
Y02193D01*
X01871*
X01875Y02189*
Y02181*
X01871Y02177*
X0186*
X01867D02*
X01875Y0217D01*
X01883D02*
X01891D01*
X01887*
Y02193*
X01883Y02189*
X01919Y0217D02*
X01903D01*
X01919Y02185*
Y02189*
X01915Y02193*
X01907*
X01903Y02189*
X0193Y0217D02*
Y02193D01*
X01941*
X01945Y02189*
Y02181*
X01941Y02177*
X0193*
X01937D02*
X01945Y0217D01*
X01953D02*
X01961D01*
X01957*
Y02193*
X01953Y02189*
X01989Y02193D02*
X01973D01*
Y02181*
X01981Y02185*
X01985*
X01989Y02181*
Y02173*
X01985Y0217*
X01977*
X01973Y02173*
X02005Y0217D02*
Y02193D01*
X02016*
X0202Y02189*
Y02181*
X02016Y02177*
X02005*
X02012D02*
X0202Y0217D01*
X02028D02*
X02036D01*
X02032*
Y02193*
X02028Y02189*
X02048Y0217D02*
X02056D01*
X02052*
Y02193*
X02048Y02189*
X02135Y0207D02*
X02111D01*
Y02081*
X02115Y02085*
X02123*
X02127Y02081*
Y0207*
Y02077D02*
X02135Y02085D01*
Y02093D02*
Y02101D01*
Y02097*
X02111*
X02115Y02093*
X02111Y02129D02*
X02115Y02121D01*
X02123Y02113*
X02131*
X02135Y02117*
Y02125*
X02131Y02129*
X02127*
X02123Y02125*
Y02113*
X01645Y02199D02*
X01641Y02203D01*
X01633*
X0163Y02199*
Y02183*
X01633Y0218*
X01641*
X01645Y02183*
X01653Y0218D02*
X01661D01*
X01657*
Y02203*
X01653Y02199*
X01673Y02183D02*
X01677Y0218D01*
X01685*
X01689Y02183*
Y02199*
X01685Y02203*
X01677*
X01673Y02199*
Y02195*
X01677Y02191*
X01689*
X02055Y02274D02*
X02051Y02278D01*
X02043*
X0204Y02274*
Y02258*
X02043Y02255*
X02051*
X02055Y02258*
X02063Y02255D02*
X02071D01*
X02067*
Y02278*
X02063Y02274*
X02083D02*
X02087Y02278D01*
X02095*
X02099Y02274*
Y02258*
X02095Y02255*
X02087*
X02083Y02258*
Y02274*
X01915Y02279D02*
X01911Y02283D01*
X01903*
X019Y02279*
Y02263*
X01903Y0226*
X01911*
X01915Y02263*
X01923Y0226D02*
X01931D01*
X01927*
Y02283*
X01923Y02279*
X01943Y0226D02*
X01951D01*
X01947*
Y02283*
X01943Y02279*
X01765D02*
X01761Y02283D01*
X01753*
X0175Y02279*
Y02263*
X01753Y0226*
X01761*
X01765Y02263*
X01773Y0226D02*
X01781D01*
X01777*
Y02283*
X01773Y02279*
X01793D02*
X01797Y02283D01*
X01805*
X01809Y02279*
Y02275*
X01805Y02271*
X01801*
X01805*
X01809Y02267*
Y02263*
X01805Y0226*
X01797*
X01793Y02263*
X01945Y0242D02*
Y02443D01*
X01956*
X0196Y02439*
Y02431*
X01956Y02427*
X01945*
X01952D02*
X0196Y0242D01*
X01984Y02443D02*
X01976Y02439D01*
X01968Y02431*
Y02423*
X01972Y0242*
X0198*
X01984Y02423*
Y02427*
X0198Y02431*
X01968*
X0198Y02504D02*
X01976Y02508D01*
X01968*
X01965Y02504*
Y02488*
X01968Y02485*
X01976*
X0198Y02488*
X01988Y02508D02*
X02004D01*
Y02504*
X01988Y02488*
Y02485*
X0203Y02719D02*
X02026Y02723D01*
X02018*
X02015Y02719*
Y02703*
X02018Y027*
X02026*
X0203Y02703*
X02038Y027D02*
X02046D01*
X02042*
Y02723*
X02038Y02719*
X02074Y027D02*
X02058D01*
X02074Y02715*
Y02719*
X0207Y02723*
X02062*
X02058Y02719*
X01945Y02728D02*
Y02705D01*
X0196*
X01984D02*
X01968D01*
X01984Y0272*
Y02724*
X0198Y02728*
X01972*
X01968Y02724*
X01815Y0277D02*
Y02793D01*
X01826*
X0183Y02789*
Y02781*
X01826Y02777*
X01815*
X01822D02*
X0183Y0277D01*
X01838Y02793D02*
X01854D01*
Y02789*
X01838Y02773*
Y0277*
X0208Y03733D02*
Y03713D01*
X02083Y0371*
X02091*
X02095Y03713*
Y03733*
X02119Y0371D02*
X02103D01*
X02119Y03725*
Y03729*
X02115Y03733*
X02107*
X02103Y03729*
X01615Y02639D02*
X01611Y02643D01*
X01603*
X016Y02639*
Y02635*
X01603Y02631*
X01611*
X01615Y02627*
Y02623*
X01611Y0262*
X01603*
X016Y02623*
X01623Y0262D02*
X01631D01*
X01627*
Y02643*
X01623Y02639*
X01625Y0273D02*
X01621Y02726D01*
Y02718*
X01625Y02715*
X01641*
X01645Y02718*
Y02726*
X01641Y0273*
X01625Y02738D02*
X01621Y02742D01*
Y0275*
X01625Y02754*
X01629*
X01633Y0275*
X01637Y02754*
X01641*
X01645Y0275*
Y02742*
X01641Y02738*
X01637*
X01633Y02742*
X01629Y02738*
X01625*
X01633Y02742D02*
Y0275D01*
X0162Y02835D02*
X01616Y02831D01*
Y02823*
X0162Y0282*
X01636*
X0164Y02823*
Y02831*
X01636Y02835*
Y02843D02*
X0164Y02847D01*
Y02855*
X01636Y02859*
X0162*
X01616Y02855*
Y02847*
X0162Y02843*
X01624*
X01628Y02847*
Y02859*
X01795Y02893D02*
Y0287D01*
X0181*
X01818D02*
X01826D01*
X01822*
Y02893*
X01818Y02889*
X0165Y02954D02*
X01646Y02958D01*
X01638*
X01635Y02954*
Y02938*
X01638Y02935*
X01646*
X0165Y02938*
X01658Y02954D02*
X01662Y02958D01*
X0167*
X01674Y02954*
Y0295*
X0167Y02946*
X01666*
X0167*
X01674Y02942*
Y02938*
X0167Y02935*
X01662*
X01658Y02938*
X01915Y03405D02*
Y03428D01*
X01926*
X0193Y03424*
Y03416*
X01926Y03412*
X01915*
X01922D02*
X0193Y03405D01*
X01938D02*
X01946D01*
X01942*
Y03428*
X01938Y03424*
X01958D02*
X01962Y03428D01*
X0197*
X01974Y03424*
Y03408*
X0197Y03405*
X01962*
X01958Y03408*
Y03424*
X01915Y03455D02*
Y03478D01*
X01926*
X0193Y03474*
Y03466*
X01926Y03462*
X01915*
X01922D02*
X0193Y03455D01*
X01938Y03458D02*
X01942Y03455D01*
X0195*
X01954Y03458*
Y03474*
X0195Y03478*
X01942*
X01938Y03474*
Y0347*
X01942Y03466*
X01954*
X01611Y0354D02*
X01635D01*
Y03555*
X01611Y03579D02*
Y03563D01*
X01635*
Y03579*
X01623Y03563D02*
Y03571D01*
X01611Y03587D02*
X01635D01*
Y03599*
X01631Y03602*
X01615*
X01611Y03599*
Y03587*
X01635Y03626D02*
Y0361D01*
X01619Y03626*
X01615*
X01611Y03622*
Y03614*
X01615Y0361*
X01656Y0354D02*
X0168D01*
Y03555*
X01656Y03579D02*
Y03563D01*
X0168*
Y03579*
X01668Y03563D02*
Y03571D01*
X01656Y03587D02*
X0168D01*
Y03599*
X01676Y03602*
X0166*
X01656Y03599*
Y03587*
X0168Y0361D02*
Y03618D01*
Y03614*
X01656*
X0166Y0361*
X0163Y03265D02*
X01606D01*
Y03276*
X0161Y0328*
X01618*
X01622Y03276*
Y03265*
X0163Y033D02*
X01606D01*
X01618Y03288*
Y03304*
X01625Y03115D02*
X01601D01*
Y03126*
X01605Y0313*
X01613*
X01617Y03126*
Y03115*
X01601Y03154D02*
Y03138D01*
X01613*
X01609Y03146*
Y0315*
X01613Y03154*
X01621*
X01625Y0315*
Y03142*
X01621Y03138*
X02005Y03023D02*
X0202Y03D01*
Y03023D02*
X02005Y03D01*
X02028D02*
X02036D01*
X02032*
Y03023*
X02028Y03019*
X0166Y03029D02*
X01656Y03033D01*
X01648*
X01645Y03029*
Y03013*
X01648Y0301*
X01656*
X0166Y03013*
X01668Y0301D02*
X01676D01*
X01672*
Y03033*
X01668Y03029*
X02045Y03205D02*
Y03228D01*
X02056*
X0206Y03224*
Y03216*
X02056Y03212*
X02045*
X02052D02*
X0206Y03205D01*
X02084Y03228D02*
X02068D01*
Y03216*
X02076Y0322*
X0208*
X02084Y03216*
Y03208*
X0208Y03205*
X02072*
X02068Y03208*
X02092Y03205D02*
X021D01*
X02096*
Y03228*
X02092Y03224*
X019Y03205D02*
Y03228D01*
X01911*
X01915Y03224*
Y03216*
X01911Y03212*
X019*
X01907D02*
X01915Y03205D01*
X01939Y03228D02*
X01923D01*
Y03216*
X01931Y0322*
X01935*
X01939Y03216*
Y03208*
X01935Y03205*
X01927*
X01923Y03208*
X01947Y03224D02*
X01951Y03228D01*
X01959*
X01962Y03224*
Y03208*
X01959Y03205*
X01951*
X01947Y03208*
Y03224*
X01915Y0335D02*
Y03373D01*
X01926*
X0193Y03369*
Y03361*
X01926Y03357*
X01915*
X01922D02*
X0193Y0335D01*
X0195D02*
Y03373D01*
X01938Y03361*
X01954*
X01962Y03369D02*
X01966Y03373D01*
X01974*
X01977Y03369*
Y03365*
X01974Y03361*
X01977Y03357*
Y03353*
X01974Y0335*
X01966*
X01962Y03353*
Y03357*
X01966Y03361*
X01962Y03365*
Y03369*
X01966Y03361D02*
X01974D01*
X0206Y03355D02*
X02036D01*
Y03366*
X0204Y0337*
X02048*
X02052Y03366*
Y03355*
Y03362D02*
X0206Y0337D01*
Y0339D02*
X02036D01*
X02048Y03378*
Y03394*
X02056Y03402D02*
X0206Y03406D01*
Y03414*
X02056Y03417*
X0204*
X02036Y03414*
Y03406*
X0204Y03402*
X02044*
X02048Y03406*
Y03417*
X0213Y03278D02*
Y03258D01*
X02133Y03255*
X02141*
X02145Y03258*
Y03278*
X02153Y03255D02*
X02161D01*
X02157*
Y03278*
X02153Y03274*
X024Y03355D02*
Y03378D01*
X02411*
X02415Y03374*
Y03366*
X02411Y03362*
X024*
X02407D02*
X02415Y03355D01*
X02423Y03374D02*
X02427Y03378D01*
X02435*
X02439Y03374*
Y0337*
X02435Y03366*
X02439Y03362*
Y03358*
X02435Y03355*
X02427*
X02423Y03358*
Y03362*
X02427Y03366*
X02423Y0337*
Y03374*
X02427Y03366D02*
X02435D01*
X02315Y03439D02*
X02311Y03443D01*
X02303*
X023Y03439*
Y03423*
X02303Y0342*
X02311*
X02315Y03423*
X02323Y0342D02*
X02331D01*
X02327*
Y03443*
X02323Y03439*
X02355Y0342D02*
Y03443D01*
X02343Y03431*
X02359*
X0243Y03489D02*
X02426Y03493D01*
X02418*
X02415Y03489*
Y03473*
X02418Y0347*
X02426*
X0243Y03473*
X02438Y0347D02*
X02446D01*
X02442*
Y03493*
X02438Y03489*
X02458D02*
X02462Y03493D01*
X0247*
X02474Y03489*
Y03485*
X0247Y03481*
X02474Y03477*
Y03473*
X0247Y0347*
X02462*
X02458Y03473*
Y03477*
X02462Y03481*
X02458Y03485*
Y03489*
X02462Y03481D02*
X0247D01*
X0245Y0385D02*
X02446Y03846D01*
Y03838*
X0245Y03835*
X02466*
X0247Y03838*
Y03846*
X02466Y0385*
X0247Y03874D02*
Y03858D01*
X02454Y03874*
X0245*
X02446Y0387*
Y03862*
X0245Y03858*
X02466Y03882D02*
X0247Y03886D01*
Y03894*
X02466Y03897*
X0245*
X02446Y03894*
Y03886*
X0245Y03882*
X02454*
X02458Y03886*
Y03897*
X02325Y03959D02*
X02321Y03963D01*
X02313*
X0231Y03959*
Y03943*
X02313Y0394*
X02321*
X02325Y03943*
X02333Y03959D02*
X02337Y03963D01*
X02345*
X02349Y03959*
Y03955*
X02345Y03951*
X02341*
X02345*
X02349Y03947*
Y03943*
X02345Y0394*
X02337*
X02333Y03943*
X02357Y03959D02*
X02361Y03963D01*
X02369*
X02372Y03959*
Y03955*
X02369Y03951*
X02365*
X02369*
X02372Y03947*
Y03943*
X02369Y0394*
X02361*
X02357Y03943*
X0226Y03789D02*
X02256Y03793D01*
X02248*
X02245Y03789*
Y03773*
X02248Y0377*
X02256*
X0226Y03773*
X02284Y0377D02*
X02268D01*
X02284Y03785*
Y03789*
X0228Y03793*
X02272*
X02268Y03789*
X02307Y03793D02*
X02292D01*
Y03781*
X023Y03785*
X02304*
X02307Y03781*
Y03773*
X02304Y0377*
X02296*
X02292Y03773*
X02205Y03959D02*
X02201Y03963D01*
X02193*
X0219Y03959*
Y03943*
X02193Y0394*
X02201*
X02205Y03943*
X02229Y0394D02*
X02213D01*
X02229Y03955*
Y03959*
X02225Y03963*
X02217*
X02213Y03959*
X02237Y03963D02*
X02252D01*
Y03959*
X02237Y03943*
Y0394*
X02105Y03944D02*
X02101Y03948D01*
X02093*
X0209Y03944*
Y03928*
X02093Y03925*
X02101*
X02105Y03928*
X02129Y03925D02*
X02113D01*
X02129Y0394*
Y03944*
X02125Y03948*
X02117*
X02113Y03944*
X02152Y03925D02*
X02137D01*
X02152Y0394*
Y03944*
X02149Y03948*
X02141*
X02137Y03944*
X0202Y03929D02*
X02016Y03933D01*
X02008*
X02005Y03929*
Y03913*
X02008Y0391*
X02016*
X0202Y03913*
X02044Y0391D02*
X02028D01*
X02044Y03925*
Y03929*
X0204Y03933*
X02032*
X02028Y03929*
X02052D02*
X02056Y03933D01*
X02064*
X02067Y03929*
Y03913*
X02064Y0391*
X02056*
X02052Y03913*
Y03929*
X01945Y03685D02*
Y03708D01*
X01956*
X0196Y03704*
Y03696*
X01956Y03692*
X01945*
X01952D02*
X0196Y03685D01*
X01984D02*
X01968D01*
X01984Y037*
Y03704*
X0198Y03708*
X01972*
X01968Y03704*
X01855Y03685D02*
Y03708D01*
X01866*
X0187Y03704*
Y03696*
X01866Y03692*
X01855*
X01862D02*
X0187Y03685D01*
X01878Y03704D02*
X01882Y03708D01*
X0189*
X01894Y03704*
Y037*
X0189Y03696*
X01886*
X0189*
X01894Y03692*
Y03688*
X0189Y03685*
X01882*
X01878Y03688*
X0178Y03685D02*
Y03708D01*
X01791*
X01795Y03704*
Y03696*
X01791Y03692*
X0178*
X01787D02*
X01795Y03685D01*
X01815D02*
Y03708D01*
X01803Y03696*
X01819*
X017Y03685D02*
Y03708D01*
X01711*
X01715Y03704*
Y03696*
X01711Y03692*
X017*
X01707D02*
X01715Y03685D01*
X01723D02*
X01731D01*
X01727*
Y03708*
X01723Y03704*
X02551Y03824D02*
Y03801D01*
Y03812*
X02566*
Y03824*
Y03801*
X02574D02*
X02582D01*
X02578*
Y03824*
X02574Y0382*
X0215Y02315D02*
Y02338D01*
X02161*
X02165Y02334*
Y02326*
X02161Y02322*
X0215*
X02173Y02338D02*
Y02315D01*
X02181Y02322*
X02189Y02315*
Y02338*
X02197Y02315D02*
Y02338D01*
X02209*
X02212Y02334*
Y02326*
X02209Y02322*
X02197*
X02205D02*
X02212Y02315D01*
X0222D02*
X02228D01*
X02224*
Y02338*
X0222Y02334*
X04595Y02475D02*
Y02498D01*
X04606*
X0461Y02494*
Y02486*
X04606Y02482*
X04595*
X04602D02*
X0461Y02475D01*
X04618D02*
X04626D01*
X04622*
Y02498*
X04618Y02494*
X04638Y02498D02*
X04654D01*
Y02494*
X04638Y02478*
Y02475*
X0495Y02425D02*
Y02448D01*
X04961*
X04965Y02444*
Y02436*
X04961Y02432*
X0495*
X04957D02*
X04965Y02425D01*
X04973D02*
X04981D01*
X04977*
Y02448*
X04973Y02444*
X04993D02*
X04997Y02448D01*
X05005*
X05009Y02444*
Y0244*
X05005Y02436*
X05009Y02432*
Y02428*
X05005Y02425*
X04997*
X04993Y02428*
Y02432*
X04997Y02436*
X04993Y0244*
Y02444*
X04997Y02436D02*
X05005D01*
X0432Y02535D02*
Y02558D01*
X04331*
X04335Y02554*
Y02546*
X04331Y02542*
X0432*
X04327D02*
X04335Y02535D01*
X04343D02*
X04351D01*
X04347*
Y02558*
X04343Y02554*
X04363Y02538D02*
X04367Y02535D01*
X04375*
X04379Y02538*
Y02554*
X04375Y02558*
X04367*
X04363Y02554*
Y0255*
X04367Y02546*
X04379*
X05015Y0225D02*
Y02273D01*
X05026*
X0503Y02269*
Y02261*
X05026Y02257*
X05015*
X05022D02*
X0503Y0225D01*
X05054D02*
X05038D01*
X05054Y02265*
Y02269*
X0505Y02273*
X05042*
X05038Y02269*
X05062D02*
X05066Y02273D01*
X05074*
X05077Y02269*
Y02253*
X05074Y0225*
X05066*
X05062Y02253*
Y02269*
X04585Y0301D02*
Y03033D01*
X04596*
X046Y03029*
Y03021*
X04596Y03017*
X04585*
X04592D02*
X046Y0301D01*
X04624D02*
X04608D01*
X04624Y03025*
Y03029*
X0462Y03033*
X04612*
X04608Y03029*
X04632Y0301D02*
X0464D01*
X04636*
Y03033*
X04632Y03029*
X04295Y0306D02*
Y03083D01*
X04306*
X0431Y03079*
Y03071*
X04306Y03067*
X04295*
X04302D02*
X0431Y0306D01*
X04334D02*
X04318D01*
X04334Y03075*
Y03079*
X0433Y03083*
X04322*
X04318Y03079*
X04357Y0306D02*
X04342D01*
X04357Y03075*
Y03079*
X04354Y03083*
X04346*
X04342Y03079*
X04956Y02962D02*
Y02986D01*
X04967*
X04971Y02982*
Y02974*
X04967Y0297*
X04956*
X04963D02*
X04971Y02962D01*
X04995D02*
X04979D01*
X04995Y02978*
Y02982*
X04991Y02986*
X04983*
X04979Y02982*
X05003D02*
X05007Y02986D01*
X05015*
X05018Y02982*
Y02978*
X05015Y02974*
X05011*
X05015*
X05018Y0297*
Y02966*
X05015Y02962*
X05007*
X05003Y02966*
X05Y0277D02*
Y02793D01*
X05011*
X05015Y02789*
Y02781*
X05011Y02777*
X05*
X05007D02*
X05015Y0277D01*
X05039D02*
X05023D01*
X05039Y02785*
Y02789*
X05035Y02793*
X05027*
X05023Y02789*
X05059Y0277D02*
Y02793D01*
X05047Y02781*
X05062*
X03506Y03953D02*
Y03976D01*
X03517*
X03521Y03972*
Y03964*
X03517Y0396*
X03506*
X03513D02*
X03521Y03953D01*
X03545D02*
X03529D01*
X03545Y03968*
Y03972*
X03541Y03976*
X03533*
X03529Y03972*
X03568Y03976D02*
X03553D01*
Y03964*
X03561Y03968*
X03565*
X03568Y03964*
Y03956*
X03565Y03953*
X03557*
X03553Y03956*
X03596Y02373D02*
Y02396D01*
X03607*
X03611Y02392*
Y02384*
X03607Y0238*
X03596*
X03603D02*
X03611Y02373D01*
X03635D02*
X03619D01*
X03635Y02388*
Y02392*
X03631Y02396*
X03623*
X03619Y02392*
X03658Y02396D02*
X03651Y02392D01*
X03643Y02384*
Y02376*
X03647Y02373*
X03655*
X03658Y02376*
Y0238*
X03655Y02384*
X03643*
X0448Y03585D02*
Y03608D01*
X04491*
X04495Y03604*
Y03596*
X04491Y03592*
X0448*
X04487D02*
X04495Y03585D01*
X04519D02*
X04503D01*
X04519Y036*
Y03604*
X04515Y03608*
X04507*
X04503Y03604*
X04527Y03608D02*
X04542D01*
Y03604*
X04527Y03588*
Y03585*
X0495Y035D02*
Y03523D01*
X04961*
X04965Y03519*
Y03511*
X04961Y03507*
X0495*
X04957D02*
X04965Y035D01*
X04989D02*
X04973D01*
X04989Y03515*
Y03519*
X04985Y03523*
X04977*
X04973Y03519*
X04997D02*
X05001Y03523D01*
X05009*
X05012Y03519*
Y03515*
X05009Y03511*
X05012Y03507*
Y03503*
X05009Y035*
X05001*
X04997Y03503*
Y03507*
X05001Y03511*
X04997Y03515*
Y03519*
X05001Y03511D02*
X05009D01*
X0434Y03585D02*
Y03608D01*
X04351*
X04355Y03604*
Y03596*
X04351Y03592*
X0434*
X04347D02*
X04355Y03585D01*
X04379D02*
X04363D01*
X04379Y036*
Y03604*
X04375Y03608*
X04367*
X04363Y03604*
X04387Y03588D02*
X04391Y03585D01*
X04399*
X04402Y03588*
Y03604*
X04399Y03608*
X04391*
X04387Y03604*
Y036*
X04391Y03596*
X04402*
X05005Y0329D02*
Y03313D01*
X05016*
X0502Y03309*
Y03301*
X05016Y03297*
X05005*
X05012D02*
X0502Y0329D01*
X05028Y03309D02*
X05032Y03313D01*
X0504*
X05044Y03309*
Y03305*
X0504Y03301*
X05036*
X0504*
X05044Y03297*
Y03293*
X0504Y0329*
X05032*
X05028Y03293*
X05052Y03309D02*
X05056Y03313D01*
X05064*
X05067Y03309*
Y03293*
X05064Y0329*
X05056*
X05052Y03293*
Y03309*
X0543Y03933D02*
Y0391D01*
X05441*
X05445Y03913*
Y03929*
X05441Y03933*
X0543*
X05465Y0391D02*
Y03933D01*
X05453Y03921*
X05469*
G54D62*
X03985Y03494D03*
X03035Y0241D03*
X02715D03*
G54D63*
X0547Y0377D03*
M02*