%FSTAX23Y23*%
%MOIN*%
%SFA1B1*%

%IPPOS*%
%ADD10R,0.089960X0.029530*%
%ADD11R,0.433070X0.397440*%
%ADD12R,0.106300X0.074800*%
%ADD13R,0.035430X0.031500*%
%ADD14R,0.031500X0.035430*%
%ADD15R,0.043310X0.039370*%
%ADD16R,0.074800X0.106300*%
%ADD17R,0.196850X0.078740*%
%ADD18R,0.078740X0.078740*%
%ADD19R,0.039370X0.043310*%
%ADD20R,0.061020X0.011810*%
%ADD22R,0.059050X0.051180*%
%ADD23R,0.051180X0.059050*%
%ADD24R,0.037400X0.125980*%
%ADD25R,0.078740X0.039370*%
%ADD26R,0.098420X0.137800*%
%ADD27R,0.051180X0.061020*%
%ADD28R,0.102360X0.074800*%
%ADD29O,0.011810X0.082680*%
%ADD30O,0.082680X0.011810*%
%ADD31R,0.031500X0.094490*%
%ADD32R,0.204720X0.344490*%
%ADD33R,0.078740X0.078740*%
%ADD64R,0.142130X0.250000*%
%LNpcbbldcdriver-1*%
%LPD*%
G54D10*
X05147Y0239D03*
Y0234D03*
Y0229D03*
Y0219D03*
Y0214D03*
Y0209D03*
X05142Y0291D03*
Y0286D03*
Y0281D03*
Y0271D03*
Y0266D03*
Y0261D03*
X05137Y03445D03*
Y03395D03*
Y03345D03*
Y03245D03*
Y03195D03*
Y03145D03*
X04327Y03445D03*
Y03395D03*
Y03345D03*
Y03245D03*
Y03195D03*
Y03145D03*
Y0291D03*
Y0286D03*
Y0281D03*
Y0271D03*
Y0266D03*
Y0261D03*
Y0239D03*
Y0234D03*
Y0229D03*
Y0219D03*
Y0214D03*
Y0209D03*
G54D11*
X0551Y0224D03*
X05505Y0276D03*
X055Y03295D03*
X0469D03*
Y0276D03*
Y0224D03*
G54D12*
X0321Y02706D03*
Y02525D03*
X0308Y0253D03*
Y02711D03*
X02445Y03736D03*
Y03555D03*
G54D13*
X0337Y0261D03*
Y02555D03*
X03375Y02487D03*
Y02432D03*
X04005Y02837D03*
Y02782D03*
X0273Y02552D03*
Y02497D03*
X02045Y03119D03*
Y03175D03*
X01985Y03119D03*
Y03175D03*
Y03265D03*
Y0332D03*
X02045Y03265D03*
Y0332D03*
X0214Y03829D03*
Y03885D03*
G54D14*
X03654Y0249D03*
X0371D03*
X03952Y02935D03*
X04007D03*
X03952Y03D03*
X04007D03*
X02932Y03085D03*
X02987D03*
X03132Y0304D03*
X03077D03*
X03077Y02795D03*
X03022D03*
X02904Y0258D03*
X0296D03*
X02174Y0254D03*
X0223D03*
X02084Y0251D03*
X02029D03*
X0173Y0274D03*
X01674D03*
G54D15*
X03643Y02545D03*
X0371D03*
X0394Y02645D03*
X04006D03*
X04005Y02705D03*
X03938D03*
X04005Y03065D03*
X03938D03*
X03956Y03145D03*
X0389D03*
X03721Y03245D03*
X03655D03*
X03331Y0368D03*
X03265D03*
X03331Y0374D03*
X03265D03*
X02885Y034D03*
X02951D03*
X02976Y0315D03*
X0291D03*
X0298Y02845D03*
X02913D03*
X02099Y02225D03*
X02032D03*
X01954D03*
X01887D03*
X01816D03*
X01749D03*
X02017Y0243D03*
X02084D03*
X01865Y0274D03*
X01798D03*
X0179Y0295D03*
X01723D03*
X01874Y03415D03*
X01807D03*
X01874Y03475D03*
X01807D03*
X0179Y03025D03*
X01723D03*
X0236Y0337D03*
X02293D03*
X02198Y0343D03*
X02265D03*
X0446Y02495D03*
X04526D03*
X04318D03*
X04385D03*
X04433Y0302D03*
X045D03*
X04365D03*
X04298D03*
X04475Y0355D03*
X04541D03*
X04335D03*
X04401D03*
G54D16*
X03975Y02415D03*
X03793D03*
X03975Y0254D03*
X03793D03*
X0371Y0335D03*
X03528D03*
X03715Y035D03*
X03533D03*
G54D17*
X03965Y03225D03*
Y03365D03*
G54D18*
X04055Y03495D03*
X0386D03*
X03105Y0241D03*
X0291D03*
X02785D03*
X0259D03*
G54D19*
X0379Y03285D03*
Y03218D03*
X0342Y03361D03*
Y03295D03*
X0334Y03548D03*
Y03615D03*
Y034D03*
Y03466D03*
X03275D03*
Y034D03*
X0326Y03545D03*
Y03611D03*
X0318Y03635D03*
Y03701D03*
X0311Y03546D03*
Y0348D03*
X03035Y03628D03*
Y03695D03*
X02965Y03541D03*
Y03475D03*
X0303Y03395D03*
Y03328D03*
X031Y03245D03*
Y03311D03*
Y0298D03*
Y02913D03*
X02975Y02726D03*
Y0266D03*
X02915Y0273D03*
Y02663D03*
X02155Y02413D03*
Y0248D03*
X01769Y0207D03*
Y02136D03*
X01829Y0207D03*
Y02136D03*
X01894Y0207D03*
Y02136D03*
X01954Y0207D03*
Y02136D03*
X02014Y0207D03*
Y02136D03*
X02074Y0207D03*
Y02136D03*
X0166Y0208D03*
Y02146D03*
X02035Y02661D03*
Y02595D03*
X01675Y0281D03*
Y02876D03*
X0241Y0383D03*
Y03896D03*
X02345D03*
Y0383D03*
X02275Y03828D03*
Y03895D03*
X02215Y03828D03*
Y03895D03*
X02075Y03798D03*
Y03865D03*
X01954Y03573D03*
Y0364D03*
X01869D03*
Y03573D03*
X01804Y0364D03*
Y03573D03*
X01719D03*
Y0364D03*
X0498Y02386D03*
Y0232D03*
X05045Y02318D03*
Y02385D03*
X0497Y02906D03*
Y0284D03*
X05035Y02843D03*
Y0291D03*
X0498Y03445D03*
Y03378D03*
X05045D03*
Y03445D03*
G54D20*
X03422Y032D03*
Y03181D03*
Y03161D03*
Y03141D03*
Y03122D03*
Y03102D03*
Y03082D03*
Y03062D03*
Y03043D03*
Y03023D03*
Y03003D03*
Y02984D03*
Y02964D03*
Y02944D03*
Y02925D03*
Y02905D03*
Y02885D03*
Y02866D03*
Y02846D03*
Y02826D03*
Y02807D03*
Y02787D03*
Y02767D03*
Y02747D03*
Y02728D03*
Y02708D03*
Y02688D03*
Y02669D03*
X03717D03*
X03717Y02688D03*
X03717Y02708D03*
Y02728D03*
Y02747D03*
Y02767D03*
Y02787D03*
Y02807D03*
Y02826D03*
Y02846D03*
Y02866D03*
Y02885D03*
Y02905D03*
Y02925D03*
Y02944D03*
Y02964D03*
Y02984D03*
Y03003D03*
Y03023D03*
Y03043D03*
Y03062D03*
Y03082D03*
Y03102D03*
Y03122D03*
Y03141D03*
Y03161D03*
Y03181D03*
Y032D03*
G54D22*
X0318Y03485D03*
Y03559D03*
X03035Y0348D03*
Y03554D03*
X01965Y0259D03*
Y02664D03*
X0175Y02884D03*
Y0281D03*
G54D23*
X0296Y0333D03*
X02885D03*
X02895Y02515D03*
X02969D03*
X01645Y0341D03*
X01719D03*
X01645Y0349D03*
X01719D03*
G54D24*
X03345Y0227D03*
Y01966D03*
X02905Y02273D03*
Y0197D03*
G54D25*
X02315Y03504D03*
Y03595D03*
Y03685D03*
G54D26*
X0207Y03595D03*
G54D27*
X01682Y0266D03*
X0186D03*
Y02347D03*
X01682D03*
G54D28*
X01915Y02855D03*
Y03024D03*
G54D29*
X02218Y03249D03*
X02238D03*
X02258D03*
X02277D03*
X02297D03*
X02317D03*
X02336D03*
X02356D03*
X02376D03*
X02395D03*
X02415D03*
X02435D03*
X02454D03*
X02474D03*
X02494D03*
X02513D03*
X02533D03*
X02553D03*
X02572D03*
X02592D03*
X02612D03*
X02632D03*
X02651D03*
X02671D03*
X02691D03*
Y0265D03*
X02671D03*
X02651D03*
X02632D03*
X02612D03*
X02592D03*
X02572D03*
X02553D03*
X02533D03*
X02513D03*
X02494D03*
X02474D03*
X02454D03*
X02435D03*
X02415D03*
X02395D03*
X02376D03*
X02356D03*
X02336D03*
X02317D03*
X02297D03*
X02277D03*
X02258D03*
X02238D03*
X02218D03*
G54D30*
X02754Y03186D03*
Y03166D03*
Y03146D03*
Y03127D03*
Y03107D03*
Y03087D03*
Y03068D03*
Y03048D03*
Y03028D03*
Y03009D03*
Y02989D03*
Y02969D03*
Y0295D03*
Y0293D03*
Y0291D03*
Y0289D03*
Y02871D03*
Y02851D03*
Y02831D03*
Y02812D03*
Y02792D03*
Y02772D03*
Y02753D03*
Y02733D03*
Y02713D03*
X02155D03*
Y02733D03*
Y02753D03*
Y02772D03*
Y02792D03*
Y02812D03*
Y02831D03*
Y02851D03*
Y02871D03*
Y0289D03*
Y0291D03*
Y0293D03*
Y0295D03*
Y02969D03*
Y02989D03*
Y03009D03*
Y03028D03*
Y03048D03*
Y03068D03*
Y03087D03*
Y03107D03*
Y03127D03*
Y03146D03*
Y03166D03*
Y03186D03*
G54D31*
X02635Y0354D03*
Y037D03*
X02685Y0354D03*
Y037D03*
X02735Y0354D03*
Y037D03*
X02785Y0354D03*
Y03702D03*
X02835Y0354D03*
Y037D03*
G54D32*
X03604Y0375D03*
X0403D03*
X03695Y0217D03*
X0412D03*
G54D33*
X0547Y0384D03*
Y03645D03*
G54D64*
X0357Y02935D03*
M02*