%FSTAX23Y23*%
%MOIN*%
%SFA1B1*%

%IPPOS*%
%ADD36C,0.200000*%
%ADD37C,0.012000*%
%ADD38C,0.040000*%
%ADD39C,0.020000*%
%ADD40C,0.010000*%
%ADD42C,0.030000*%
%ADD45C,0.025000*%
%ADD46C,0.015000*%
%ADD48R,0.059050X0.059050*%
%ADD49C,0.059050*%
%ADD50C,0.118110*%
%ADD51O,0.078740X0.059050*%
%ADD52C,0.060000*%
%ADD53C,0.031500*%
%ADD54C,0.023620*%
%LNpcbbldcdriver-1*%
%LPD*%
G36*
X02212Y03405D02*
Y03363D01*
X02212Y03362*
X02209Y03356*
X02209Y03355*
X02235*
Y03345*
X02209*
X02209Y03343*
X02212Y03337*
X02216Y03331*
X02222Y03327*
X02228Y03324*
X02235Y03324*
X02237Y03321*
Y03063*
X02237Y03062*
X02234Y03056*
X02234Y03055*
X02285*
X02285Y03056*
X02282Y03062*
X02282Y03063*
Y03325*
Y03327*
X02515*
X02523Y03329*
X0253Y03334*
X02565Y03368*
X02582Y0335*
Y03168*
X02582Y03167*
X02579Y03161*
X02579Y03155*
X02578Y03154*
X02574Y03153*
X02558Y03168*
X02554Y03171*
X0255Y03172*
X02364*
X02361Y03176*
X02353Y03181*
X02345Y03183*
X02336Y03181*
X02328Y03176*
X02323Y03168*
X02321Y0316*
X02323Y03151*
X02328Y03143*
X02336Y03138*
X02345Y03136*
X02353Y03138*
X02361Y03143*
X02364Y03147*
X02544*
X02575Y03117*
X02573Y03112*
X02486*
X02486Y03113*
X02481Y03121*
X02473Y03126*
X02465Y03128*
X02456Y03126*
X02448Y03121*
X02443Y03113*
X02442Y03106*
X02437Y03104*
X02436Y03104*
X02433Y03106*
X02425Y03108*
X02416Y03106*
X02408Y03101*
X02403Y03093*
X02401Y03085*
X02403Y03076*
X02408Y03068*
X02416Y03063*
X02425Y03061*
X02432Y03063*
X02435Y03062*
X02574*
X02615Y03022*
X02614Y03016*
X02614Y03016*
X0261Y03017*
X02235*
X02182Y0307*
Y03375*
X02181Y03379*
X02178Y03383*
X02148Y03413*
X02144Y03416*
X02141Y03421*
X02139Y03422*
X02141Y03427*
X0219*
X02212Y03405*
G37*
G36*
X06215Y01887D02*
X05774D01*
X05772Y01891*
X0587Y01989*
X05873Y01994*
X05874Y02*
Y02062*
X05876Y02063*
X05881Y02071*
X05883Y0208*
X05881Y02088*
X05876Y02096*
X05868Y02101*
X0586Y02103*
X05851Y02101*
X05843Y02096*
X05838Y02088*
X05836Y0208*
X05838Y02071*
X05843Y02063*
X05845Y02062*
Y02006*
X05748Y01909*
X03435*
Y01976*
X03479Y0202*
X03483Y02026*
X03484Y02027*
X03489Y02029*
X03496Y02023*
X03511Y02014*
X03526Y02007*
X03543Y02003*
X0356Y02002*
X03576Y02003*
X03593Y02007*
X03608Y02014*
X03623Y02023*
X03635Y02034*
X03646Y02046*
X03655Y02061*
X03662Y02076*
X03666Y02093*
X03667Y0211*
Y0224*
Y02675*
X03645*
Y02685*
X03667*
Y02727*
X03645*
Y02737*
X03667*
Y02778*
X03645*
Y02788*
X03667*
Y02829*
X03645*
Y02839*
X03667*
Y0288*
X03645*
Y0289*
X03667*
Y02931*
X03645*
Y02941*
X03667*
Y02983*
X03645*
Y02993*
X03667*
Y03034*
X03645*
Y03044*
X03667*
Y03085*
X03645*
Y03095*
X03667*
Y03136*
X03645*
Y03146*
X03667*
Y03187*
X03645*
Y03197*
X03667*
Y03277*
X03857*
X03937Y03197*
Y0315*
X03938Y03143*
X03942Y03137*
X03975Y03105*
X04*
Y03129*
X03972Y03157*
Y03205*
X03971Y03211*
X03967Y03217*
X03877Y03307*
X03871Y03311*
X03865Y03312*
X03667*
Y0335*
Y03604*
X03671Y03607*
X03681Y03602*
X03698Y03598*
X03715Y03597*
X03731Y03598*
X03748Y03602*
X03763Y03609*
X03778Y03618*
X0379Y03629*
X03801Y03641*
X0381Y03656*
X03817Y03671*
X03821Y03688*
X03822Y03705*
Y03742*
X04648*
X04662Y03729*
X04675Y03718*
X04689Y03709*
X04704Y03702*
X04721Y03698*
X04738Y03697*
X04754Y03698*
X04771Y03702*
X04786Y03709*
X04801Y03718*
X04814Y03729*
X04824Y03741*
X04833Y03756*
X0484Y03771*
X04844Y03788*
X04845Y03805*
X04844Y03821*
X0484Y03838*
X04833Y03853*
X04824Y03868*
X04814Y0388*
X04769Y03925*
X04756Y03936*
X04741Y03945*
X04726Y03952*
X04709Y03956*
X04693Y03957*
X0356*
X03543Y03956*
X03528Y03952*
X03527Y03952*
X03521Y03955*
X0352Y03955*
Y0393*
X0351*
Y03955*
X03508Y03955*
X03502Y03952*
X03496Y03948*
X03494Y03946*
X03492Y03947*
X03486Y0395*
X03485Y0395*
Y03925*
X0348*
Y0392*
X03453*
X03447Y03917*
X03441Y03913*
X0344Y03911*
X03435Y03912*
Y03985*
X06215*
Y01887*
G37*
G36*
X0332Y03627D02*
X03315Y03626D01*
X03313Y03628*
X03307Y03632*
X03301Y03635*
X033Y03635*
Y0361*
Y03584*
X03301Y03584*
X03307Y03587*
X03313Y03591*
X03315Y03593*
X0332Y03592*
Y03211*
X03315Y03209*
X03287Y03237*
Y0348*
X03286Y03486*
X03282Y03492*
X02962Y03812*
X02956Y03816*
X0295Y03817*
X02885*
X02878Y03821*
X0287Y03823*
X02861Y03821*
X02853Y03816*
X02848Y03808*
X02846Y038*
X02848Y03791*
X02853Y03783*
X02861Y03778*
X0287Y03776*
X02878Y03778*
X02885Y03782*
X02942*
X03252Y03472*
Y03458*
X03247Y03457*
X03245Y0346*
X0317Y03535*
X03165Y03538*
X0316Y03539*
X02647*
Y0372*
X02779Y03852*
X03035*
X0327Y03617*
X03269Y03616*
X03269Y03615*
X0329*
Y03635*
X03288Y03635*
X03287Y03634*
X03074Y03847*
X03076Y03852*
X0332*
Y03627*
G37*
G36*
X01819Y02449D02*
Y02336D01*
X01734Y02252*
X01734Y02252*
X0173Y02254*
X0173Y02255*
X0171*
Y02234*
X0171Y02234*
X01712Y0223*
X01712Y0223*
X01706Y02223*
X01703Y02219*
X01702Y02215*
Y01977*
X01697Y01976*
X01696Y01978*
X01691Y01986*
X01684Y0199*
Y02236*
X01689Y02239*
X01692Y02237*
X01698Y02234*
X017Y02234*
Y0226*
Y02285*
X01698Y02285*
X01692Y02282*
X01689Y0228*
X01684Y02283*
Y02321*
X01814Y02451*
X01819Y02449*
G37*
G36*
X02037Y03398D02*
Y03305D01*
X02039Y03296*
X02044Y03289*
X02085Y03248*
Y03091*
X0208Y03088*
X02076Y0309*
X02075Y0309*
Y03065*
X02065*
Y0309*
X02063Y0309*
X02057Y03087*
X02051Y03083*
X02047Y03077*
X02045Y03073*
X0204Y03072*
X02032Y0308*
X02031Y03083*
X02026Y03091*
X02018Y03096*
X0201Y03098*
X02001Y03096*
X01993Y03091*
X01992Y03089*
X01987Y0309*
Y03184*
X0201Y03207*
X02015Y03206*
X02023Y03208*
X02031Y03213*
X02036Y03221*
X02038Y0323*
X02036Y03238*
X02031Y03246*
X02023Y03251*
X02015Y03253*
X02006Y03251*
X01998Y03246*
X01993Y03238*
X01991Y0323*
X01992Y03225*
X01971Y03204*
X01967Y03206*
Y03334*
X02032Y034*
X02037Y03398*
G37*
G36*
X0176Y02667D02*
Y02594D01*
X0174Y02574*
Y0255*
X01764*
X01782Y02568*
X01787Y02566*
Y0248*
X0165Y02344*
X01646Y02337*
X01645Y0233*
Y0199*
X01638Y01986*
X01633Y01978*
X01632Y01976*
X01627Y01977*
Y02554*
X0174Y02667*
X01745Y02666*
X01753Y02668*
X01756Y0267*
X0176Y02667*
G37*
G36*
X01886Y02763D02*
X01893Y02762D01*
X01947Y02707*
Y0255*
X01943Y02543*
X01941Y02535*
X01943Y02526*
X01948Y02518*
X01956Y02513*
X01965Y02511*
X01973Y02513*
X01981Y02518*
X01986Y02526*
X01988Y02535*
X01986Y02543*
X01982Y0255*
Y02697*
X02203*
X02205Y02693*
X01956Y02443*
X01953Y02439*
X01952Y02435*
Y02354*
X01948Y02351*
X01943Y02343*
X01941Y02335*
X01943Y02326*
X01948Y02318*
X01956Y02313*
X01965Y02311*
X01973Y02313*
X01981Y02318*
X01986Y02326*
X01988Y02335*
X01986Y02343*
X01981Y02351*
X01977Y02354*
Y02429*
X02017Y0247*
X02022Y02468*
Y02324*
X02018Y02321*
X02013Y02313*
X02011Y02305*
X02013Y02296*
X02018Y02288*
X02026Y02283*
X02035Y02281*
X02043Y02283*
X02051Y02288*
X02056Y02296*
X02058Y02305*
X02056Y02313*
X02051Y02321*
X02047Y02324*
Y02469*
X02137Y0256*
X02142Y02558*
Y02309*
X02138Y02306*
X02133Y02298*
X02131Y0229*
X02133Y02281*
X02138Y02273*
X02146Y02268*
X02155Y02266*
X02163Y02268*
X02171Y02273*
X02176Y02281*
X02178Y0229*
X02176Y02298*
X02171Y02306*
X02167Y02309*
Y02559*
X02338Y0273*
X02342Y02729*
X02343Y02726*
X02348Y02718*
X02356Y02713*
X02365Y02711*
X02369Y02712*
X02371Y02711*
X02375Y02708*
X0238Y02707*
X02475*
X02479Y02708*
X02483Y02711*
X02505Y02733*
X02509Y02729*
X02508Y02728*
X02506Y0272*
X02508Y02711*
X02513Y02703*
X02521Y02698*
X0253Y02696*
X02538Y02698*
X02546Y02703*
X02549Y02707*
X03064*
X03106Y02666*
X0311Y02663*
X03115Y02662*
X0331*
X03313Y02658*
X0332Y02654*
Y02646*
X03315Y02642*
X0331Y02643*
X03301Y02641*
X03293Y02636*
X03288Y02628*
X03286Y0262*
X03288Y02611*
X03293Y02603*
X03301Y02598*
X0331Y02596*
X03315Y02597*
X0332Y02593*
Y01997*
X02701*
X02619Y02079*
X02623Y02091*
X02623Y021*
X0256*
Y02036*
X02568Y02036*
X0258Y0204*
X0267Y0195*
X02676Y01946*
X02682Y01943*
X0269Y01942*
X0332*
Y01909*
X02391*
X02214Y02086*
Y02357*
X02216Y02358*
X02221Y02366*
X02223Y02375*
X02221Y02383*
X02216Y02391*
X02208Y02396*
X022Y02398*
X02191Y02396*
X02183Y02391*
X02178Y02383*
X02176Y02375*
X02178Y02366*
X02183Y02358*
X02185Y02357*
Y0208*
X02186Y02074*
X02189Y02069*
X02364Y01894*
X02362Y0189*
X016*
Y01926*
X01605Y01928*
X01606Y01926*
X01631Y01901*
X01635Y01898*
X0164Y01897*
X01695*
X01699Y01898*
X01703Y01901*
X01723Y01921*
X01726Y01925*
X01727Y0193*
Y01942*
X01732Y01943*
X01733Y01941*
X01738Y01933*
X01746Y01928*
X01755Y01924*
X01765Y01923*
X01774Y01924*
X01783Y01928*
X01791Y01933*
X01796Y01941*
X018Y0195*
X01801Y0196*
X018Y01969*
X01796Y01978*
X01791Y01986*
X01783Y01991*
X01774Y01995*
X01765Y01996*
X01755Y01995*
X01746Y01991*
X01738Y01986*
X01733Y01978*
X01732Y01976*
X01727Y01977*
Y02209*
X01831Y02314*
X01836Y02312*
Y02266*
X01838Y02257*
X01842Y0225*
X02125Y01967*
Y01965*
X0216*
Y01999*
X02157*
X01881Y02275*
Y02737*
X01879Y02745*
X01877Y02748*
Y02763*
X01882Y02766*
X01886Y02763*
G37*
G36*
X02652Y03458D02*
X02653Y03451D01*
X02658Y03443*
X02662Y0344*
Y0332*
X02663Y03315*
X02666Y03311*
X02702Y03274*
X02701Y0327*
X02703Y03261*
X02708Y03253*
X02716Y03248*
X02725Y03246*
X02733Y03248*
X02734Y03248*
X02737Y03245*
X02733Y03238*
X02731Y0323*
X02733Y03221*
X02738Y03213*
X0274Y03212*
X02739Y03207*
X02715*
X0271Y03206*
X02706Y03203*
X02649Y03147*
X02645Y03148*
X02636Y03146*
X02634Y03145*
X0263Y03148*
X0263Y03148*
X0263Y0315*
X02605*
Y0316*
X0263*
X0263Y03161*
X02627Y03167*
X02627Y03168*
Y0336*
X02625Y03368*
X0262Y03375*
X02596Y034*
X0264Y03444*
X02645Y03451*
X02647Y03458*
X02652*
G37*
G36*
X03172Y03429D02*
X03171Y03425D01*
X03173Y03416*
X03178Y03408*
X03186Y03403*
X03195Y03401*
X03203Y03403*
X03211Y03408*
X03215Y03414*
X0322Y03412*
Y03346*
X03069Y03195*
X03064Y03197*
Y03258*
X03068Y03261*
X03072Y03267*
X03075Y03273*
X03075Y03275*
X03024*
X03024Y03273*
X03027Y03267*
X03031Y03261*
X03035Y03258*
Y03155*
Y03106*
X03032Y03102*
X03029Y03096*
X03029Y03095*
X0308*
X0308Y03096*
X03077Y03102*
X03073Y03108*
X03067Y03112*
X03064Y03113*
Y03148*
X03245Y03329*
X03247Y03332*
X03252Y03331*
Y0323*
X03253Y03223*
X03257Y03217*
X0332Y03155*
Y02893*
X03315Y02891*
X03238Y02968*
X03234Y02971*
X03229Y02972*
X03067*
X03065Y02976*
X03126Y03037*
X03205*
X03208Y03033*
X03216Y03028*
X03225Y03026*
X03233Y03028*
X03241Y03033*
X03246Y03041*
X03248Y0305*
X03246Y03058*
X03241Y03066*
X03233Y03071*
X03225Y03073*
X03216Y03071*
X03208Y03066*
X03205Y03062*
X0312*
X03116Y03061*
X03112Y03058*
X0296Y02907*
X02954*
X02951Y02911*
X02943Y02916*
X02935Y02918*
X02926Y02916*
X02918Y02911*
X02913Y02903*
X02911Y02895*
X02913Y02886*
X02916Y02882*
X02913Y02877*
X02877*
X02877Y02882*
X02883Y02883*
X02891Y02888*
X02896Y02896*
X02898Y02905*
X02897Y02909*
X02985Y02998*
X02988Y03002*
X02989Y03007*
Y03261*
X03024Y03296*
X03028Y03293*
X03027Y03292*
X03024Y03286*
X03024Y03285*
X03045*
Y03305*
X03043Y03305*
X03037Y03302*
X03036Y03302*
X03033Y03305*
X0309Y03362*
X03095Y03361*
X03103Y03363*
X03111Y03368*
X03116Y03376*
X03118Y03385*
X03116Y03393*
X03111Y03401*
X03103Y03406*
X03097Y03407*
X03097Y03412*
X03115*
X03118Y03408*
X03126Y03403*
X03135Y03401*
X03143Y03403*
X03151Y03408*
X03156Y03416*
X03158Y03425*
X03156Y03433*
X03154Y03436*
X03157Y0344*
X03162*
X03172Y03429*
G37*
G36*
X0322Y03443D02*
Y03437D01*
X03215Y03435*
X03211Y03441*
X03203Y03446*
X03195Y03448*
X0319Y03447*
X03175Y03461*
X03171Y03464*
X03167Y03464*
X03123*
X03118Y03464*
X03116Y03462*
X03075*
X0307Y03461*
X03066Y03458*
X02926Y03318*
X02923Y03314*
X02922Y0331*
Y03145*
X02879Y03102*
X02875Y03103*
X02866Y03101*
X02858Y03096*
X02853Y03088*
X02851Y0308*
X02853Y03071*
X02858Y03063*
X02866Y03058*
X02875Y03056*
X02883Y03058*
X02891Y03063*
X02896Y03071*
X02898Y0308*
X02897Y03084*
X02942Y0313*
X02946Y03129*
X02947Y03128*
Y031*
X02844Y02997*
X0284Y02998*
X02831Y02996*
X02823Y02991*
X02818Y02983*
X02816Y02975*
X02818Y02966*
X02823Y02958*
X02831Y02953*
X0284Y02951*
X02848Y02953*
X02856Y02958*
X02861Y02966*
X02863Y02975*
X02862Y02979*
X0296Y03077*
X02964Y03075*
Y03012*
X02879Y02927*
X02875Y02928*
X02866Y02926*
X02858Y02921*
X02853Y02913*
X02851Y02905*
X02853Y02896*
X02858Y02888*
X02866Y02883*
X02872Y02882*
X02872Y02877*
X0285*
X02603Y03124*
X02604Y03128*
X02605Y03129*
X02611Y03129*
X02617Y03132*
X02618Y03132*
X02622Y03129*
X02621Y03125*
X02623Y03116*
X02628Y03108*
X02636Y03103*
X02645Y03101*
X02653Y03103*
X02661Y03108*
X02666Y03116*
X02668Y03125*
X02667Y03129*
X0272Y03182*
X0277*
X02774Y03183*
X02778Y03186*
X02833Y03241*
X02836Y03245*
X02837Y0325*
Y03425*
X02841Y03428*
X02846Y03436*
X02848Y03445*
X02846Y03453*
X02841Y03461*
X02833Y03466*
X02825Y03468*
X02816Y03466*
X02808Y03461*
X02803Y03453*
X02801Y03445*
X02803Y03436*
X02808Y03428*
X02812Y03425*
Y03255*
X02782Y03224*
X02777Y03226*
X02778Y0323*
X02776Y03238*
X02771Y03246*
X02767Y03249*
Y03404*
X02771Y03411*
X02773Y0342*
X02771Y03428*
X02766Y03436*
X02758Y03441*
X0275Y03443*
X02741Y03441*
X02733Y03436*
X02728Y03428*
X02726Y0342*
X02728Y03411*
X02733Y03403*
X02741Y03398*
X02742Y03398*
Y03291*
X02737Y03288*
X02733Y03291*
X02725Y03293*
X0272Y03292*
X02687Y03325*
Y0344*
X02691Y03443*
X02696Y03451*
X02698Y0346*
X02696Y03468*
X02691Y03476*
X02683Y03481*
X02675Y03483*
X02666Y03481*
X02658Y03476*
X02653Y03468*
X02652Y03463*
X02647Y03463*
Y0351*
X03153*
X0322Y03443*
G37*
G36*
X02711Y03847D02*
X02609Y03745D01*
X02604Y03738*
X02602Y0373*
Y0353*
Y03469*
X02549Y03415*
X02505Y03372*
X02257*
Y03415*
X02255Y03423*
X0225Y0343*
X02216Y03464*
X02218Y03469*
X02532*
X02533Y03466*
X02538Y03458*
X02546Y03453*
X02555Y03451*
X02563Y03453*
X02571Y03458*
X02576Y03466*
X02578Y03475*
X02576Y03483*
X02571Y03491*
X02563Y03496*
X02555Y03498*
X02546Y03496*
X02542Y03494*
X02097*
X02092Y03493*
X02088Y0349*
X01946Y03348*
X01943Y03344*
X01942Y0334*
Y02965*
X01856Y02879*
X01843*
X01839Y02878*
X01835Y02875*
X01828Y02868*
X01823Y0287*
Y0293*
X01904Y0301*
X01908Y03017*
X01909Y03025*
Y03108*
X01926*
Y03181*
X01909*
Y03253*
X01926*
Y03326*
X01909*
Y03346*
X01939Y03375*
X01943Y03382*
X01944Y0339*
Y03766*
X01956Y03778*
X02001*
Y03851*
X02006Y03852*
X02709*
X02711Y03847*
G37*
G36*
X0332Y03897D02*
X01725D01*
X01716Y03895*
X01709Y0389*
X01672Y03853*
X0167Y03854*
Y0382*
X01704*
X01703Y03822*
X01734Y03852*
X01747*
X01748Y03847*
X01746Y03846*
X01738Y03841*
X01733Y03833*
X01729Y03824*
X01728Y03815*
X01729Y03805*
X01733Y03796*
X01738Y03788*
X01746Y03783*
X01755Y03779*
X01765Y03778*
X01774Y03779*
X01783Y03783*
X01791Y03788*
X01796Y03796*
X018Y03805*
X01801Y03815*
X018Y03824*
X01796Y03833*
X01791Y03841*
X01783Y03846*
X01781Y03847*
X01782Y03852*
X01847*
X01848Y03847*
X01846Y03846*
X01838Y03841*
X01833Y03833*
X01829Y03824*
X01828Y03815*
X01829Y03805*
X01833Y03796*
X01838Y03788*
X01846Y03783*
X01855Y03779*
X01865Y03778*
X01874Y03779*
X01883Y03783*
X01891Y03788*
X01896Y03796*
X019Y03805*
X01901Y03815*
X019Y03824*
X01896Y03833*
X01891Y03841*
X01883Y03846*
X01881Y03847*
X01882Y03852*
X01923*
X01928Y03851*
Y03806*
X0191Y03789*
X01906Y03782*
X01905Y03775*
Y03398*
X01875Y03369*
X01871Y03362*
X0187Y03355*
Y03326*
X01853*
Y03253*
X0187*
Y03181*
X01853*
Y03108*
X0187*
Y03033*
X01789Y02952*
X01785Y02946*
X01783Y02938*
Y02728*
X01779Y02726*
X01707Y02798*
Y03109*
X01709Y0311*
X01718Y03116*
X01724Y03125*
X01728Y03134*
X01729Y0314*
X0169*
X0165*
X01651Y03134*
X01655Y03125*
X01661Y03116*
X0167Y0311*
X01672Y03109*
Y02791*
X01673Y02784*
X01677Y02779*
X0174Y02716*
X01738Y02711*
X01736Y02711*
X01728Y02706*
X01723Y02698*
X01721Y0269*
X01722Y02685*
X01606Y02568*
X01605Y02566*
X016Y02568*
Y03985*
X0332*
Y03897*
G37*
%LNpcbbldcdriver-2*%
%LPC*%
G36*
X02255Y03045D02*
X02234D01*
X02234Y03043*
X02237Y03037*
X02241Y03031*
X02247Y03027*
X02253Y03024*
X02255Y03024*
Y03045*
G37*
G36*
X02285D02*
X02265D01*
Y03024*
X02266Y03024*
X02272Y03027*
X02278Y03031*
X02282Y03037*
X02285Y03043*
X02285Y03045*
G37*
G36*
X05025Y02525D02*
Y02505D01*
X05045*
X05045Y02506*
X05042Y02512*
X05038Y02518*
X05032Y02522*
X05026Y02525*
X05025Y02525*
G37*
G36*
X04065Y02778D02*
X04056Y02776D01*
X04048Y02771*
X04043Y02763*
X04041Y02755*
X04043Y02746*
X04048Y02738*
X04056Y02733*
X04065Y02731*
X04068Y02732*
X04195Y02605*
X04199Y02602*
X04205Y02601*
X04649*
X04742Y02508*
X04741Y02505*
X04743Y02496*
X04748Y02488*
X04756Y02483*
X04765Y02481*
X04773Y02483*
X04781Y02488*
X04786Y02496*
X04788Y02505*
X04786Y02513*
X04781Y02521*
X04773Y02526*
X04765Y02528*
X04761Y02527*
X04664Y02624*
X0466Y02627*
X04655Y02628*
X0421*
X04087Y02751*
X04088Y02755*
X04086Y02763*
X04081Y02771*
X04073Y02776*
X04065Y02778*
G37*
G36*
X05045Y02495D02*
X05025D01*
Y02474*
X05026Y02474*
X05032Y02477*
X05038Y02481*
X05042Y02487*
X05045Y02493*
X05045Y02495*
G37*
G36*
X05015Y02525D02*
X05013Y02525D01*
X05007Y02522*
X05001Y02518*
X04997Y02512*
X04994Y02506*
X04994Y02505*
X05015*
Y02525*
G37*
G36*
Y02495D02*
X04994D01*
X04994Y02493*
X04997Y02487*
X05001Y02481*
X05007Y02477*
X05013Y02474*
X05015Y02474*
Y02495*
G37*
G36*
X05245Y02415D02*
X05243Y02415D01*
X05237Y02412*
X05231Y02408*
X05227Y02402*
X05224Y02396*
X05224Y02395*
X05245*
Y02415*
G37*
G36*
X05255D02*
Y02395D01*
X05275*
X05275Y02396*
X05272Y02402*
X05268Y02408*
X05262Y02412*
X05256Y02415*
X05255Y02415*
G37*
G36*
X0583Y0239D02*
X05809D01*
X05809Y02388*
X05812Y02382*
X05816Y02376*
X05822Y02372*
X05828Y02369*
X0583Y02369*
Y0239*
G37*
G36*
X0586D02*
X0584D01*
Y02369*
X05841Y02369*
X05847Y02372*
X05853Y02376*
X05857Y02382*
X0586Y02388*
X0586Y0239*
G37*
G36*
X0596Y02566D02*
X05947Y02565D01*
X05934Y02561*
X05923Y02555*
X05913Y02546*
X05904Y02536*
X05898Y02525*
X05894Y02512*
X05893Y025*
X05894Y02487*
X05898Y02474*
X05904Y02463*
X05913Y02453*
X05923Y02444*
X05934Y02438*
X05947Y02434*
X0596Y02433*
X05972Y02434*
X05985Y02438*
X05996Y02444*
X06006Y02453*
X06015Y02463*
X06021Y02474*
X06025Y02487*
X06026Y025*
X06025Y02512*
X06021Y02525*
X06015Y02536*
X06006Y02546*
X05996Y02555*
X05985Y02561*
X05972Y02565*
X0596Y02566*
G37*
G36*
X0583Y0242D02*
X05828Y0242D01*
X05822Y02417*
X05816Y02413*
X05812Y02407*
X05809Y02401*
X05809Y024*
X0583*
Y0242*
G37*
G36*
X0584D02*
Y024D01*
X0586*
X0586Y02401*
X05857Y02407*
X05853Y02413*
X05847Y02417*
X05841Y0242*
X0584Y0242*
G37*
G36*
X0441Y0288D02*
X04408Y0288D01*
X04402Y02877*
X04396Y02873*
X04392Y02867*
X04389Y02861*
X04389Y0286*
X0441*
Y0288*
G37*
G36*
X0442D02*
Y0286D01*
X0444*
X0444Y02861*
X04437Y02867*
X04433Y02873*
X04427Y02877*
X04421Y0288*
X0442Y0288*
G37*
G36*
X05235Y0292D02*
X05214D01*
X05214Y02918*
X05217Y02912*
X05221Y02906*
X05227Y02902*
X05233Y02899*
X05235Y02899*
Y0292*
G37*
G36*
X05245Y0282D02*
Y028D01*
X05265*
X05265Y02801*
X05262Y02807*
X05258Y02813*
X05252Y02817*
X05246Y0282*
X05245Y0282*
G37*
G36*
X0441Y0285D02*
X04389D01*
X04389Y02848*
X04392Y02842*
X04396Y02836*
X04402Y02832*
X04408Y02829*
X0441Y02829*
Y0285*
G37*
G36*
X0444D02*
X0442D01*
Y02829*
X04421Y02829*
X04427Y02832*
X04433Y02836*
X04437Y02842*
X0444Y02848*
X0444Y0285*
G37*
G36*
X05235Y0295D02*
X05233Y0295D01*
X05227Y02947*
X05221Y02943*
X05217Y02937*
X05214Y02931*
X05214Y0293*
X05235*
Y0295*
G37*
G36*
X05245D02*
Y0293D01*
X05265*
X05265Y02931*
X05262Y02937*
X05258Y02943*
X05252Y02947*
X05246Y0295*
X05245Y0295*
G37*
G36*
X05825Y02955D02*
X05823Y02955D01*
X05817Y02952*
X05811Y02948*
X05807Y02942*
X05804Y02936*
X05804Y02935*
X05825*
Y02955*
G37*
G36*
X05265Y0292D02*
X05245D01*
Y02899*
X05246Y02899*
X05252Y02902*
X05258Y02906*
X05262Y02912*
X05265Y02918*
X05265Y0292*
G37*
G36*
X05825Y02925D02*
X05804D01*
X05804Y02923*
X05807Y02917*
X05811Y02911*
X05817Y02907*
X05823Y02904*
X05825Y02904*
Y02925*
G37*
G36*
X05855D02*
X05835D01*
Y02904*
X05836Y02904*
X05842Y02907*
X05848Y02911*
X05852Y02917*
X05855Y02923*
X05855Y02925*
G37*
G36*
X05235Y0282D02*
X05233Y0282D01*
X05227Y02817*
X05221Y02813*
X05217Y02807*
X05214Y02801*
X05214Y028*
X05235*
Y0282*
G37*
G36*
X0586Y02615D02*
X0584D01*
Y02594*
X05841Y02594*
X05847Y02597*
X05853Y02601*
X05857Y02607*
X0586Y02613*
X0586Y02615*
G37*
G36*
X0583Y02645D02*
X05828Y02645D01*
X05822Y02642*
X05816Y02638*
X05812Y02632*
X05809Y02626*
X05809Y02625*
X0583*
Y02645*
G37*
G36*
X0584D02*
Y02625D01*
X0586*
X0586Y02626*
X05857Y02632*
X05853Y02638*
X05847Y02642*
X05841Y02645*
X0584Y02645*
G37*
G36*
X0583Y02615D02*
X05809D01*
X05809Y02613*
X05812Y02607*
X05816Y02601*
X05822Y02597*
X05828Y02594*
X0583Y02594*
Y02615*
G37*
G36*
X04425Y0269D02*
Y0267D01*
X04445*
X04445Y02671*
X04442Y02677*
X04438Y02683*
X04432Y02687*
X04426Y0269*
X04425Y0269*
G37*
G36*
X05235Y0279D02*
X05214D01*
X05214Y02788*
X05217Y02782*
X05221Y02776*
X05227Y02772*
X05233Y02769*
X05235Y02769*
Y0279*
G37*
G36*
X05265D02*
X05245D01*
Y02769*
X05246Y02769*
X05252Y02772*
X05258Y02776*
X05262Y02782*
X05265Y02788*
X05265Y0279*
G37*
G36*
X04415Y0266D02*
X04394D01*
X04394Y02658*
X04397Y02652*
X04401Y02646*
X04407Y02642*
X04413Y02639*
X04415Y02639*
Y0266*
G37*
G36*
X04445D02*
X04425D01*
Y02639*
X04426Y02639*
X04432Y02642*
X04438Y02646*
X04442Y02652*
X04445Y02658*
X04445Y0266*
G37*
G36*
X04415Y0269D02*
X04413Y0269D01*
X04407Y02687*
X04401Y02683*
X04397Y02677*
X04394Y02671*
X04394Y0267*
X04415*
Y0269*
G37*
G36*
X0449Y0198D02*
X04488Y0198D01*
X04482Y01977*
X04476Y01973*
X04472Y01967*
X04469Y01961*
X04469Y0196*
X0449*
Y0198*
G37*
G36*
X045D02*
Y0196D01*
X0452*
X0452Y01961*
X04517Y01967*
X04513Y01973*
X04507Y01977*
X04501Y0198*
X045Y0198*
G37*
G36*
X04695Y01985D02*
X04693Y01985D01*
X04687Y01982*
X04681Y01978*
X04677Y01972*
X04674Y01966*
X04674Y01965*
X04695*
Y01985*
G37*
G36*
X05005Y01965D02*
X04985D01*
Y01944*
X04986Y01944*
X04992Y01947*
X04998Y01951*
X05002Y01957*
X05005Y01963*
X05005Y01965*
G37*
G36*
X0612Y0197D02*
X06099D01*
X06099Y01968*
X06102Y01962*
X06106Y01956*
X06112Y01952*
X06118Y01949*
X0612Y01949*
Y0197*
G37*
G36*
X0615D02*
X0613D01*
Y01949*
X06131Y01949*
X06137Y01952*
X06143Y01956*
X06147Y01962*
X0615Y01968*
X0615Y0197*
G37*
G36*
X04845Y0199D02*
Y0197D01*
X04865*
X04865Y01971*
X04862Y01977*
X04858Y01983*
X04852Y01987*
X04846Y0199*
X04845Y0199*
G37*
G36*
X04975Y01995D02*
X04973Y01995D01*
X04967Y01992*
X04961Y01988*
X04957Y01982*
X04954Y01976*
X04954Y01975*
X04975*
Y01995*
G37*
G36*
X04985D02*
Y01975D01*
X05005*
X05005Y01976*
X05002Y01982*
X04998Y01988*
X04992Y01992*
X04986Y01995*
X04985Y01995*
G37*
G36*
X04705Y01985D02*
Y01965D01*
X04725*
X04725Y01966*
X04722Y01972*
X04718Y01978*
X04712Y01982*
X04706Y01985*
X04705Y01985*
G37*
G36*
X04835Y0199D02*
X04833Y0199D01*
X04827Y01987*
X04821Y01983*
X04817Y01977*
X04814Y01971*
X04814Y0197*
X04835*
Y0199*
G37*
G36*
X04975Y01965D02*
X04954D01*
X04954Y01963*
X04957Y01957*
X04961Y01951*
X04967Y01947*
X04973Y01944*
X04975Y01944*
Y01965*
G37*
G36*
X0599Y02036D02*
X05977Y02035D01*
X05964Y02031*
X05953Y02025*
X05943Y02016*
X05934Y02006*
X05928Y01995*
X05924Y01982*
X05923Y0197*
X05924Y01957*
X05928Y01944*
X05934Y01933*
X05943Y01923*
X05953Y01914*
X05964Y01908*
X05977Y01904*
X0599Y01903*
X06002Y01904*
X06015Y01908*
X06026Y01914*
X06036Y01923*
X06045Y01933*
X06051Y01944*
X06055Y01957*
X06056Y0197*
X06055Y01982*
X06051Y01995*
X06045Y02006*
X06036Y02016*
X06026Y02025*
X06015Y02031*
X06002Y02035*
X0599Y02036*
G37*
G36*
X04725Y01955D02*
X04705D01*
Y01934*
X04706Y01934*
X04712Y01937*
X04718Y01941*
X04722Y01947*
X04725Y01953*
X04725Y01955*
G37*
G36*
X04835Y0196D02*
X04814D01*
X04814Y01958*
X04817Y01952*
X04821Y01946*
X04827Y01942*
X04833Y01939*
X04835Y01939*
Y0196*
G37*
G36*
X04865D02*
X04845D01*
Y01939*
X04846Y01939*
X04852Y01942*
X04858Y01946*
X04862Y01952*
X04865Y01958*
X04865Y0196*
G37*
G36*
X0449Y0195D02*
X04469D01*
X04469Y01948*
X04472Y01942*
X04476Y01936*
X04482Y01932*
X04488Y01929*
X0449Y01929*
Y0195*
G37*
G36*
X0452D02*
X045D01*
Y01929*
X04501Y01929*
X04507Y01932*
X04513Y01936*
X04517Y01942*
X0452Y01948*
X0452Y0195*
G37*
G36*
X04695Y01955D02*
X04674D01*
X04674Y01953*
X04677Y01947*
X04681Y01941*
X04687Y01937*
X04693Y01934*
X04695Y01934*
Y01955*
G37*
G36*
X05245Y02275D02*
X05243Y02275D01*
X05237Y02272*
X05231Y02268*
X05227Y02262*
X05224Y02256*
X05224Y02255*
X05245*
Y02275*
G37*
G36*
X05255D02*
Y02255D01*
X05275*
X05275Y02256*
X05272Y02262*
X05268Y02268*
X05262Y02272*
X05256Y02275*
X05255Y02275*
G37*
G36*
X0443Y0214D02*
Y0212D01*
X0445*
X0445Y02121*
X04447Y02127*
X04443Y02133*
X04437Y02137*
X04431Y0214*
X0443Y0214*
G37*
G36*
X05245Y02245D02*
X05224D01*
X05224Y02243*
X05227Y02237*
X05231Y02231*
X05237Y02227*
X05243Y02224*
X05245Y02224*
Y02245*
G37*
G36*
X05275D02*
X05255D01*
Y02224*
X05256Y02224*
X05262Y02227*
X05268Y02231*
X05272Y02237*
X05275Y02243*
X05275Y02245*
G37*
G36*
X04425Y02375D02*
Y02355D01*
X04445*
X04445Y02356*
X04442Y02362*
X04438Y02368*
X04432Y02372*
X04426Y02375*
X04425Y02375*
G37*
G36*
X05245Y02385D02*
X05224D01*
X05224Y02383*
X05227Y02377*
X05231Y02371*
X05237Y02367*
X05243Y02364*
X05245Y02364*
Y02385*
G37*
G36*
X05275D02*
X05255D01*
Y02364*
X05256Y02364*
X05262Y02367*
X05268Y02371*
X05272Y02377*
X05275Y02383*
X05275Y02385*
G37*
G36*
X04415Y02345D02*
X04394D01*
X04394Y02343*
X04397Y02337*
X04401Y02331*
X04407Y02327*
X04413Y02324*
X04415Y02324*
Y02345*
G37*
G36*
X04445D02*
X04425D01*
Y02324*
X04426Y02324*
X04432Y02327*
X04438Y02331*
X04442Y02337*
X04445Y02343*
X04445Y02345*
G37*
G36*
X04415Y02375D02*
X04413Y02375D01*
X04407Y02372*
X04401Y02368*
X04397Y02362*
X04394Y02356*
X04394Y02355*
X04415*
Y02375*
G37*
G36*
X0442Y0214D02*
X04418Y0214D01*
X04412Y02137*
X04406Y02133*
X04402Y02127*
X04399Y02121*
X04399Y0212*
X0442*
Y0214*
G37*
G36*
X0612Y02085D02*
X06099D01*
X06099Y02083*
X06102Y02077*
X06106Y02071*
X06112Y02067*
X06118Y02064*
X0612Y02064*
Y02085*
G37*
G36*
X0615D02*
X0613D01*
Y02064*
X06131Y02064*
X06137Y02067*
X06143Y02071*
X06147Y02077*
X0615Y02083*
X0615Y02085*
G37*
G36*
X0612Y02D02*
X06118Y02D01*
X06112Y01997*
X06106Y01993*
X06102Y01987*
X06099Y01981*
X06099Y0198*
X0612*
Y02*
G37*
G36*
X0613D02*
Y0198D01*
X0615*
X0615Y01981*
X06147Y01987*
X06143Y01993*
X06137Y01997*
X06131Y02*
X0613Y02*
G37*
G36*
Y02115D02*
Y02095D01*
X0615*
X0615Y02096*
X06147Y02102*
X06143Y02108*
X06137Y02112*
X06131Y02115*
X0613Y02115*
G37*
G36*
X0442Y0211D02*
X04399D01*
X04399Y02108*
X04402Y02102*
X04406Y02096*
X04412Y02092*
X04418Y02089*
X0442Y02089*
Y0211*
G37*
G36*
X0445D02*
X0443D01*
Y02089*
X04431Y02089*
X04437Y02092*
X04443Y02096*
X04447Y02102*
X0445Y02108*
X0445Y0211*
G37*
G36*
X0612Y02115D02*
X06118Y02115D01*
X06112Y02112*
X06106Y02108*
X06102Y02102*
X06099Y02096*
X06099Y02095*
X0612*
Y02115*
G37*
G36*
X05835Y02955D02*
Y02935D01*
X05855*
X05855Y02936*
X05852Y02942*
X05848Y02948*
X05842Y02952*
X05836Y02955*
X05835Y02955*
G37*
G36*
X0511Y0354D02*
Y0352D01*
X0513*
X0513Y03521*
X05127Y03527*
X05123Y03533*
X05117Y03537*
X05111Y0354*
X0511Y0354*
G37*
G36*
X0461Y03578D02*
X04601Y03576D01*
X04593Y03571*
X0459Y03567*
X04425*
X0442Y03566*
X04416Y03563*
X04029Y03176*
X04028Y03176*
X0402Y03178*
X04011Y03176*
X04003Y03171*
X03998Y03163*
X03996Y03155*
X03998Y03146*
X04003Y03138*
X04011Y03133*
X0402Y03131*
X04028Y03133*
X04036Y03138*
X04041Y03146*
X04043Y03155*
X04043Y03155*
X04052Y03165*
X04057Y03162*
X04056Y0316*
Y0307*
X03929Y02943*
X03918*
X03916Y02946*
X03908Y02951*
X039Y02953*
X03891Y02951*
X03888Y02949*
X03884Y02952*
Y02982*
X03883Y02986*
X03883Y02987*
X03885Y02992*
X0389*
X03893Y02988*
X03901Y02983*
X0391Y02981*
X03918Y02983*
X03926Y02988*
X03931Y02996*
X03933Y03005*
X03931Y03013*
X03926Y03021*
X03918Y03026*
X0391Y03028*
X03901Y03026*
X03893Y03021*
X0389Y03017*
X03805*
X038Y03016*
X03796Y03013*
X03779Y02997*
X03779*
X03775Y02994*
X03772Y0299*
X03772Y02987*
X03767Y02987*
Y03048*
X03849Y0313*
X03859Y0314*
X03863Y03146*
X03866Y03152*
X03867Y0316*
Y032*
Y0324*
X03866Y03247*
X03863Y03253*
X03859Y03259*
X03853Y03263*
X03847Y03266*
X0384Y03267*
X03832Y03266*
X03826Y03263*
X0382Y03259*
X03816Y03253*
X03813Y03247*
X03812Y0324*
Y032*
Y03171*
X0381Y03169*
X0372Y03079*
X03716Y03073*
X03713Y03067*
X03712Y0306*
Y0269*
X03713Y02682*
X03716Y02676*
X0372Y0267*
X03907Y02483*
Y02225*
Y02185*
Y0215*
Y02115*
X03908Y02107*
X03911Y02101*
X03915Y02095*
X03921Y02091*
X03927Y02088*
X03935Y02087*
X03942Y02088*
X03948Y02091*
X03954Y02095*
X03958Y02101*
X03961Y02107*
X03962Y02115*
Y0215*
Y02185*
Y02225*
Y02495*
X03961Y02502*
X03958Y02508*
X03954Y02514*
X03767Y02701*
Y02746*
X03772Y02746*
X03772Y02744*
X03775Y0274*
X04255Y0226*
X04259Y02257*
X04264Y02256*
X04961*
X04963Y02253*
X04971Y02248*
X0498Y02246*
X04988Y02248*
X04996Y02253*
X05001Y02261*
X05003Y0227*
X05001Y02278*
X04996Y02286*
X04988Y02291*
X0498Y02293*
X04971Y02291*
X04963Y02286*
X04961Y02283*
X04269*
X04075Y02477*
X04075Y02478*
X04077Y02482*
X0455*
X04553Y02478*
X04561Y02473*
X0457Y02471*
X04578Y02473*
X04586Y02478*
X04591Y02486*
X04593Y02495*
X04591Y02503*
X04586Y02511*
X04578Y02516*
X0457Y02518*
X04561Y02516*
X04553Y02511*
X0455Y02507*
X0408*
X03872Y02715*
Y02753*
X03877Y02756*
X03881Y02753*
X0389Y02751*
X03898Y02753*
X03906Y02758*
X03911Y02766*
X03913Y02775*
X03914Y02777*
X03921Y02777*
X04147Y02551*
X04151Y02548*
X04155Y02547*
X04614*
X04652Y02509*
X04651Y02505*
X04653Y02496*
X04658Y02488*
X04666Y02483*
X04675Y02481*
X04683Y02483*
X04691Y02488*
X04696Y02496*
X04698Y02505*
X04696Y02513*
X04691Y02521*
X04683Y02526*
X04675Y02528*
X0467Y02527*
X04628Y02568*
X04624Y02571*
X0462Y02572*
X0416*
X03959Y02773*
X03961Y02778*
X03963Y02778*
X03971Y02783*
X03973Y02786*
X04943*
X04943Y02786*
X04948Y02778*
X04956Y02773*
X04965Y02771*
X04973Y02773*
X04981Y02778*
X04986Y02786*
X04988Y02795*
X04986Y02803*
X04981Y02811*
X04973Y02816*
X04965Y02818*
X04956Y02816*
X04951Y02813*
X03973*
X03971Y02816*
X03963Y02821*
X03955Y02823*
X03946Y02821*
X03943Y02819*
X03939Y02822*
Y02847*
X04025Y02933*
X04029Y02929*
X04028Y02928*
X04026Y0292*
X04028Y02911*
X04033Y02903*
X04041Y02898*
X0405Y02896*
X04058Y02898*
X04066Y02903*
X04069Y02907*
X046*
X04604Y02908*
X04608Y02911*
X04695Y02997*
X047Y02996*
X04708Y02998*
X04716Y03003*
X04721Y03011*
X04723Y0302*
X04721Y03028*
X04716Y03036*
X04708Y03041*
X047Y03043*
X04691Y03041*
X04683Y03036*
X04678Y03028*
X04676Y0302*
X04677Y03015*
X04594Y02932*
X04069*
X04066Y02936*
X04058Y02941*
X0405Y02943*
X04041Y02941*
X0404Y0294*
X04036Y02944*
X04045Y02952*
X0405Y02951*
X04058Y02953*
X04066Y02958*
X04071Y02966*
X04073Y02975*
X04071Y02983*
X04066Y02991*
X04058Y02996*
X04057Y02996*
X04057Y03001*
X04531*
X04533Y02998*
X04541Y02993*
X0455Y02991*
X04558Y02993*
X04566Y02998*
X04571Y03006*
X04573Y03015*
X04571Y03023*
X04566Y03031*
X04558Y03036*
X0455Y03038*
X04541Y03036*
X04533Y03031*
X04531Y03028*
X04058*
X04056Y03032*
X04079Y03055*
X04082Y03059*
X04083Y03065*
Y03154*
X0425Y03321*
X04961*
X04963Y03318*
X04971Y03313*
X0498Y03311*
X04988Y03313*
X04996Y03318*
X05001Y03326*
X05003Y03335*
X05001Y03343*
X04996Y03351*
X04988Y03356*
X0498Y03358*
X04971Y03356*
X04963Y03351*
X04961Y03348*
X04245*
X04242Y03347*
X04239Y03352*
X0443Y03542*
X0459*
X04593Y03538*
X04601Y03533*
X0461Y03531*
X04618Y03533*
X04626Y03538*
X04631Y03546*
X04633Y03555*
X04631Y03563*
X04626Y03571*
X04618Y03576*
X0461Y03578*
G37*
G36*
X05655Y03625D02*
X05634D01*
X05634Y03623*
X05637Y03617*
X05641Y03611*
X05647Y03607*
X05653Y03604*
X05655Y03604*
Y03625*
G37*
G36*
X05685D02*
X05665D01*
Y03604*
X05666Y03604*
X05672Y03607*
X05678Y03611*
X05682Y03617*
X05685Y03623*
X05685Y03625*
G37*
G36*
X05255Y03643D02*
X0521D01*
X05211Y03637*
X05215Y03628*
X05221Y03619*
X0523Y03613*
X05239Y03609*
X0525Y03608*
X05255*
Y03643*
G37*
G36*
X05825Y03615D02*
X05804D01*
X05804Y03613*
X05807Y03607*
X05811Y03601*
X05817Y03597*
X05823Y03594*
X05825Y03594*
Y03615*
G37*
G36*
X05855D02*
X05835D01*
Y03594*
X05836Y03594*
X05842Y03597*
X05848Y03601*
X05852Y03607*
X05855Y03613*
X05855Y03615*
G37*
G36*
X05225Y0349D02*
X05204D01*
X05204Y03488*
X05207Y03482*
X05211Y03476*
X05217Y03472*
X05223Y03469*
X05225Y03469*
Y0349*
G37*
G36*
X05255D02*
X05235D01*
Y03469*
X05236Y03469*
X05242Y03472*
X05248Y03476*
X05252Y03482*
X05255Y03488*
X05255Y0349*
G37*
G36*
X0583Y0349D02*
X05828Y0349D01*
X05822Y03487*
X05816Y03483*
X05812Y03477*
X05809Y03471*
X05809Y0347*
X0583*
Y0349*
G37*
G36*
X0586Y0346D02*
X0584D01*
Y03439*
X05841Y03439*
X05847Y03442*
X05853Y03446*
X05857Y03452*
X0586Y03458*
X0586Y0346*
G37*
G36*
X04415Y03485D02*
X04413Y03485D01*
X04407Y03482*
X04401Y03478*
X04397Y03472*
X04394Y03466*
X04394Y03465*
X04415*
Y03485*
G37*
G36*
X04425D02*
Y03465D01*
X04445*
X04445Y03466*
X04442Y03472*
X04438Y03478*
X04432Y03482*
X04426Y03485*
X04425Y03485*
G37*
G36*
X05225Y0352D02*
X05223Y0352D01*
X05217Y03517*
X05211Y03513*
X05207Y03507*
X05204Y03501*
X05204Y035*
X05225*
Y0352*
G37*
G36*
X05235D02*
Y035D01*
X05255*
X05255Y03501*
X05252Y03507*
X05248Y03513*
X05242Y03517*
X05236Y0352*
X05235Y0352*
G37*
G36*
X051Y0354D02*
X05098Y0354D01*
X05092Y03537*
X05086Y03533*
X05082Y03527*
X05079Y03521*
X05079Y0352*
X051*
Y0354*
G37*
G36*
X0584Y0349D02*
Y0347D01*
X0586*
X0586Y03471*
X05857Y03477*
X05853Y03483*
X05847Y03487*
X05841Y0349*
X0584Y0349*
G37*
G36*
X051Y0351D02*
X05079D01*
X05079Y03508*
X05082Y03502*
X05086Y03496*
X05092Y03492*
X05098Y03489*
X051Y03489*
Y0351*
G37*
G36*
X0513D02*
X0511D01*
Y03489*
X05111Y03489*
X05117Y03492*
X05123Y03496*
X05127Y03502*
X0513Y03508*
X0513Y0351*
G37*
G36*
X04935Y03871D02*
X04922Y0387D01*
X04909Y03866*
X04898Y0386*
X04888Y03851*
X04879Y03841*
X04873Y0383*
X04869Y03817*
X04868Y03805*
X04869Y03792*
X04873Y03779*
X04879Y03768*
X04888Y03758*
X04898Y03749*
X04909Y03743*
X04922Y03739*
X04935Y03738*
X04947Y03739*
X0496Y03743*
X04971Y03749*
X04981Y03758*
X0499Y03768*
X04996Y03779*
X05Y03792*
X05001Y03805*
X05Y03817*
X04996Y0383*
X0499Y03841*
X04981Y03851*
X04971Y0386*
X0496Y03866*
X04947Y0387*
X04935Y03871*
G37*
G36*
X05269Y03687D02*
X05265D01*
Y03653*
X05309*
X05308Y03658*
X05304Y03667*
X05298Y03676*
X05289Y03682*
X0528Y03686*
X05269Y03687*
G37*
G36*
X0444Y03685D02*
X04438Y03685D01*
X04432Y03682*
X04426Y03678*
X04422Y03672*
X04419Y03666*
X04419Y03665*
X0444*
Y03685*
G37*
G36*
X0445D02*
Y03665D01*
X0447*
X0447Y03666*
X04467Y03672*
X04463Y03678*
X04457Y03682*
X04451Y03685*
X0445Y03685*
G37*
G36*
X06135Y0392D02*
X06133Y0392D01*
X06127Y03917*
X06121Y03913*
X06117Y03907*
X06114Y03901*
X06114Y039*
X06135*
Y0392*
G37*
G36*
X06145D02*
Y039D01*
X06165*
X06165Y03901*
X06162Y03907*
X06158Y03913*
X06152Y03917*
X06146Y0392*
X06145Y0392*
G37*
G36*
X03475Y0395D02*
X03473Y0395D01*
X03467Y03947*
X03461Y03943*
X03457Y03937*
X03454Y03931*
X03454Y0393*
X03475*
Y0395*
G37*
G36*
X05269Y03936D02*
X0525D01*
X0524Y03935*
X05231Y03931*
X05224Y03926*
X05218Y03918*
X05214Y03909*
X05213Y039*
X05214Y0389*
X05218Y03881*
X05224Y03873*
X05231Y03868*
X0524Y03864*
X0525Y03863*
X05269*
X05279Y03864*
X05288Y03868*
X05295Y03873*
X05301Y03881*
X05305Y0389*
X05306Y039*
X05305Y03909*
X05301Y03918*
X05295Y03926*
X05288Y03931*
X05279Y03935*
X05269Y03936*
G37*
G36*
X06135Y0389D02*
X06114D01*
X06114Y03888*
X06117Y03882*
X06121Y03876*
X06127Y03872*
X06133Y03869*
X06135Y03869*
Y0389*
G37*
G36*
X06165D02*
X06145D01*
Y03869*
X06146Y03869*
X06152Y03872*
X06158Y03876*
X06162Y03882*
X06165Y03888*
X06165Y0389*
G37*
G36*
X05825Y03645D02*
X05823Y03645D01*
X05817Y03642*
X05811Y03638*
X05807Y03632*
X05804Y03626*
X05804Y03625*
X05825*
Y03645*
G37*
G36*
X05835D02*
Y03625D01*
X05855*
X05855Y03626*
X05852Y03632*
X05848Y03638*
X05842Y03642*
X05836Y03645*
X05835Y03645*
G37*
G36*
X0444Y03655D02*
X04419D01*
X04419Y03653*
X04422Y03647*
X04426Y03641*
X04432Y03637*
X04438Y03634*
X0444Y03634*
Y03655*
G37*
G36*
X05309Y03643D02*
X05265D01*
Y03608*
X05269*
X0528Y03609*
X05289Y03613*
X05298Y03619*
X05304Y03628*
X05308Y03637*
X05309Y03643*
G37*
G36*
X0428Y0364D02*
X04259D01*
X04259Y03638*
X04262Y03632*
X04266Y03626*
X04272Y03622*
X04278Y03619*
X0428Y03619*
Y0364*
G37*
G36*
X0431D02*
X0429D01*
Y03619*
X04291Y03619*
X04297Y03622*
X04303Y03626*
X04307Y03632*
X0431Y03638*
X0431Y0364*
G37*
G36*
X0428Y0367D02*
X04278Y0367D01*
X04272Y03667*
X04266Y03663*
X04262Y03657*
X04259Y03651*
X04259Y0365*
X0428*
Y0367*
G37*
G36*
X0429D02*
Y0365D01*
X0431*
X0431Y03651*
X04307Y03657*
X04303Y03663*
X04297Y03667*
X04291Y0367*
X0429Y0367*
G37*
G36*
X05255Y03687D02*
X0525D01*
X05239Y03686*
X0523Y03682*
X05221Y03676*
X05215Y03667*
X05211Y03658*
X0521Y03653*
X05255*
Y03687*
G37*
G36*
X0447Y03655D02*
X0445D01*
Y03634*
X04451Y03634*
X04457Y03637*
X04463Y03641*
X04467Y03647*
X0447Y03653*
X0447Y03655*
G37*
G36*
X05655Y03655D02*
X05653Y03655D01*
X05647Y03652*
X05641Y03648*
X05637Y03642*
X05634Y03636*
X05634Y03635*
X05655*
Y03655*
G37*
G36*
X05665D02*
Y03635D01*
X05685*
X05685Y03636*
X05682Y03642*
X05678Y03648*
X05672Y03652*
X05666Y03655*
X05665Y03655*
G37*
G36*
X0583Y0346D02*
X05809D01*
X05809Y03458*
X05812Y03452*
X05816Y03446*
X05822Y03442*
X05828Y03439*
X0583Y03439*
Y0346*
G37*
G36*
X04Y03095D02*
X03979D01*
X03979Y03093*
X03982Y03087*
X03986Y03081*
X03992Y03077*
X03998Y03074*
X04Y03074*
Y03095*
G37*
G36*
X0485Y03055D02*
Y03035D01*
X0487*
X0487Y03036*
X04867Y03042*
X04863Y03048*
X04857Y03052*
X04851Y03055*
X0485Y03055*
G37*
G36*
X05015Y0306D02*
X05013Y0306D01*
X05007Y03057*
X05001Y03053*
X04997Y03047*
X04994Y03041*
X04994Y0304*
X05015*
Y0306*
G37*
G36*
X05025D02*
Y0304D01*
X05045*
X05045Y03041*
X05042Y03047*
X05038Y03053*
X05032Y03057*
X05026Y0306*
X05025Y0306*
G37*
G36*
X04415Y0313D02*
X04394D01*
X04394Y03128*
X04397Y03122*
X04401Y03116*
X04407Y03112*
X04413Y03109*
X04415Y03109*
Y0313*
G37*
G36*
X04445D02*
X04425D01*
Y03109*
X04426Y03109*
X04432Y03112*
X04438Y03116*
X04442Y03122*
X04445Y03128*
X04445Y0313*
G37*
G36*
X05825Y03135D02*
X05804D01*
X05804Y03133*
X05807Y03127*
X05811Y03121*
X05817Y03117*
X05823Y03114*
X05825Y03114*
Y03135*
G37*
G36*
X0403Y03095D02*
X0401D01*
Y03074*
X04011Y03074*
X04017Y03077*
X04023Y03081*
X04027Y03087*
X0403Y03093*
X0403Y03095*
G37*
G36*
X0401Y03125D02*
Y03105D01*
X0403*
X0403Y03106*
X04027Y03112*
X04023Y03118*
X04017Y03122*
X04011Y03125*
X0401Y03125*
G37*
G36*
X0441Y0299D02*
X04408Y0299D01*
X04402Y02987*
X04396Y02983*
X04392Y02977*
X04389Y02971*
X04389Y0297*
X0441*
Y0299*
G37*
G36*
X0442D02*
Y0297D01*
X0444*
X0444Y02971*
X04437Y02977*
X04433Y02983*
X04427Y02987*
X04421Y0299*
X0442Y0299*
G37*
G36*
X0484Y03025D02*
X04819D01*
X04819Y03023*
X04822Y03017*
X04826Y03011*
X04832Y03007*
X04838Y03004*
X0484Y03004*
Y03025*
G37*
G36*
X0441Y0296D02*
X04389D01*
X04389Y02958*
X04392Y02952*
X04396Y02946*
X04402Y02942*
X04408Y02939*
X0441Y02939*
Y0296*
G37*
G36*
X0444D02*
X0442D01*
Y02939*
X04421Y02939*
X04427Y02942*
X04433Y02946*
X04437Y02952*
X0444Y02958*
X0444Y0296*
G37*
G36*
X05965Y03091D02*
X05952Y0309D01*
X05939Y03086*
X05928Y0308*
X05918Y03071*
X05909Y03061*
X05903Y0305*
X05899Y03037*
X05898Y03025*
X05899Y03012*
X05903Y02999*
X05909Y02988*
X05918Y02978*
X05928Y02969*
X05939Y02963*
X05952Y02959*
X05965Y02958*
X05977Y02959*
X0599Y02963*
X06001Y02969*
X06011Y02978*
X0602Y02988*
X06026Y02999*
X0603Y03012*
X06031Y03025*
X0603Y03037*
X06026Y0305*
X0602Y03061*
X06011Y03071*
X06001Y0308*
X0599Y03086*
X05977Y0309*
X05965Y03091*
G37*
G36*
X0484Y03055D02*
X04838Y03055D01*
X04832Y03052*
X04826Y03048*
X04822Y03042*
X04819Y03036*
X04819Y03035*
X0484*
Y03055*
G37*
G36*
X0487Y03025D02*
X0485D01*
Y03004*
X04851Y03004*
X04857Y03007*
X04863Y03011*
X04867Y03017*
X0487Y03023*
X0487Y03025*
G37*
G36*
X05015Y0303D02*
X04994D01*
X04994Y03028*
X04997Y03022*
X05001Y03016*
X05007Y03012*
X05013Y03009*
X05015Y03009*
Y0303*
G37*
G36*
X05045D02*
X05025D01*
Y03009*
X05026Y03009*
X05032Y03012*
X05038Y03016*
X05042Y03022*
X05045Y03028*
X05045Y0303*
G37*
G36*
X0442Y0331D02*
Y0329D01*
X0444*
X0444Y03291*
X04437Y03297*
X04433Y03303*
X04427Y03307*
X04421Y0331*
X0442Y0331*
G37*
G36*
X0523Y03355D02*
X05209D01*
X05209Y03353*
X05212Y03347*
X05216Y03341*
X05222Y03337*
X05228Y03334*
X0523Y03334*
Y03355*
G37*
G36*
X0444Y0328D02*
X0442D01*
Y03259*
X04421Y03259*
X04427Y03262*
X04433Y03266*
X04437Y03272*
X0444Y03278*
X0444Y0328*
G37*
G36*
X0441Y0331D02*
X04408Y0331D01*
X04402Y03307*
X04396Y03303*
X04392Y03297*
X04389Y03291*
X04389Y0329*
X0441*
Y0331*
G37*
G36*
X0377Y03487D02*
X0376Y03486D01*
X03751Y03482*
X03743Y03476*
X03737Y03468*
X03733Y03459*
X03732Y0345*
X03733Y0344*
X03737Y03431*
X03743Y03423*
X03751Y03417*
X0376Y03413*
X0377Y03412*
X03779Y03413*
X03788Y03417*
X03796Y03423*
X03802Y03431*
X03806Y0344*
X03807Y0345*
X03806Y03459*
X03802Y03468*
X03796Y03476*
X03788Y03482*
X03779Y03486*
X0377Y03487*
G37*
G36*
X04415Y03455D02*
X04394D01*
X04394Y03453*
X04397Y03447*
X04401Y03441*
X04407Y03437*
X04413Y03434*
X04415Y03434*
Y03455*
G37*
G36*
X04445D02*
X04425D01*
Y03434*
X04426Y03434*
X04432Y03437*
X04438Y03441*
X04442Y03447*
X04445Y03453*
X04445Y03455*
G37*
G36*
X0526Y03355D02*
X0524D01*
Y03334*
X05241Y03334*
X05247Y03337*
X05253Y03341*
X05257Y03347*
X0526Y03353*
X0526Y03355*
G37*
G36*
X0523Y03385D02*
X05228Y03385D01*
X05222Y03382*
X05216Y03378*
X05212Y03372*
X05209Y03366*
X05209Y03365*
X0523*
Y03385*
G37*
G36*
X0524D02*
Y03365D01*
X0526*
X0526Y03366*
X05257Y03372*
X05253Y03378*
X05247Y03382*
X05241Y03385*
X0524Y03385*
G37*
G36*
X04415Y0316D02*
X04413Y0316D01*
X04407Y03157*
X04401Y03153*
X04397Y03147*
X04394Y03141*
X04394Y0314*
X04415*
Y0316*
G37*
G36*
X04425D02*
Y0314D01*
X04445*
X04445Y03141*
X04442Y03147*
X04438Y03153*
X04432Y03157*
X04426Y0316*
X04425Y0316*
G37*
G36*
X05825Y03165D02*
X05823Y03165D01*
X05817Y03162*
X05811Y03158*
X05807Y03152*
X05804Y03146*
X05804Y03145*
X05825*
Y03165*
G37*
G36*
X05855Y03135D02*
X05835D01*
Y03114*
X05836Y03114*
X05842Y03117*
X05848Y03121*
X05852Y03127*
X05855Y03133*
X05855Y03135*
G37*
G36*
X0441Y0328D02*
X04389D01*
X04389Y03278*
X04392Y03272*
X04396Y03266*
X04402Y03262*
X04408Y03259*
X0441Y03259*
Y0328*
G37*
G36*
X05835Y03165D02*
Y03145D01*
X05855*
X05855Y03146*
X05852Y03152*
X05848Y03158*
X05842Y03162*
X05836Y03165*
X05835Y03165*
G37*
G36*
X0329Y03605D02*
X03269D01*
X03269Y03603*
X03272Y03597*
X03276Y03591*
X03282Y03587*
X03288Y03584*
X0329Y03584*
Y03605*
G37*
G36*
X0178Y0239D02*
Y0237D01*
X018*
X018Y02371*
X01797Y02377*
X01793Y02383*
X01787Y02387*
X01781Y0239*
X0178Y0239*
G37*
G36*
X0177D02*
X01768Y0239D01*
X01762Y02387*
X01756Y02383*
X01752Y02377*
X01749Y02371*
X01749Y0237*
X0177*
Y0239*
G37*
G36*
X018Y0236D02*
X01749D01*
X01749Y02358*
X01752Y02352*
X01756Y02346*
X01762Y02342*
X01762Y02342*
Y02335*
X01712Y02284*
X01711Y02285*
X0171Y02285*
Y02265*
X0173*
X0173Y02266*
X01729Y02267*
X01783Y02321*
X01786Y02325*
X01787Y0233*
Y02342*
X01787Y02342*
X01793Y02346*
X01797Y02352*
X018Y02358*
X018Y0236*
G37*
G36*
X0173Y0254D02*
X01709D01*
X01709Y02538*
X01712Y02532*
X01716Y02526*
X01722Y02522*
X01728Y02519*
X0173Y02519*
Y0254*
G37*
G36*
X0176D02*
X0174D01*
Y02519*
X01741Y02519*
X01747Y02522*
X01753Y02526*
X01757Y02532*
X0176Y02538*
X0176Y0254*
G37*
G36*
X0173Y0257D02*
X01728Y0257D01*
X01722Y02567*
X01716Y02563*
X01712Y02557*
X01709Y02551*
X01709Y0255*
X0173*
Y0257*
G37*
G36*
X02475Y02479D02*
Y02445D01*
X02509*
X02508Y0245*
X02504Y02459*
X02498Y02468*
X02489Y02474*
X0248Y02478*
X02475Y02479*
G37*
G36*
X02306Y02476D02*
X02233D01*
Y02403*
X02306*
Y02476*
G37*
G36*
X02465Y02479D02*
X02459Y02478D01*
X0245Y02474*
X02441Y02468*
X02435Y02459*
X02431Y0245*
X0243Y02445*
X02465*
Y02479*
G37*
G36*
X0237Y02476D02*
X0236Y02475D01*
X02351Y02471*
X02343Y02466*
X02338Y02458*
X02334Y02449*
X02333Y0244*
X02334Y0243*
X02338Y02421*
X02343Y02413*
X02351Y02408*
X0236Y02404*
X0237Y02403*
X02379Y02404*
X02388Y02408*
X02396Y02413*
X02401Y02421*
X02405Y0243*
X02406Y0244*
X02405Y02449*
X02401Y02458*
X02396Y02466*
X02388Y02471*
X02379Y02475*
X0237Y02476*
G37*
G36*
X02204Y01999D02*
X0217D01*
Y01965*
X02204*
Y01999*
G37*
G36*
X01865Y01996D02*
X01855Y01995D01*
X01846Y01991*
X01838Y01986*
X01833Y01978*
X01829Y01969*
X01828Y0196*
X01829Y0195*
X01833Y01941*
X01838Y01933*
X01846Y01928*
X01855Y01924*
X01865Y01923*
X01874Y01924*
X01883Y01928*
X01891Y01933*
X01896Y01941*
X019Y0195*
X01901Y0196*
X019Y01969*
X01896Y01978*
X01891Y01986*
X01883Y01991*
X01874Y01995*
X01865Y01996*
G37*
G36*
X01965D02*
X01955Y01995D01*
X01946Y01991*
X01938Y01986*
X01933Y01978*
X01929Y01969*
X01928Y0196*
X01929Y0195*
X01933Y01941*
X01938Y01933*
X01946Y01928*
X01955Y01924*
X01965Y01923*
X01974Y01924*
X01983Y01928*
X01991Y01933*
X01996Y01941*
X02Y0195*
X02001Y0196*
X02Y01969*
X01996Y01978*
X01991Y01986*
X01983Y01991*
X01974Y01995*
X01965Y01996*
G37*
G36*
X02065D02*
X02055Y01995D01*
X02046Y01991*
X02038Y01986*
X02033Y01978*
X02029Y01969*
X02028Y0196*
X02029Y0195*
X02033Y01941*
X02038Y01933*
X02046Y01928*
X02055Y01924*
X02065Y01923*
X02074Y01924*
X02083Y01928*
X02091Y01933*
X02096Y01941*
X021Y0195*
X02101Y0196*
X021Y01969*
X02096Y01978*
X02091Y01986*
X02083Y01991*
X02074Y01995*
X02065Y01996*
G37*
G36*
X0216Y01955D02*
X02125D01*
Y0192*
X0216*
Y01955*
G37*
G36*
X02204D02*
X0217D01*
Y0192*
X02204*
Y01955*
G37*
G36*
X02358Y02171D02*
X02345Y0217D01*
X02332Y02166*
X02321Y0216*
X02311Y02151*
X02302Y02141*
X02296Y0213*
X02293Y02117*
X02291Y02105*
X02293Y02092*
X02296Y02079*
X02302Y02068*
X02311Y02058*
X02321Y02049*
X02332Y02043*
X02345Y02039*
X02358Y02038*
X02371Y02039*
X02383Y02043*
X02395Y02049*
X02405Y02058*
X02413Y02068*
X02419Y02079*
X02423Y02092*
X02424Y02105*
X02423Y02117*
X02419Y0213*
X02413Y02141*
X02405Y02151*
X02395Y0216*
X02383Y02166*
X02371Y0217*
X02358Y02171*
G37*
G36*
X0255Y021D02*
X02486D01*
X02486Y02091*
X0249Y02078*
X02497Y02066*
X02505Y02055*
X02516Y02047*
X02528Y0204*
X02541Y02036*
X0255Y02036*
Y021*
G37*
G36*
X02509Y02435D02*
X0243D01*
X02431Y02429*
X02435Y0242*
X02441Y02411*
X02442Y02411*
Y0219*
X02443Y02182*
X02446Y02176*
X0245Y0217*
X0249Y0213*
X02486Y02118*
X02486Y0211*
X0255*
Y02173*
X02541Y02173*
X02529Y02169*
X02497Y02201*
Y02411*
X02498Y02411*
X02504Y0242*
X02508Y02429*
X02509Y02435*
G37*
G36*
X0256Y02173D02*
Y0211D01*
X02623*
X02623Y02118*
X02619Y02131*
X02612Y02143*
X02604Y02154*
X02593Y02162*
X02581Y02169*
X02568Y02173*
X0256Y02173*
G37*
G36*
X0305Y03085D02*
X03029D01*
X03029Y03083*
X03032Y03077*
X03036Y03071*
X03042Y03067*
X03048Y03064*
X0305Y03064*
Y03085*
G37*
G36*
X0308D02*
X0306D01*
Y03064*
X03061Y03064*
X03067Y03067*
X03073Y03071*
X03077Y03077*
X0308Y03083*
X0308Y03085*
G37*
G36*
X03055Y03305D02*
Y03285D01*
X03075*
X03075Y03286*
X03072Y03292*
X03068Y03298*
X03062Y03302*
X03056Y03305*
X03055Y03305*
G37*
G36*
X0287Y03155D02*
X02849D01*
X02849Y03153*
X02852Y03147*
X02856Y03141*
X02862Y03137*
X02868Y03134*
X0287Y03134*
Y03155*
G37*
G36*
X029D02*
X0288D01*
Y03134*
X02881Y03134*
X02887Y03137*
X02893Y03141*
X02897Y03147*
X029Y03153*
X029Y03155*
G37*
G36*
X0288Y03185D02*
Y03165D01*
X029*
X029Y03166*
X02897Y03172*
X02893Y03178*
X02887Y03182*
X02881Y03185*
X0288Y03185*
G37*
G36*
X0287D02*
X02868Y03185D01*
X02862Y03182*
X02856Y03178*
X02852Y03172*
X02849Y03166*
X02849Y03165*
X0287*
Y03185*
G37*
G36*
X0253Y0357D02*
X0251D01*
Y03549*
X02511Y03549*
X02517Y03552*
X02523Y03556*
X02527Y03562*
X0253Y03568*
X0253Y0357*
G37*
G36*
X025Y036D02*
X02498Y036D01*
X02492Y03597*
X02486Y03593*
X02482Y03587*
X02479Y03581*
X02479Y0358*
X025*
Y036*
G37*
G36*
X0251D02*
Y0358D01*
X0253*
X0253Y03581*
X02527Y03587*
X02523Y03593*
X02517Y03597*
X02511Y036*
X0251Y036*
G37*
G36*
X025Y0357D02*
X02479D01*
X02479Y03568*
X02482Y03562*
X02486Y03556*
X02492Y03552*
X02498Y03549*
X025Y03549*
Y0357*
G37*
G36*
X0166Y0381D02*
X01625D01*
X01626Y03804*
X0163Y03795*
X01636Y03786*
X01645Y0378*
X01654Y03776*
X0166Y03775*
Y0381*
G37*
G36*
Y03854D02*
X01654Y03853D01*
X01645Y03849*
X01636Y03843*
X0163Y03834*
X01626Y03825*
X01625Y0382*
X0166*
Y03854*
G37*
G36*
X0179Y03181D02*
X0178Y0318D01*
X01771Y03176*
X01763Y03171*
X01758Y03163*
X01754Y03154*
X01753Y03145*
X01754Y03135*
X01758Y03126*
X01763Y03118*
X01771Y03113*
X0178Y03109*
X0179Y03108*
X01799Y03109*
X01808Y03113*
X01816Y03118*
X01821Y03126*
X01825Y03135*
X01826Y03145*
X01825Y03154*
X01821Y03163*
X01816Y03171*
X01808Y03176*
X01799Y0318*
X0179Y03181*
G37*
G36*
X01704Y0381D02*
X0167D01*
Y03774*
X01672Y03772*
Y03325*
X0167Y03324*
X01661Y03318*
X01655Y03309*
X01651Y033*
X0165Y03295*
X0169*
X01729*
X01728Y033*
X01724Y03309*
X01718Y03318*
X01709Y03324*
X01707Y03325*
Y0379*
X01706Y03796*
X01702Y03802*
X01703Y03804*
X01704Y0381*
G37*
G36*
X0179Y03326D02*
X0178Y03325D01*
X01771Y03321*
X01763Y03316*
X01758Y03308*
X01754Y03299*
X01753Y0329*
X01754Y0328*
X01758Y03271*
X01763Y03263*
X01771Y03258*
X0178Y03254*
X0179Y03253*
X01799Y03254*
X01808Y03258*
X01816Y03263*
X01821Y03271*
X01825Y0328*
X01826Y0329*
X01825Y03299*
X01821Y03308*
X01816Y03316*
X01808Y03321*
X01799Y03325*
X0179Y03326*
G37*
G36*
X01729Y03285D02*
X0169D01*
X0165*
X01651Y03279*
X01655Y0327*
X01661Y03261*
X0167Y03255*
X01672Y03254*
Y0318*
X0167Y03179*
X01661Y03173*
X01655Y03164*
X01651Y03155*
X0165Y0315*
X0169*
X01729*
X01728Y03155*
X01724Y03164*
X01718Y03173*
X01709Y03179*
X01707Y0318*
Y03254*
X01709Y03255*
X01718Y03261*
X01724Y0327*
X01728Y03279*
X01729Y03285*
G37*
%LNpcbbldcdriver-3*%
%LPD*%
G54D36*
X03715Y0385D02*
X04693D01*
X0356D02*
X03715D01*
Y03705D02*
Y0385D01*
X0356Y0335D02*
Y0385D01*
Y0211D02*
Y0335D01*
X04693Y0385D02*
X04738Y03805D01*
G54D37*
X03824Y0275D02*
Y02979D01*
X03955Y028D02*
X0496D01*
X04965Y02795*
X03785Y02749D02*
X04264Y0227D01*
X03785Y02749D02*
Y02985D01*
X03935Y0293D02*
X0407Y03065D01*
X039Y0293D02*
X03935D01*
X04655Y02615D02*
X04765Y02505D01*
X04205Y02615D02*
X04655D01*
X04065Y02755D02*
X04205Y02615D01*
X0407Y0316D02*
X04245Y03335D01*
X0407Y03065D02*
Y0316D01*
X0389Y02775D02*
X03903Y02788D01*
X03821Y02973D02*
Y02976D01*
X04264Y0227D02*
X0498D01*
X03903Y02788D02*
Y02868D01*
X04049Y03015*
X0455*
X03821Y02976D02*
X03824Y02979D01*
X04245Y03335D02*
X0498D01*
G54D38*
X0374Y0269D02*
X03935Y02495D01*
X0374Y0269D02*
Y0306D01*
X03935Y02225D02*
Y02495D01*
X0269Y0197D02*
X0339D01*
X02555Y02105D02*
X0269Y0197D01*
X0346Y0224D02*
Y0228D01*
Y022D02*
Y0224D01*
Y0216D02*
Y022D01*
Y0212D02*
Y0216D01*
Y0204D02*
Y0212D01*
X0339Y0197D02*
X0346Y0204D01*
X0247Y0219D02*
Y0244D01*
Y0219D02*
X02555Y02105D01*
X0383Y0315D02*
X0384Y0316D01*
X0374Y0306D02*
X0383Y0315D01*
X0384Y032D02*
Y0324D01*
Y0316D02*
Y032D01*
X03935Y02185D02*
Y02225D01*
Y0215D02*
Y02185D01*
Y02115D02*
Y0215D01*
G54D39*
X0169Y02791D02*
Y03145D01*
X0356Y0335D02*
X03615Y03295D01*
X0287Y038D02*
X0295D01*
X02285Y02785D02*
Y0285D01*
X02215Y02715D02*
X02285Y02785D01*
X0169Y02791D02*
X01777Y02703D01*
Y02587D02*
Y02703D01*
X01735Y02545D02*
X01777Y02587D01*
X01665Y03815D02*
X0169Y0379D01*
Y0329D02*
Y0379D01*
Y03145D02*
Y0329D01*
X01965Y02715D02*
X02215D01*
X0295Y038D02*
X0327Y0348D01*
Y0323D02*
Y0348D01*
Y0323D02*
X0339Y0311D01*
Y02645D02*
Y0311D01*
X03365Y0262D02*
X0339Y02645D01*
X0331Y0262D02*
X03365D01*
X01965Y02535D02*
Y02715D01*
X01895Y02785D02*
X01965Y02715D01*
X03615Y03295D02*
X03865D01*
X03955Y0315D02*
Y03205D01*
X03865Y03295D02*
X03955Y03205D01*
Y0315D02*
X04005Y031D01*
G54D40*
X02465Y031D02*
X0258D01*
X02993Y02808D02*
X0306Y02875D01*
X03872Y02892D02*
Y02982D01*
X0201Y03075D02*
X0202D01*
X02055Y0304*
X0303Y03875D02*
X03295Y0361D01*
X01955Y0334D02*
X02097Y03482D01*
X02548*
X02555Y03475*
X01955Y0296D02*
Y0334D01*
X02055Y02845D02*
Y0304D01*
X0214Y03065D02*
X02235Y0297D01*
X0214Y03065D02*
Y0336D01*
X0217Y03065D02*
Y03375D01*
Y03065D02*
X0223Y03005D01*
X0214Y03405D02*
X0217Y03375D01*
X02307Y02777D02*
X02435Y02905D01*
X02307Y02775D02*
Y02777D01*
X02224Y02693D02*
X02307Y02775D01*
X02035Y02475D02*
X02435Y02875D01*
X02155Y02565D02*
X02445Y02855D01*
X01862Y02867D02*
X01955Y0296D01*
X01843Y02867D02*
X01862D01*
X01828Y02851D02*
X01843Y02867D01*
X01828Y02729D02*
Y02851D01*
Y02729D02*
X01831Y02725D01*
Y02331D02*
Y02725D01*
X01715Y02215D02*
X01831Y02331D01*
X02235Y0335D02*
X0226Y03325D01*
X02235Y0297D02*
X02595D01*
X0223Y03005D02*
X0261D01*
X02223Y02693D02*
X02224D01*
X01965Y02435D02*
X02223Y02693D01*
X03115Y02675D02*
X0333D01*
X0307Y0272D02*
X03115Y02675D01*
X0253Y0272D02*
X0307D01*
X03785Y02985D02*
X03805Y03005D01*
X02155Y0229D02*
Y02565D01*
X01775Y0233D02*
Y02365D01*
X01705Y0226D02*
X01775Y0233D01*
X01715Y0193D02*
Y02215D01*
X01615Y0256D02*
X01745Y0269D01*
X01615Y01935D02*
Y0256D01*
Y01935D02*
X0164Y0191D01*
X01695*
X01715Y0193*
X01965Y02335D02*
Y02435D01*
X02965Y02895D02*
X0312Y0305D01*
X02935Y02895D02*
X02965D01*
X0306Y0296D02*
X03229D01*
X02965Y02865D02*
X0306Y0296D01*
X03065Y0294D02*
X0321D01*
X0297Y02845D02*
X03065Y0294D01*
X03085Y02845D02*
X03205D01*
X03025Y02785D02*
X03085Y02845D01*
X0312Y02805D02*
X03185D01*
X03083Y02768D02*
X0312Y02805D01*
X02875Y0308D02*
X02935Y0314D01*
Y0331*
X03075Y0345*
X0255Y0316D02*
X02845Y02865D01*
X0258Y031D02*
X02835Y02845D01*
X0258Y03075D02*
X0283Y02825D01*
X0296Y03305D02*
X0308Y03425D01*
X0296Y03095D02*
Y03305D01*
X03075Y0345D02*
X0312D01*
X03123Y03452*
X03167*
X03195Y03425*
X02875Y02905D02*
X02977Y03007D01*
Y03267*
X03095Y03385*
X0284Y02975D02*
X0296Y03095D01*
X0462Y0256D02*
X04675Y02505D01*
X04155Y0256D02*
X0462D01*
X03927Y02788D02*
X04155Y0256D01*
X04075Y02495D02*
X0457D01*
X0386Y0271D02*
X04075Y02495D01*
X03927Y02788D02*
Y02847D01*
X0386Y0271D02*
Y02785D01*
X0402Y03155D02*
X04025D01*
X0386Y02975D02*
X03865D01*
X03805Y03005D02*
X0391D01*
X03872Y02892D02*
X03885Y0288D01*
Y0281D02*
Y0288D01*
X0386Y02785D02*
X03885Y0281D01*
X03865Y02975D02*
X03872Y02982D01*
X03925Y0285D02*
X0405Y02975D01*
X03925Y0285D02*
X03927Y02847D01*
X046Y0292D02*
X047Y0302D01*
X0405Y0292D02*
X046D01*
X04025Y03155D02*
X04425Y03555D01*
X0461*
X0308Y03425D02*
X03135D01*
X02825Y0325D02*
Y03445D01*
X0277Y03195D02*
X02825Y0325D01*
X03315Y0282D02*
X03323Y02828D01*
Y02866*
X03229Y0296D02*
X03323Y02866D01*
X02345Y0316D02*
X0255D01*
X02645Y03125D02*
X02715Y03195D01*
X0277*
X02435Y03075D02*
X0258D01*
X02425Y03085D02*
X02435Y03075D01*
X02835Y02845D02*
X0297D01*
X0283Y02825D02*
X02975D01*
X02845Y02865D02*
X02965D01*
X02975Y02825D02*
X0306Y0291D01*
Y0287D02*
Y02875D01*
X02472Y02808D02*
X02993D01*
X02455Y02825D02*
X02472Y02808D01*
X0312Y0305D02*
X03225D01*
X0306Y0291D02*
X03155D01*
X0321Y0294D02*
X03295Y02855D01*
X02675Y0332D02*
X02725Y0327D01*
X02755Y0323D02*
Y03415D01*
X02675Y0332D02*
Y0346D01*
X0275Y0342D02*
X02755Y03415D01*
X03245Y0275D02*
X0329Y02705D01*
X02505Y0275D02*
X03245D01*
X02475Y0272D02*
X02505Y0275D01*
X02468Y02768D02*
X03083D01*
X0238Y0272D02*
X02475D01*
X02365Y02735D02*
X0238Y0272D01*
X02455Y02755D02*
X02468Y02768D01*
X0261Y03005D02*
X02625Y0299D01*
Y02935D02*
Y0299D01*
X0325Y0282D02*
X03315D01*
X02465Y031D02*
Y03105D01*
X01975Y0319D02*
X02015Y0323D01*
X01975Y0305D02*
Y0319D01*
Y0305D02*
X0202Y03005D01*
X0214Y0336D02*
Y03365D01*
X02125Y03405D02*
X0214D01*
X02435Y02875D02*
X0254D01*
X02445Y02855D02*
X0262D01*
X0254Y02875D02*
X0255Y02885D01*
X02435Y02905D02*
X025D01*
X02425Y02785D02*
X03025D01*
X02035Y02305D02*
Y02475D01*
X0202Y0288D02*
Y03005D01*
G54D42*
X0303Y03875D02*
X03545D01*
X0226Y03325D02*
Y0335D01*
X0277Y03875D02*
X0303D01*
X01725D02*
X0277D01*
X01665Y03815D02*
X01725Y03875D01*
X0226Y0305D02*
Y03325D01*
Y0335D02*
X02515D01*
X02235D02*
X0226D01*
X02565Y034D02*
X02625Y0346D01*
X02515Y0335D02*
X02565Y034D01*
X02605Y03155D02*
Y0336D01*
X02565Y034D02*
X02605Y0336D01*
X02625Y0373D02*
X0277Y03875D01*
X02625Y0353D02*
Y0373D01*
Y0346D02*
Y0353D01*
X02235Y0335D02*
Y03415D01*
X022Y0345D02*
X02235Y03415D01*
X0211Y0345D02*
X022D01*
X0206Y034D02*
X0211Y0345D01*
X0206Y03305D02*
Y034D01*
Y03305D02*
X02107Y03257D01*
Y03027D02*
Y03257D01*
X0207Y03065D02*
X02107Y03027D01*
Y02945D02*
Y03027D01*
Y02945D02*
X0225Y02803D01*
X02221Y02775D02*
X0225Y02803D01*
X02005Y02775D02*
X02221D01*
X01935Y02845D02*
X02005Y02775D01*
X01895Y02845D02*
X01935D01*
X01855Y02805D02*
X01895Y02845D01*
X01855Y0274D02*
Y02805D01*
Y0274D02*
X01858Y02737D01*
Y02266D02*
Y02737D01*
Y02266D02*
X02165Y0196D01*
G54D45*
X0189Y03025D02*
Y03145D01*
X01803Y02938D02*
X0189Y03025D01*
X01803Y02719D02*
Y02938D01*
Y02719D02*
X01807Y02715D01*
Y02472D02*
Y02715D01*
X01665Y0233D02*
X01807Y02472D01*
X0189Y03145D02*
Y0329D01*
X01665Y0196D02*
Y0233D01*
X01925Y0339D02*
Y03775D01*
X0189Y0329D02*
Y03355D01*
X01925Y0339*
Y03775D02*
X01965Y03815D01*
G54D46*
X0305Y03085D02*
Y03155D01*
Y03085D02*
X03055Y0309D01*
X0263Y03525D02*
X0316D01*
X02625Y0353D02*
X0263Y03525D01*
X0305Y03155D02*
Y0328D01*
X0316Y03525D02*
X03235Y0345D01*
Y0334D02*
Y0345D01*
X0305Y03155D02*
X03235Y0334D01*
X02385Y01895D02*
X05755D01*
X022Y0208D02*
X02385Y01895D01*
X05755D02*
X0586Y02D01*
X022Y0208D02*
Y02375D01*
X0586Y02D02*
Y0208D01*
G54D48*
X01965Y03815D03*
X02165Y0196D03*
X0227Y0244D03*
X0189Y0329D03*
Y03145D03*
G54D49*
X01865Y03815D03*
X01765D03*
X01665D03*
Y0196D03*
X01765D03*
X01865D03*
X01965D03*
X02065D03*
X0247Y0244D03*
X0237D03*
X0179Y0329D03*
X0169D03*
X0179Y03145D03*
X0169D03*
G54D50*
X04738Y03805D03*
X04935D03*
X02555Y02105D03*
X02358D03*
X0599Y0197D03*
X0596Y025D03*
X05965Y03025D03*
G54D51*
X0526Y03648D03*
Y039D03*
G54D52*
X0342Y0343D03*
X0377Y0345D03*
G54D53*
X0524Y02795D03*
X0502Y025D03*
X05105Y03515D03*
X04845Y0303D03*
X0502Y03035D03*
X0614Y03895D03*
X0566Y0363D03*
X0583Y0362D03*
X05835Y03465D03*
X0583Y0314D03*
Y0293D03*
X05835Y0262D03*
Y02395D03*
X06125Y01975D03*
Y0209D03*
X0525Y0225D03*
Y0239D03*
X0524Y02925D03*
X05235Y0336D03*
X0523Y03495D03*
X04475Y0381D03*
X04355D03*
X04255D03*
X04285Y03645D03*
X04445Y0366D03*
X0442Y0346D03*
X04415Y03285D03*
X0442Y03135D03*
X04415Y02965D03*
Y02855D03*
X0442Y02665D03*
Y0235D03*
X04425Y02115D03*
X04495Y01955D03*
X047Y0196D03*
X0484Y01965D03*
X0498Y0197D03*
X02875Y0316D03*
X02505Y03575D03*
X0346Y03685D03*
X03055Y0309D03*
X0201Y03075D03*
X0287Y038D03*
X03295Y0361D03*
X02605Y03155D03*
X02235Y0335D03*
X0226Y0305D03*
X0207Y03065D03*
X0225Y02803D03*
X01735Y02545D03*
X0331Y0262D03*
X02285Y0285D03*
X01775Y02365D03*
X01705Y0226D03*
X01895Y02785D03*
X01965Y02535D03*
X02155Y0229D03*
X01965Y02335D03*
X0305Y0328D03*
X02875Y0308D03*
X03195Y03425D03*
X04765Y02505D03*
X04065Y02755D03*
X0345Y0373D03*
Y0377D03*
Y0381D03*
Y0385D03*
X0346Y03895D03*
X0348Y03925D03*
X03515Y0393D03*
X0355D03*
X03585D03*
X0362Y03925D03*
X03655Y0393D03*
X03695D03*
X0402Y03155D03*
X0383Y0315D03*
X0386Y02975D03*
X039Y0293D03*
X0389Y02775D03*
X0391Y03005D03*
X03824Y0275D03*
X03821Y02973D03*
X0384Y032D03*
X03935Y02115D03*
Y0215D03*
Y02185D03*
Y02225D03*
X0346Y0212D03*
X0384Y0324D03*
X04005Y031D03*
X022Y02375D03*
X0586Y0208D03*
X0346Y0228D03*
Y0224D03*
Y022D03*
Y0216D03*
X0372Y0367D03*
Y0363D03*
Y03765D03*
X04675Y02505D03*
X0405Y02975D03*
X047Y0302D03*
X0405Y0292D03*
X03955Y028D03*
X0498Y0227D03*
X0457Y02495D03*
X0461Y03555D03*
X0455Y03015D03*
X04965Y02795D03*
X0498Y03335D03*
X03135Y03425D03*
X0284Y02975D03*
X03095Y03385D03*
X02875Y02905D03*
X0306Y0287D03*
X02935Y02895D03*
X01745Y0269D03*
X02555Y03475D03*
X02825Y03445D03*
X02725Y0327D03*
X02755Y0323D03*
X02645Y03125D03*
X02675Y0346D03*
X0275Y0342D03*
X0329Y02705D03*
X0253Y0272D03*
X02455Y02755D03*
X02365Y02735D03*
X02345Y0316D03*
X03205Y02845D03*
X02465Y03105D03*
X03295Y02855D03*
X0325Y0282D03*
X03185Y02805D03*
X0333Y02675D03*
X03155Y0291D03*
X02425Y03085D03*
X02125Y03405D03*
X0255Y02885D03*
X025Y02905D03*
X03225Y0305D03*
X02425Y02785D03*
X02455Y02825D03*
X02035Y02305D03*
X02595Y0297D03*
X02625Y02935D03*
X02055Y02845D03*
X0202Y0288D03*
X0262Y02855D03*
X0214Y0336D03*
X02015Y0323D03*
G54D54*
X03645Y03039D03*
Y03192D03*
Y03141D03*
Y0309D03*
Y02988D03*
Y02936D03*
Y02885D03*
Y02834D03*
Y02783D03*
Y02732D03*
Y0268D03*
X03594Y03192D03*
Y03141D03*
Y0309D03*
Y03039D03*
Y02988D03*
Y02936D03*
Y02885D03*
Y02834D03*
Y02783D03*
Y02732D03*
Y0268D03*
X03543Y03192D03*
Y03141D03*
Y0309D03*
Y03039D03*
Y02988D03*
Y02936D03*
Y02885D03*
Y02834D03*
Y02783D03*
Y02732D03*
Y0268D03*
X03492Y03192D03*
Y03141D03*
Y0309D03*
Y03039D03*
Y02988D03*
Y02936D03*
Y02885D03*
Y02834D03*
Y02783D03*
Y02732D03*
Y0268D03*
M02*